G04 #@! TF.GenerationSoftware,KiCad,Pcbnew,5.1.5-52549c5~84~ubuntu18.04.1*
G04 #@! TF.CreationDate,2020-03-09T14:00:33-04:00*
G04 #@! TF.ProjectId,solenoid_board,736f6c65-6e6f-4696-945f-626f6172642e,rev?*
G04 #@! TF.SameCoordinates,Original*
G04 #@! TF.FileFunction,Copper,L1,Top*
G04 #@! TF.FilePolarity,Positive*
%FSLAX46Y46*%
G04 Gerber Fmt 4.6, Leading zero omitted, Abs format (unit mm)*
G04 Created by KiCad (PCBNEW 5.1.5-52549c5~84~ubuntu18.04.1) date 2020-03-09 14:00:33*
%MOMM*%
%LPD*%
G04 APERTURE LIST*
G04 #@! TA.AperFunction,Profile*
%ADD10C,0.050000*%
G04 #@! TD*
G04 #@! TA.AperFunction,ComponentPad*
%ADD11O,1.400000X1.400000*%
G04 #@! TD*
G04 #@! TA.AperFunction,ComponentPad*
%ADD12C,1.400000*%
G04 #@! TD*
G04 #@! TA.AperFunction,ComponentPad*
%ADD13C,1.524000*%
G04 #@! TD*
G04 #@! TA.AperFunction,ComponentPad*
%ADD14O,1.700000X1.700000*%
G04 #@! TD*
G04 #@! TA.AperFunction,ComponentPad*
%ADD15R,1.700000X1.700000*%
G04 #@! TD*
G04 #@! TA.AperFunction,SMDPad,CuDef*
%ADD16R,2.173199X0.568000*%
G04 #@! TD*
G04 #@! TA.AperFunction,SMDPad,CuDef*
%ADD17R,0.568000X1.454899*%
G04 #@! TD*
G04 #@! TA.AperFunction,ComponentPad*
%ADD18C,1.600000*%
G04 #@! TD*
G04 #@! TA.AperFunction,ComponentPad*
%ADD19R,1.600000X1.600000*%
G04 #@! TD*
G04 #@! TA.AperFunction,ComponentPad*
%ADD20C,1.200000*%
G04 #@! TD*
G04 #@! TA.AperFunction,ComponentPad*
%ADD21R,1.200000X1.200000*%
G04 #@! TD*
G04 #@! TA.AperFunction,SMDPad,CuDef*
%ADD22R,1.295400X0.558800*%
G04 #@! TD*
G04 #@! TA.AperFunction,ViaPad*
%ADD23C,1.800000*%
G04 #@! TD*
G04 #@! TA.AperFunction,ViaPad*
%ADD24C,0.800000*%
G04 #@! TD*
G04 #@! TA.AperFunction,Conductor*
%ADD25C,0.850000*%
G04 #@! TD*
G04 #@! TA.AperFunction,Conductor*
%ADD26C,5.000000*%
G04 #@! TD*
G04 #@! TA.AperFunction,Conductor*
%ADD27C,2.000000*%
G04 #@! TD*
G04 APERTURE END LIST*
D10*
X97000000Y-60000000D02*
X97000000Y-127000000D01*
X175000000Y-60000000D02*
X97000000Y-60000000D01*
X175000000Y-127000000D02*
X175000000Y-60000000D01*
X97000000Y-127000000D02*
X175000000Y-127000000D01*
D11*
G04 #@! TO.P,R104,2*
G04 #@! TO.N,/D6*
X152000000Y-109000000D03*
D12*
G04 #@! TO.P,R104,1*
G04 #@! TO.N,Net-(FET4-Pad2)*
X157080000Y-109000000D03*
G04 #@! TD*
D11*
G04 #@! TO.P,R3k3,2*
G04 #@! TO.N,GND*
X164580000Y-101500000D03*
D12*
G04 #@! TO.P,R3k3,1*
G04 #@! TO.N,Net-(FET3-Pad2)*
X159500000Y-101500000D03*
G04 #@! TD*
D11*
G04 #@! TO.P,R3k1,2*
G04 #@! TO.N,GND*
X167580000Y-86500000D03*
D12*
G04 #@! TO.P,R3k1,1*
G04 #@! TO.N,Net-(FET1-Pad2)*
X162500000Y-86500000D03*
G04 #@! TD*
D11*
G04 #@! TO.P,R3k4,2*
G04 #@! TO.N,GND*
X164580000Y-109000000D03*
D12*
G04 #@! TO.P,R3k4,1*
G04 #@! TO.N,Net-(FET4-Pad2)*
X159500000Y-109000000D03*
G04 #@! TD*
D11*
G04 #@! TO.P,R3k5,2*
G04 #@! TO.N,GND*
X164580000Y-116500000D03*
D12*
G04 #@! TO.P,R3k5,1*
G04 #@! TO.N,Net-(FET5-Pad2)*
X159500000Y-116500000D03*
G04 #@! TD*
D11*
G04 #@! TO.P,R3k0,2*
G04 #@! TO.N,GND*
X168080000Y-79000000D03*
D12*
G04 #@! TO.P,R3k0,1*
G04 #@! TO.N,Net-(FET0-Pad2)*
X163000000Y-79000000D03*
G04 #@! TD*
D11*
G04 #@! TO.P,R3k2,2*
G04 #@! TO.N,GND*
X164580000Y-93500000D03*
D12*
G04 #@! TO.P,R3k2,1*
G04 #@! TO.N,Net-(FET2-Pad2)*
X159500000Y-93500000D03*
G04 #@! TD*
D13*
G04 #@! TO.P,FET0,3*
G04 #@! TO.N,Net-(FET0-Pad3)*
X165040000Y-83000000D03*
G04 #@! TO.P,FET0,2*
G04 #@! TO.N,Net-(FET0-Pad2)*
X159960000Y-83000000D03*
G04 #@! TO.P,FET0,1*
G04 #@! TO.N,GND*
X162500000Y-83000000D03*
G04 #@! TD*
G04 #@! TO.P,FET5,3*
G04 #@! TO.N,Net-(FET5-Pad3)*
X162001200Y-120548400D03*
G04 #@! TO.P,FET5,2*
G04 #@! TO.N,Net-(FET5-Pad2)*
X156921200Y-120548400D03*
G04 #@! TO.P,FET5,1*
G04 #@! TO.N,GND*
X159461200Y-120548400D03*
G04 #@! TD*
G04 #@! TO.P,FET4,3*
G04 #@! TO.N,Net-(FET4-Pad3)*
X162204400Y-112928400D03*
G04 #@! TO.P,FET4,2*
G04 #@! TO.N,Net-(FET4-Pad2)*
X157124400Y-112928400D03*
G04 #@! TO.P,FET4,1*
G04 #@! TO.N,GND*
X159664400Y-112928400D03*
G04 #@! TD*
G04 #@! TO.P,FET3,3*
G04 #@! TO.N,Net-(FET3-Pad3)*
X162128200Y-105257600D03*
G04 #@! TO.P,FET3,2*
G04 #@! TO.N,Net-(FET3-Pad2)*
X157048200Y-105257600D03*
G04 #@! TO.P,FET3,1*
G04 #@! TO.N,GND*
X159588200Y-105257600D03*
G04 #@! TD*
G04 #@! TO.P,FET2,3*
G04 #@! TO.N,Net-(FET2-Pad3)*
X162128200Y-97586800D03*
G04 #@! TO.P,FET2,2*
G04 #@! TO.N,Net-(FET2-Pad2)*
X157048200Y-97586800D03*
G04 #@! TO.P,FET2,1*
G04 #@! TO.N,GND*
X159588200Y-97586800D03*
G04 #@! TD*
G04 #@! TO.P,FET1,3*
G04 #@! TO.N,Net-(FET1-Pad3)*
X165040000Y-90500000D03*
G04 #@! TO.P,FET1,2*
G04 #@! TO.N,Net-(FET1-Pad2)*
X159960000Y-90500000D03*
G04 #@! TO.P,FET1,1*
G04 #@! TO.N,GND*
X162500000Y-90500000D03*
G04 #@! TD*
D11*
G04 #@! TO.P,R105,2*
G04 #@! TO.N,/D5*
X152000000Y-116500000D03*
D12*
G04 #@! TO.P,R105,1*
G04 #@! TO.N,Net-(FET5-Pad2)*
X157080000Y-116500000D03*
G04 #@! TD*
D11*
G04 #@! TO.P,R103,2*
G04 #@! TO.N,/D9*
X151920000Y-101500000D03*
D12*
G04 #@! TO.P,R103,1*
G04 #@! TO.N,Net-(FET3-Pad2)*
X157000000Y-101500000D03*
G04 #@! TD*
D11*
G04 #@! TO.P,R102,2*
G04 #@! TO.N,/D10*
X151920000Y-93500000D03*
D12*
G04 #@! TO.P,R102,1*
G04 #@! TO.N,Net-(FET2-Pad2)*
X157000000Y-93500000D03*
G04 #@! TD*
D11*
G04 #@! TO.P,R101,2*
G04 #@! TO.N,/D11*
X154920000Y-86500000D03*
D12*
G04 #@! TO.P,R101,1*
G04 #@! TO.N,Net-(FET1-Pad2)*
X160000000Y-86500000D03*
G04 #@! TD*
D11*
G04 #@! TO.P,R100,2*
G04 #@! TO.N,/D12*
X154920000Y-79000000D03*
D12*
G04 #@! TO.P,R100,1*
G04 #@! TO.N,Net-(FET0-Pad2)*
X160000000Y-79000000D03*
G04 #@! TD*
D11*
G04 #@! TO.P,R11,2*
G04 #@! TO.N,Net-(Prt_IC1-Pad1)*
X126847600Y-118262400D03*
D12*
G04 #@! TO.P,R11,1*
G04 #@! TO.N,/B*
X126847600Y-123342400D03*
G04 #@! TD*
D11*
G04 #@! TO.P,R10,2*
G04 #@! TO.N,Net-(Prt_IC1-Pad2)*
X130708400Y-115722400D03*
D12*
G04 #@! TO.P,R10,1*
G04 #@! TO.N,/A*
X130708400Y-120802400D03*
G04 #@! TD*
D14*
G04 #@! TO.P,Solenoid_IN1,6*
G04 #@! TO.N,Net-(FET5-Pad3)*
X170942000Y-105359200D03*
G04 #@! TO.P,Solenoid_IN1,5*
G04 #@! TO.N,Net-(FET4-Pad3)*
X170942000Y-102819200D03*
G04 #@! TO.P,Solenoid_IN1,4*
G04 #@! TO.N,Net-(FET3-Pad3)*
X170942000Y-100279200D03*
G04 #@! TO.P,Solenoid_IN1,3*
G04 #@! TO.N,Net-(FET2-Pad3)*
X170942000Y-97739200D03*
G04 #@! TO.P,Solenoid_IN1,2*
G04 #@! TO.N,Net-(FET1-Pad3)*
X170942000Y-95199200D03*
D15*
G04 #@! TO.P,Solenoid_IN1,1*
G04 #@! TO.N,Net-(FET0-Pad3)*
X170942000Y-92659200D03*
G04 #@! TD*
D14*
G04 #@! TO.P,INP3_INP5,6*
G04 #@! TO.N,/INP3_0*
X104419400Y-93167200D03*
G04 #@! TO.P,INP3_INP5,5*
G04 #@! TO.N,/INP3_1*
X104419400Y-95707200D03*
G04 #@! TO.P,INP3_INP5,4*
G04 #@! TO.N,/INP4_0*
X104419400Y-98247200D03*
G04 #@! TO.P,INP3_INP5,3*
G04 #@! TO.N,/INP4_1*
X104419400Y-100787200D03*
G04 #@! TO.P,INP3_INP5,2*
G04 #@! TO.N,/INP5_0*
X104419400Y-103327200D03*
D15*
G04 #@! TO.P,INP3_INP5,1*
G04 #@! TO.N,/INP5_1*
X104419400Y-105867200D03*
G04 #@! TD*
D14*
G04 #@! TO.P,INP0_INP2,6*
G04 #@! TO.N,/INP0_0*
X104343200Y-75971400D03*
G04 #@! TO.P,INP0_INP2,5*
G04 #@! TO.N,/INP0_1*
X104343200Y-78511400D03*
G04 #@! TO.P,INP0_INP2,4*
G04 #@! TO.N,/INP1_0*
X104343200Y-81051400D03*
G04 #@! TO.P,INP0_INP2,3*
G04 #@! TO.N,/INP1_1*
X104343200Y-83591400D03*
G04 #@! TO.P,INP0_INP2,2*
G04 #@! TO.N,/INP2_0*
X104343200Y-86131400D03*
D15*
G04 #@! TO.P,INP0_INP2,1*
G04 #@! TO.N,/INP2_1*
X104343200Y-88671400D03*
G04 #@! TD*
D14*
G04 #@! TO.P,COMMS1,2*
G04 #@! TO.N,/A*
X135559800Y-120827800D03*
D15*
G04 #@! TO.P,COMMS1,1*
G04 #@! TO.N,/B*
X135559800Y-123367800D03*
G04 #@! TD*
D14*
G04 #@! TO.P,COMMS0,2*
G04 #@! TO.N,/A*
X139573000Y-120802400D03*
D15*
G04 #@! TO.P,COMMS0,1*
G04 #@! TO.N,/B*
X139573000Y-123342400D03*
G04 #@! TD*
G04 #@! TO.P,COMM_GND1,1*
G04 #@! TO.N,GND*
X171043600Y-74803000D03*
G04 #@! TD*
D14*
G04 #@! TO.P,+5VIN1,2*
G04 #@! TO.N,+5V*
X149326600Y-73456800D03*
D15*
G04 #@! TO.P,+5VIN1,1*
G04 #@! TO.N,GND*
X151866600Y-73456800D03*
G04 #@! TD*
G04 #@! TO.P,+48V_GND1,1*
G04 #@! TO.N,GND*
X171094400Y-70789800D03*
G04 #@! TD*
D14*
G04 #@! TO.P,+48V1,8*
G04 #@! TO.N,+48V*
X163245800Y-63131700D03*
G04 #@! TO.P,+48V1,7*
X160705800Y-63131700D03*
G04 #@! TO.P,+48V1,6*
X158165800Y-63131700D03*
G04 #@! TO.P,+48V1,5*
X155625800Y-63131700D03*
G04 #@! TO.P,+48V1,4*
X153085800Y-63131700D03*
G04 #@! TO.P,+48V1,3*
X150545800Y-63131700D03*
G04 #@! TO.P,+48V1,2*
X148005800Y-63131700D03*
D15*
G04 #@! TO.P,+48V1,1*
X145465800Y-63131700D03*
G04 #@! TD*
D14*
G04 #@! TO.P,+3V3_OUT1,6*
G04 #@! TO.N,+3V3*
X120091200Y-63576200D03*
G04 #@! TO.P,+3V3_OUT1,5*
X117551200Y-63576200D03*
G04 #@! TO.P,+3V3_OUT1,4*
X115011200Y-63576200D03*
G04 #@! TO.P,+3V3_OUT1,3*
X112471200Y-63576200D03*
G04 #@! TO.P,+3V3_OUT1,2*
X109931200Y-63576200D03*
D15*
G04 #@! TO.P,+3V3_OUT1,1*
X107391200Y-63576200D03*
G04 #@! TD*
D16*
G04 #@! TO.P,8b1,16*
G04 #@! TO.N,+3V3*
X112750600Y-83921600D03*
G04 #@! TO.P,8b1,15*
G04 #@! TO.N,GND*
X112750600Y-82651600D03*
G04 #@! TO.P,8b1,14*
G04 #@! TO.N,/INP1_1*
X112750600Y-81381600D03*
G04 #@! TO.P,8b1,13*
G04 #@! TO.N,/INP1_0*
X112750600Y-80111600D03*
G04 #@! TO.P,8b1,12*
G04 #@! TO.N,/INP0_1*
X112750600Y-78841600D03*
G04 #@! TO.P,8b1,11*
G04 #@! TO.N,/INP0_0*
X112750600Y-77571600D03*
G04 #@! TO.P,8b1,10*
G04 #@! TO.N,/SHIFT2_OUT*
X112750600Y-76301600D03*
G04 #@! TO.P,8b1,9*
G04 #@! TO.N,/MISO*
X112750600Y-75031600D03*
G04 #@! TO.P,8b1,8*
G04 #@! TO.N,GND*
X117475000Y-75031600D03*
G04 #@! TO.P,8b1,7*
G04 #@! TO.N,Net-(8b1-Pad7)*
X117475000Y-76301600D03*
G04 #@! TO.P,8b1,6*
G04 #@! TO.N,/INP3_1*
X117475000Y-77571600D03*
G04 #@! TO.P,8b1,5*
G04 #@! TO.N,/INP3_0*
X117475000Y-78841600D03*
G04 #@! TO.P,8b1,4*
G04 #@! TO.N,/INP2_1*
X117475000Y-80111600D03*
G04 #@! TO.P,8b1,3*
G04 #@! TO.N,/INP2_0*
X117475000Y-81381600D03*
G04 #@! TO.P,8b1,2*
G04 #@! TO.N,/SCK*
X117475000Y-82651600D03*
G04 #@! TO.P,8b1,1*
G04 #@! TO.N,/A0*
X117475000Y-83921600D03*
G04 #@! TD*
D17*
G04 #@! TO.P,RS-485,8*
G04 #@! TO.N,+3V3*
X141554200Y-115065548D03*
G04 #@! TO.P,RS-485,7*
G04 #@! TO.N,/B*
X140284200Y-115065548D03*
G04 #@! TO.P,RS-485,6*
G04 #@! TO.N,/A*
X139014200Y-115065548D03*
G04 #@! TO.P,RS-485,5*
G04 #@! TO.N,GND*
X137744200Y-115065548D03*
G04 #@! TO.P,RS-485,4*
G04 #@! TO.N,/TX1*
X137744200Y-109622852D03*
G04 #@! TO.P,RS-485,3*
G04 #@! TO.N,/A4*
X139014200Y-109622852D03*
G04 #@! TO.P,RS-485,2*
X140284200Y-109622852D03*
G04 #@! TO.P,RS-485,1*
G04 #@! TO.N,/RX0*
X141554200Y-109622852D03*
G04 #@! TD*
D18*
G04 #@! TO.P,CP0,2*
G04 #@! TO.N,GND*
X151852000Y-86588600D03*
D19*
G04 #@! TO.P,CP0,1*
G04 #@! TO.N,+5V*
X149352000Y-86588600D03*
G04 #@! TD*
D20*
G04 #@! TO.P,C0.1nF2,2*
G04 #@! TO.N,GND*
X112699800Y-88334600D03*
D21*
G04 #@! TO.P,C0.1nF2,1*
G04 #@! TO.N,+3V3*
X112699800Y-86334600D03*
G04 #@! TD*
D20*
G04 #@! TO.P,C0.1nF1,2*
G04 #@! TO.N,+3V3*
X112572800Y-108718600D03*
D21*
G04 #@! TO.P,C0.1nF1,1*
G04 #@! TO.N,GND*
X112572800Y-110718600D03*
G04 #@! TD*
D20*
G04 #@! TO.P,C0.1nF0,2*
G04 #@! TO.N,+3V3*
X144507200Y-115138200D03*
D21*
G04 #@! TO.P,C0.1nF0,1*
G04 #@! TO.N,GND*
X146507200Y-115138200D03*
G04 #@! TD*
D16*
G04 #@! TO.P,8b0,16*
G04 #@! TO.N,+3V3*
X112623600Y-105892600D03*
G04 #@! TO.P,8b0,15*
G04 #@! TO.N,GND*
X112623600Y-104622600D03*
G04 #@! TO.P,8b0,14*
G04 #@! TO.N,/INP5_1*
X112623600Y-103352600D03*
G04 #@! TO.P,8b0,13*
G04 #@! TO.N,/INP5_0*
X112623600Y-102082600D03*
G04 #@! TO.P,8b0,12*
G04 #@! TO.N,/INP4_1*
X112623600Y-100812600D03*
G04 #@! TO.P,8b0,11*
G04 #@! TO.N,/INP4_0*
X112623600Y-99542600D03*
G04 #@! TO.P,8b0,10*
G04 #@! TO.N,GND*
X112623600Y-98272600D03*
G04 #@! TO.P,8b0,9*
G04 #@! TO.N,/SHIFT2_OUT*
X112623600Y-97002600D03*
G04 #@! TO.P,8b0,8*
G04 #@! TO.N,GND*
X117348000Y-97002600D03*
G04 #@! TO.P,8b0,7*
G04 #@! TO.N,Net-(8b0-Pad7)*
X117348000Y-98272600D03*
G04 #@! TO.P,8b0,6*
G04 #@! TO.N,Net-(8b0-Pad6)*
X117348000Y-99542600D03*
G04 #@! TO.P,8b0,5*
G04 #@! TO.N,Net-(8b0-Pad5)*
X117348000Y-100812600D03*
G04 #@! TO.P,8b0,4*
G04 #@! TO.N,Net-(8b0-Pad4)*
X117348000Y-102082600D03*
G04 #@! TO.P,8b0,3*
G04 #@! TO.N,Net-(8b0-Pad3)*
X117348000Y-103352600D03*
G04 #@! TO.P,8b0,2*
G04 #@! TO.N,/SCK*
X117348000Y-104622600D03*
G04 #@! TO.P,8b0,1*
G04 #@! TO.N,/A0*
X117348000Y-105892600D03*
G04 #@! TD*
D22*
G04 #@! TO.P,Prt_IC1,3*
G04 #@! TO.N,GND*
X135420100Y-115366800D03*
G04 #@! TO.P,Prt_IC1,2*
G04 #@! TO.N,Net-(Prt_IC1-Pad2)*
X133515100Y-116316801D03*
G04 #@! TO.P,Prt_IC1,1*
G04 #@! TO.N,Net-(Prt_IC1-Pad1)*
X133515100Y-114416799D03*
G04 #@! TD*
D14*
G04 #@! TO.P,J3,12*
G04 #@! TO.N,/SDA*
X145719800Y-109474000D03*
G04 #@! TO.P,J3,11*
G04 #@! TO.N,/SCL*
X145719800Y-106934000D03*
G04 #@! TO.P,J3,10*
G04 #@! TO.N,/D5*
X145719800Y-104394000D03*
G04 #@! TO.P,J3,9*
G04 #@! TO.N,/D6*
X145719800Y-101854000D03*
G04 #@! TO.P,J3,8*
G04 #@! TO.N,/D9*
X145719800Y-99314000D03*
G04 #@! TO.P,J3,7*
G04 #@! TO.N,/D10*
X145719800Y-96774000D03*
G04 #@! TO.P,J3,6*
G04 #@! TO.N,/D11*
X145719800Y-94234000D03*
G04 #@! TO.P,J3,5*
G04 #@! TO.N,/D12*
X145719800Y-91694000D03*
G04 #@! TO.P,J3,4*
G04 #@! TO.N,/D13*
X145719800Y-89154000D03*
G04 #@! TO.P,J3,3*
G04 #@! TO.N,+5V*
X145719800Y-86614000D03*
G04 #@! TO.P,J3,2*
G04 #@! TO.N,/En*
X145719800Y-84074000D03*
D15*
G04 #@! TO.P,J3,1*
G04 #@! TO.N,/BAT*
X145719800Y-81534000D03*
G04 #@! TD*
D14*
G04 #@! TO.P,J2,16*
G04 #@! TO.N,GND*
X125399800Y-109474000D03*
G04 #@! TO.P,J2,15*
G04 #@! TO.N,/TX1*
X125399800Y-106934000D03*
G04 #@! TO.P,J2,14*
G04 #@! TO.N,/RX0*
X125399800Y-104394000D03*
G04 #@! TO.P,J2,13*
G04 #@! TO.N,/MISO*
X125399800Y-101854000D03*
G04 #@! TO.P,J2,12*
G04 #@! TO.N,/MOSI*
X125399800Y-99314000D03*
G04 #@! TO.P,J2,11*
G04 #@! TO.N,/SCK*
X125399800Y-96774000D03*
G04 #@! TO.P,J2,10*
G04 #@! TO.N,/A5*
X125399800Y-94234000D03*
G04 #@! TO.P,J2,9*
G04 #@! TO.N,/A4*
X125399800Y-91694000D03*
G04 #@! TO.P,J2,8*
G04 #@! TO.N,/A3*
X125399800Y-89154000D03*
G04 #@! TO.P,J2,7*
G04 #@! TO.N,/A2*
X125399800Y-86614000D03*
G04 #@! TO.P,J2,6*
G04 #@! TO.N,/A1*
X125399800Y-84074000D03*
G04 #@! TO.P,J2,5*
G04 #@! TO.N,/A0*
X125399800Y-81534000D03*
G04 #@! TO.P,J2,4*
G04 #@! TO.N,GND*
X125399800Y-78994000D03*
G04 #@! TO.P,J2,3*
G04 #@! TO.N,/ARf*
X125399800Y-76454000D03*
G04 #@! TO.P,J2,2*
G04 #@! TO.N,+3V3*
X125399800Y-73914000D03*
D15*
G04 #@! TO.P,J2,1*
G04 #@! TO.N,/RST*
X125399800Y-71374000D03*
G04 #@! TD*
D23*
G04 #@! TO.N,/INP3_1*
X111925100Y-93014800D03*
X119735600Y-77000100D03*
G04 #@! TO.N,/INP3_0*
X110655100Y-90449400D03*
X120700800Y-75171300D03*
G04 #@! TO.N,/INP2_1*
X121119900Y-80238600D03*
G04 #@! TO.N,/INP2_0*
X114871500Y-71729600D03*
G04 #@! TO.N,GND*
X136398900Y-117475000D03*
D24*
X109880400Y-98259900D03*
D23*
X120230900Y-96056299D03*
X121780300Y-110223300D03*
X121780300Y-114604800D03*
X129311400Y-73926700D03*
X117449600Y-72466200D03*
X109061401Y-106248200D03*
X110007400Y-83185000D03*
X108242100Y-112102900D03*
X108407200Y-71196200D03*
G04 #@! TO.N,/A4*
X132181600Y-107238800D03*
G04 #@! TO.N,/A0*
X121970800Y-85826600D03*
X120142000Y-107556300D03*
G04 #@! TO.N,/SHIFT2_OUT*
X107619800Y-97332800D03*
X109753400Y-75755500D03*
G04 #@! TO.N,+3V3*
X109004100Y-86601300D03*
G04 #@! TD*
D25*
G04 #@! TO.N,/INP5_1*
X111612937Y-103352600D02*
X112623600Y-103352600D01*
X104419400Y-105867200D02*
X104508300Y-105867200D01*
X104508300Y-105867200D02*
X106527600Y-103847900D01*
X106527600Y-103847900D02*
X106527600Y-103809800D01*
X106984800Y-103352600D02*
X112623600Y-103352600D01*
X106527600Y-103809800D02*
X106984800Y-103352600D01*
G04 #@! TO.N,/INP5_0*
X111397999Y-102082600D02*
X112623600Y-102082600D01*
X105664000Y-102082600D02*
X112623600Y-102082600D01*
X104419400Y-103327200D02*
X105664000Y-102082600D01*
G04 #@! TO.N,/INP4_1*
X112598200Y-100787200D02*
X112623600Y-100812600D01*
X104419400Y-100787200D02*
X112598200Y-100787200D01*
G04 #@! TO.N,/INP4_0*
X105714800Y-99542600D02*
X104419400Y-98247200D01*
X112623600Y-99542600D02*
X105714800Y-99542600D01*
G04 #@! TO.N,/INP3_1*
X104419400Y-95707200D02*
X109232700Y-95707200D01*
X109232700Y-95707200D02*
X111925100Y-93014800D01*
X111925100Y-93014800D02*
X111925100Y-93014800D01*
X119164100Y-77571600D02*
X117475000Y-77571600D01*
X119735600Y-77000100D02*
X119164100Y-77571600D01*
G04 #@! TO.N,/INP3_0*
X104419400Y-93167200D02*
X107937300Y-93167200D01*
X107937300Y-93167200D02*
X110655100Y-90449400D01*
X110655100Y-90449400D02*
X110655100Y-90449400D01*
X121600799Y-76071299D02*
X121600799Y-77522501D01*
X120700800Y-75171300D02*
X121600799Y-76071299D01*
X120281700Y-78841600D02*
X117475000Y-78841600D01*
X121600799Y-77522501D02*
X120281700Y-78841600D01*
G04 #@! TO.N,/INP2_1*
X117602000Y-80238600D02*
X117475000Y-80111600D01*
X121119900Y-80238600D02*
X117602000Y-80238600D01*
G04 #@! TO.N,/INP2_0*
X119411599Y-81381600D02*
X117475000Y-81381600D01*
X117525800Y-69075300D02*
X121551700Y-69075300D01*
X114871500Y-71729600D02*
X117525800Y-69075300D01*
X121551700Y-69075300D02*
X123075700Y-70599300D01*
X123075700Y-70599300D02*
X123075700Y-80733900D01*
X121557899Y-82251701D02*
X120281700Y-82251701D01*
X120281700Y-82251701D02*
X119411599Y-81381600D01*
X123075700Y-80733900D02*
X121557899Y-82251701D01*
G04 #@! TO.N,/INP1_1*
X106553000Y-81381600D02*
X104343200Y-83591400D01*
X112750600Y-81381600D02*
X106553000Y-81381600D01*
G04 #@! TO.N,/INP1_0*
X105283000Y-80111600D02*
X104343200Y-81051400D01*
X112750600Y-80111600D02*
X105283000Y-80111600D01*
G04 #@! TO.N,/INP0_1*
X104673400Y-78841600D02*
X104343200Y-78511400D01*
X112750600Y-78841600D02*
X104673400Y-78841600D01*
G04 #@! TO.N,/INP0_0*
X110814001Y-77571600D02*
X112750600Y-77571600D01*
X107145481Y-77571600D02*
X110814001Y-77571600D01*
X105545281Y-75971400D02*
X107145481Y-77571600D01*
X104343200Y-75971400D02*
X105545281Y-75971400D01*
G04 #@! TO.N,GND*
X135420100Y-116496200D02*
X136398900Y-117475000D01*
X135420100Y-115366800D02*
X135420100Y-116496200D01*
X136398900Y-117475000D02*
X136398900Y-117475000D01*
X137744200Y-116129700D02*
X136398900Y-117475000D01*
X137744200Y-115065548D02*
X137744200Y-116129700D01*
X110687001Y-98272600D02*
X110674301Y-98259900D01*
X112623600Y-98272600D02*
X110687001Y-98272600D01*
X110674301Y-98259900D02*
X109880400Y-98259900D01*
X109880400Y-98259900D02*
X109880400Y-98259900D01*
X119284599Y-97002600D02*
X120230900Y-96056299D01*
X117348000Y-97002600D02*
X119284599Y-97002600D01*
X120230900Y-96056299D02*
X120230900Y-96056299D01*
X121780300Y-110223300D02*
X121780300Y-111496092D01*
X121780300Y-111496092D02*
X121780300Y-114604800D01*
X121780300Y-114604800D02*
X121780300Y-114604800D01*
X129311400Y-73926700D02*
X129311400Y-78257400D01*
X128574800Y-78994000D02*
X125399800Y-78994000D01*
X129311400Y-78257400D02*
X128574800Y-78994000D01*
X117475000Y-73897600D02*
X117449600Y-73872200D01*
X117475000Y-75031600D02*
X117475000Y-73897600D01*
X117449600Y-73872200D02*
X117449600Y-72466200D01*
X117449600Y-72466200D02*
X117449600Y-72466200D01*
X110687001Y-104622600D02*
X109061401Y-106248200D01*
X112623600Y-104622600D02*
X110687001Y-104622600D01*
X109061401Y-106248200D02*
X109061401Y-106248200D01*
X112750600Y-82651600D02*
X110540800Y-82651600D01*
X110540800Y-82651600D02*
X110007400Y-83185000D01*
X110007400Y-83185000D02*
X110007400Y-83185000D01*
X108242100Y-112102900D02*
X100812600Y-112102900D01*
X100812600Y-112102900D02*
X99504500Y-110794800D01*
X99504500Y-110794800D02*
X99504500Y-75158600D01*
X99504500Y-75158600D02*
X103466900Y-71196200D01*
X103466900Y-71196200D02*
X108407200Y-71196200D01*
X108407200Y-71196200D02*
X108407200Y-71196200D01*
G04 #@! TO.N,/TX1*
X128088652Y-109622852D02*
X125399800Y-106934000D01*
X137744200Y-109622852D02*
X128088652Y-109622852D01*
G04 #@! TO.N,/RX0*
X126601881Y-104394000D02*
X125399800Y-104394000D01*
X137902797Y-104394000D02*
X126601881Y-104394000D01*
X141554200Y-108045403D02*
X137902797Y-104394000D01*
X141554200Y-109622852D02*
X141554200Y-108045403D01*
G04 #@! TO.N,/MISO*
X112750600Y-71386700D02*
X112750600Y-75031600D01*
X116674900Y-67462400D02*
X112750600Y-71386700D01*
X126601881Y-101854000D02*
X126614581Y-101866700D01*
X125399800Y-101854000D02*
X126601881Y-101854000D01*
X132613400Y-100025200D02*
X132613400Y-68859400D01*
X131216400Y-67462400D02*
X116674900Y-67462400D01*
X132613400Y-68859400D02*
X131216400Y-67462400D01*
X126614581Y-101866700D02*
X130771900Y-101866700D01*
X130771900Y-101866700D02*
X132613400Y-100025200D01*
G04 #@! TO.N,/SCK*
X115411401Y-104622600D02*
X115036600Y-104247799D01*
X117348000Y-104622600D02*
X115411401Y-104622600D01*
X115538401Y-82651600D02*
X117475000Y-82651600D01*
X115036600Y-83153401D02*
X115538401Y-82651600D01*
X115036600Y-104247799D02*
X115036600Y-83153401D01*
X124197719Y-96774000D02*
X121272300Y-99699419D01*
X125399800Y-96774000D02*
X124197719Y-96774000D01*
X121272300Y-99699419D02*
X121272300Y-103492300D01*
X120142000Y-104622600D02*
X117348000Y-104622600D01*
X121272300Y-103492300D02*
X120142000Y-104622600D01*
G04 #@! TO.N,/A4*
X140284200Y-109622852D02*
X139014200Y-109622852D01*
X139014200Y-108045403D02*
X138207597Y-107238800D01*
X139014200Y-109622852D02*
X139014200Y-108045403D01*
X138207597Y-107238800D02*
X132181600Y-107238800D01*
X132181600Y-107238800D02*
X132181600Y-107238800D01*
G04 #@! TO.N,/A0*
X119411599Y-83921600D02*
X117475000Y-83921600D01*
X121810119Y-83921600D02*
X119411599Y-83921600D01*
X124197719Y-81534000D02*
X121810119Y-83921600D01*
X125399800Y-81534000D02*
X124197719Y-81534000D01*
X119011700Y-107556300D02*
X117348000Y-105892600D01*
X120142000Y-107556300D02*
X119011700Y-107556300D01*
X121970800Y-84082281D02*
X121970800Y-85826600D01*
X121810119Y-83921600D02*
X121970800Y-84082281D01*
G04 #@! TO.N,/D6*
X152000000Y-106932119D02*
X152000000Y-108010051D01*
X145719800Y-101854000D02*
X146921881Y-101854000D01*
X146921881Y-101854000D02*
X152000000Y-106932119D01*
X152000000Y-108010051D02*
X152000000Y-109000000D01*
G04 #@! TO.N,/D9*
X146921881Y-99314000D02*
X147235881Y-99000000D01*
X145719800Y-99314000D02*
X146921881Y-99314000D01*
X147235881Y-99000000D02*
X150500000Y-99000000D01*
X150500000Y-99000000D02*
X152000000Y-100500000D01*
X152000000Y-100500000D02*
X152000000Y-101500000D01*
G04 #@! TO.N,/D10*
X146921881Y-96774000D02*
X147195881Y-96500000D01*
X145719800Y-96774000D02*
X146921881Y-96774000D01*
X147195881Y-96500000D02*
X150500000Y-96500000D01*
X150500000Y-96500000D02*
X152000000Y-95000000D01*
X152000000Y-95000000D02*
X152000000Y-93500000D01*
G04 #@! TO.N,/D11*
X145719800Y-94234000D02*
X148266000Y-94234000D01*
X148266000Y-94234000D02*
X151000000Y-91500000D01*
X151000000Y-91500000D02*
X152500000Y-91500000D01*
X152500000Y-91500000D02*
X154000000Y-90000000D01*
X154000000Y-90000000D02*
X154000000Y-87500000D01*
X154000000Y-87500000D02*
X155000000Y-86500000D01*
D26*
G04 #@! TO.N,+48V*
X163245800Y-63131700D02*
X145465800Y-63131700D01*
D25*
G04 #@! TO.N,/SHIFT2_OUT*
X110299500Y-76301600D02*
X112750600Y-76301600D01*
X109753400Y-75755500D02*
X110299500Y-76301600D01*
X107950000Y-97002600D02*
X107619800Y-97332800D01*
X112623600Y-97002600D02*
X107950000Y-97002600D01*
G04 #@! TO.N,+5V*
X145745200Y-86588600D02*
X145719800Y-86614000D01*
X149352000Y-86588600D02*
X145745200Y-86588600D01*
D27*
X149204000Y-73500000D02*
X149500000Y-73500000D01*
D25*
X149352000Y-86588600D02*
X149352000Y-73648000D01*
X149352000Y-73648000D02*
X149500000Y-73500000D01*
X149500000Y-73500000D02*
X149000000Y-73500000D01*
G04 #@! TO.N,+3V3*
X141626852Y-115138200D02*
X141554200Y-115065548D01*
X144507200Y-115138200D02*
X141626852Y-115138200D01*
X112572800Y-105943400D02*
X112623600Y-105892600D01*
X112572800Y-108718600D02*
X112572800Y-105943400D01*
X112699800Y-83972400D02*
X112750600Y-83921600D01*
X112699800Y-86334600D02*
X112699800Y-83972400D01*
X108953300Y-86550500D02*
X109004100Y-86601300D01*
X112433100Y-86601300D02*
X112699800Y-86334600D01*
X109004100Y-86601300D02*
X112433100Y-86601300D01*
D27*
X110241200Y-63576200D02*
X110317400Y-63500000D01*
X107391200Y-63576200D02*
X110241200Y-63576200D01*
X110317400Y-63500000D02*
X120000000Y-63500000D01*
D25*
G04 #@! TO.N,Net-(FET0-Pad2)*
X160000000Y-79000000D02*
X160000000Y-79989949D01*
X160000000Y-79989949D02*
X160000000Y-83000000D01*
X160000000Y-79000000D02*
X163000000Y-79000000D01*
G04 #@! TO.N,Net-(FET1-Pad2)*
X162500000Y-86500000D02*
X160000000Y-86500000D01*
X159960000Y-90500000D02*
X159960000Y-86540000D01*
X159960000Y-86540000D02*
X160000000Y-86500000D01*
G04 #@! TO.N,Net-(FET2-Pad2)*
X159500000Y-93500000D02*
X157000000Y-93500000D01*
X157000000Y-93500000D02*
X157000000Y-97500000D01*
D27*
G04 #@! TO.N,Net-(FET3-Pad3)*
X162128200Y-105257600D02*
X164742400Y-105257600D01*
X164742400Y-105257600D02*
X169500000Y-100500000D01*
X169500000Y-100500000D02*
X170500000Y-100500000D01*
D25*
G04 #@! TO.N,Net-(FET3-Pad2)*
X159500000Y-101500000D02*
X157000000Y-101500000D01*
X157000000Y-101500000D02*
X157000000Y-105500000D01*
X157000000Y-105500000D02*
X157500000Y-105500000D01*
G04 #@! TO.N,Net-(FET4-Pad2)*
X159500000Y-109000000D02*
X158510051Y-109000000D01*
X158510051Y-109000000D02*
X157000000Y-109000000D01*
X157000000Y-109000000D02*
X157000000Y-113000000D01*
G04 #@! TO.N,Net-(FET5-Pad2)*
X157000000Y-120600000D02*
X156800000Y-120600000D01*
X159500000Y-116500000D02*
X158510051Y-116500000D01*
X158510051Y-116500000D02*
X157000000Y-116500000D01*
X157000000Y-116500000D02*
X157000000Y-120500000D01*
G04 #@! TO.N,Net-(Prt_IC1-Pad2)*
X131302801Y-116316801D02*
X130708400Y-115722400D01*
X133515100Y-116316801D02*
X131302801Y-116316801D01*
G04 #@! TO.N,Net-(Prt_IC1-Pad1)*
X126847600Y-118262400D02*
X126847600Y-115468400D01*
X126847600Y-115468400D02*
X128625600Y-113690400D01*
X132017400Y-114416799D02*
X133515100Y-114416799D01*
X131291001Y-113690400D02*
X132017400Y-114416799D01*
X128625600Y-113690400D02*
X131291001Y-113690400D01*
G04 #@! TO.N,/A*
X139014200Y-120243600D02*
X139573000Y-120802400D01*
X139014200Y-115065548D02*
X139014200Y-120243600D01*
X135585200Y-120802400D02*
X135559800Y-120827800D01*
X139573000Y-120802400D02*
X135585200Y-120802400D01*
G04 #@! TO.N,/B*
X140284200Y-115065548D02*
X140284200Y-117729000D01*
X140284200Y-117729000D02*
X142240000Y-119684800D01*
X142240000Y-119684800D02*
X142240000Y-122453400D01*
X141351000Y-123342400D02*
X139573000Y-123342400D01*
X142240000Y-122453400D02*
X141351000Y-123342400D01*
X135585200Y-123342400D02*
X135559800Y-123367800D01*
X139573000Y-123342400D02*
X135585200Y-123342400D01*
G04 #@! TD*
M02*
