M48
; DRILL file {KiCad 5.1.5-52549c5~84~ubuntu18.04.1} date Mon 03 Feb 2020 02:14:45 PM EST
; FORMAT={-:-/ absolute / inch / decimal}
; #@! TF.CreationDate,2020-02-03T14:14:45-05:00
; #@! TF.GenerationSoftware,Kicad,Pcbnew,5.1.5-52549c5~84~ubuntu18.04.1
; #@! TF.FileFunction,Plated,1,2,PTH
FMAT,2
INCH
T1C0.0157
T2C0.0236
T3C0.0315
T4C0.0350
T5C0.0394
T6C0.0404
T7C0.0433
T8C0.0598
T9C0.0618
%
G90
G05
T1
X4.175Y-2.73
X4.255Y-3.66
X4.2844Y-3.5
X4.285Y-2.795
X4.35Y-3.045
X4.35Y-3.91
X4.605Y-3.55
X4.638Y-3.422
X4.65Y-2.68
X4.715Y-3.84
X4.74Y-2.495
X4.77Y-3.385
X4.78Y-3.165
X4.795Y-3.75
X4.795Y-4.015
X4.835Y-2.895
X4.84Y-4.55
X4.845Y-3.32
X4.845Y-3.87
X4.85Y-2.815
X4.9Y-3.265
X4.93Y-3.995
X4.945Y-3.155
X4.9457Y-3.3957
X4.9457Y-3.8957
X5.395Y-4.32
X5.485Y-3.825
X5.535Y-4.415
X5.585Y-4.02
X5.635Y-4.45
T2
X5.7863Y-4.325
X5.865Y-4.325
X4.45Y-3.19
X4.45Y-3.2687
X4.445Y-4.0713
X4.445Y-4.15
T3
X6.065Y-3.18
X6.1634Y-3.18
T4
X5.62Y-4.83
X5.66Y-4.93
X5.7Y-4.83
X5.74Y-4.93
X5.78Y-4.83
X5.82Y-4.93
X5.9Y-4.93
X5.94Y-4.83
X5.98Y-4.93
X6.02Y-4.83
X6.06Y-4.93
X6.1Y-4.83
X4.7Y-4.825
X4.74Y-4.925
X4.78Y-4.825
X4.82Y-4.925
X4.86Y-4.825
X4.9Y-4.925
X4.98Y-4.925
X5.02Y-4.825
X5.06Y-4.925
X5.1Y-4.825
X5.14Y-4.925
X5.18Y-4.825
T5
X5.11Y-2.58
X5.11Y-2.68
X5.11Y-2.78
X5.11Y-2.88
X5.11Y-2.98
X5.11Y-3.08
X5.11Y-3.18
X5.11Y-3.28
X5.11Y-3.38
X5.11Y-3.48
X5.11Y-3.58
X5.11Y-3.68
X5.11Y-3.78
X5.11Y-3.88
X5.11Y-3.98
X5.11Y-4.08
X5.91Y-2.98
X5.91Y-3.08
X5.91Y-3.18
X5.91Y-3.28
X5.91Y-3.38
X5.91Y-3.48
X5.91Y-3.58
X5.91Y-3.68
X5.91Y-3.78
X5.91Y-3.88
X5.91Y-3.98
X5.91Y-4.08
X6.68Y-5.34
T6
X5.62Y-4.73
X5.72Y-4.73
X6.0Y-4.73
X6.1Y-4.73
X4.7Y-4.725
X4.8Y-4.725
X5.08Y-4.725
X5.18Y-4.725
T7
X6.655Y-4.22
X6.755Y-4.22
X6.855Y-4.22
X6.645Y-3.76
X6.745Y-3.76
X6.845Y-3.76
X6.655Y-3.36
X6.755Y-3.36
X6.855Y-3.36
X6.655Y-4.62
X6.755Y-4.62
X6.855Y-4.62
X6.655Y-2.96
X6.755Y-2.96
X6.855Y-2.96
X6.655Y-5.02
X6.755Y-5.02
X6.855Y-5.02
T8
X3.855Y-4.235
X3.855Y-4.435
X3.855Y-3.255
X3.855Y-3.455
X3.855Y-4.715
X3.855Y-4.915
X3.85Y-2.29
X4.05Y-2.29
X4.25Y-2.29
X4.45Y-2.29
X4.65Y-2.29
X4.85Y-2.29
X7.19Y-2.255
X7.19Y-2.455
X7.205Y-4.22
X7.205Y-4.42
X7.205Y-4.62
X7.205Y-4.82
X7.205Y-5.02
X7.205Y-5.22
X3.855Y-3.755
X3.855Y-3.955
X3.855Y-2.755
X3.855Y-2.955
X7.2Y-2.96
X7.2Y-3.16
X7.2Y-3.36
X7.2Y-3.56
X7.2Y-3.76
X7.2Y-3.96
X6.61Y-2.305
X6.81Y-2.305
X3.855Y-5.195
X3.855Y-5.395
T9
X5.5425Y-5.655
X6.1775Y-5.655
X4.6225Y-5.65
X5.2575Y-5.65
T0
M30
