G04 #@! TF.GenerationSoftware,KiCad,Pcbnew,5.1.5-52549c5~84~ubuntu18.04.1*
G04 #@! TF.CreationDate,2020-02-03T14:14:35-05:00*
G04 #@! TF.ProjectId,solenoid_board,736f6c65-6e6f-4696-945f-626f6172642e,rev?*
G04 #@! TF.SameCoordinates,Original*
G04 #@! TF.FileFunction,Legend,Top*
G04 #@! TF.FilePolarity,Positive*
%FSLAX46Y46*%
G04 Gerber Fmt 4.6, Leading zero omitted, Abs format (unit mm)*
G04 Created by KiCad (PCBNEW 5.1.5-52549c5~84~ubuntu18.04.1) date 2020-02-03 14:14:35*
%MOMM*%
%LPD*%
G04 APERTURE LIST*
%ADD10C,0.150000*%
G04 #@! TA.AperFunction,Profile*
%ADD11C,0.100000*%
G04 #@! TD*
%ADD12C,0.120000*%
%ADD13C,0.152400*%
G04 APERTURE END LIST*
D10*
X180991428Y-138136380D02*
X181086666Y-138136380D01*
X181181904Y-138184000D01*
X181229523Y-138231619D01*
X181277142Y-138326857D01*
X181324761Y-138517333D01*
X181324761Y-138755428D01*
X181277142Y-138945904D01*
X181229523Y-139041142D01*
X181181904Y-139088761D01*
X181086666Y-139136380D01*
X180991428Y-139136380D01*
X180896190Y-139088761D01*
X180848571Y-139041142D01*
X180800952Y-138945904D01*
X180753333Y-138755428D01*
X180753333Y-138517333D01*
X180800952Y-138326857D01*
X180848571Y-138231619D01*
X180896190Y-138184000D01*
X180991428Y-138136380D01*
X181705714Y-138231619D02*
X181753333Y-138184000D01*
X181848571Y-138136380D01*
X182086666Y-138136380D01*
X182181904Y-138184000D01*
X182229523Y-138231619D01*
X182277142Y-138326857D01*
X182277142Y-138422095D01*
X182229523Y-138564952D01*
X181658095Y-139136380D01*
X182277142Y-139136380D01*
X183420000Y-138088761D02*
X182562857Y-139374476D01*
X183943809Y-138136380D02*
X184039047Y-138136380D01*
X184134285Y-138184000D01*
X184181904Y-138231619D01*
X184229523Y-138326857D01*
X184277142Y-138517333D01*
X184277142Y-138755428D01*
X184229523Y-138945904D01*
X184181904Y-139041142D01*
X184134285Y-139088761D01*
X184039047Y-139136380D01*
X183943809Y-139136380D01*
X183848571Y-139088761D01*
X183800952Y-139041142D01*
X183753333Y-138945904D01*
X183705714Y-138755428D01*
X183705714Y-138517333D01*
X183753333Y-138326857D01*
X183800952Y-138231619D01*
X183848571Y-138184000D01*
X183943809Y-138136380D01*
X184610476Y-138136380D02*
X185229523Y-138136380D01*
X184896190Y-138517333D01*
X185039047Y-138517333D01*
X185134285Y-138564952D01*
X185181904Y-138612571D01*
X185229523Y-138707809D01*
X185229523Y-138945904D01*
X185181904Y-139041142D01*
X185134285Y-139088761D01*
X185039047Y-139136380D01*
X184753333Y-139136380D01*
X184658095Y-139088761D01*
X184610476Y-139041142D01*
X186372380Y-138088761D02*
X185515238Y-139374476D01*
X186658095Y-138231619D02*
X186705714Y-138184000D01*
X186800952Y-138136380D01*
X187039047Y-138136380D01*
X187134285Y-138184000D01*
X187181904Y-138231619D01*
X187229523Y-138326857D01*
X187229523Y-138422095D01*
X187181904Y-138564952D01*
X186610476Y-139136380D01*
X187229523Y-139136380D01*
X187848571Y-138136380D02*
X187943809Y-138136380D01*
X188039047Y-138184000D01*
X188086666Y-138231619D01*
X188134285Y-138326857D01*
X188181904Y-138517333D01*
X188181904Y-138755428D01*
X188134285Y-138945904D01*
X188086666Y-139041142D01*
X188039047Y-139088761D01*
X187943809Y-139136380D01*
X187848571Y-139136380D01*
X187753333Y-139088761D01*
X187705714Y-139041142D01*
X187658095Y-138945904D01*
X187610476Y-138755428D01*
X187610476Y-138517333D01*
X187658095Y-138326857D01*
X187705714Y-138231619D01*
X187753333Y-138184000D01*
X187848571Y-138136380D01*
X188562857Y-138231619D02*
X188610476Y-138184000D01*
X188705714Y-138136380D01*
X188943809Y-138136380D01*
X189039047Y-138184000D01*
X189086666Y-138231619D01*
X189134285Y-138326857D01*
X189134285Y-138422095D01*
X189086666Y-138564952D01*
X188515238Y-139136380D01*
X189134285Y-139136380D01*
X189753333Y-138136380D02*
X189848571Y-138136380D01*
X189943809Y-138184000D01*
X189991428Y-138231619D01*
X190039047Y-138326857D01*
X190086666Y-138517333D01*
X190086666Y-138755428D01*
X190039047Y-138945904D01*
X189991428Y-139041142D01*
X189943809Y-139088761D01*
X189848571Y-139136380D01*
X189753333Y-139136380D01*
X189658095Y-139088761D01*
X189610476Y-139041142D01*
X189562857Y-138945904D01*
X189515238Y-138755428D01*
X189515238Y-138517333D01*
X189562857Y-138326857D01*
X189610476Y-138231619D01*
X189658095Y-138184000D01*
X189753333Y-138136380D01*
X177300476Y-143597380D02*
X177538571Y-144597380D01*
X177729047Y-143883095D01*
X177919523Y-144597380D01*
X178157619Y-143597380D01*
X178538571Y-144597380D02*
X178538571Y-143930714D01*
X178538571Y-143597380D02*
X178490952Y-143645000D01*
X178538571Y-143692619D01*
X178586190Y-143645000D01*
X178538571Y-143597380D01*
X178538571Y-143692619D01*
X179157619Y-144597380D02*
X179062380Y-144549761D01*
X179014761Y-144454523D01*
X179014761Y-143597380D01*
X179681428Y-144597380D02*
X179586190Y-144549761D01*
X179538571Y-144454523D01*
X179538571Y-143597380D01*
X180681428Y-143597380D02*
X181252857Y-143597380D01*
X180967142Y-144597380D02*
X180967142Y-143597380D01*
X181967142Y-144549761D02*
X181871904Y-144597380D01*
X181681428Y-144597380D01*
X181586190Y-144549761D01*
X181538571Y-144454523D01*
X181538571Y-144073571D01*
X181586190Y-143978333D01*
X181681428Y-143930714D01*
X181871904Y-143930714D01*
X181967142Y-143978333D01*
X182014761Y-144073571D01*
X182014761Y-144168809D01*
X181538571Y-144264047D01*
X182443333Y-144597380D02*
X182443333Y-143597380D01*
X182538571Y-144216428D02*
X182824285Y-144597380D01*
X182824285Y-143930714D02*
X182443333Y-144311666D01*
X183681428Y-143930714D02*
X183681428Y-144597380D01*
X183252857Y-143930714D02*
X183252857Y-144454523D01*
X183300476Y-144549761D01*
X183395714Y-144597380D01*
X183538571Y-144597380D01*
X183633809Y-144549761D01*
X183681428Y-144502142D01*
X184300476Y-144597380D02*
X184205238Y-144549761D01*
X184157619Y-144454523D01*
X184157619Y-143597380D01*
X184586190Y-143930714D02*
X184824285Y-144597380D01*
X185062380Y-143930714D01*
X185824285Y-144549761D02*
X185729047Y-144597380D01*
X185538571Y-144597380D01*
X185443333Y-144549761D01*
X185395714Y-144454523D01*
X185395714Y-144073571D01*
X185443333Y-143978333D01*
X185538571Y-143930714D01*
X185729047Y-143930714D01*
X185824285Y-143978333D01*
X185871904Y-144073571D01*
X185871904Y-144168809D01*
X185395714Y-144264047D01*
X170554285Y-142660666D02*
X171030476Y-142660666D01*
X170459047Y-142946380D02*
X170792380Y-141946380D01*
X171125714Y-142946380D01*
X171887619Y-142279714D02*
X171887619Y-142946380D01*
X171459047Y-142279714D02*
X171459047Y-142803523D01*
X171506666Y-142898761D01*
X171601904Y-142946380D01*
X171744761Y-142946380D01*
X171840000Y-142898761D01*
X171887619Y-142851142D01*
X172220952Y-142279714D02*
X172601904Y-142279714D01*
X172363809Y-141946380D02*
X172363809Y-142803523D01*
X172411428Y-142898761D01*
X172506666Y-142946380D01*
X172601904Y-142946380D01*
X172935238Y-142946380D02*
X172935238Y-141946380D01*
X173363809Y-142946380D02*
X173363809Y-142422571D01*
X173316190Y-142327333D01*
X173220952Y-142279714D01*
X173078095Y-142279714D01*
X172982857Y-142327333D01*
X172935238Y-142374952D01*
X173982857Y-142946380D02*
X173887619Y-142898761D01*
X173840000Y-142851142D01*
X173792380Y-142755904D01*
X173792380Y-142470190D01*
X173840000Y-142374952D01*
X173887619Y-142327333D01*
X173982857Y-142279714D01*
X174125714Y-142279714D01*
X174220952Y-142327333D01*
X174268571Y-142374952D01*
X174316190Y-142470190D01*
X174316190Y-142755904D01*
X174268571Y-142851142D01*
X174220952Y-142898761D01*
X174125714Y-142946380D01*
X173982857Y-142946380D01*
X174744761Y-142946380D02*
X174744761Y-142279714D01*
X174744761Y-142470190D02*
X174792380Y-142374952D01*
X174840000Y-142327333D01*
X174935238Y-142279714D01*
X175030476Y-142279714D01*
X175316190Y-142898761D02*
X175411428Y-142946380D01*
X175601904Y-142946380D01*
X175697142Y-142898761D01*
X175744761Y-142803523D01*
X175744761Y-142755904D01*
X175697142Y-142660666D01*
X175601904Y-142613047D01*
X175459047Y-142613047D01*
X175363809Y-142565428D01*
X175316190Y-142470190D01*
X175316190Y-142422571D01*
X175363809Y-142327333D01*
X175459047Y-142279714D01*
X175601904Y-142279714D01*
X175697142Y-142327333D01*
X176173333Y-142851142D02*
X176220952Y-142898761D01*
X176173333Y-142946380D01*
X176125714Y-142898761D01*
X176173333Y-142851142D01*
X176173333Y-142946380D01*
X176173333Y-142327333D02*
X176220952Y-142374952D01*
X176173333Y-142422571D01*
X176125714Y-142374952D01*
X176173333Y-142327333D01*
X176173333Y-142422571D01*
X177411428Y-142946380D02*
X177411428Y-141946380D01*
X177792380Y-141946380D01*
X177887619Y-141994000D01*
X177935238Y-142041619D01*
X177982857Y-142136857D01*
X177982857Y-142279714D01*
X177935238Y-142374952D01*
X177887619Y-142422571D01*
X177792380Y-142470190D01*
X177411428Y-142470190D01*
X178840000Y-142946380D02*
X178840000Y-142422571D01*
X178792380Y-142327333D01*
X178697142Y-142279714D01*
X178506666Y-142279714D01*
X178411428Y-142327333D01*
X178840000Y-142898761D02*
X178744761Y-142946380D01*
X178506666Y-142946380D01*
X178411428Y-142898761D01*
X178363809Y-142803523D01*
X178363809Y-142708285D01*
X178411428Y-142613047D01*
X178506666Y-142565428D01*
X178744761Y-142565428D01*
X178840000Y-142517809D01*
X179173333Y-142279714D02*
X179554285Y-142279714D01*
X179316190Y-141946380D02*
X179316190Y-142803523D01*
X179363809Y-142898761D01*
X179459047Y-142946380D01*
X179554285Y-142946380D01*
X179887619Y-142946380D02*
X179887619Y-142279714D01*
X179887619Y-142470190D02*
X179935238Y-142374952D01*
X179982857Y-142327333D01*
X180078095Y-142279714D01*
X180173333Y-142279714D01*
X180506666Y-142946380D02*
X180506666Y-142279714D01*
X180506666Y-141946380D02*
X180459047Y-141994000D01*
X180506666Y-142041619D01*
X180554285Y-141994000D01*
X180506666Y-141946380D01*
X180506666Y-142041619D01*
X181411428Y-142898761D02*
X181316190Y-142946380D01*
X181125714Y-142946380D01*
X181030476Y-142898761D01*
X180982857Y-142851142D01*
X180935238Y-142755904D01*
X180935238Y-142470190D01*
X180982857Y-142374952D01*
X181030476Y-142327333D01*
X181125714Y-142279714D01*
X181316190Y-142279714D01*
X181411428Y-142327333D01*
X181840000Y-142946380D02*
X181840000Y-141946380D01*
X181935238Y-142565428D02*
X182220952Y-142946380D01*
X182220952Y-142279714D02*
X181840000Y-142660666D01*
X183268571Y-141946380D02*
X183840000Y-141946380D01*
X183554285Y-142946380D02*
X183554285Y-141946380D01*
X184601904Y-142946380D02*
X184601904Y-142422571D01*
X184554285Y-142327333D01*
X184459047Y-142279714D01*
X184268571Y-142279714D01*
X184173333Y-142327333D01*
X184601904Y-142898761D02*
X184506666Y-142946380D01*
X184268571Y-142946380D01*
X184173333Y-142898761D01*
X184125714Y-142803523D01*
X184125714Y-142708285D01*
X184173333Y-142613047D01*
X184268571Y-142565428D01*
X184506666Y-142565428D01*
X184601904Y-142517809D01*
X185220952Y-142946380D02*
X185125714Y-142898761D01*
X185078095Y-142803523D01*
X185078095Y-141946380D01*
X185601904Y-142946380D02*
X185601904Y-142279714D01*
X185601904Y-141946380D02*
X185554285Y-141994000D01*
X185601904Y-142041619D01*
X185649523Y-141994000D01*
X185601904Y-141946380D01*
X185601904Y-142041619D01*
X186506666Y-142946380D02*
X186506666Y-142422571D01*
X186459047Y-142327333D01*
X186363809Y-142279714D01*
X186173333Y-142279714D01*
X186078095Y-142327333D01*
X186506666Y-142898761D02*
X186411428Y-142946380D01*
X186173333Y-142946380D01*
X186078095Y-142898761D01*
X186030476Y-142803523D01*
X186030476Y-142708285D01*
X186078095Y-142613047D01*
X186173333Y-142565428D01*
X186411428Y-142565428D01*
X186506666Y-142517809D01*
X186840000Y-142279714D02*
X187220952Y-142279714D01*
X186982857Y-142946380D02*
X186982857Y-142089238D01*
X187030476Y-141994000D01*
X187125714Y-141946380D01*
X187220952Y-141946380D01*
X187935238Y-142898761D02*
X187840000Y-142946380D01*
X187649523Y-142946380D01*
X187554285Y-142898761D01*
X187506666Y-142803523D01*
X187506666Y-142422571D01*
X187554285Y-142327333D01*
X187649523Y-142279714D01*
X187840000Y-142279714D01*
X187935238Y-142327333D01*
X187982857Y-142422571D01*
X187982857Y-142517809D01*
X187506666Y-142613047D01*
X188411428Y-142946380D02*
X188411428Y-142279714D01*
X188411428Y-142470190D02*
X188459047Y-142374952D01*
X188506666Y-142327333D01*
X188601904Y-142279714D01*
X188697142Y-142279714D01*
X189030476Y-142946380D02*
X189030476Y-142279714D01*
X189030476Y-142470190D02*
X189078095Y-142374952D01*
X189125714Y-142327333D01*
X189220952Y-142279714D01*
X189316190Y-142279714D01*
X189792380Y-142946380D02*
X189697142Y-142898761D01*
X189649523Y-142851142D01*
X189601904Y-142755904D01*
X189601904Y-142470190D01*
X189649523Y-142374952D01*
X189697142Y-142327333D01*
X189792380Y-142279714D01*
X189935238Y-142279714D01*
X190030476Y-142327333D01*
X190078095Y-142374952D01*
X190125714Y-142470190D01*
X190125714Y-142755904D01*
X190078095Y-142851142D01*
X190030476Y-142898761D01*
X189935238Y-142946380D01*
X189792380Y-142946380D01*
X174927571Y-140993761D02*
X175070428Y-141041380D01*
X175308523Y-141041380D01*
X175403761Y-140993761D01*
X175451380Y-140946142D01*
X175499000Y-140850904D01*
X175499000Y-140755666D01*
X175451380Y-140660428D01*
X175403761Y-140612809D01*
X175308523Y-140565190D01*
X175118047Y-140517571D01*
X175022809Y-140469952D01*
X174975190Y-140422333D01*
X174927571Y-140327095D01*
X174927571Y-140231857D01*
X174975190Y-140136619D01*
X175022809Y-140089000D01*
X175118047Y-140041380D01*
X175356142Y-140041380D01*
X175499000Y-140089000D01*
X176070428Y-141041380D02*
X175975190Y-140993761D01*
X175927571Y-140946142D01*
X175879952Y-140850904D01*
X175879952Y-140565190D01*
X175927571Y-140469952D01*
X175975190Y-140422333D01*
X176070428Y-140374714D01*
X176213285Y-140374714D01*
X176308523Y-140422333D01*
X176356142Y-140469952D01*
X176403761Y-140565190D01*
X176403761Y-140850904D01*
X176356142Y-140946142D01*
X176308523Y-140993761D01*
X176213285Y-141041380D01*
X176070428Y-141041380D01*
X176975190Y-141041380D02*
X176879952Y-140993761D01*
X176832333Y-140898523D01*
X176832333Y-140041380D01*
X177737095Y-140993761D02*
X177641857Y-141041380D01*
X177451380Y-141041380D01*
X177356142Y-140993761D01*
X177308523Y-140898523D01*
X177308523Y-140517571D01*
X177356142Y-140422333D01*
X177451380Y-140374714D01*
X177641857Y-140374714D01*
X177737095Y-140422333D01*
X177784714Y-140517571D01*
X177784714Y-140612809D01*
X177308523Y-140708047D01*
X178213285Y-140374714D02*
X178213285Y-141041380D01*
X178213285Y-140469952D02*
X178260904Y-140422333D01*
X178356142Y-140374714D01*
X178499000Y-140374714D01*
X178594238Y-140422333D01*
X178641857Y-140517571D01*
X178641857Y-141041380D01*
X179260904Y-141041380D02*
X179165666Y-140993761D01*
X179118047Y-140946142D01*
X179070428Y-140850904D01*
X179070428Y-140565190D01*
X179118047Y-140469952D01*
X179165666Y-140422333D01*
X179260904Y-140374714D01*
X179403761Y-140374714D01*
X179499000Y-140422333D01*
X179546619Y-140469952D01*
X179594238Y-140565190D01*
X179594238Y-140850904D01*
X179546619Y-140946142D01*
X179499000Y-140993761D01*
X179403761Y-141041380D01*
X179260904Y-141041380D01*
X180022809Y-141041380D02*
X180022809Y-140374714D01*
X180022809Y-140041380D02*
X179975190Y-140089000D01*
X180022809Y-140136619D01*
X180070428Y-140089000D01*
X180022809Y-140041380D01*
X180022809Y-140136619D01*
X180927571Y-141041380D02*
X180927571Y-140041380D01*
X180927571Y-140993761D02*
X180832333Y-141041380D01*
X180641857Y-141041380D01*
X180546619Y-140993761D01*
X180499000Y-140946142D01*
X180451380Y-140850904D01*
X180451380Y-140565190D01*
X180499000Y-140469952D01*
X180546619Y-140422333D01*
X180641857Y-140374714D01*
X180832333Y-140374714D01*
X180927571Y-140422333D01*
X182499000Y-140517571D02*
X182641857Y-140565190D01*
X182689476Y-140612809D01*
X182737095Y-140708047D01*
X182737095Y-140850904D01*
X182689476Y-140946142D01*
X182641857Y-140993761D01*
X182546619Y-141041380D01*
X182165666Y-141041380D01*
X182165666Y-140041380D01*
X182499000Y-140041380D01*
X182594238Y-140089000D01*
X182641857Y-140136619D01*
X182689476Y-140231857D01*
X182689476Y-140327095D01*
X182641857Y-140422333D01*
X182594238Y-140469952D01*
X182499000Y-140517571D01*
X182165666Y-140517571D01*
X183308523Y-141041380D02*
X183213285Y-140993761D01*
X183165666Y-140946142D01*
X183118047Y-140850904D01*
X183118047Y-140565190D01*
X183165666Y-140469952D01*
X183213285Y-140422333D01*
X183308523Y-140374714D01*
X183451380Y-140374714D01*
X183546619Y-140422333D01*
X183594238Y-140469952D01*
X183641857Y-140565190D01*
X183641857Y-140850904D01*
X183594238Y-140946142D01*
X183546619Y-140993761D01*
X183451380Y-141041380D01*
X183308523Y-141041380D01*
X184499000Y-141041380D02*
X184499000Y-140517571D01*
X184451380Y-140422333D01*
X184356142Y-140374714D01*
X184165666Y-140374714D01*
X184070428Y-140422333D01*
X184499000Y-140993761D02*
X184403761Y-141041380D01*
X184165666Y-141041380D01*
X184070428Y-140993761D01*
X184022809Y-140898523D01*
X184022809Y-140803285D01*
X184070428Y-140708047D01*
X184165666Y-140660428D01*
X184403761Y-140660428D01*
X184499000Y-140612809D01*
X184975190Y-141041380D02*
X184975190Y-140374714D01*
X184975190Y-140565190D02*
X185022809Y-140469952D01*
X185070428Y-140422333D01*
X185165666Y-140374714D01*
X185260904Y-140374714D01*
X186022809Y-141041380D02*
X186022809Y-140041380D01*
X186022809Y-140993761D02*
X185927571Y-141041380D01*
X185737095Y-141041380D01*
X185641857Y-140993761D01*
X185594238Y-140946142D01*
X185546619Y-140850904D01*
X185546619Y-140565190D01*
X185594238Y-140469952D01*
X185641857Y-140422333D01*
X185737095Y-140374714D01*
X185927571Y-140374714D01*
X186022809Y-140422333D01*
X187118047Y-140041380D02*
X187451380Y-141041380D01*
X187784714Y-140041380D01*
X188641857Y-141041380D02*
X188070428Y-141041380D01*
X188356142Y-141041380D02*
X188356142Y-140041380D01*
X188260904Y-140184238D01*
X188165666Y-140279476D01*
X188070428Y-140327095D01*
X189070428Y-140946142D02*
X189118047Y-140993761D01*
X189070428Y-141041380D01*
X189022809Y-140993761D01*
X189070428Y-140946142D01*
X189070428Y-141041380D01*
X189737095Y-140041380D02*
X189832333Y-140041380D01*
X189927571Y-140089000D01*
X189975190Y-140136619D01*
X190022809Y-140231857D01*
X190070428Y-140422333D01*
X190070428Y-140660428D01*
X190022809Y-140850904D01*
X189975190Y-140946142D01*
X189927571Y-140993761D01*
X189832333Y-141041380D01*
X189737095Y-141041380D01*
X189641857Y-140993761D01*
X189594238Y-140946142D01*
X189546619Y-140850904D01*
X189498999Y-140660428D01*
X189498999Y-140422333D01*
X189546619Y-140231857D01*
X189594238Y-140136619D01*
X189641857Y-140089000D01*
X189737095Y-140041380D01*
X187341095Y-133040428D02*
X188103000Y-133040428D01*
X187722047Y-133421380D02*
X187722047Y-132659476D01*
X189007761Y-132754714D02*
X189007761Y-133421380D01*
X188769666Y-132373761D02*
X188531571Y-133088047D01*
X189150619Y-133088047D01*
X189674428Y-132849952D02*
X189579190Y-132802333D01*
X189531571Y-132754714D01*
X189483952Y-132659476D01*
X189483952Y-132611857D01*
X189531571Y-132516619D01*
X189579190Y-132469000D01*
X189674428Y-132421380D01*
X189864904Y-132421380D01*
X189960142Y-132469000D01*
X190007761Y-132516619D01*
X190055380Y-132611857D01*
X190055380Y-132659476D01*
X190007761Y-132754714D01*
X189960142Y-132802333D01*
X189864904Y-132849952D01*
X189674428Y-132849952D01*
X189579190Y-132897571D01*
X189531571Y-132945190D01*
X189483952Y-133040428D01*
X189483952Y-133230904D01*
X189531571Y-133326142D01*
X189579190Y-133373761D01*
X189674428Y-133421380D01*
X189864904Y-133421380D01*
X189960142Y-133373761D01*
X190007761Y-133326142D01*
X190055380Y-133230904D01*
X190055380Y-133040428D01*
X190007761Y-132945190D01*
X189960142Y-132897571D01*
X189864904Y-132849952D01*
X190341095Y-132421380D02*
X190674428Y-133421380D01*
X191007761Y-132421380D01*
X187341095Y-122626428D02*
X188103000Y-122626428D01*
X187722047Y-123007380D02*
X187722047Y-122245476D01*
X189007761Y-122340714D02*
X189007761Y-123007380D01*
X188769666Y-121959761D02*
X188531571Y-122674047D01*
X189150619Y-122674047D01*
X189674428Y-122435952D02*
X189579190Y-122388333D01*
X189531571Y-122340714D01*
X189483952Y-122245476D01*
X189483952Y-122197857D01*
X189531571Y-122102619D01*
X189579190Y-122055000D01*
X189674428Y-122007380D01*
X189864904Y-122007380D01*
X189960142Y-122055000D01*
X190007761Y-122102619D01*
X190055380Y-122197857D01*
X190055380Y-122245476D01*
X190007761Y-122340714D01*
X189960142Y-122388333D01*
X189864904Y-122435952D01*
X189674428Y-122435952D01*
X189579190Y-122483571D01*
X189531571Y-122531190D01*
X189483952Y-122626428D01*
X189483952Y-122816904D01*
X189531571Y-122912142D01*
X189579190Y-122959761D01*
X189674428Y-123007380D01*
X189864904Y-123007380D01*
X189960142Y-122959761D01*
X190007761Y-122912142D01*
X190055380Y-122816904D01*
X190055380Y-122626428D01*
X190007761Y-122531190D01*
X189960142Y-122483571D01*
X189864904Y-122435952D01*
X190341095Y-122007380D02*
X190674428Y-123007380D01*
X191007761Y-122007380D01*
X187468095Y-112466428D02*
X188230000Y-112466428D01*
X187849047Y-112847380D02*
X187849047Y-112085476D01*
X189134761Y-112180714D02*
X189134761Y-112847380D01*
X188896666Y-111799761D02*
X188658571Y-112514047D01*
X189277619Y-112514047D01*
X189801428Y-112275952D02*
X189706190Y-112228333D01*
X189658571Y-112180714D01*
X189610952Y-112085476D01*
X189610952Y-112037857D01*
X189658571Y-111942619D01*
X189706190Y-111895000D01*
X189801428Y-111847380D01*
X189991904Y-111847380D01*
X190087142Y-111895000D01*
X190134761Y-111942619D01*
X190182380Y-112037857D01*
X190182380Y-112085476D01*
X190134761Y-112180714D01*
X190087142Y-112228333D01*
X189991904Y-112275952D01*
X189801428Y-112275952D01*
X189706190Y-112323571D01*
X189658571Y-112371190D01*
X189610952Y-112466428D01*
X189610952Y-112656904D01*
X189658571Y-112752142D01*
X189706190Y-112799761D01*
X189801428Y-112847380D01*
X189991904Y-112847380D01*
X190087142Y-112799761D01*
X190134761Y-112752142D01*
X190182380Y-112656904D01*
X190182380Y-112466428D01*
X190134761Y-112371190D01*
X190087142Y-112323571D01*
X189991904Y-112275952D01*
X190468095Y-111847380D02*
X190801428Y-112847380D01*
X191134761Y-111847380D01*
X187341095Y-100909428D02*
X188103000Y-100909428D01*
X187722047Y-101290380D02*
X187722047Y-100528476D01*
X189007761Y-100623714D02*
X189007761Y-101290380D01*
X188769666Y-100242761D02*
X188531571Y-100957047D01*
X189150619Y-100957047D01*
X189674428Y-100718952D02*
X189579190Y-100671333D01*
X189531571Y-100623714D01*
X189483952Y-100528476D01*
X189483952Y-100480857D01*
X189531571Y-100385619D01*
X189579190Y-100338000D01*
X189674428Y-100290380D01*
X189864904Y-100290380D01*
X189960142Y-100338000D01*
X190007761Y-100385619D01*
X190055380Y-100480857D01*
X190055380Y-100528476D01*
X190007761Y-100623714D01*
X189960142Y-100671333D01*
X189864904Y-100718952D01*
X189674428Y-100718952D01*
X189579190Y-100766571D01*
X189531571Y-100814190D01*
X189483952Y-100909428D01*
X189483952Y-101099904D01*
X189531571Y-101195142D01*
X189579190Y-101242761D01*
X189674428Y-101290380D01*
X189864904Y-101290380D01*
X189960142Y-101242761D01*
X190007761Y-101195142D01*
X190055380Y-101099904D01*
X190055380Y-100909428D01*
X190007761Y-100814190D01*
X189960142Y-100766571D01*
X189864904Y-100718952D01*
X190341095Y-100290380D02*
X190674428Y-101290380D01*
X191007761Y-100290380D01*
X187341095Y-90622428D02*
X188103000Y-90622428D01*
X187722047Y-91003380D02*
X187722047Y-90241476D01*
X189007761Y-90336714D02*
X189007761Y-91003380D01*
X188769666Y-89955761D02*
X188531571Y-90670047D01*
X189150619Y-90670047D01*
X189674428Y-90431952D02*
X189579190Y-90384333D01*
X189531571Y-90336714D01*
X189483952Y-90241476D01*
X189483952Y-90193857D01*
X189531571Y-90098619D01*
X189579190Y-90051000D01*
X189674428Y-90003380D01*
X189864904Y-90003380D01*
X189960142Y-90051000D01*
X190007761Y-90098619D01*
X190055380Y-90193857D01*
X190055380Y-90241476D01*
X190007761Y-90336714D01*
X189960142Y-90384333D01*
X189864904Y-90431952D01*
X189674428Y-90431952D01*
X189579190Y-90479571D01*
X189531571Y-90527190D01*
X189483952Y-90622428D01*
X189483952Y-90812904D01*
X189531571Y-90908142D01*
X189579190Y-90955761D01*
X189674428Y-91003380D01*
X189864904Y-91003380D01*
X189960142Y-90955761D01*
X190007761Y-90908142D01*
X190055380Y-90812904D01*
X190055380Y-90622428D01*
X190007761Y-90527190D01*
X189960142Y-90479571D01*
X189864904Y-90431952D01*
X190341095Y-90003380D02*
X190674428Y-91003380D01*
X191007761Y-90003380D01*
X188214095Y-127262000D02*
X188118857Y-127214380D01*
X187976000Y-127214380D01*
X187833142Y-127262000D01*
X187737904Y-127357238D01*
X187690285Y-127452476D01*
X187642666Y-127642952D01*
X187642666Y-127785809D01*
X187690285Y-127976285D01*
X187737904Y-128071523D01*
X187833142Y-128166761D01*
X187976000Y-128214380D01*
X188071238Y-128214380D01*
X188214095Y-128166761D01*
X188261714Y-128119142D01*
X188261714Y-127785809D01*
X188071238Y-127785809D01*
X188690285Y-128214380D02*
X188690285Y-127214380D01*
X189261714Y-128214380D01*
X189261714Y-127214380D01*
X189737904Y-128214380D02*
X189737904Y-127214380D01*
X189976000Y-127214380D01*
X190118857Y-127262000D01*
X190214095Y-127357238D01*
X190261714Y-127452476D01*
X190309333Y-127642952D01*
X190309333Y-127785809D01*
X190261714Y-127976285D01*
X190214095Y-128071523D01*
X190118857Y-128166761D01*
X189976000Y-128214380D01*
X189737904Y-128214380D01*
X188214095Y-117102000D02*
X188118857Y-117054380D01*
X187976000Y-117054380D01*
X187833142Y-117102000D01*
X187737904Y-117197238D01*
X187690285Y-117292476D01*
X187642666Y-117482952D01*
X187642666Y-117625809D01*
X187690285Y-117816285D01*
X187737904Y-117911523D01*
X187833142Y-118006761D01*
X187976000Y-118054380D01*
X188071238Y-118054380D01*
X188214095Y-118006761D01*
X188261714Y-117959142D01*
X188261714Y-117625809D01*
X188071238Y-117625809D01*
X188690285Y-118054380D02*
X188690285Y-117054380D01*
X189261714Y-118054380D01*
X189261714Y-117054380D01*
X189737904Y-118054380D02*
X189737904Y-117054380D01*
X189976000Y-117054380D01*
X190118857Y-117102000D01*
X190214095Y-117197238D01*
X190261714Y-117292476D01*
X190309333Y-117482952D01*
X190309333Y-117625809D01*
X190261714Y-117816285D01*
X190214095Y-117911523D01*
X190118857Y-118006761D01*
X189976000Y-118054380D01*
X189737904Y-118054380D01*
X188087095Y-106942000D02*
X187991857Y-106894380D01*
X187849000Y-106894380D01*
X187706142Y-106942000D01*
X187610904Y-107037238D01*
X187563285Y-107132476D01*
X187515666Y-107322952D01*
X187515666Y-107465809D01*
X187563285Y-107656285D01*
X187610904Y-107751523D01*
X187706142Y-107846761D01*
X187849000Y-107894380D01*
X187944238Y-107894380D01*
X188087095Y-107846761D01*
X188134714Y-107799142D01*
X188134714Y-107465809D01*
X187944238Y-107465809D01*
X188563285Y-107894380D02*
X188563285Y-106894380D01*
X189134714Y-107894380D01*
X189134714Y-106894380D01*
X189610904Y-107894380D02*
X189610904Y-106894380D01*
X189849000Y-106894380D01*
X189991857Y-106942000D01*
X190087095Y-107037238D01*
X190134714Y-107132476D01*
X190182333Y-107322952D01*
X190182333Y-107465809D01*
X190134714Y-107656285D01*
X190087095Y-107751523D01*
X189991857Y-107846761D01*
X189849000Y-107894380D01*
X189610904Y-107894380D01*
X187960095Y-95258000D02*
X187864857Y-95210380D01*
X187722000Y-95210380D01*
X187579142Y-95258000D01*
X187483904Y-95353238D01*
X187436285Y-95448476D01*
X187388666Y-95638952D01*
X187388666Y-95781809D01*
X187436285Y-95972285D01*
X187483904Y-96067523D01*
X187579142Y-96162761D01*
X187722000Y-96210380D01*
X187817238Y-96210380D01*
X187960095Y-96162761D01*
X188007714Y-96115142D01*
X188007714Y-95781809D01*
X187817238Y-95781809D01*
X188436285Y-96210380D02*
X188436285Y-95210380D01*
X189007714Y-96210380D01*
X189007714Y-95210380D01*
X189483904Y-96210380D02*
X189483904Y-95210380D01*
X189722000Y-95210380D01*
X189864857Y-95258000D01*
X189960095Y-95353238D01*
X190007714Y-95448476D01*
X190055333Y-95638952D01*
X190055333Y-95781809D01*
X190007714Y-95972285D01*
X189960095Y-96067523D01*
X189864857Y-96162761D01*
X189722000Y-96210380D01*
X189483904Y-96210380D01*
X187833095Y-85098000D02*
X187737857Y-85050380D01*
X187595000Y-85050380D01*
X187452142Y-85098000D01*
X187356904Y-85193238D01*
X187309285Y-85288476D01*
X187261666Y-85478952D01*
X187261666Y-85621809D01*
X187309285Y-85812285D01*
X187356904Y-85907523D01*
X187452142Y-86002761D01*
X187595000Y-86050380D01*
X187690238Y-86050380D01*
X187833095Y-86002761D01*
X187880714Y-85955142D01*
X187880714Y-85621809D01*
X187690238Y-85621809D01*
X188309285Y-86050380D02*
X188309285Y-85050380D01*
X188880714Y-86050380D01*
X188880714Y-85050380D01*
X189356904Y-86050380D02*
X189356904Y-85050380D01*
X189595000Y-85050380D01*
X189737857Y-85098000D01*
X189833095Y-85193238D01*
X189880714Y-85288476D01*
X189928333Y-85478952D01*
X189928333Y-85621809D01*
X189880714Y-85812285D01*
X189833095Y-85907523D01*
X189737857Y-86002761D01*
X189595000Y-86050380D01*
X189356904Y-86050380D01*
X187833095Y-74811000D02*
X187737857Y-74763380D01*
X187595000Y-74763380D01*
X187452142Y-74811000D01*
X187356904Y-74906238D01*
X187309285Y-75001476D01*
X187261666Y-75191952D01*
X187261666Y-75334809D01*
X187309285Y-75525285D01*
X187356904Y-75620523D01*
X187452142Y-75715761D01*
X187595000Y-75763380D01*
X187690238Y-75763380D01*
X187833095Y-75715761D01*
X187880714Y-75668142D01*
X187880714Y-75334809D01*
X187690238Y-75334809D01*
X188309285Y-75763380D02*
X188309285Y-74763380D01*
X188880714Y-75763380D01*
X188880714Y-74763380D01*
X189356904Y-75763380D02*
X189356904Y-74763380D01*
X189595000Y-74763380D01*
X189737857Y-74811000D01*
X189833095Y-74906238D01*
X189880714Y-75001476D01*
X189928333Y-75191952D01*
X189928333Y-75334809D01*
X189880714Y-75525285D01*
X189833095Y-75620523D01*
X189737857Y-75715761D01*
X189595000Y-75763380D01*
X189356904Y-75763380D01*
X187214095Y-80589428D02*
X187976000Y-80589428D01*
X187595047Y-80970380D02*
X187595047Y-80208476D01*
X188880761Y-80303714D02*
X188880761Y-80970380D01*
X188642666Y-79922761D02*
X188404571Y-80637047D01*
X189023619Y-80637047D01*
X189547428Y-80398952D02*
X189452190Y-80351333D01*
X189404571Y-80303714D01*
X189356952Y-80208476D01*
X189356952Y-80160857D01*
X189404571Y-80065619D01*
X189452190Y-80018000D01*
X189547428Y-79970380D01*
X189737904Y-79970380D01*
X189833142Y-80018000D01*
X189880761Y-80065619D01*
X189928380Y-80160857D01*
X189928380Y-80208476D01*
X189880761Y-80303714D01*
X189833142Y-80351333D01*
X189737904Y-80398952D01*
X189547428Y-80398952D01*
X189452190Y-80446571D01*
X189404571Y-80494190D01*
X189356952Y-80589428D01*
X189356952Y-80779904D01*
X189404571Y-80875142D01*
X189452190Y-80922761D01*
X189547428Y-80970380D01*
X189737904Y-80970380D01*
X189833142Y-80922761D01*
X189880761Y-80875142D01*
X189928380Y-80779904D01*
X189928380Y-80589428D01*
X189880761Y-80494190D01*
X189833142Y-80446571D01*
X189737904Y-80398952D01*
X190214095Y-79970380D02*
X190547428Y-80970380D01*
X190880761Y-79970380D01*
D11*
X192000000Y-53340000D02*
X192000000Y-146304000D01*
X92000000Y-53340000D02*
X192000000Y-53340000D01*
X92000000Y-146304000D02*
X92000000Y-53340000D01*
X192000000Y-146304000D02*
X92000000Y-146304000D01*
D10*
X136946095Y-59142380D02*
X137041333Y-59142380D01*
X137136571Y-59190000D01*
X137184190Y-59237619D01*
X137231809Y-59332857D01*
X137279428Y-59523333D01*
X137279428Y-59761428D01*
X137231809Y-59951904D01*
X137184190Y-60047142D01*
X137136571Y-60094761D01*
X137041333Y-60142380D01*
X136946095Y-60142380D01*
X136850857Y-60094761D01*
X136803238Y-60047142D01*
X136755619Y-59951904D01*
X136708000Y-59761428D01*
X136708000Y-59523333D01*
X136755619Y-59332857D01*
X136803238Y-59237619D01*
X136850857Y-59190000D01*
X136946095Y-59142380D01*
X137708000Y-60047142D02*
X137755619Y-60094761D01*
X137708000Y-60142380D01*
X137660380Y-60094761D01*
X137708000Y-60047142D01*
X137708000Y-60142380D01*
X138327047Y-59570952D02*
X138231809Y-59523333D01*
X138184190Y-59475714D01*
X138136571Y-59380476D01*
X138136571Y-59332857D01*
X138184190Y-59237619D01*
X138231809Y-59190000D01*
X138327047Y-59142380D01*
X138517523Y-59142380D01*
X138612761Y-59190000D01*
X138660380Y-59237619D01*
X138708000Y-59332857D01*
X138708000Y-59380476D01*
X138660380Y-59475714D01*
X138612761Y-59523333D01*
X138517523Y-59570952D01*
X138327047Y-59570952D01*
X138231809Y-59618571D01*
X138184190Y-59666190D01*
X138136571Y-59761428D01*
X138136571Y-59951904D01*
X138184190Y-60047142D01*
X138231809Y-60094761D01*
X138327047Y-60142380D01*
X138517523Y-60142380D01*
X138612761Y-60094761D01*
X138660380Y-60047142D01*
X138708000Y-59951904D01*
X138708000Y-59761428D01*
X138660380Y-59666190D01*
X138612761Y-59618571D01*
X138517523Y-59570952D01*
X139327047Y-59142380D02*
X139422285Y-59142380D01*
X139517523Y-59190000D01*
X139565142Y-59237619D01*
X139612761Y-59332857D01*
X139660380Y-59523333D01*
X139660380Y-59761428D01*
X139612761Y-59951904D01*
X139565142Y-60047142D01*
X139517523Y-60094761D01*
X139422285Y-60142380D01*
X139327047Y-60142380D01*
X139231809Y-60094761D01*
X139184190Y-60047142D01*
X139136571Y-59951904D01*
X139088952Y-59761428D01*
X139088952Y-59523333D01*
X139136571Y-59332857D01*
X139184190Y-59237619D01*
X139231809Y-59190000D01*
X139327047Y-59142380D01*
X140279428Y-59142380D02*
X140374666Y-59142380D01*
X140469904Y-59190000D01*
X140517523Y-59237619D01*
X140565142Y-59332857D01*
X140612761Y-59523333D01*
X140612761Y-59761428D01*
X140565142Y-59951904D01*
X140517523Y-60047142D01*
X140469904Y-60094761D01*
X140374666Y-60142380D01*
X140279428Y-60142380D01*
X140184190Y-60094761D01*
X140136571Y-60047142D01*
X140088952Y-59951904D01*
X140041333Y-59761428D01*
X140041333Y-59523333D01*
X140088952Y-59332857D01*
X140136571Y-59237619D01*
X140184190Y-59190000D01*
X140279428Y-59142380D01*
X141231809Y-59142380D02*
X141327047Y-59142380D01*
X141422285Y-59190000D01*
X141469904Y-59237619D01*
X141517523Y-59332857D01*
X141565142Y-59523333D01*
X141565142Y-59761428D01*
X141517523Y-59951904D01*
X141469904Y-60047142D01*
X141422285Y-60094761D01*
X141327047Y-60142380D01*
X141231809Y-60142380D01*
X141136571Y-60094761D01*
X141088952Y-60047142D01*
X141041333Y-59951904D01*
X140993714Y-59761428D01*
X140993714Y-59523333D01*
X141041333Y-59332857D01*
X141088952Y-59237619D01*
X141136571Y-59190000D01*
X141231809Y-59142380D01*
X142755619Y-60142380D02*
X142755619Y-59475714D01*
X142755619Y-59142380D02*
X142708000Y-59190000D01*
X142755619Y-59237619D01*
X142803238Y-59190000D01*
X142755619Y-59142380D01*
X142755619Y-59237619D01*
X143231809Y-59475714D02*
X143231809Y-60142380D01*
X143231809Y-59570952D02*
X143279428Y-59523333D01*
X143374666Y-59475714D01*
X143517523Y-59475714D01*
X143612761Y-59523333D01*
X143660380Y-59618571D01*
X143660380Y-60142380D01*
D12*
X150368000Y-60960000D02*
X130048000Y-60960000D01*
X150368000Y-103632000D02*
X150368000Y-60373579D01*
X130048000Y-103632000D02*
X130048000Y-60373579D01*
X130048000Y-60960000D02*
X131174504Y-60373579D01*
X130048000Y-60960000D02*
X131174504Y-61546421D01*
X150368000Y-60960000D02*
X149241496Y-60373579D01*
X150368000Y-60960000D02*
X149241496Y-61546421D01*
G04 #@! TO.C,Solenoid0*
X186690000Y-103124000D02*
X186690000Y-72644000D01*
X179070000Y-103124000D02*
X179070000Y-72644000D01*
X185420000Y-103124000D02*
X185420000Y-72644000D01*
X186690000Y-72644000D02*
X179070000Y-72644000D01*
X179070000Y-103124000D02*
X186690000Y-103124000D01*
G04 #@! TO.C,CP0*
X152746225Y-79047000D02*
X152746225Y-79547000D01*
X152496225Y-79297000D02*
X152996225Y-79297000D01*
X157902000Y-80488000D02*
X157902000Y-81056000D01*
X157862000Y-80254000D02*
X157862000Y-81290000D01*
X157822000Y-80095000D02*
X157822000Y-81449000D01*
X157782000Y-79967000D02*
X157782000Y-81577000D01*
X157742000Y-79857000D02*
X157742000Y-81687000D01*
X157702000Y-79761000D02*
X157702000Y-81783000D01*
X157662000Y-79674000D02*
X157662000Y-81870000D01*
X157622000Y-79594000D02*
X157622000Y-81950000D01*
X157582000Y-81812000D02*
X157582000Y-82023000D01*
X157582000Y-79521000D02*
X157582000Y-79732000D01*
X157542000Y-81812000D02*
X157542000Y-82091000D01*
X157542000Y-79453000D02*
X157542000Y-79732000D01*
X157502000Y-81812000D02*
X157502000Y-82155000D01*
X157502000Y-79389000D02*
X157502000Y-79732000D01*
X157462000Y-81812000D02*
X157462000Y-82215000D01*
X157462000Y-79329000D02*
X157462000Y-79732000D01*
X157422000Y-81812000D02*
X157422000Y-82272000D01*
X157422000Y-79272000D02*
X157422000Y-79732000D01*
X157382000Y-81812000D02*
X157382000Y-82326000D01*
X157382000Y-79218000D02*
X157382000Y-79732000D01*
X157342000Y-81812000D02*
X157342000Y-82377000D01*
X157342000Y-79167000D02*
X157342000Y-79732000D01*
X157302000Y-81812000D02*
X157302000Y-82425000D01*
X157302000Y-79119000D02*
X157302000Y-79732000D01*
X157262000Y-81812000D02*
X157262000Y-82471000D01*
X157262000Y-79073000D02*
X157262000Y-79732000D01*
X157222000Y-81812000D02*
X157222000Y-82515000D01*
X157222000Y-79029000D02*
X157222000Y-79732000D01*
X157182000Y-81812000D02*
X157182000Y-82557000D01*
X157182000Y-78987000D02*
X157182000Y-79732000D01*
X157142000Y-81812000D02*
X157142000Y-82598000D01*
X157142000Y-78946000D02*
X157142000Y-79732000D01*
X157102000Y-81812000D02*
X157102000Y-82636000D01*
X157102000Y-78908000D02*
X157102000Y-79732000D01*
X157062000Y-81812000D02*
X157062000Y-82673000D01*
X157062000Y-78871000D02*
X157062000Y-79732000D01*
X157022000Y-81812000D02*
X157022000Y-82709000D01*
X157022000Y-78835000D02*
X157022000Y-79732000D01*
X156982000Y-81812000D02*
X156982000Y-82743000D01*
X156982000Y-78801000D02*
X156982000Y-79732000D01*
X156942000Y-81812000D02*
X156942000Y-82776000D01*
X156942000Y-78768000D02*
X156942000Y-79732000D01*
X156902000Y-81812000D02*
X156902000Y-82807000D01*
X156902000Y-78737000D02*
X156902000Y-79732000D01*
X156862000Y-81812000D02*
X156862000Y-82837000D01*
X156862000Y-78707000D02*
X156862000Y-79732000D01*
X156822000Y-81812000D02*
X156822000Y-82867000D01*
X156822000Y-78677000D02*
X156822000Y-79732000D01*
X156782000Y-81812000D02*
X156782000Y-82894000D01*
X156782000Y-78650000D02*
X156782000Y-79732000D01*
X156742000Y-81812000D02*
X156742000Y-82921000D01*
X156742000Y-78623000D02*
X156742000Y-79732000D01*
X156702000Y-81812000D02*
X156702000Y-82947000D01*
X156702000Y-78597000D02*
X156702000Y-79732000D01*
X156662000Y-81812000D02*
X156662000Y-82972000D01*
X156662000Y-78572000D02*
X156662000Y-79732000D01*
X156622000Y-81812000D02*
X156622000Y-82996000D01*
X156622000Y-78548000D02*
X156622000Y-79732000D01*
X156582000Y-81812000D02*
X156582000Y-83019000D01*
X156582000Y-78525000D02*
X156582000Y-79732000D01*
X156542000Y-81812000D02*
X156542000Y-83040000D01*
X156542000Y-78504000D02*
X156542000Y-79732000D01*
X156502000Y-81812000D02*
X156502000Y-83062000D01*
X156502000Y-78482000D02*
X156502000Y-79732000D01*
X156462000Y-81812000D02*
X156462000Y-83082000D01*
X156462000Y-78462000D02*
X156462000Y-79732000D01*
X156422000Y-81812000D02*
X156422000Y-83101000D01*
X156422000Y-78443000D02*
X156422000Y-79732000D01*
X156382000Y-81812000D02*
X156382000Y-83120000D01*
X156382000Y-78424000D02*
X156382000Y-79732000D01*
X156342000Y-81812000D02*
X156342000Y-83137000D01*
X156342000Y-78407000D02*
X156342000Y-79732000D01*
X156302000Y-81812000D02*
X156302000Y-83154000D01*
X156302000Y-78390000D02*
X156302000Y-79732000D01*
X156262000Y-81812000D02*
X156262000Y-83170000D01*
X156262000Y-78374000D02*
X156262000Y-79732000D01*
X156222000Y-81812000D02*
X156222000Y-83186000D01*
X156222000Y-78358000D02*
X156222000Y-79732000D01*
X156182000Y-81812000D02*
X156182000Y-83200000D01*
X156182000Y-78344000D02*
X156182000Y-79732000D01*
X156142000Y-81812000D02*
X156142000Y-83214000D01*
X156142000Y-78330000D02*
X156142000Y-79732000D01*
X156102000Y-81812000D02*
X156102000Y-83227000D01*
X156102000Y-78317000D02*
X156102000Y-79732000D01*
X156062000Y-81812000D02*
X156062000Y-83240000D01*
X156062000Y-78304000D02*
X156062000Y-79732000D01*
X156022000Y-81812000D02*
X156022000Y-83252000D01*
X156022000Y-78292000D02*
X156022000Y-79732000D01*
X155981000Y-81812000D02*
X155981000Y-83263000D01*
X155981000Y-78281000D02*
X155981000Y-79732000D01*
X155941000Y-81812000D02*
X155941000Y-83273000D01*
X155941000Y-78271000D02*
X155941000Y-79732000D01*
X155901000Y-81812000D02*
X155901000Y-83283000D01*
X155901000Y-78261000D02*
X155901000Y-79732000D01*
X155861000Y-81812000D02*
X155861000Y-83292000D01*
X155861000Y-78252000D02*
X155861000Y-79732000D01*
X155821000Y-81812000D02*
X155821000Y-83300000D01*
X155821000Y-78244000D02*
X155821000Y-79732000D01*
X155781000Y-81812000D02*
X155781000Y-83308000D01*
X155781000Y-78236000D02*
X155781000Y-79732000D01*
X155741000Y-81812000D02*
X155741000Y-83315000D01*
X155741000Y-78229000D02*
X155741000Y-79732000D01*
X155701000Y-81812000D02*
X155701000Y-83322000D01*
X155701000Y-78222000D02*
X155701000Y-79732000D01*
X155661000Y-81812000D02*
X155661000Y-83328000D01*
X155661000Y-78216000D02*
X155661000Y-79732000D01*
X155621000Y-81812000D02*
X155621000Y-83333000D01*
X155621000Y-78211000D02*
X155621000Y-79732000D01*
X155581000Y-81812000D02*
X155581000Y-83337000D01*
X155581000Y-78207000D02*
X155581000Y-79732000D01*
X155541000Y-81812000D02*
X155541000Y-83341000D01*
X155541000Y-78203000D02*
X155541000Y-79732000D01*
X155501000Y-78199000D02*
X155501000Y-83345000D01*
X155461000Y-78196000D02*
X155461000Y-83348000D01*
X155421000Y-78194000D02*
X155421000Y-83350000D01*
X155381000Y-78193000D02*
X155381000Y-83351000D01*
X155341000Y-78192000D02*
X155341000Y-83352000D01*
X155301000Y-78192000D02*
X155301000Y-83352000D01*
X157921000Y-80772000D02*
G75*
G03X157921000Y-80772000I-2620000J0D01*
G01*
G04 #@! TO.C,+48V_IN1*
X186436000Y-64897000D02*
X186436000Y-54737000D01*
X178816000Y-64897000D02*
X186436000Y-64897000D01*
X178816000Y-54737000D02*
X178816000Y-64897000D01*
X186436000Y-54737000D02*
X178816000Y-54737000D01*
X185166000Y-54737000D02*
X185166000Y-64897000D01*
G04 #@! TO.C,+3V3*
X125730000Y-54356000D02*
X95250000Y-54356000D01*
X125730000Y-61976000D02*
X95250000Y-61976000D01*
X125730000Y-55626000D02*
X95250000Y-55626000D01*
X95250000Y-54356000D02*
X95250000Y-61976000D01*
X125730000Y-61976000D02*
X125730000Y-54356000D01*
G04 #@! TO.C,RJ1*
X158074000Y-124722000D02*
X157474000Y-125222000D01*
X158074000Y-125722000D02*
X157474000Y-125222000D01*
X158074000Y-124722000D02*
X158074000Y-125722000D01*
X140354000Y-142142000D02*
X140354000Y-118252000D01*
X140354000Y-118252000D02*
X157344000Y-118252000D01*
X157344000Y-118252000D02*
X157344000Y-142132000D01*
X140354000Y-151472000D02*
X140354000Y-145132000D01*
X140354000Y-151472000D02*
X157344000Y-151472000D01*
X157344000Y-151472000D02*
X157344000Y-145142000D01*
G04 #@! TO.C,C0.1nF2*
X114425000Y-79956199D02*
X114025000Y-79956199D01*
X114225000Y-79756199D02*
X114225000Y-80156199D01*
X113400000Y-84107000D02*
X112660000Y-84107000D01*
X113567000Y-84067000D02*
X112493000Y-84067000D01*
X113694000Y-84027000D02*
X112366000Y-84027000D01*
X113798000Y-83987000D02*
X112262000Y-83987000D01*
X113889000Y-83947000D02*
X112171000Y-83947000D01*
X113970000Y-83907000D02*
X112090000Y-83907000D01*
X114043000Y-83867000D02*
X112017000Y-83867000D01*
X112190000Y-83827000D02*
X111950000Y-83827000D01*
X114110000Y-83827000D02*
X113870000Y-83827000D01*
X112190000Y-83787000D02*
X111888000Y-83787000D01*
X114172000Y-83787000D02*
X113870000Y-83787000D01*
X112190000Y-83747000D02*
X111830000Y-83747000D01*
X114230000Y-83747000D02*
X113870000Y-83747000D01*
X112190000Y-83707000D02*
X111776000Y-83707000D01*
X114284000Y-83707000D02*
X113870000Y-83707000D01*
X112190000Y-83667000D02*
X111726000Y-83667000D01*
X114334000Y-83667000D02*
X113870000Y-83667000D01*
X112190000Y-83627000D02*
X111679000Y-83627000D01*
X114381000Y-83627000D02*
X113870000Y-83627000D01*
X112190000Y-83587000D02*
X111634000Y-83587000D01*
X114426000Y-83587000D02*
X113870000Y-83587000D01*
X112190000Y-83547000D02*
X111592000Y-83547000D01*
X114468000Y-83547000D02*
X113870000Y-83547000D01*
X112190000Y-83507000D02*
X111552000Y-83507000D01*
X114508000Y-83507000D02*
X113870000Y-83507000D01*
X112190000Y-83467000D02*
X111514000Y-83467000D01*
X114546000Y-83467000D02*
X113870000Y-83467000D01*
X112190000Y-83427000D02*
X111478000Y-83427000D01*
X114582000Y-83427000D02*
X113870000Y-83427000D01*
X112190000Y-83387000D02*
X111443000Y-83387000D01*
X114617000Y-83387000D02*
X113870000Y-83387000D01*
X112190000Y-83347000D02*
X111411000Y-83347000D01*
X114649000Y-83347000D02*
X113870000Y-83347000D01*
X112190000Y-83307000D02*
X111380000Y-83307000D01*
X114680000Y-83307000D02*
X113870000Y-83307000D01*
X112190000Y-83267000D02*
X111350000Y-83267000D01*
X114710000Y-83267000D02*
X113870000Y-83267000D01*
X112190000Y-83227000D02*
X111322000Y-83227000D01*
X114738000Y-83227000D02*
X113870000Y-83227000D01*
X112190000Y-83187000D02*
X111295000Y-83187000D01*
X114765000Y-83187000D02*
X113870000Y-83187000D01*
X112190000Y-83147000D02*
X111270000Y-83147000D01*
X114790000Y-83147000D02*
X113870000Y-83147000D01*
X112190000Y-83107000D02*
X111245000Y-83107000D01*
X114815000Y-83107000D02*
X113870000Y-83107000D01*
X112190000Y-83067000D02*
X111222000Y-83067000D01*
X114838000Y-83067000D02*
X113870000Y-83067000D01*
X112190000Y-83027000D02*
X111200000Y-83027000D01*
X114860000Y-83027000D02*
X113870000Y-83027000D01*
X112190000Y-82987000D02*
X111179000Y-82987000D01*
X114881000Y-82987000D02*
X113870000Y-82987000D01*
X112190000Y-82947000D02*
X111160000Y-82947000D01*
X114900000Y-82947000D02*
X113870000Y-82947000D01*
X112190000Y-82907000D02*
X111141000Y-82907000D01*
X114919000Y-82907000D02*
X113870000Y-82907000D01*
X112190000Y-82867000D02*
X111123000Y-82867000D01*
X114937000Y-82867000D02*
X113870000Y-82867000D01*
X112190000Y-82827000D02*
X111106000Y-82827000D01*
X114954000Y-82827000D02*
X113870000Y-82827000D01*
X112190000Y-82787000D02*
X111090000Y-82787000D01*
X114970000Y-82787000D02*
X113870000Y-82787000D01*
X112190000Y-82747000D02*
X111076000Y-82747000D01*
X114984000Y-82747000D02*
X113870000Y-82747000D01*
X112190000Y-82706000D02*
X111062000Y-82706000D01*
X114998000Y-82706000D02*
X113870000Y-82706000D01*
X112190000Y-82666000D02*
X111048000Y-82666000D01*
X115012000Y-82666000D02*
X113870000Y-82666000D01*
X112190000Y-82626000D02*
X111036000Y-82626000D01*
X115024000Y-82626000D02*
X113870000Y-82626000D01*
X112190000Y-82586000D02*
X111025000Y-82586000D01*
X115035000Y-82586000D02*
X113870000Y-82586000D01*
X112190000Y-82546000D02*
X111014000Y-82546000D01*
X115046000Y-82546000D02*
X113870000Y-82546000D01*
X112190000Y-82506000D02*
X111005000Y-82506000D01*
X115055000Y-82506000D02*
X113870000Y-82506000D01*
X112190000Y-82466000D02*
X110996000Y-82466000D01*
X115064000Y-82466000D02*
X113870000Y-82466000D01*
X112190000Y-82426000D02*
X110988000Y-82426000D01*
X115072000Y-82426000D02*
X113870000Y-82426000D01*
X112190000Y-82386000D02*
X110980000Y-82386000D01*
X115080000Y-82386000D02*
X113870000Y-82386000D01*
X112190000Y-82346000D02*
X110974000Y-82346000D01*
X115086000Y-82346000D02*
X113870000Y-82346000D01*
X112190000Y-82306000D02*
X110968000Y-82306000D01*
X115092000Y-82306000D02*
X113870000Y-82306000D01*
X112190000Y-82266000D02*
X110963000Y-82266000D01*
X115097000Y-82266000D02*
X113870000Y-82266000D01*
X112190000Y-82226000D02*
X110959000Y-82226000D01*
X115101000Y-82226000D02*
X113870000Y-82226000D01*
X115104000Y-82186000D02*
X110956000Y-82186000D01*
X115107000Y-82146000D02*
X110953000Y-82146000D01*
X115109000Y-82106000D02*
X110951000Y-82106000D01*
X115110000Y-82066000D02*
X110950000Y-82066000D01*
X115110000Y-82026000D02*
X110950000Y-82026000D01*
X115150000Y-82026000D02*
G75*
G03X115150000Y-82026000I-2120000J0D01*
G01*
G04 #@! TO.C,C0.1nF1*
X111508000Y-106479801D02*
X111908000Y-106479801D01*
X111708000Y-106679801D02*
X111708000Y-106279801D01*
X112533000Y-102329000D02*
X113273000Y-102329000D01*
X112366000Y-102369000D02*
X113440000Y-102369000D01*
X112239000Y-102409000D02*
X113567000Y-102409000D01*
X112135000Y-102449000D02*
X113671000Y-102449000D01*
X112044000Y-102489000D02*
X113762000Y-102489000D01*
X111963000Y-102529000D02*
X113843000Y-102529000D01*
X111890000Y-102569000D02*
X113916000Y-102569000D01*
X113743000Y-102609000D02*
X113983000Y-102609000D01*
X111823000Y-102609000D02*
X112063000Y-102609000D01*
X113743000Y-102649000D02*
X114045000Y-102649000D01*
X111761000Y-102649000D02*
X112063000Y-102649000D01*
X113743000Y-102689000D02*
X114103000Y-102689000D01*
X111703000Y-102689000D02*
X112063000Y-102689000D01*
X113743000Y-102729000D02*
X114157000Y-102729000D01*
X111649000Y-102729000D02*
X112063000Y-102729000D01*
X113743000Y-102769000D02*
X114207000Y-102769000D01*
X111599000Y-102769000D02*
X112063000Y-102769000D01*
X113743000Y-102809000D02*
X114254000Y-102809000D01*
X111552000Y-102809000D02*
X112063000Y-102809000D01*
X113743000Y-102849000D02*
X114299000Y-102849000D01*
X111507000Y-102849000D02*
X112063000Y-102849000D01*
X113743000Y-102889000D02*
X114341000Y-102889000D01*
X111465000Y-102889000D02*
X112063000Y-102889000D01*
X113743000Y-102929000D02*
X114381000Y-102929000D01*
X111425000Y-102929000D02*
X112063000Y-102929000D01*
X113743000Y-102969000D02*
X114419000Y-102969000D01*
X111387000Y-102969000D02*
X112063000Y-102969000D01*
X113743000Y-103009000D02*
X114455000Y-103009000D01*
X111351000Y-103009000D02*
X112063000Y-103009000D01*
X113743000Y-103049000D02*
X114490000Y-103049000D01*
X111316000Y-103049000D02*
X112063000Y-103049000D01*
X113743000Y-103089000D02*
X114522000Y-103089000D01*
X111284000Y-103089000D02*
X112063000Y-103089000D01*
X113743000Y-103129000D02*
X114553000Y-103129000D01*
X111253000Y-103129000D02*
X112063000Y-103129000D01*
X113743000Y-103169000D02*
X114583000Y-103169000D01*
X111223000Y-103169000D02*
X112063000Y-103169000D01*
X113743000Y-103209000D02*
X114611000Y-103209000D01*
X111195000Y-103209000D02*
X112063000Y-103209000D01*
X113743000Y-103249000D02*
X114638000Y-103249000D01*
X111168000Y-103249000D02*
X112063000Y-103249000D01*
X113743000Y-103289000D02*
X114663000Y-103289000D01*
X111143000Y-103289000D02*
X112063000Y-103289000D01*
X113743000Y-103329000D02*
X114688000Y-103329000D01*
X111118000Y-103329000D02*
X112063000Y-103329000D01*
X113743000Y-103369000D02*
X114711000Y-103369000D01*
X111095000Y-103369000D02*
X112063000Y-103369000D01*
X113743000Y-103409000D02*
X114733000Y-103409000D01*
X111073000Y-103409000D02*
X112063000Y-103409000D01*
X113743000Y-103449000D02*
X114754000Y-103449000D01*
X111052000Y-103449000D02*
X112063000Y-103449000D01*
X113743000Y-103489000D02*
X114773000Y-103489000D01*
X111033000Y-103489000D02*
X112063000Y-103489000D01*
X113743000Y-103529000D02*
X114792000Y-103529000D01*
X111014000Y-103529000D02*
X112063000Y-103529000D01*
X113743000Y-103569000D02*
X114810000Y-103569000D01*
X110996000Y-103569000D02*
X112063000Y-103569000D01*
X113743000Y-103609000D02*
X114827000Y-103609000D01*
X110979000Y-103609000D02*
X112063000Y-103609000D01*
X113743000Y-103649000D02*
X114843000Y-103649000D01*
X110963000Y-103649000D02*
X112063000Y-103649000D01*
X113743000Y-103689000D02*
X114857000Y-103689000D01*
X110949000Y-103689000D02*
X112063000Y-103689000D01*
X113743000Y-103730000D02*
X114871000Y-103730000D01*
X110935000Y-103730000D02*
X112063000Y-103730000D01*
X113743000Y-103770000D02*
X114885000Y-103770000D01*
X110921000Y-103770000D02*
X112063000Y-103770000D01*
X113743000Y-103810000D02*
X114897000Y-103810000D01*
X110909000Y-103810000D02*
X112063000Y-103810000D01*
X113743000Y-103850000D02*
X114908000Y-103850000D01*
X110898000Y-103850000D02*
X112063000Y-103850000D01*
X113743000Y-103890000D02*
X114919000Y-103890000D01*
X110887000Y-103890000D02*
X112063000Y-103890000D01*
X113743000Y-103930000D02*
X114928000Y-103930000D01*
X110878000Y-103930000D02*
X112063000Y-103930000D01*
X113743000Y-103970000D02*
X114937000Y-103970000D01*
X110869000Y-103970000D02*
X112063000Y-103970000D01*
X113743000Y-104010000D02*
X114945000Y-104010000D01*
X110861000Y-104010000D02*
X112063000Y-104010000D01*
X113743000Y-104050000D02*
X114953000Y-104050000D01*
X110853000Y-104050000D02*
X112063000Y-104050000D01*
X113743000Y-104090000D02*
X114959000Y-104090000D01*
X110847000Y-104090000D02*
X112063000Y-104090000D01*
X113743000Y-104130000D02*
X114965000Y-104130000D01*
X110841000Y-104130000D02*
X112063000Y-104130000D01*
X113743000Y-104170000D02*
X114970000Y-104170000D01*
X110836000Y-104170000D02*
X112063000Y-104170000D01*
X113743000Y-104210000D02*
X114974000Y-104210000D01*
X110832000Y-104210000D02*
X112063000Y-104210000D01*
X110829000Y-104250000D02*
X114977000Y-104250000D01*
X110826000Y-104290000D02*
X114980000Y-104290000D01*
X110824000Y-104330000D02*
X114982000Y-104330000D01*
X110823000Y-104370000D02*
X114983000Y-104370000D01*
X110823000Y-104410000D02*
X114983000Y-104410000D01*
X115023000Y-104410000D02*
G75*
G03X115023000Y-104410000I-2120000J0D01*
G01*
G04 #@! TO.C,C0.1nF0*
X150040801Y-111250000D02*
X150040801Y-110850000D01*
X150240801Y-111050000D02*
X149840801Y-111050000D01*
X145890000Y-110225000D02*
X145890000Y-109485000D01*
X145930000Y-110392000D02*
X145930000Y-109318000D01*
X145970000Y-110519000D02*
X145970000Y-109191000D01*
X146010000Y-110623000D02*
X146010000Y-109087000D01*
X146050000Y-110714000D02*
X146050000Y-108996000D01*
X146090000Y-110795000D02*
X146090000Y-108915000D01*
X146130000Y-110868000D02*
X146130000Y-108842000D01*
X146170000Y-109015000D02*
X146170000Y-108775000D01*
X146170000Y-110935000D02*
X146170000Y-110695000D01*
X146210000Y-109015000D02*
X146210000Y-108713000D01*
X146210000Y-110997000D02*
X146210000Y-110695000D01*
X146250000Y-109015000D02*
X146250000Y-108655000D01*
X146250000Y-111055000D02*
X146250000Y-110695000D01*
X146290000Y-109015000D02*
X146290000Y-108601000D01*
X146290000Y-111109000D02*
X146290000Y-110695000D01*
X146330000Y-109015000D02*
X146330000Y-108551000D01*
X146330000Y-111159000D02*
X146330000Y-110695000D01*
X146370000Y-109015000D02*
X146370000Y-108504000D01*
X146370000Y-111206000D02*
X146370000Y-110695000D01*
X146410000Y-109015000D02*
X146410000Y-108459000D01*
X146410000Y-111251000D02*
X146410000Y-110695000D01*
X146450000Y-109015000D02*
X146450000Y-108417000D01*
X146450000Y-111293000D02*
X146450000Y-110695000D01*
X146490000Y-109015000D02*
X146490000Y-108377000D01*
X146490000Y-111333000D02*
X146490000Y-110695000D01*
X146530000Y-109015000D02*
X146530000Y-108339000D01*
X146530000Y-111371000D02*
X146530000Y-110695000D01*
X146570000Y-109015000D02*
X146570000Y-108303000D01*
X146570000Y-111407000D02*
X146570000Y-110695000D01*
X146610000Y-109015000D02*
X146610000Y-108268000D01*
X146610000Y-111442000D02*
X146610000Y-110695000D01*
X146650000Y-109015000D02*
X146650000Y-108236000D01*
X146650000Y-111474000D02*
X146650000Y-110695000D01*
X146690000Y-109015000D02*
X146690000Y-108205000D01*
X146690000Y-111505000D02*
X146690000Y-110695000D01*
X146730000Y-109015000D02*
X146730000Y-108175000D01*
X146730000Y-111535000D02*
X146730000Y-110695000D01*
X146770000Y-109015000D02*
X146770000Y-108147000D01*
X146770000Y-111563000D02*
X146770000Y-110695000D01*
X146810000Y-109015000D02*
X146810000Y-108120000D01*
X146810000Y-111590000D02*
X146810000Y-110695000D01*
X146850000Y-109015000D02*
X146850000Y-108095000D01*
X146850000Y-111615000D02*
X146850000Y-110695000D01*
X146890000Y-109015000D02*
X146890000Y-108070000D01*
X146890000Y-111640000D02*
X146890000Y-110695000D01*
X146930000Y-109015000D02*
X146930000Y-108047000D01*
X146930000Y-111663000D02*
X146930000Y-110695000D01*
X146970000Y-109015000D02*
X146970000Y-108025000D01*
X146970000Y-111685000D02*
X146970000Y-110695000D01*
X147010000Y-109015000D02*
X147010000Y-108004000D01*
X147010000Y-111706000D02*
X147010000Y-110695000D01*
X147050000Y-109015000D02*
X147050000Y-107985000D01*
X147050000Y-111725000D02*
X147050000Y-110695000D01*
X147090000Y-109015000D02*
X147090000Y-107966000D01*
X147090000Y-111744000D02*
X147090000Y-110695000D01*
X147130000Y-109015000D02*
X147130000Y-107948000D01*
X147130000Y-111762000D02*
X147130000Y-110695000D01*
X147170000Y-109015000D02*
X147170000Y-107931000D01*
X147170000Y-111779000D02*
X147170000Y-110695000D01*
X147210000Y-109015000D02*
X147210000Y-107915000D01*
X147210000Y-111795000D02*
X147210000Y-110695000D01*
X147250000Y-109015000D02*
X147250000Y-107901000D01*
X147250000Y-111809000D02*
X147250000Y-110695000D01*
X147291000Y-109015000D02*
X147291000Y-107887000D01*
X147291000Y-111823000D02*
X147291000Y-110695000D01*
X147331000Y-109015000D02*
X147331000Y-107873000D01*
X147331000Y-111837000D02*
X147331000Y-110695000D01*
X147371000Y-109015000D02*
X147371000Y-107861000D01*
X147371000Y-111849000D02*
X147371000Y-110695000D01*
X147411000Y-109015000D02*
X147411000Y-107850000D01*
X147411000Y-111860000D02*
X147411000Y-110695000D01*
X147451000Y-109015000D02*
X147451000Y-107839000D01*
X147451000Y-111871000D02*
X147451000Y-110695000D01*
X147491000Y-109015000D02*
X147491000Y-107830000D01*
X147491000Y-111880000D02*
X147491000Y-110695000D01*
X147531000Y-109015000D02*
X147531000Y-107821000D01*
X147531000Y-111889000D02*
X147531000Y-110695000D01*
X147571000Y-109015000D02*
X147571000Y-107813000D01*
X147571000Y-111897000D02*
X147571000Y-110695000D01*
X147611000Y-109015000D02*
X147611000Y-107805000D01*
X147611000Y-111905000D02*
X147611000Y-110695000D01*
X147651000Y-109015000D02*
X147651000Y-107799000D01*
X147651000Y-111911000D02*
X147651000Y-110695000D01*
X147691000Y-109015000D02*
X147691000Y-107793000D01*
X147691000Y-111917000D02*
X147691000Y-110695000D01*
X147731000Y-109015000D02*
X147731000Y-107788000D01*
X147731000Y-111922000D02*
X147731000Y-110695000D01*
X147771000Y-109015000D02*
X147771000Y-107784000D01*
X147771000Y-111926000D02*
X147771000Y-110695000D01*
X147811000Y-111929000D02*
X147811000Y-107781000D01*
X147851000Y-111932000D02*
X147851000Y-107778000D01*
X147891000Y-111934000D02*
X147891000Y-107776000D01*
X147931000Y-111935000D02*
X147931000Y-107775000D01*
X147971000Y-111935000D02*
X147971000Y-107775000D01*
X150091000Y-109855000D02*
G75*
G03X150091000Y-109855000I-2120000J0D01*
G01*
G04 #@! TO.C,+5V_IN1*
X175514000Y-54737000D02*
X165354000Y-54737000D01*
X175514000Y-62357000D02*
X175514000Y-54737000D01*
X165354000Y-62357000D02*
X175514000Y-62357000D01*
X165354000Y-54737000D02*
X165354000Y-62357000D01*
X165354000Y-56007000D02*
X175514000Y-56007000D01*
G04 #@! TO.C,GND1*
X168342000Y-134306000D02*
X169672000Y-134306000D01*
X168342000Y-135636000D02*
X168342000Y-134306000D01*
X168342000Y-136906000D02*
X171002000Y-136906000D01*
X171002000Y-136906000D02*
X171002000Y-136966000D01*
X168342000Y-136906000D02*
X168342000Y-136966000D01*
X168342000Y-136966000D02*
X171002000Y-136966000D01*
G04 #@! TO.C,Solenoid1*
X186817000Y-135128000D02*
X186817000Y-104648000D01*
X179197000Y-135128000D02*
X179197000Y-104648000D01*
X185547000Y-135128000D02*
X185547000Y-104648000D01*
X186817000Y-104648000D02*
X179197000Y-104648000D01*
X179197000Y-135128000D02*
X186817000Y-135128000D01*
D13*
G04 #@! TO.C,8b0*
X111613201Y-93154500D02*
X111359201Y-93154500D01*
X111613201Y-92773500D02*
X111613201Y-93154500D01*
X111359201Y-92773500D02*
X111613201Y-92773500D01*
X111359201Y-93154500D02*
X111359201Y-92773500D01*
X113195100Y-101269800D02*
X117436900Y-101269800D01*
X117436900Y-91008200D02*
X113195100Y-91008200D01*
G04 #@! TO.C,8b1*
X111740201Y-71183500D02*
X111486201Y-71183500D01*
X111740201Y-70802500D02*
X111740201Y-71183500D01*
X111486201Y-70802500D02*
X111740201Y-70802500D01*
X111486201Y-71183500D02*
X111486201Y-70802500D01*
X113322100Y-79298800D02*
X117563900Y-79298800D01*
X117563900Y-69037200D02*
X113322100Y-69037200D01*
D12*
G04 #@! TO.C,FET2*
X173428000Y-71914000D02*
X173428000Y-73424000D01*
X169727000Y-71914000D02*
X169727000Y-73424000D01*
X166457000Y-73424000D02*
X176697000Y-73424000D01*
X176697000Y-71914000D02*
X176697000Y-76555000D01*
X166457000Y-71914000D02*
X166457000Y-76555000D01*
X166457000Y-76555000D02*
X176697000Y-76555000D01*
X166457000Y-71914000D02*
X176697000Y-71914000D01*
G04 #@! TO.C,INP5*
X95377000Y-139573000D02*
X95377000Y-129413000D01*
X94107000Y-139573000D02*
X101727000Y-139573000D01*
X101727000Y-139573000D02*
X101727000Y-129413000D01*
X101727000Y-129413000D02*
X94107000Y-129413000D01*
X94107000Y-129413000D02*
X94107000Y-139573000D01*
G04 #@! TO.C,INP4*
X95377000Y-127381000D02*
X95377000Y-117221000D01*
X94107000Y-127381000D02*
X101727000Y-127381000D01*
X101727000Y-127381000D02*
X101727000Y-117221000D01*
X101727000Y-117221000D02*
X94107000Y-117221000D01*
X94107000Y-117221000D02*
X94107000Y-127381000D01*
G04 #@! TO.C,INP3*
X94107000Y-105029000D02*
X94107000Y-115189000D01*
X101727000Y-105029000D02*
X94107000Y-105029000D01*
X101727000Y-115189000D02*
X101727000Y-105029000D01*
X94107000Y-115189000D02*
X101727000Y-115189000D01*
X95377000Y-115189000D02*
X95377000Y-105029000D01*
G04 #@! TO.C,INP2*
X94107000Y-92837000D02*
X94107000Y-102997000D01*
X101727000Y-92837000D02*
X94107000Y-92837000D01*
X101727000Y-102997000D02*
X101727000Y-92837000D01*
X94107000Y-102997000D02*
X101727000Y-102997000D01*
X95377000Y-102997000D02*
X95377000Y-92837000D01*
G04 #@! TO.C,INP1*
X94107000Y-80137000D02*
X94107000Y-90297000D01*
X101727000Y-80137000D02*
X94107000Y-80137000D01*
X101727000Y-90297000D02*
X101727000Y-80137000D01*
X94107000Y-90297000D02*
X101727000Y-90297000D01*
X95377000Y-90297000D02*
X95377000Y-80137000D01*
G04 #@! TO.C,INP0*
X94107000Y-67437000D02*
X94107000Y-77597000D01*
X101727000Y-67437000D02*
X94107000Y-67437000D01*
X101727000Y-77597000D02*
X101727000Y-67437000D01*
X94107000Y-77597000D02*
X101727000Y-77597000D01*
X95377000Y-77597000D02*
X95377000Y-67437000D01*
D13*
G04 #@! TO.C,RS-485*
X139865100Y-104940100D02*
X139865100Y-109181900D01*
X145122900Y-109181900D02*
X145122900Y-104940100D01*
G04 #@! TO.C,Prt_IC1*
X134810500Y-109115860D02*
X134810500Y-108102400D01*
X134810500Y-108102400D02*
X133159500Y-108102400D01*
X134810500Y-111353600D02*
X134810500Y-110340140D01*
X133159500Y-111353600D02*
X134810500Y-111353600D01*
X133159500Y-109390139D02*
X133159500Y-110065861D01*
D12*
G04 #@! TO.C,R11*
X124423000Y-112400064D02*
X124423000Y-109595936D01*
X121703000Y-112400064D02*
X121703000Y-109595936D01*
G04 #@! TO.C,R105*
X170693064Y-100367000D02*
X167888936Y-100367000D01*
X170693064Y-103087000D02*
X167888936Y-103087000D01*
G04 #@! TO.C,R104*
X170768564Y-110400000D02*
X167964436Y-110400000D01*
X170768564Y-113120000D02*
X167964436Y-113120000D01*
G04 #@! TO.C,R103*
X170693064Y-120433000D02*
X167888936Y-120433000D01*
X170693064Y-123153000D02*
X167888936Y-123153000D01*
G04 #@! TO.C,R102*
X170641564Y-67855000D02*
X167837436Y-67855000D01*
X170641564Y-70575000D02*
X167837436Y-70575000D01*
G04 #@! TO.C,R101*
X170566064Y-78269000D02*
X167761936Y-78269000D01*
X170566064Y-80989000D02*
X167761936Y-80989000D01*
G04 #@! TO.C,R100*
X170439064Y-88556000D02*
X167634936Y-88556000D01*
X170439064Y-91276000D02*
X167634936Y-91276000D01*
G04 #@! TO.C,R10*
X130392000Y-114432064D02*
X130392000Y-111627936D01*
X127672000Y-114432064D02*
X127672000Y-111627936D01*
G04 #@! TO.C,FET5*
X173428000Y-103918000D02*
X173428000Y-105428000D01*
X169727000Y-103918000D02*
X169727000Y-105428000D01*
X166457000Y-105428000D02*
X176697000Y-105428000D01*
X176697000Y-103918000D02*
X176697000Y-108559000D01*
X166457000Y-103918000D02*
X166457000Y-108559000D01*
X166457000Y-108559000D02*
X176697000Y-108559000D01*
X166457000Y-103918000D02*
X176697000Y-103918000D01*
G04 #@! TO.C,FET4*
X173428000Y-114078000D02*
X173428000Y-115588000D01*
X169727000Y-114078000D02*
X169727000Y-115588000D01*
X166457000Y-115588000D02*
X176697000Y-115588000D01*
X176697000Y-114078000D02*
X176697000Y-118719000D01*
X166457000Y-114078000D02*
X166457000Y-118719000D01*
X166457000Y-118719000D02*
X176697000Y-118719000D01*
X166457000Y-114078000D02*
X176697000Y-114078000D01*
G04 #@! TO.C,FET3*
X173428000Y-124238000D02*
X173428000Y-125748000D01*
X169727000Y-124238000D02*
X169727000Y-125748000D01*
X166457000Y-125748000D02*
X176697000Y-125748000D01*
X176697000Y-124238000D02*
X176697000Y-128879000D01*
X166457000Y-124238000D02*
X166457000Y-128879000D01*
X166457000Y-128879000D02*
X176697000Y-128879000D01*
X166457000Y-124238000D02*
X176697000Y-124238000D01*
G04 #@! TO.C,FET1*
X173428000Y-82074000D02*
X173428000Y-83584000D01*
X169727000Y-82074000D02*
X169727000Y-83584000D01*
X166457000Y-83584000D02*
X176697000Y-83584000D01*
X176697000Y-82074000D02*
X176697000Y-86715000D01*
X166457000Y-82074000D02*
X166457000Y-86715000D01*
X166457000Y-86715000D02*
X176697000Y-86715000D01*
X166457000Y-82074000D02*
X176697000Y-82074000D01*
G04 #@! TO.C,FET0*
X173174000Y-92234000D02*
X173174000Y-93744000D01*
X169473000Y-92234000D02*
X169473000Y-93744000D01*
X166203000Y-93744000D02*
X176443000Y-93744000D01*
X176443000Y-92234000D02*
X176443000Y-96875000D01*
X166203000Y-92234000D02*
X166203000Y-96875000D01*
X166203000Y-96875000D02*
X176443000Y-96875000D01*
X166203000Y-92234000D02*
X176443000Y-92234000D01*
G04 #@! TO.C,RJ0*
X134706000Y-124595000D02*
X134106000Y-125095000D01*
X134706000Y-125595000D02*
X134106000Y-125095000D01*
X134706000Y-124595000D02*
X134706000Y-125595000D01*
X116986000Y-142015000D02*
X116986000Y-118125000D01*
X116986000Y-118125000D02*
X133976000Y-118125000D01*
X133976000Y-118125000D02*
X133976000Y-142005000D01*
X116986000Y-151345000D02*
X116986000Y-145005000D01*
X116986000Y-151345000D02*
X133976000Y-151345000D01*
X133976000Y-151345000D02*
X133976000Y-145015000D01*
G04 #@! TO.C,J3*
X148784000Y-74362000D02*
X150114000Y-74362000D01*
X148784000Y-75692000D02*
X148784000Y-74362000D01*
X148784000Y-76962000D02*
X151444000Y-76962000D01*
X151444000Y-76962000D02*
X151444000Y-104962000D01*
X148784000Y-76962000D02*
X148784000Y-104962000D01*
X148784000Y-104962000D02*
X151444000Y-104962000D01*
G04 #@! TO.C,J2*
X128464000Y-64202000D02*
X129794000Y-64202000D01*
X128464000Y-65532000D02*
X128464000Y-64202000D01*
X128464000Y-66802000D02*
X131124000Y-66802000D01*
X131124000Y-66802000D02*
X131124000Y-104962000D01*
X128464000Y-66802000D02*
X128464000Y-104962000D01*
X128464000Y-104962000D02*
X131124000Y-104962000D01*
G04 #@! TD*
G04 #@! TO.C,Solenoid0*
D10*
X178204761Y-93670000D02*
X178252380Y-93527142D01*
X178252380Y-93289047D01*
X178204761Y-93193809D01*
X178157142Y-93146190D01*
X178061904Y-93098571D01*
X177966666Y-93098571D01*
X177871428Y-93146190D01*
X177823809Y-93193809D01*
X177776190Y-93289047D01*
X177728571Y-93479523D01*
X177680952Y-93574761D01*
X177633333Y-93622380D01*
X177538095Y-93670000D01*
X177442857Y-93670000D01*
X177347619Y-93622380D01*
X177300000Y-93574761D01*
X177252380Y-93479523D01*
X177252380Y-93241428D01*
X177300000Y-93098571D01*
X178252380Y-92527142D02*
X178204761Y-92622380D01*
X178157142Y-92670000D01*
X178061904Y-92717619D01*
X177776190Y-92717619D01*
X177680952Y-92670000D01*
X177633333Y-92622380D01*
X177585714Y-92527142D01*
X177585714Y-92384285D01*
X177633333Y-92289047D01*
X177680952Y-92241428D01*
X177776190Y-92193809D01*
X178061904Y-92193809D01*
X178157142Y-92241428D01*
X178204761Y-92289047D01*
X178252380Y-92384285D01*
X178252380Y-92527142D01*
X178252380Y-91622380D02*
X178204761Y-91717619D01*
X178109523Y-91765238D01*
X177252380Y-91765238D01*
X178204761Y-90860476D02*
X178252380Y-90955714D01*
X178252380Y-91146190D01*
X178204761Y-91241428D01*
X178109523Y-91289047D01*
X177728571Y-91289047D01*
X177633333Y-91241428D01*
X177585714Y-91146190D01*
X177585714Y-90955714D01*
X177633333Y-90860476D01*
X177728571Y-90812857D01*
X177823809Y-90812857D01*
X177919047Y-91289047D01*
X177585714Y-90384285D02*
X178252380Y-90384285D01*
X177680952Y-90384285D02*
X177633333Y-90336666D01*
X177585714Y-90241428D01*
X177585714Y-90098571D01*
X177633333Y-90003333D01*
X177728571Y-89955714D01*
X178252380Y-89955714D01*
X178252380Y-89336666D02*
X178204761Y-89431904D01*
X178157142Y-89479523D01*
X178061904Y-89527142D01*
X177776190Y-89527142D01*
X177680952Y-89479523D01*
X177633333Y-89431904D01*
X177585714Y-89336666D01*
X177585714Y-89193809D01*
X177633333Y-89098571D01*
X177680952Y-89050952D01*
X177776190Y-89003333D01*
X178061904Y-89003333D01*
X178157142Y-89050952D01*
X178204761Y-89098571D01*
X178252380Y-89193809D01*
X178252380Y-89336666D01*
X178252380Y-88574761D02*
X177585714Y-88574761D01*
X177252380Y-88574761D02*
X177300000Y-88622380D01*
X177347619Y-88574761D01*
X177300000Y-88527142D01*
X177252380Y-88574761D01*
X177347619Y-88574761D01*
X178252380Y-87670000D02*
X177252380Y-87670000D01*
X178204761Y-87670000D02*
X178252380Y-87765238D01*
X178252380Y-87955714D01*
X178204761Y-88050952D01*
X178157142Y-88098571D01*
X178061904Y-88146190D01*
X177776190Y-88146190D01*
X177680952Y-88098571D01*
X177633333Y-88050952D01*
X177585714Y-87955714D01*
X177585714Y-87765238D01*
X177633333Y-87670000D01*
X177252380Y-87003333D02*
X177252380Y-86908095D01*
X177300000Y-86812857D01*
X177347619Y-86765238D01*
X177442857Y-86717619D01*
X177633333Y-86670000D01*
X177871428Y-86670000D01*
X178061904Y-86717619D01*
X178157142Y-86765238D01*
X178204761Y-86812857D01*
X178252380Y-86908095D01*
X178252380Y-87003333D01*
X178204761Y-87098571D01*
X178157142Y-87146190D01*
X178061904Y-87193809D01*
X177871428Y-87241428D01*
X177633333Y-87241428D01*
X177442857Y-87193809D01*
X177347619Y-87146190D01*
X177300000Y-87098571D01*
X177252380Y-87003333D01*
G04 #@! TO.C,CP0*
X156559333Y-77827142D02*
X156511714Y-77874761D01*
X156368857Y-77922380D01*
X156273619Y-77922380D01*
X156130761Y-77874761D01*
X156035523Y-77779523D01*
X155987904Y-77684285D01*
X155940285Y-77493809D01*
X155940285Y-77350952D01*
X155987904Y-77160476D01*
X156035523Y-77065238D01*
X156130761Y-76970000D01*
X156273619Y-76922380D01*
X156368857Y-76922380D01*
X156511714Y-76970000D01*
X156559333Y-77017619D01*
X156987904Y-77922380D02*
X156987904Y-76922380D01*
X157368857Y-76922380D01*
X157464095Y-76970000D01*
X157511714Y-77017619D01*
X157559333Y-77112857D01*
X157559333Y-77255714D01*
X157511714Y-77350952D01*
X157464095Y-77398571D01*
X157368857Y-77446190D01*
X156987904Y-77446190D01*
X158178380Y-76922380D02*
X158273619Y-76922380D01*
X158368857Y-76970000D01*
X158416476Y-77017619D01*
X158464095Y-77112857D01*
X158511714Y-77303333D01*
X158511714Y-77541428D01*
X158464095Y-77731904D01*
X158416476Y-77827142D01*
X158368857Y-77874761D01*
X158273619Y-77922380D01*
X158178380Y-77922380D01*
X158083142Y-77874761D01*
X158035523Y-77827142D01*
X157987904Y-77731904D01*
X157940285Y-77541428D01*
X157940285Y-77303333D01*
X157987904Y-77112857D01*
X158035523Y-77017619D01*
X158083142Y-76970000D01*
X158178380Y-76922380D01*
G04 #@! TO.C,+48V_IN1*
X180642047Y-66365428D02*
X181403952Y-66365428D01*
X181023000Y-66746380D02*
X181023000Y-65984476D01*
X182308714Y-66079714D02*
X182308714Y-66746380D01*
X182070619Y-65698761D02*
X181832523Y-66413047D01*
X182451571Y-66413047D01*
X182975380Y-66174952D02*
X182880142Y-66127333D01*
X182832523Y-66079714D01*
X182784904Y-65984476D01*
X182784904Y-65936857D01*
X182832523Y-65841619D01*
X182880142Y-65794000D01*
X182975380Y-65746380D01*
X183165857Y-65746380D01*
X183261095Y-65794000D01*
X183308714Y-65841619D01*
X183356333Y-65936857D01*
X183356333Y-65984476D01*
X183308714Y-66079714D01*
X183261095Y-66127333D01*
X183165857Y-66174952D01*
X182975380Y-66174952D01*
X182880142Y-66222571D01*
X182832523Y-66270190D01*
X182784904Y-66365428D01*
X182784904Y-66555904D01*
X182832523Y-66651142D01*
X182880142Y-66698761D01*
X182975380Y-66746380D01*
X183165857Y-66746380D01*
X183261095Y-66698761D01*
X183308714Y-66651142D01*
X183356333Y-66555904D01*
X183356333Y-66365428D01*
X183308714Y-66270190D01*
X183261095Y-66222571D01*
X183165857Y-66174952D01*
X183642047Y-65746380D02*
X183975380Y-66746380D01*
X184308714Y-65746380D01*
X184403952Y-66841619D02*
X185165857Y-66841619D01*
X185403952Y-66746380D02*
X185403952Y-65746380D01*
X185880142Y-66746380D02*
X185880142Y-65746380D01*
X186451571Y-66746380D01*
X186451571Y-65746380D01*
X187451571Y-66746380D02*
X186880142Y-66746380D01*
X187165857Y-66746380D02*
X187165857Y-65746380D01*
X187070619Y-65889238D01*
X186975380Y-65984476D01*
X186880142Y-66032095D01*
G04 #@! TO.C,+3V3*
X99584095Y-63190428D02*
X100346000Y-63190428D01*
X99965047Y-63571380D02*
X99965047Y-62809476D01*
X100726952Y-62571380D02*
X101346000Y-62571380D01*
X101012666Y-62952333D01*
X101155523Y-62952333D01*
X101250761Y-62999952D01*
X101298380Y-63047571D01*
X101346000Y-63142809D01*
X101346000Y-63380904D01*
X101298380Y-63476142D01*
X101250761Y-63523761D01*
X101155523Y-63571380D01*
X100869809Y-63571380D01*
X100774571Y-63523761D01*
X100726952Y-63476142D01*
X101631714Y-62571380D02*
X101965047Y-63571380D01*
X102298380Y-62571380D01*
X102536476Y-62571380D02*
X103155523Y-62571380D01*
X102822190Y-62952333D01*
X102965047Y-62952333D01*
X103060285Y-62999952D01*
X103107904Y-63047571D01*
X103155523Y-63142809D01*
X103155523Y-63380904D01*
X103107904Y-63476142D01*
X103060285Y-63523761D01*
X102965047Y-63571380D01*
X102679333Y-63571380D01*
X102584095Y-63523761D01*
X102536476Y-63476142D01*
G04 #@! TO.C,RJ1*
X160226380Y-134719619D02*
X159750190Y-135052952D01*
X160226380Y-135291047D02*
X159226380Y-135291047D01*
X159226380Y-134910095D01*
X159274000Y-134814857D01*
X159321619Y-134767238D01*
X159416857Y-134719619D01*
X159559714Y-134719619D01*
X159654952Y-134767238D01*
X159702571Y-134814857D01*
X159750190Y-134910095D01*
X159750190Y-135291047D01*
X159226380Y-134005333D02*
X159940666Y-134005333D01*
X160083523Y-134052952D01*
X160178761Y-134148190D01*
X160226380Y-134291047D01*
X160226380Y-134386285D01*
X160226380Y-133005333D02*
X160226380Y-133576761D01*
X160226380Y-133291047D02*
X159226380Y-133291047D01*
X159369238Y-133386285D01*
X159464476Y-133481523D01*
X159512095Y-133576761D01*
G04 #@! TO.C,C0.1nF2*
X109394904Y-85955142D02*
X109347285Y-86002761D01*
X109204428Y-86050380D01*
X109109190Y-86050380D01*
X108966333Y-86002761D01*
X108871095Y-85907523D01*
X108823476Y-85812285D01*
X108775857Y-85621809D01*
X108775857Y-85478952D01*
X108823476Y-85288476D01*
X108871095Y-85193238D01*
X108966333Y-85098000D01*
X109109190Y-85050380D01*
X109204428Y-85050380D01*
X109347285Y-85098000D01*
X109394904Y-85145619D01*
X110013952Y-85050380D02*
X110109190Y-85050380D01*
X110204428Y-85098000D01*
X110252047Y-85145619D01*
X110299666Y-85240857D01*
X110347285Y-85431333D01*
X110347285Y-85669428D01*
X110299666Y-85859904D01*
X110252047Y-85955142D01*
X110204428Y-86002761D01*
X110109190Y-86050380D01*
X110013952Y-86050380D01*
X109918714Y-86002761D01*
X109871095Y-85955142D01*
X109823476Y-85859904D01*
X109775857Y-85669428D01*
X109775857Y-85431333D01*
X109823476Y-85240857D01*
X109871095Y-85145619D01*
X109918714Y-85098000D01*
X110013952Y-85050380D01*
X110775857Y-85955142D02*
X110823476Y-86002761D01*
X110775857Y-86050380D01*
X110728238Y-86002761D01*
X110775857Y-85955142D01*
X110775857Y-86050380D01*
X111775857Y-86050380D02*
X111204428Y-86050380D01*
X111490142Y-86050380D02*
X111490142Y-85050380D01*
X111394904Y-85193238D01*
X111299666Y-85288476D01*
X111204428Y-85336095D01*
X112204428Y-85383714D02*
X112204428Y-86050380D01*
X112204428Y-85478952D02*
X112252047Y-85431333D01*
X112347285Y-85383714D01*
X112490142Y-85383714D01*
X112585380Y-85431333D01*
X112633000Y-85526571D01*
X112633000Y-86050380D01*
X113442523Y-85526571D02*
X113109190Y-85526571D01*
X113109190Y-86050380D02*
X113109190Y-85050380D01*
X113585380Y-85050380D01*
X113918714Y-85145619D02*
X113966333Y-85098000D01*
X114061571Y-85050380D01*
X114299666Y-85050380D01*
X114394904Y-85098000D01*
X114442523Y-85145619D01*
X114490142Y-85240857D01*
X114490142Y-85336095D01*
X114442523Y-85478952D01*
X113871095Y-86050380D01*
X114490142Y-86050380D01*
G04 #@! TO.C,C0.1nF1*
X110537904Y-108307142D02*
X110490285Y-108354761D01*
X110347428Y-108402380D01*
X110252190Y-108402380D01*
X110109333Y-108354761D01*
X110014095Y-108259523D01*
X109966476Y-108164285D01*
X109918857Y-107973809D01*
X109918857Y-107830952D01*
X109966476Y-107640476D01*
X110014095Y-107545238D01*
X110109333Y-107450000D01*
X110252190Y-107402380D01*
X110347428Y-107402380D01*
X110490285Y-107450000D01*
X110537904Y-107497619D01*
X111156952Y-107402380D02*
X111252190Y-107402380D01*
X111347428Y-107450000D01*
X111395047Y-107497619D01*
X111442666Y-107592857D01*
X111490285Y-107783333D01*
X111490285Y-108021428D01*
X111442666Y-108211904D01*
X111395047Y-108307142D01*
X111347428Y-108354761D01*
X111252190Y-108402380D01*
X111156952Y-108402380D01*
X111061714Y-108354761D01*
X111014095Y-108307142D01*
X110966476Y-108211904D01*
X110918857Y-108021428D01*
X110918857Y-107783333D01*
X110966476Y-107592857D01*
X111014095Y-107497619D01*
X111061714Y-107450000D01*
X111156952Y-107402380D01*
X111918857Y-108307142D02*
X111966476Y-108354761D01*
X111918857Y-108402380D01*
X111871238Y-108354761D01*
X111918857Y-108307142D01*
X111918857Y-108402380D01*
X112918857Y-108402380D02*
X112347428Y-108402380D01*
X112633142Y-108402380D02*
X112633142Y-107402380D01*
X112537904Y-107545238D01*
X112442666Y-107640476D01*
X112347428Y-107688095D01*
X113347428Y-107735714D02*
X113347428Y-108402380D01*
X113347428Y-107830952D02*
X113395047Y-107783333D01*
X113490285Y-107735714D01*
X113633142Y-107735714D01*
X113728380Y-107783333D01*
X113776000Y-107878571D01*
X113776000Y-108402380D01*
X114585523Y-107878571D02*
X114252190Y-107878571D01*
X114252190Y-108402380D02*
X114252190Y-107402380D01*
X114728380Y-107402380D01*
X115633142Y-108402380D02*
X115061714Y-108402380D01*
X115347428Y-108402380D02*
X115347428Y-107402380D01*
X115252190Y-107545238D01*
X115156952Y-107640476D01*
X115061714Y-107688095D01*
G04 #@! TO.C,C0.1nF0*
X151558904Y-110339142D02*
X151511285Y-110386761D01*
X151368428Y-110434380D01*
X151273190Y-110434380D01*
X151130333Y-110386761D01*
X151035095Y-110291523D01*
X150987476Y-110196285D01*
X150939857Y-110005809D01*
X150939857Y-109862952D01*
X150987476Y-109672476D01*
X151035095Y-109577238D01*
X151130333Y-109482000D01*
X151273190Y-109434380D01*
X151368428Y-109434380D01*
X151511285Y-109482000D01*
X151558904Y-109529619D01*
X152177952Y-109434380D02*
X152273190Y-109434380D01*
X152368428Y-109482000D01*
X152416047Y-109529619D01*
X152463666Y-109624857D01*
X152511285Y-109815333D01*
X152511285Y-110053428D01*
X152463666Y-110243904D01*
X152416047Y-110339142D01*
X152368428Y-110386761D01*
X152273190Y-110434380D01*
X152177952Y-110434380D01*
X152082714Y-110386761D01*
X152035095Y-110339142D01*
X151987476Y-110243904D01*
X151939857Y-110053428D01*
X151939857Y-109815333D01*
X151987476Y-109624857D01*
X152035095Y-109529619D01*
X152082714Y-109482000D01*
X152177952Y-109434380D01*
X152939857Y-110339142D02*
X152987476Y-110386761D01*
X152939857Y-110434380D01*
X152892238Y-110386761D01*
X152939857Y-110339142D01*
X152939857Y-110434380D01*
X153939857Y-110434380D02*
X153368428Y-110434380D01*
X153654142Y-110434380D02*
X153654142Y-109434380D01*
X153558904Y-109577238D01*
X153463666Y-109672476D01*
X153368428Y-109720095D01*
X154368428Y-109767714D02*
X154368428Y-110434380D01*
X154368428Y-109862952D02*
X154416047Y-109815333D01*
X154511285Y-109767714D01*
X154654142Y-109767714D01*
X154749380Y-109815333D01*
X154797000Y-109910571D01*
X154797000Y-110434380D01*
X155606523Y-109910571D02*
X155273190Y-109910571D01*
X155273190Y-110434380D02*
X155273190Y-109434380D01*
X155749380Y-109434380D01*
X156320809Y-109434380D02*
X156416047Y-109434380D01*
X156511285Y-109482000D01*
X156558904Y-109529619D01*
X156606523Y-109624857D01*
X156654142Y-109815333D01*
X156654142Y-110053428D01*
X156606523Y-110243904D01*
X156558904Y-110339142D01*
X156511285Y-110386761D01*
X156416047Y-110434380D01*
X156320809Y-110434380D01*
X156225571Y-110386761D01*
X156177952Y-110339142D01*
X156130333Y-110243904D01*
X156082714Y-110053428D01*
X156082714Y-109815333D01*
X156130333Y-109624857D01*
X156177952Y-109529619D01*
X156225571Y-109482000D01*
X156320809Y-109434380D01*
G04 #@! TO.C,+5V_IN1*
X167529238Y-63698428D02*
X168291142Y-63698428D01*
X167910190Y-64079380D02*
X167910190Y-63317476D01*
X169243523Y-63079380D02*
X168767333Y-63079380D01*
X168719714Y-63555571D01*
X168767333Y-63507952D01*
X168862571Y-63460333D01*
X169100666Y-63460333D01*
X169195904Y-63507952D01*
X169243523Y-63555571D01*
X169291142Y-63650809D01*
X169291142Y-63888904D01*
X169243523Y-63984142D01*
X169195904Y-64031761D01*
X169100666Y-64079380D01*
X168862571Y-64079380D01*
X168767333Y-64031761D01*
X168719714Y-63984142D01*
X169576857Y-63079380D02*
X169910190Y-64079380D01*
X170243523Y-63079380D01*
X170338761Y-64174619D02*
X171100666Y-64174619D01*
X171338761Y-64079380D02*
X171338761Y-63079380D01*
X171814952Y-64079380D02*
X171814952Y-63079380D01*
X172386380Y-64079380D01*
X172386380Y-63079380D01*
X173386380Y-64079380D02*
X172814952Y-64079380D01*
X173100666Y-64079380D02*
X173100666Y-63079380D01*
X173005428Y-63222238D01*
X172910190Y-63317476D01*
X172814952Y-63365095D01*
G04 #@! TO.C,GND1*
X168560904Y-138438000D02*
X168465666Y-138390380D01*
X168322809Y-138390380D01*
X168179952Y-138438000D01*
X168084714Y-138533238D01*
X168037095Y-138628476D01*
X167989476Y-138818952D01*
X167989476Y-138961809D01*
X168037095Y-139152285D01*
X168084714Y-139247523D01*
X168179952Y-139342761D01*
X168322809Y-139390380D01*
X168418047Y-139390380D01*
X168560904Y-139342761D01*
X168608523Y-139295142D01*
X168608523Y-138961809D01*
X168418047Y-138961809D01*
X169037095Y-139390380D02*
X169037095Y-138390380D01*
X169608523Y-139390380D01*
X169608523Y-138390380D01*
X170084714Y-139390380D02*
X170084714Y-138390380D01*
X170322809Y-138390380D01*
X170465666Y-138438000D01*
X170560904Y-138533238D01*
X170608523Y-138628476D01*
X170656142Y-138818952D01*
X170656142Y-138961809D01*
X170608523Y-139152285D01*
X170560904Y-139247523D01*
X170465666Y-139342761D01*
X170322809Y-139390380D01*
X170084714Y-139390380D01*
X171608523Y-139390380D02*
X171037095Y-139390380D01*
X171322809Y-139390380D02*
X171322809Y-138390380D01*
X171227571Y-138533238D01*
X171132333Y-138628476D01*
X171037095Y-138676095D01*
G04 #@! TO.C,Solenoid1*
X178331761Y-125674000D02*
X178379380Y-125531142D01*
X178379380Y-125293047D01*
X178331761Y-125197809D01*
X178284142Y-125150190D01*
X178188904Y-125102571D01*
X178093666Y-125102571D01*
X177998428Y-125150190D01*
X177950809Y-125197809D01*
X177903190Y-125293047D01*
X177855571Y-125483523D01*
X177807952Y-125578761D01*
X177760333Y-125626380D01*
X177665095Y-125674000D01*
X177569857Y-125674000D01*
X177474619Y-125626380D01*
X177427000Y-125578761D01*
X177379380Y-125483523D01*
X177379380Y-125245428D01*
X177427000Y-125102571D01*
X178379380Y-124531142D02*
X178331761Y-124626380D01*
X178284142Y-124674000D01*
X178188904Y-124721619D01*
X177903190Y-124721619D01*
X177807952Y-124674000D01*
X177760333Y-124626380D01*
X177712714Y-124531142D01*
X177712714Y-124388285D01*
X177760333Y-124293047D01*
X177807952Y-124245428D01*
X177903190Y-124197809D01*
X178188904Y-124197809D01*
X178284142Y-124245428D01*
X178331761Y-124293047D01*
X178379380Y-124388285D01*
X178379380Y-124531142D01*
X178379380Y-123626380D02*
X178331761Y-123721619D01*
X178236523Y-123769238D01*
X177379380Y-123769238D01*
X178331761Y-122864476D02*
X178379380Y-122959714D01*
X178379380Y-123150190D01*
X178331761Y-123245428D01*
X178236523Y-123293047D01*
X177855571Y-123293047D01*
X177760333Y-123245428D01*
X177712714Y-123150190D01*
X177712714Y-122959714D01*
X177760333Y-122864476D01*
X177855571Y-122816857D01*
X177950809Y-122816857D01*
X178046047Y-123293047D01*
X177712714Y-122388285D02*
X178379380Y-122388285D01*
X177807952Y-122388285D02*
X177760333Y-122340666D01*
X177712714Y-122245428D01*
X177712714Y-122102571D01*
X177760333Y-122007333D01*
X177855571Y-121959714D01*
X178379380Y-121959714D01*
X178379380Y-121340666D02*
X178331761Y-121435904D01*
X178284142Y-121483523D01*
X178188904Y-121531142D01*
X177903190Y-121531142D01*
X177807952Y-121483523D01*
X177760333Y-121435904D01*
X177712714Y-121340666D01*
X177712714Y-121197809D01*
X177760333Y-121102571D01*
X177807952Y-121054952D01*
X177903190Y-121007333D01*
X178188904Y-121007333D01*
X178284142Y-121054952D01*
X178331761Y-121102571D01*
X178379380Y-121197809D01*
X178379380Y-121340666D01*
X178379380Y-120578761D02*
X177712714Y-120578761D01*
X177379380Y-120578761D02*
X177427000Y-120626380D01*
X177474619Y-120578761D01*
X177427000Y-120531142D01*
X177379380Y-120578761D01*
X177474619Y-120578761D01*
X178379380Y-119674000D02*
X177379380Y-119674000D01*
X178331761Y-119674000D02*
X178379380Y-119769238D01*
X178379380Y-119959714D01*
X178331761Y-120054952D01*
X178284142Y-120102571D01*
X178188904Y-120150190D01*
X177903190Y-120150190D01*
X177807952Y-120102571D01*
X177760333Y-120054952D01*
X177712714Y-119959714D01*
X177712714Y-119769238D01*
X177760333Y-119674000D01*
X178379380Y-118674000D02*
X178379380Y-119245428D01*
X178379380Y-118959714D02*
X177379380Y-118959714D01*
X177522238Y-119054952D01*
X177617476Y-119150190D01*
X177665095Y-119245428D01*
G04 #@! TO.C,8b0*
X112133190Y-89796952D02*
X112037952Y-89749333D01*
X111990333Y-89701714D01*
X111942714Y-89606476D01*
X111942714Y-89558857D01*
X111990333Y-89463619D01*
X112037952Y-89416000D01*
X112133190Y-89368380D01*
X112323666Y-89368380D01*
X112418904Y-89416000D01*
X112466523Y-89463619D01*
X112514142Y-89558857D01*
X112514142Y-89606476D01*
X112466523Y-89701714D01*
X112418904Y-89749333D01*
X112323666Y-89796952D01*
X112133190Y-89796952D01*
X112037952Y-89844571D01*
X111990333Y-89892190D01*
X111942714Y-89987428D01*
X111942714Y-90177904D01*
X111990333Y-90273142D01*
X112037952Y-90320761D01*
X112133190Y-90368380D01*
X112323666Y-90368380D01*
X112418904Y-90320761D01*
X112466523Y-90273142D01*
X112514142Y-90177904D01*
X112514142Y-89987428D01*
X112466523Y-89892190D01*
X112418904Y-89844571D01*
X112323666Y-89796952D01*
X112942714Y-90368380D02*
X112942714Y-89368380D01*
X112942714Y-89749333D02*
X113037952Y-89701714D01*
X113228428Y-89701714D01*
X113323666Y-89749333D01*
X113371285Y-89796952D01*
X113418904Y-89892190D01*
X113418904Y-90177904D01*
X113371285Y-90273142D01*
X113323666Y-90320761D01*
X113228428Y-90368380D01*
X113037952Y-90368380D01*
X112942714Y-90320761D01*
X114037952Y-89368380D02*
X114133190Y-89368380D01*
X114228428Y-89416000D01*
X114276047Y-89463619D01*
X114323666Y-89558857D01*
X114371285Y-89749333D01*
X114371285Y-89987428D01*
X114323666Y-90177904D01*
X114276047Y-90273142D01*
X114228428Y-90320761D01*
X114133190Y-90368380D01*
X114037952Y-90368380D01*
X113942714Y-90320761D01*
X113895095Y-90273142D01*
X113847476Y-90177904D01*
X113799857Y-89987428D01*
X113799857Y-89749333D01*
X113847476Y-89558857D01*
X113895095Y-89463619D01*
X113942714Y-89416000D01*
X114037952Y-89368380D01*
G04 #@! TO.C,8b1*
X110355190Y-67825952D02*
X110259952Y-67778333D01*
X110212333Y-67730714D01*
X110164714Y-67635476D01*
X110164714Y-67587857D01*
X110212333Y-67492619D01*
X110259952Y-67445000D01*
X110355190Y-67397380D01*
X110545666Y-67397380D01*
X110640904Y-67445000D01*
X110688523Y-67492619D01*
X110736142Y-67587857D01*
X110736142Y-67635476D01*
X110688523Y-67730714D01*
X110640904Y-67778333D01*
X110545666Y-67825952D01*
X110355190Y-67825952D01*
X110259952Y-67873571D01*
X110212333Y-67921190D01*
X110164714Y-68016428D01*
X110164714Y-68206904D01*
X110212333Y-68302142D01*
X110259952Y-68349761D01*
X110355190Y-68397380D01*
X110545666Y-68397380D01*
X110640904Y-68349761D01*
X110688523Y-68302142D01*
X110736142Y-68206904D01*
X110736142Y-68016428D01*
X110688523Y-67921190D01*
X110640904Y-67873571D01*
X110545666Y-67825952D01*
X111164714Y-68397380D02*
X111164714Y-67397380D01*
X111164714Y-67778333D02*
X111259952Y-67730714D01*
X111450428Y-67730714D01*
X111545666Y-67778333D01*
X111593285Y-67825952D01*
X111640904Y-67921190D01*
X111640904Y-68206904D01*
X111593285Y-68302142D01*
X111545666Y-68349761D01*
X111450428Y-68397380D01*
X111259952Y-68397380D01*
X111164714Y-68349761D01*
X112593285Y-68397380D02*
X112021857Y-68397380D01*
X112307571Y-68397380D02*
X112307571Y-67397380D01*
X112212333Y-67540238D01*
X112117095Y-67635476D01*
X112021857Y-67683095D01*
G04 #@! TO.C,FET2*
X163044333Y-74350571D02*
X162711000Y-74350571D01*
X162711000Y-74874380D02*
X162711000Y-73874380D01*
X163187190Y-73874380D01*
X163568142Y-74350571D02*
X163901476Y-74350571D01*
X164044333Y-74874380D02*
X163568142Y-74874380D01*
X163568142Y-73874380D01*
X164044333Y-73874380D01*
X164330047Y-73874380D02*
X164901476Y-73874380D01*
X164615761Y-74874380D02*
X164615761Y-73874380D01*
X165187190Y-73969619D02*
X165234809Y-73922000D01*
X165330047Y-73874380D01*
X165568142Y-73874380D01*
X165663380Y-73922000D01*
X165711000Y-73969619D01*
X165758619Y-74064857D01*
X165758619Y-74160095D01*
X165711000Y-74302952D01*
X165139571Y-74874380D01*
X165758619Y-74874380D01*
G04 #@! TO.C,INP5*
X103449380Y-135993000D02*
X102449380Y-135993000D01*
X103449380Y-135516809D02*
X102449380Y-135516809D01*
X103449380Y-134945380D01*
X102449380Y-134945380D01*
X103449380Y-134469190D02*
X102449380Y-134469190D01*
X102449380Y-134088238D01*
X102497000Y-133993000D01*
X102544619Y-133945380D01*
X102639857Y-133897761D01*
X102782714Y-133897761D01*
X102877952Y-133945380D01*
X102925571Y-133993000D01*
X102973190Y-134088238D01*
X102973190Y-134469190D01*
X102449380Y-132993000D02*
X102449380Y-133469190D01*
X102925571Y-133516809D01*
X102877952Y-133469190D01*
X102830333Y-133373952D01*
X102830333Y-133135857D01*
X102877952Y-133040619D01*
X102925571Y-132993000D01*
X103020809Y-132945380D01*
X103258904Y-132945380D01*
X103354142Y-132993000D01*
X103401761Y-133040619D01*
X103449380Y-133135857D01*
X103449380Y-133373952D01*
X103401761Y-133469190D01*
X103354142Y-133516809D01*
G04 #@! TO.C,INP4*
X103449380Y-123801000D02*
X102449380Y-123801000D01*
X103449380Y-123324809D02*
X102449380Y-123324809D01*
X103449380Y-122753380D01*
X102449380Y-122753380D01*
X103449380Y-122277190D02*
X102449380Y-122277190D01*
X102449380Y-121896238D01*
X102497000Y-121801000D01*
X102544619Y-121753380D01*
X102639857Y-121705761D01*
X102782714Y-121705761D01*
X102877952Y-121753380D01*
X102925571Y-121801000D01*
X102973190Y-121896238D01*
X102973190Y-122277190D01*
X102782714Y-120848619D02*
X103449380Y-120848619D01*
X102401761Y-121086714D02*
X103116047Y-121324809D01*
X103116047Y-120705761D01*
G04 #@! TO.C,INP3*
X103449380Y-111609000D02*
X102449380Y-111609000D01*
X103449380Y-111132809D02*
X102449380Y-111132809D01*
X103449380Y-110561380D01*
X102449380Y-110561380D01*
X103449380Y-110085190D02*
X102449380Y-110085190D01*
X102449380Y-109704238D01*
X102497000Y-109609000D01*
X102544619Y-109561380D01*
X102639857Y-109513761D01*
X102782714Y-109513761D01*
X102877952Y-109561380D01*
X102925571Y-109609000D01*
X102973190Y-109704238D01*
X102973190Y-110085190D01*
X102449380Y-109180428D02*
X102449380Y-108561380D01*
X102830333Y-108894714D01*
X102830333Y-108751857D01*
X102877952Y-108656619D01*
X102925571Y-108609000D01*
X103020809Y-108561380D01*
X103258904Y-108561380D01*
X103354142Y-108609000D01*
X103401761Y-108656619D01*
X103449380Y-108751857D01*
X103449380Y-109037571D01*
X103401761Y-109132809D01*
X103354142Y-109180428D01*
G04 #@! TO.C,INP2*
X103449380Y-99417000D02*
X102449380Y-99417000D01*
X103449380Y-98940809D02*
X102449380Y-98940809D01*
X103449380Y-98369380D01*
X102449380Y-98369380D01*
X103449380Y-97893190D02*
X102449380Y-97893190D01*
X102449380Y-97512238D01*
X102497000Y-97417000D01*
X102544619Y-97369380D01*
X102639857Y-97321761D01*
X102782714Y-97321761D01*
X102877952Y-97369380D01*
X102925571Y-97417000D01*
X102973190Y-97512238D01*
X102973190Y-97893190D01*
X102544619Y-96940809D02*
X102497000Y-96893190D01*
X102449380Y-96797952D01*
X102449380Y-96559857D01*
X102497000Y-96464619D01*
X102544619Y-96417000D01*
X102639857Y-96369380D01*
X102735095Y-96369380D01*
X102877952Y-96417000D01*
X103449380Y-96988428D01*
X103449380Y-96369380D01*
G04 #@! TO.C,INP1*
X103449380Y-86717000D02*
X102449380Y-86717000D01*
X103449380Y-86240809D02*
X102449380Y-86240809D01*
X103449380Y-85669380D01*
X102449380Y-85669380D01*
X103449380Y-85193190D02*
X102449380Y-85193190D01*
X102449380Y-84812238D01*
X102497000Y-84717000D01*
X102544619Y-84669380D01*
X102639857Y-84621761D01*
X102782714Y-84621761D01*
X102877952Y-84669380D01*
X102925571Y-84717000D01*
X102973190Y-84812238D01*
X102973190Y-85193190D01*
X103449380Y-83669380D02*
X103449380Y-84240809D01*
X103449380Y-83955095D02*
X102449380Y-83955095D01*
X102592238Y-84050333D01*
X102687476Y-84145571D01*
X102735095Y-84240809D01*
G04 #@! TO.C,INP0*
X103703380Y-70715000D02*
X102703380Y-70715000D01*
X103703380Y-70238809D02*
X102703380Y-70238809D01*
X103703380Y-69667380D01*
X102703380Y-69667380D01*
X103703380Y-69191190D02*
X102703380Y-69191190D01*
X102703380Y-68810238D01*
X102751000Y-68715000D01*
X102798619Y-68667380D01*
X102893857Y-68619761D01*
X103036714Y-68619761D01*
X103131952Y-68667380D01*
X103179571Y-68715000D01*
X103227190Y-68810238D01*
X103227190Y-69191190D01*
X102703380Y-68000714D02*
X102703380Y-67905476D01*
X102751000Y-67810238D01*
X102798619Y-67762619D01*
X102893857Y-67715000D01*
X103084333Y-67667380D01*
X103322428Y-67667380D01*
X103512904Y-67715000D01*
X103608142Y-67762619D01*
X103655761Y-67810238D01*
X103703380Y-67905476D01*
X103703380Y-68000714D01*
X103655761Y-68095952D01*
X103608142Y-68143571D01*
X103512904Y-68191190D01*
X103322428Y-68238809D01*
X103084333Y-68238809D01*
X102893857Y-68191190D01*
X102798619Y-68143571D01*
X102751000Y-68095952D01*
X102703380Y-68000714D01*
G04 #@! TO.C,RS-485*
X134056714Y-106116380D02*
X133723380Y-105640190D01*
X133485285Y-106116380D02*
X133485285Y-105116380D01*
X133866238Y-105116380D01*
X133961476Y-105164000D01*
X134009095Y-105211619D01*
X134056714Y-105306857D01*
X134056714Y-105449714D01*
X134009095Y-105544952D01*
X133961476Y-105592571D01*
X133866238Y-105640190D01*
X133485285Y-105640190D01*
X134437666Y-106068761D02*
X134580523Y-106116380D01*
X134818619Y-106116380D01*
X134913857Y-106068761D01*
X134961476Y-106021142D01*
X135009095Y-105925904D01*
X135009095Y-105830666D01*
X134961476Y-105735428D01*
X134913857Y-105687809D01*
X134818619Y-105640190D01*
X134628142Y-105592571D01*
X134532904Y-105544952D01*
X134485285Y-105497333D01*
X134437666Y-105402095D01*
X134437666Y-105306857D01*
X134485285Y-105211619D01*
X134532904Y-105164000D01*
X134628142Y-105116380D01*
X134866238Y-105116380D01*
X135009095Y-105164000D01*
X135437666Y-105735428D02*
X136199571Y-105735428D01*
X137104333Y-105449714D02*
X137104333Y-106116380D01*
X136866238Y-105068761D02*
X136628142Y-105783047D01*
X137247190Y-105783047D01*
X137771000Y-105544952D02*
X137675761Y-105497333D01*
X137628142Y-105449714D01*
X137580523Y-105354476D01*
X137580523Y-105306857D01*
X137628142Y-105211619D01*
X137675761Y-105164000D01*
X137771000Y-105116380D01*
X137961476Y-105116380D01*
X138056714Y-105164000D01*
X138104333Y-105211619D01*
X138151952Y-105306857D01*
X138151952Y-105354476D01*
X138104333Y-105449714D01*
X138056714Y-105497333D01*
X137961476Y-105544952D01*
X137771000Y-105544952D01*
X137675761Y-105592571D01*
X137628142Y-105640190D01*
X137580523Y-105735428D01*
X137580523Y-105925904D01*
X137628142Y-106021142D01*
X137675761Y-106068761D01*
X137771000Y-106116380D01*
X137961476Y-106116380D01*
X138056714Y-106068761D01*
X138104333Y-106021142D01*
X138151952Y-105925904D01*
X138151952Y-105735428D01*
X138104333Y-105640190D01*
X138056714Y-105592571D01*
X137961476Y-105544952D01*
X139056714Y-105116380D02*
X138580523Y-105116380D01*
X138532904Y-105592571D01*
X138580523Y-105544952D01*
X138675761Y-105497333D01*
X138913857Y-105497333D01*
X139009095Y-105544952D01*
X139056714Y-105592571D01*
X139104333Y-105687809D01*
X139104333Y-105925904D01*
X139056714Y-106021142D01*
X139009095Y-106068761D01*
X138913857Y-106116380D01*
X138675761Y-106116380D01*
X138580523Y-106068761D01*
X138532904Y-106021142D01*
G04 #@! TO.C,Prt_IC1*
X133818619Y-112847380D02*
X133818619Y-111847380D01*
X134199571Y-111847380D01*
X134294809Y-111895000D01*
X134342428Y-111942619D01*
X134390047Y-112037857D01*
X134390047Y-112180714D01*
X134342428Y-112275952D01*
X134294809Y-112323571D01*
X134199571Y-112371190D01*
X133818619Y-112371190D01*
X134818619Y-112847380D02*
X134818619Y-112180714D01*
X134818619Y-112371190D02*
X134866238Y-112275952D01*
X134913857Y-112228333D01*
X135009095Y-112180714D01*
X135104333Y-112180714D01*
X135294809Y-112180714D02*
X135675761Y-112180714D01*
X135437666Y-111847380D02*
X135437666Y-112704523D01*
X135485285Y-112799761D01*
X135580523Y-112847380D01*
X135675761Y-112847380D01*
X135771000Y-112942619D02*
X136532904Y-112942619D01*
X136771000Y-112847380D02*
X136771000Y-111847380D01*
X137818619Y-112752142D02*
X137771000Y-112799761D01*
X137628142Y-112847380D01*
X137532904Y-112847380D01*
X137390047Y-112799761D01*
X137294809Y-112704523D01*
X137247190Y-112609285D01*
X137199571Y-112418809D01*
X137199571Y-112275952D01*
X137247190Y-112085476D01*
X137294809Y-111990238D01*
X137390047Y-111895000D01*
X137532904Y-111847380D01*
X137628142Y-111847380D01*
X137771000Y-111895000D01*
X137818619Y-111942619D01*
X138771000Y-112847380D02*
X138199571Y-112847380D01*
X138485285Y-112847380D02*
X138485285Y-111847380D01*
X138390047Y-111990238D01*
X138294809Y-112085476D01*
X138199571Y-112133095D01*
G04 #@! TO.C,R11*
X121235380Y-111640857D02*
X120759190Y-111974190D01*
X121235380Y-112212285D02*
X120235380Y-112212285D01*
X120235380Y-111831333D01*
X120283000Y-111736095D01*
X120330619Y-111688476D01*
X120425857Y-111640857D01*
X120568714Y-111640857D01*
X120663952Y-111688476D01*
X120711571Y-111736095D01*
X120759190Y-111831333D01*
X120759190Y-112212285D01*
X121235380Y-110688476D02*
X121235380Y-111259904D01*
X121235380Y-110974190D02*
X120235380Y-110974190D01*
X120378238Y-111069428D01*
X120473476Y-111164666D01*
X120521095Y-111259904D01*
X121235380Y-109736095D02*
X121235380Y-110307523D01*
X121235380Y-110021809D02*
X120235380Y-110021809D01*
X120378238Y-110117047D01*
X120473476Y-110212285D01*
X120521095Y-110307523D01*
G04 #@! TO.C,R105*
X168044952Y-99639380D02*
X167711619Y-99163190D01*
X167473523Y-99639380D02*
X167473523Y-98639380D01*
X167854476Y-98639380D01*
X167949714Y-98687000D01*
X167997333Y-98734619D01*
X168044952Y-98829857D01*
X168044952Y-98972714D01*
X167997333Y-99067952D01*
X167949714Y-99115571D01*
X167854476Y-99163190D01*
X167473523Y-99163190D01*
X168997333Y-99639380D02*
X168425904Y-99639380D01*
X168711619Y-99639380D02*
X168711619Y-98639380D01*
X168616380Y-98782238D01*
X168521142Y-98877476D01*
X168425904Y-98925095D01*
X169616380Y-98639380D02*
X169711619Y-98639380D01*
X169806857Y-98687000D01*
X169854476Y-98734619D01*
X169902095Y-98829857D01*
X169949714Y-99020333D01*
X169949714Y-99258428D01*
X169902095Y-99448904D01*
X169854476Y-99544142D01*
X169806857Y-99591761D01*
X169711619Y-99639380D01*
X169616380Y-99639380D01*
X169521142Y-99591761D01*
X169473523Y-99544142D01*
X169425904Y-99448904D01*
X169378285Y-99258428D01*
X169378285Y-99020333D01*
X169425904Y-98829857D01*
X169473523Y-98734619D01*
X169521142Y-98687000D01*
X169616380Y-98639380D01*
X170854476Y-98639380D02*
X170378285Y-98639380D01*
X170330666Y-99115571D01*
X170378285Y-99067952D01*
X170473523Y-99020333D01*
X170711619Y-99020333D01*
X170806857Y-99067952D01*
X170854476Y-99115571D01*
X170902095Y-99210809D01*
X170902095Y-99448904D01*
X170854476Y-99544142D01*
X170806857Y-99591761D01*
X170711619Y-99639380D01*
X170473523Y-99639380D01*
X170378285Y-99591761D01*
X170330666Y-99544142D01*
G04 #@! TO.C,R104*
X174140952Y-112212380D02*
X173807619Y-111736190D01*
X173569523Y-112212380D02*
X173569523Y-111212380D01*
X173950476Y-111212380D01*
X174045714Y-111260000D01*
X174093333Y-111307619D01*
X174140952Y-111402857D01*
X174140952Y-111545714D01*
X174093333Y-111640952D01*
X174045714Y-111688571D01*
X173950476Y-111736190D01*
X173569523Y-111736190D01*
X175093333Y-112212380D02*
X174521904Y-112212380D01*
X174807619Y-112212380D02*
X174807619Y-111212380D01*
X174712380Y-111355238D01*
X174617142Y-111450476D01*
X174521904Y-111498095D01*
X175712380Y-111212380D02*
X175807619Y-111212380D01*
X175902857Y-111260000D01*
X175950476Y-111307619D01*
X175998095Y-111402857D01*
X176045714Y-111593333D01*
X176045714Y-111831428D01*
X175998095Y-112021904D01*
X175950476Y-112117142D01*
X175902857Y-112164761D01*
X175807619Y-112212380D01*
X175712380Y-112212380D01*
X175617142Y-112164761D01*
X175569523Y-112117142D01*
X175521904Y-112021904D01*
X175474285Y-111831428D01*
X175474285Y-111593333D01*
X175521904Y-111402857D01*
X175569523Y-111307619D01*
X175617142Y-111260000D01*
X175712380Y-111212380D01*
X176902857Y-111545714D02*
X176902857Y-112212380D01*
X176664761Y-111164761D02*
X176426666Y-111879047D01*
X177045714Y-111879047D01*
G04 #@! TO.C,R103*
X162456952Y-122372380D02*
X162123619Y-121896190D01*
X161885523Y-122372380D02*
X161885523Y-121372380D01*
X162266476Y-121372380D01*
X162361714Y-121420000D01*
X162409333Y-121467619D01*
X162456952Y-121562857D01*
X162456952Y-121705714D01*
X162409333Y-121800952D01*
X162361714Y-121848571D01*
X162266476Y-121896190D01*
X161885523Y-121896190D01*
X163409333Y-122372380D02*
X162837904Y-122372380D01*
X163123619Y-122372380D02*
X163123619Y-121372380D01*
X163028380Y-121515238D01*
X162933142Y-121610476D01*
X162837904Y-121658095D01*
X164028380Y-121372380D02*
X164123619Y-121372380D01*
X164218857Y-121420000D01*
X164266476Y-121467619D01*
X164314095Y-121562857D01*
X164361714Y-121753333D01*
X164361714Y-121991428D01*
X164314095Y-122181904D01*
X164266476Y-122277142D01*
X164218857Y-122324761D01*
X164123619Y-122372380D01*
X164028380Y-122372380D01*
X163933142Y-122324761D01*
X163885523Y-122277142D01*
X163837904Y-122181904D01*
X163790285Y-121991428D01*
X163790285Y-121753333D01*
X163837904Y-121562857D01*
X163885523Y-121467619D01*
X163933142Y-121420000D01*
X164028380Y-121372380D01*
X164695047Y-121372380D02*
X165314095Y-121372380D01*
X164980761Y-121753333D01*
X165123619Y-121753333D01*
X165218857Y-121800952D01*
X165266476Y-121848571D01*
X165314095Y-121943809D01*
X165314095Y-122181904D01*
X165266476Y-122277142D01*
X165218857Y-122324761D01*
X165123619Y-122372380D01*
X164837904Y-122372380D01*
X164742666Y-122324761D01*
X164695047Y-122277142D01*
G04 #@! TO.C,R102*
X162583952Y-68397380D02*
X162250619Y-67921190D01*
X162012523Y-68397380D02*
X162012523Y-67397380D01*
X162393476Y-67397380D01*
X162488714Y-67445000D01*
X162536333Y-67492619D01*
X162583952Y-67587857D01*
X162583952Y-67730714D01*
X162536333Y-67825952D01*
X162488714Y-67873571D01*
X162393476Y-67921190D01*
X162012523Y-67921190D01*
X163536333Y-68397380D02*
X162964904Y-68397380D01*
X163250619Y-68397380D02*
X163250619Y-67397380D01*
X163155380Y-67540238D01*
X163060142Y-67635476D01*
X162964904Y-67683095D01*
X164155380Y-67397380D02*
X164250619Y-67397380D01*
X164345857Y-67445000D01*
X164393476Y-67492619D01*
X164441095Y-67587857D01*
X164488714Y-67778333D01*
X164488714Y-68016428D01*
X164441095Y-68206904D01*
X164393476Y-68302142D01*
X164345857Y-68349761D01*
X164250619Y-68397380D01*
X164155380Y-68397380D01*
X164060142Y-68349761D01*
X164012523Y-68302142D01*
X163964904Y-68206904D01*
X163917285Y-68016428D01*
X163917285Y-67778333D01*
X163964904Y-67587857D01*
X164012523Y-67492619D01*
X164060142Y-67445000D01*
X164155380Y-67397380D01*
X164869666Y-67492619D02*
X164917285Y-67445000D01*
X165012523Y-67397380D01*
X165250619Y-67397380D01*
X165345857Y-67445000D01*
X165393476Y-67492619D01*
X165441095Y-67587857D01*
X165441095Y-67683095D01*
X165393476Y-67825952D01*
X164822047Y-68397380D01*
X165441095Y-68397380D01*
G04 #@! TO.C,R101*
X162456952Y-79065380D02*
X162123619Y-78589190D01*
X161885523Y-79065380D02*
X161885523Y-78065380D01*
X162266476Y-78065380D01*
X162361714Y-78113000D01*
X162409333Y-78160619D01*
X162456952Y-78255857D01*
X162456952Y-78398714D01*
X162409333Y-78493952D01*
X162361714Y-78541571D01*
X162266476Y-78589190D01*
X161885523Y-78589190D01*
X163409333Y-79065380D02*
X162837904Y-79065380D01*
X163123619Y-79065380D02*
X163123619Y-78065380D01*
X163028380Y-78208238D01*
X162933142Y-78303476D01*
X162837904Y-78351095D01*
X164028380Y-78065380D02*
X164123619Y-78065380D01*
X164218857Y-78113000D01*
X164266476Y-78160619D01*
X164314095Y-78255857D01*
X164361714Y-78446333D01*
X164361714Y-78684428D01*
X164314095Y-78874904D01*
X164266476Y-78970142D01*
X164218857Y-79017761D01*
X164123619Y-79065380D01*
X164028380Y-79065380D01*
X163933142Y-79017761D01*
X163885523Y-78970142D01*
X163837904Y-78874904D01*
X163790285Y-78684428D01*
X163790285Y-78446333D01*
X163837904Y-78255857D01*
X163885523Y-78160619D01*
X163933142Y-78113000D01*
X164028380Y-78065380D01*
X165314095Y-79065380D02*
X164742666Y-79065380D01*
X165028380Y-79065380D02*
X165028380Y-78065380D01*
X164933142Y-78208238D01*
X164837904Y-78303476D01*
X164742666Y-78351095D01*
G04 #@! TO.C,R100*
X162202952Y-89352380D02*
X161869619Y-88876190D01*
X161631523Y-89352380D02*
X161631523Y-88352380D01*
X162012476Y-88352380D01*
X162107714Y-88400000D01*
X162155333Y-88447619D01*
X162202952Y-88542857D01*
X162202952Y-88685714D01*
X162155333Y-88780952D01*
X162107714Y-88828571D01*
X162012476Y-88876190D01*
X161631523Y-88876190D01*
X163155333Y-89352380D02*
X162583904Y-89352380D01*
X162869619Y-89352380D02*
X162869619Y-88352380D01*
X162774380Y-88495238D01*
X162679142Y-88590476D01*
X162583904Y-88638095D01*
X163774380Y-88352380D02*
X163869619Y-88352380D01*
X163964857Y-88400000D01*
X164012476Y-88447619D01*
X164060095Y-88542857D01*
X164107714Y-88733333D01*
X164107714Y-88971428D01*
X164060095Y-89161904D01*
X164012476Y-89257142D01*
X163964857Y-89304761D01*
X163869619Y-89352380D01*
X163774380Y-89352380D01*
X163679142Y-89304761D01*
X163631523Y-89257142D01*
X163583904Y-89161904D01*
X163536285Y-88971428D01*
X163536285Y-88733333D01*
X163583904Y-88542857D01*
X163631523Y-88447619D01*
X163679142Y-88400000D01*
X163774380Y-88352380D01*
X164726761Y-88352380D02*
X164822000Y-88352380D01*
X164917238Y-88400000D01*
X164964857Y-88447619D01*
X165012476Y-88542857D01*
X165060095Y-88733333D01*
X165060095Y-88971428D01*
X165012476Y-89161904D01*
X164964857Y-89257142D01*
X164917238Y-89304761D01*
X164822000Y-89352380D01*
X164726761Y-89352380D01*
X164631523Y-89304761D01*
X164583904Y-89257142D01*
X164536285Y-89161904D01*
X164488666Y-88971428D01*
X164488666Y-88733333D01*
X164536285Y-88542857D01*
X164583904Y-88447619D01*
X164631523Y-88400000D01*
X164726761Y-88352380D01*
G04 #@! TO.C,R10*
X127204380Y-113672857D02*
X126728190Y-114006190D01*
X127204380Y-114244285D02*
X126204380Y-114244285D01*
X126204380Y-113863333D01*
X126252000Y-113768095D01*
X126299619Y-113720476D01*
X126394857Y-113672857D01*
X126537714Y-113672857D01*
X126632952Y-113720476D01*
X126680571Y-113768095D01*
X126728190Y-113863333D01*
X126728190Y-114244285D01*
X127204380Y-112720476D02*
X127204380Y-113291904D01*
X127204380Y-113006190D02*
X126204380Y-113006190D01*
X126347238Y-113101428D01*
X126442476Y-113196666D01*
X126490095Y-113291904D01*
X126204380Y-112101428D02*
X126204380Y-112006190D01*
X126252000Y-111910952D01*
X126299619Y-111863333D01*
X126394857Y-111815714D01*
X126585333Y-111768095D01*
X126823428Y-111768095D01*
X127013904Y-111815714D01*
X127109142Y-111863333D01*
X127156761Y-111910952D01*
X127204380Y-112006190D01*
X127204380Y-112101428D01*
X127156761Y-112196666D01*
X127109142Y-112244285D01*
X127013904Y-112291904D01*
X126823428Y-112339523D01*
X126585333Y-112339523D01*
X126394857Y-112291904D01*
X126299619Y-112244285D01*
X126252000Y-112196666D01*
X126204380Y-112101428D01*
G04 #@! TO.C,FET5*
X174093333Y-102925571D02*
X173760000Y-102925571D01*
X173760000Y-103449380D02*
X173760000Y-102449380D01*
X174236190Y-102449380D01*
X174617142Y-102925571D02*
X174950476Y-102925571D01*
X175093333Y-103449380D02*
X174617142Y-103449380D01*
X174617142Y-102449380D01*
X175093333Y-102449380D01*
X175379047Y-102449380D02*
X175950476Y-102449380D01*
X175664761Y-103449380D02*
X175664761Y-102449380D01*
X176760000Y-102449380D02*
X176283809Y-102449380D01*
X176236190Y-102925571D01*
X176283809Y-102877952D01*
X176379047Y-102830333D01*
X176617142Y-102830333D01*
X176712380Y-102877952D01*
X176760000Y-102925571D01*
X176807619Y-103020809D01*
X176807619Y-103258904D01*
X176760000Y-103354142D01*
X176712380Y-103401761D01*
X176617142Y-103449380D01*
X176379047Y-103449380D01*
X176283809Y-103401761D01*
X176236190Y-103354142D01*
G04 #@! TO.C,FET4*
X163044333Y-114990571D02*
X162711000Y-114990571D01*
X162711000Y-115514380D02*
X162711000Y-114514380D01*
X163187190Y-114514380D01*
X163568142Y-114990571D02*
X163901476Y-114990571D01*
X164044333Y-115514380D02*
X163568142Y-115514380D01*
X163568142Y-114514380D01*
X164044333Y-114514380D01*
X164330047Y-114514380D02*
X164901476Y-114514380D01*
X164615761Y-115514380D02*
X164615761Y-114514380D01*
X165663380Y-114847714D02*
X165663380Y-115514380D01*
X165425285Y-114466761D02*
X165187190Y-115181047D01*
X165806238Y-115181047D01*
G04 #@! TO.C,FET3*
X162790333Y-126928571D02*
X162457000Y-126928571D01*
X162457000Y-127452380D02*
X162457000Y-126452380D01*
X162933190Y-126452380D01*
X163314142Y-126928571D02*
X163647476Y-126928571D01*
X163790333Y-127452380D02*
X163314142Y-127452380D01*
X163314142Y-126452380D01*
X163790333Y-126452380D01*
X164076047Y-126452380D02*
X164647476Y-126452380D01*
X164361761Y-127452380D02*
X164361761Y-126452380D01*
X164885571Y-126452380D02*
X165504619Y-126452380D01*
X165171285Y-126833333D01*
X165314142Y-126833333D01*
X165409380Y-126880952D01*
X165457000Y-126928571D01*
X165504619Y-127023809D01*
X165504619Y-127261904D01*
X165457000Y-127357142D01*
X165409380Y-127404761D01*
X165314142Y-127452380D01*
X165028428Y-127452380D01*
X164933190Y-127404761D01*
X164885571Y-127357142D01*
G04 #@! TO.C,FET1*
X163044333Y-84764571D02*
X162711000Y-84764571D01*
X162711000Y-85288380D02*
X162711000Y-84288380D01*
X163187190Y-84288380D01*
X163568142Y-84764571D02*
X163901476Y-84764571D01*
X164044333Y-85288380D02*
X163568142Y-85288380D01*
X163568142Y-84288380D01*
X164044333Y-84288380D01*
X164330047Y-84288380D02*
X164901476Y-84288380D01*
X164615761Y-85288380D02*
X164615761Y-84288380D01*
X165758619Y-85288380D02*
X165187190Y-85288380D01*
X165472904Y-85288380D02*
X165472904Y-84288380D01*
X165377666Y-84431238D01*
X165282428Y-84526476D01*
X165187190Y-84574095D01*
G04 #@! TO.C,FET0*
X162790333Y-94670571D02*
X162457000Y-94670571D01*
X162457000Y-95194380D02*
X162457000Y-94194380D01*
X162933190Y-94194380D01*
X163314142Y-94670571D02*
X163647476Y-94670571D01*
X163790333Y-95194380D02*
X163314142Y-95194380D01*
X163314142Y-94194380D01*
X163790333Y-94194380D01*
X164076047Y-94194380D02*
X164647476Y-94194380D01*
X164361761Y-95194380D02*
X164361761Y-94194380D01*
X165171285Y-94194380D02*
X165266523Y-94194380D01*
X165361761Y-94242000D01*
X165409380Y-94289619D01*
X165457000Y-94384857D01*
X165504619Y-94575333D01*
X165504619Y-94813428D01*
X165457000Y-95003904D01*
X165409380Y-95099142D01*
X165361761Y-95146761D01*
X165266523Y-95194380D01*
X165171285Y-95194380D01*
X165076047Y-95146761D01*
X165028428Y-95099142D01*
X164980809Y-95003904D01*
X164933190Y-94813428D01*
X164933190Y-94575333D01*
X164980809Y-94384857D01*
X165028428Y-94289619D01*
X165076047Y-94242000D01*
X165171285Y-94194380D01*
G04 #@! TO.C,RJ0*
X136858380Y-134592619D02*
X136382190Y-134925952D01*
X136858380Y-135164047D02*
X135858380Y-135164047D01*
X135858380Y-134783095D01*
X135906000Y-134687857D01*
X135953619Y-134640238D01*
X136048857Y-134592619D01*
X136191714Y-134592619D01*
X136286952Y-134640238D01*
X136334571Y-134687857D01*
X136382190Y-134783095D01*
X136382190Y-135164047D01*
X135858380Y-133878333D02*
X136572666Y-133878333D01*
X136715523Y-133925952D01*
X136810761Y-134021190D01*
X136858380Y-134164047D01*
X136858380Y-134259285D01*
X135858380Y-133211666D02*
X135858380Y-133116428D01*
X135906000Y-133021190D01*
X135953619Y-132973571D01*
X136048857Y-132925952D01*
X136239333Y-132878333D01*
X136477428Y-132878333D01*
X136667904Y-132925952D01*
X136763142Y-132973571D01*
X136810761Y-133021190D01*
X136858380Y-133116428D01*
X136858380Y-133211666D01*
X136810761Y-133306904D01*
X136763142Y-133354523D01*
X136667904Y-133402142D01*
X136477428Y-133449761D01*
X136239333Y-133449761D01*
X136048857Y-133402142D01*
X135953619Y-133354523D01*
X135906000Y-133306904D01*
X135858380Y-133211666D01*
G04 #@! TD*
M02*
