G04 #@! TF.GenerationSoftware,KiCad,Pcbnew,5.1.5-52549c5~84~ubuntu18.04.1*
G04 #@! TF.CreationDate,2020-02-03T14:14:35-05:00*
G04 #@! TF.ProjectId,solenoid_board,736f6c65-6e6f-4696-945f-626f6172642e,rev?*
G04 #@! TF.SameCoordinates,Original*
G04 #@! TF.FileFunction,Copper,L1,Top*
G04 #@! TF.FilePolarity,Positive*
%FSLAX46Y46*%
G04 Gerber Fmt 4.6, Leading zero omitted, Abs format (unit mm)*
G04 Created by KiCad (PCBNEW 5.1.5-52549c5~84~ubuntu18.04.1) date 2020-02-03 14:14:35*
%MOMM*%
%LPD*%
G04 APERTURE LIST*
G04 #@! TA.AperFunction,Profile*
%ADD10C,0.100000*%
G04 #@! TD*
G04 #@! TA.AperFunction,ComponentPad*
%ADD11C,3.000000*%
G04 #@! TD*
G04 #@! TA.AperFunction,ComponentPad*
%ADD12R,3.000000X3.000000*%
G04 #@! TD*
G04 #@! TA.AperFunction,ComponentPad*
%ADD13C,1.600000*%
G04 #@! TD*
G04 #@! TA.AperFunction,ComponentPad*
%ADD14R,1.600000X1.600000*%
G04 #@! TD*
G04 #@! TA.AperFunction,ComponentPad*
%ADD15R,1.524000X1.524000*%
G04 #@! TD*
G04 #@! TA.AperFunction,ComponentPad*
%ADD16C,1.524000*%
G04 #@! TD*
G04 #@! TA.AperFunction,ComponentPad*
%ADD17C,1.800000*%
G04 #@! TD*
G04 #@! TA.AperFunction,ComponentPad*
%ADD18C,2.610000*%
G04 #@! TD*
G04 #@! TA.AperFunction,ComponentPad*
%ADD19C,2.630000*%
G04 #@! TD*
G04 #@! TA.AperFunction,ComponentPad*
%ADD20C,1.200000*%
G04 #@! TD*
G04 #@! TA.AperFunction,ComponentPad*
%ADD21R,1.200000X1.200000*%
G04 #@! TD*
G04 #@! TA.AperFunction,ComponentPad*
%ADD22R,1.700000X1.700000*%
G04 #@! TD*
G04 #@! TA.AperFunction,SMDPad,CuDef*
%ADD23R,2.173199X0.568000*%
G04 #@! TD*
G04 #@! TA.AperFunction,ComponentPad*
%ADD24O,1.905000X2.000000*%
G04 #@! TD*
G04 #@! TA.AperFunction,ComponentPad*
%ADD25R,1.905000X2.000000*%
G04 #@! TD*
G04 #@! TA.AperFunction,SMDPad,CuDef*
%ADD26R,0.568000X1.454899*%
G04 #@! TD*
G04 #@! TA.AperFunction,SMDPad,CuDef*
%ADD27R,1.295400X0.558800*%
G04 #@! TD*
G04 #@! TA.AperFunction,SMDPad,CuDef*
%ADD28C,0.150000*%
G04 #@! TD*
G04 #@! TA.AperFunction,ComponentPad*
%ADD29O,1.700000X1.700000*%
G04 #@! TD*
G04 #@! TA.AperFunction,ViaPad*
%ADD30C,0.800000*%
G04 #@! TD*
G04 #@! TA.AperFunction,Conductor*
%ADD31C,0.250000*%
G04 #@! TD*
G04 #@! TA.AperFunction,Conductor*
%ADD32C,0.750000*%
G04 #@! TD*
G04 #@! TA.AperFunction,Conductor*
%ADD33C,2.000000*%
G04 #@! TD*
G04 APERTURE END LIST*
D10*
X192000000Y-53340000D02*
X192000000Y-146304000D01*
X92000000Y-53340000D02*
X192000000Y-53340000D01*
X92000000Y-146304000D02*
X92000000Y-53340000D01*
X192000000Y-146304000D02*
X92000000Y-146304000D01*
D11*
G04 #@! TO.P,Solenoid0,6*
G04 #@! TO.N,Net-(FET2-Pad3)*
X182880000Y-75184000D03*
G04 #@! TO.P,Solenoid0,5*
G04 #@! TO.N,+48V*
X182880000Y-80264000D03*
G04 #@! TO.P,Solenoid0,4*
G04 #@! TO.N,Net-(FET1-Pad3)*
X182880000Y-85344000D03*
D12*
G04 #@! TO.P,Solenoid0,1*
G04 #@! TO.N,+48V*
X182880000Y-100584000D03*
D11*
G04 #@! TO.P,Solenoid0,3*
X182880000Y-90424000D03*
G04 #@! TO.P,Solenoid0,2*
G04 #@! TO.N,Net-(FET0-Pad3)*
X182880000Y-95504000D03*
G04 #@! TD*
D13*
G04 #@! TO.P,CP0,2*
G04 #@! TO.N,GND*
X156551000Y-80772000D03*
D14*
G04 #@! TO.P,CP0,1*
G04 #@! TO.N,+5V*
X154051000Y-80772000D03*
G04 #@! TD*
D11*
G04 #@! TO.P,+48V_IN1,2*
G04 #@! TO.N,+48V*
X182626000Y-57277000D03*
D12*
G04 #@! TO.P,+48V_IN1,1*
G04 #@! TO.N,GND*
X182626000Y-62357000D03*
G04 #@! TD*
D11*
G04 #@! TO.P,+3V3,6*
G04 #@! TO.N,+3V3*
X97790000Y-58166000D03*
G04 #@! TO.P,+3V3,5*
X102870000Y-58166000D03*
G04 #@! TO.P,+3V3,4*
X107950000Y-58166000D03*
D12*
G04 #@! TO.P,+3V3,1*
X123190000Y-58166000D03*
D11*
G04 #@! TO.P,+3V3,3*
X113030000Y-58166000D03*
G04 #@! TO.P,+3V3,2*
X118110000Y-58166000D03*
G04 #@! TD*
D15*
G04 #@! TO.P,RJ1,1*
G04 #@! TO.N,N/C*
X153924000Y-125222000D03*
D16*
G04 #@! TO.P,RJ1,2*
X151892000Y-125222000D03*
G04 #@! TO.P,RJ1,3*
X149860000Y-125222000D03*
G04 #@! TO.P,RJ1,4*
G04 #@! TO.N,/RJ45_4*
X147828000Y-125222000D03*
G04 #@! TO.P,RJ1,5*
G04 #@! TO.N,/RJ45_5*
X145796000Y-125222000D03*
G04 #@! TO.P,RJ1,6*
G04 #@! TO.N,N/C*
X143764000Y-125222000D03*
G04 #@! TO.P,RJ1,7*
X154940000Y-122682000D03*
G04 #@! TO.P,RJ1,8*
X152908000Y-122682000D03*
G04 #@! TO.P,RJ1,9*
X150876000Y-122682000D03*
G04 #@! TO.P,RJ1,10*
X146812000Y-122682000D03*
G04 #@! TO.P,RJ1,11*
X144780000Y-122682000D03*
G04 #@! TO.P,RJ1,12*
X142748000Y-122682000D03*
D17*
G04 #@! TO.P,RJ1,13*
X154940000Y-120142000D03*
G04 #@! TO.P,RJ1,14*
X152400000Y-120142000D03*
G04 #@! TO.P,RJ1,15*
X145288000Y-120142000D03*
G04 #@! TO.P,RJ1,16*
X142748000Y-120142000D03*
D18*
G04 #@! TO.P,RJ1,SH*
X140779500Y-143637000D03*
D19*
X156908500Y-143637000D03*
G04 #@! TD*
D20*
G04 #@! TO.P,C0.1nF2,2*
G04 #@! TO.N,GND*
X113030000Y-83026000D03*
D21*
G04 #@! TO.P,C0.1nF2,1*
G04 #@! TO.N,+3V3*
X113030000Y-81026000D03*
G04 #@! TD*
D20*
G04 #@! TO.P,C0.1nF1,2*
G04 #@! TO.N,+3V3*
X112903000Y-103410000D03*
D21*
G04 #@! TO.P,C0.1nF1,1*
G04 #@! TO.N,GND*
X112903000Y-105410000D03*
G04 #@! TD*
D20*
G04 #@! TO.P,C0.1nF0,2*
G04 #@! TO.N,+3V3*
X146971000Y-109855000D03*
D21*
G04 #@! TO.P,C0.1nF0,1*
G04 #@! TO.N,GND*
X148971000Y-109855000D03*
G04 #@! TD*
D11*
G04 #@! TO.P,+5V_IN1,2*
G04 #@! TO.N,+5V*
X167894000Y-58547000D03*
D12*
G04 #@! TO.P,+5V_IN1,1*
G04 #@! TO.N,GND*
X172974000Y-58547000D03*
G04 #@! TD*
D22*
G04 #@! TO.P,GND1,1*
G04 #@! TO.N,GND*
X169672000Y-135636000D03*
G04 #@! TD*
D11*
G04 #@! TO.P,Solenoid1,6*
G04 #@! TO.N,Net-(FET5-Pad3)*
X183007000Y-107188000D03*
G04 #@! TO.P,Solenoid1,5*
G04 #@! TO.N,+48V*
X183007000Y-112268000D03*
G04 #@! TO.P,Solenoid1,4*
G04 #@! TO.N,Net-(FET4-Pad3)*
X183007000Y-117348000D03*
D12*
G04 #@! TO.P,Solenoid1,1*
G04 #@! TO.N,+48V*
X183007000Y-132588000D03*
D11*
G04 #@! TO.P,Solenoid1,3*
X183007000Y-122428000D03*
G04 #@! TO.P,Solenoid1,2*
G04 #@! TO.N,Net-(FET3-Pad3)*
X183007000Y-127508000D03*
G04 #@! TD*
D23*
G04 #@! TO.P,8b0,16*
G04 #@! TO.N,+3V3*
X112953800Y-100584000D03*
G04 #@! TO.P,8b0,15*
G04 #@! TO.N,GND*
X112953800Y-99314000D03*
G04 #@! TO.P,8b0,14*
G04 #@! TO.N,/INP5_1*
X112953800Y-98044000D03*
G04 #@! TO.P,8b0,13*
G04 #@! TO.N,/INP5_0*
X112953800Y-96774000D03*
G04 #@! TO.P,8b0,12*
G04 #@! TO.N,/INP4_1*
X112953800Y-95504000D03*
G04 #@! TO.P,8b0,11*
G04 #@! TO.N,/INP4_0*
X112953800Y-94234000D03*
G04 #@! TO.P,8b0,10*
G04 #@! TO.N,GND*
X112953800Y-92964000D03*
G04 #@! TO.P,8b0,9*
G04 #@! TO.N,/SHIFT2_OUT*
X112953800Y-91694000D03*
G04 #@! TO.P,8b0,8*
G04 #@! TO.N,GND*
X117678200Y-91694000D03*
G04 #@! TO.P,8b0,7*
G04 #@! TO.N,N/C*
X117678200Y-92964000D03*
G04 #@! TO.P,8b0,6*
X117678200Y-94234000D03*
G04 #@! TO.P,8b0,5*
X117678200Y-95504000D03*
G04 #@! TO.P,8b0,4*
X117678200Y-96774000D03*
G04 #@! TO.P,8b0,3*
X117678200Y-98044000D03*
G04 #@! TO.P,8b0,2*
G04 #@! TO.N,/SCK*
X117678200Y-99314000D03*
G04 #@! TO.P,8b0,1*
G04 #@! TO.N,/A0*
X117678200Y-100584000D03*
G04 #@! TD*
G04 #@! TO.P,8b1,16*
G04 #@! TO.N,+3V3*
X113080800Y-78613000D03*
G04 #@! TO.P,8b1,15*
G04 #@! TO.N,GND*
X113080800Y-77343000D03*
G04 #@! TO.P,8b1,14*
G04 #@! TO.N,/INP1_1*
X113080800Y-76073000D03*
G04 #@! TO.P,8b1,13*
G04 #@! TO.N,/INP1_0*
X113080800Y-74803000D03*
G04 #@! TO.P,8b1,12*
G04 #@! TO.N,/INP0_1*
X113080800Y-73533000D03*
G04 #@! TO.P,8b1,11*
G04 #@! TO.N,/INP0_0*
X113080800Y-72263000D03*
G04 #@! TO.P,8b1,10*
G04 #@! TO.N,/SHIFT2_OUT*
X113080800Y-70993000D03*
G04 #@! TO.P,8b1,9*
G04 #@! TO.N,/MISO*
X113080800Y-69723000D03*
G04 #@! TO.P,8b1,8*
G04 #@! TO.N,GND*
X117805200Y-69723000D03*
G04 #@! TO.P,8b1,7*
G04 #@! TO.N,N/C*
X117805200Y-70993000D03*
G04 #@! TO.P,8b1,6*
G04 #@! TO.N,/INP3_1*
X117805200Y-72263000D03*
G04 #@! TO.P,8b1,5*
G04 #@! TO.N,/INP3_0*
X117805200Y-73533000D03*
G04 #@! TO.P,8b1,4*
G04 #@! TO.N,/INP2_1*
X117805200Y-74803000D03*
G04 #@! TO.P,8b1,3*
G04 #@! TO.N,/INP2_0*
X117805200Y-76073000D03*
G04 #@! TO.P,8b1,2*
G04 #@! TO.N,/SCK*
X117805200Y-77343000D03*
G04 #@! TO.P,8b1,1*
G04 #@! TO.N,/A0*
X117805200Y-78613000D03*
G04 #@! TD*
D24*
G04 #@! TO.P,FET2,3*
G04 #@! TO.N,Net-(FET2-Pad3)*
X174117000Y-75184000D03*
G04 #@! TO.P,FET2,2*
G04 #@! TO.N,Net-(FET2-Pad2)*
X171577000Y-75184000D03*
D25*
G04 #@! TO.P,FET2,1*
G04 #@! TO.N,GND*
X169037000Y-75184000D03*
G04 #@! TD*
D12*
G04 #@! TO.P,INP5,1*
G04 #@! TO.N,/INP5_0*
X97917000Y-131953000D03*
D11*
G04 #@! TO.P,INP5,2*
G04 #@! TO.N,/INP5_1*
X97917000Y-137033000D03*
G04 #@! TD*
D12*
G04 #@! TO.P,INP4,1*
G04 #@! TO.N,/INP4_0*
X97917000Y-119761000D03*
D11*
G04 #@! TO.P,INP4,2*
G04 #@! TO.N,/INP4_1*
X97917000Y-124841000D03*
G04 #@! TD*
G04 #@! TO.P,INP3,2*
G04 #@! TO.N,/INP3_1*
X97917000Y-112649000D03*
D12*
G04 #@! TO.P,INP3,1*
G04 #@! TO.N,/INP3_0*
X97917000Y-107569000D03*
G04 #@! TD*
D11*
G04 #@! TO.P,INP2,2*
G04 #@! TO.N,/INP2_1*
X97917000Y-100457000D03*
D12*
G04 #@! TO.P,INP2,1*
G04 #@! TO.N,/INP2_0*
X97917000Y-95377000D03*
G04 #@! TD*
D11*
G04 #@! TO.P,INP1,2*
G04 #@! TO.N,/INP1_1*
X97917000Y-87757000D03*
D12*
G04 #@! TO.P,INP1,1*
G04 #@! TO.N,/INP1_0*
X97917000Y-82677000D03*
G04 #@! TD*
D11*
G04 #@! TO.P,INP0,2*
G04 #@! TO.N,/INP0_1*
X97917000Y-75057000D03*
D12*
G04 #@! TO.P,INP0,1*
G04 #@! TO.N,/INP0_0*
X97917000Y-69977000D03*
G04 #@! TD*
D26*
G04 #@! TO.P,RS-485,1*
G04 #@! TO.N,/RX0*
X144399000Y-104339652D03*
G04 #@! TO.P,RS-485,2*
G04 #@! TO.N,/A4*
X143129000Y-104339652D03*
G04 #@! TO.P,RS-485,3*
X141859000Y-104339652D03*
G04 #@! TO.P,RS-485,4*
G04 #@! TO.N,/TX1*
X140589000Y-104339652D03*
G04 #@! TO.P,RS-485,5*
G04 #@! TO.N,GND*
X140589000Y-109782348D03*
G04 #@! TO.P,RS-485,6*
G04 #@! TO.N,/RJ45_4*
X141859000Y-109782348D03*
G04 #@! TO.P,RS-485,7*
G04 #@! TO.N,/RJ45_5*
X143129000Y-109782348D03*
G04 #@! TO.P,RS-485,8*
G04 #@! TO.N,+3V3*
X144399000Y-109782348D03*
G04 #@! TD*
D27*
G04 #@! TO.P,Prt_IC1,3*
G04 #@! TO.N,GND*
X134937500Y-109728000D03*
G04 #@! TO.P,Prt_IC1,2*
G04 #@! TO.N,Net-(Prt_IC1-Pad2)*
X133032500Y-110678001D03*
G04 #@! TO.P,Prt_IC1,1*
G04 #@! TO.N,Net-(Prt_IC1-Pad1)*
X133032500Y-108777999D03*
G04 #@! TD*
G04 #@! TA.AperFunction,SMDPad,CuDef*
D28*
G04 #@! TO.P,R11,2*
G04 #@! TO.N,Net-(Prt_IC1-Pad1)*
G36*
X124162505Y-107899204D02*
G01*
X124186773Y-107902804D01*
X124210572Y-107908765D01*
X124233671Y-107917030D01*
X124255850Y-107927520D01*
X124276893Y-107940132D01*
X124296599Y-107954747D01*
X124314777Y-107971223D01*
X124331253Y-107989401D01*
X124345868Y-108009107D01*
X124358480Y-108030150D01*
X124368970Y-108052329D01*
X124377235Y-108075428D01*
X124383196Y-108099227D01*
X124386796Y-108123495D01*
X124388000Y-108147999D01*
X124388000Y-109173001D01*
X124386796Y-109197505D01*
X124383196Y-109221773D01*
X124377235Y-109245572D01*
X124368970Y-109268671D01*
X124358480Y-109290850D01*
X124345868Y-109311893D01*
X124331253Y-109331599D01*
X124314777Y-109349777D01*
X124296599Y-109366253D01*
X124276893Y-109380868D01*
X124255850Y-109393480D01*
X124233671Y-109403970D01*
X124210572Y-109412235D01*
X124186773Y-109418196D01*
X124162505Y-109421796D01*
X124138001Y-109423000D01*
X121987999Y-109423000D01*
X121963495Y-109421796D01*
X121939227Y-109418196D01*
X121915428Y-109412235D01*
X121892329Y-109403970D01*
X121870150Y-109393480D01*
X121849107Y-109380868D01*
X121829401Y-109366253D01*
X121811223Y-109349777D01*
X121794747Y-109331599D01*
X121780132Y-109311893D01*
X121767520Y-109290850D01*
X121757030Y-109268671D01*
X121748765Y-109245572D01*
X121742804Y-109221773D01*
X121739204Y-109197505D01*
X121738000Y-109173001D01*
X121738000Y-108147999D01*
X121739204Y-108123495D01*
X121742804Y-108099227D01*
X121748765Y-108075428D01*
X121757030Y-108052329D01*
X121767520Y-108030150D01*
X121780132Y-108009107D01*
X121794747Y-107989401D01*
X121811223Y-107971223D01*
X121829401Y-107954747D01*
X121849107Y-107940132D01*
X121870150Y-107927520D01*
X121892329Y-107917030D01*
X121915428Y-107908765D01*
X121939227Y-107902804D01*
X121963495Y-107899204D01*
X121987999Y-107898000D01*
X124138001Y-107898000D01*
X124162505Y-107899204D01*
G37*
G04 #@! TD.AperFunction*
G04 #@! TA.AperFunction,SMDPad,CuDef*
G04 #@! TO.P,R11,1*
G04 #@! TO.N,/RJ45_5*
G36*
X124162505Y-112574204D02*
G01*
X124186773Y-112577804D01*
X124210572Y-112583765D01*
X124233671Y-112592030D01*
X124255850Y-112602520D01*
X124276893Y-112615132D01*
X124296599Y-112629747D01*
X124314777Y-112646223D01*
X124331253Y-112664401D01*
X124345868Y-112684107D01*
X124358480Y-112705150D01*
X124368970Y-112727329D01*
X124377235Y-112750428D01*
X124383196Y-112774227D01*
X124386796Y-112798495D01*
X124388000Y-112822999D01*
X124388000Y-113848001D01*
X124386796Y-113872505D01*
X124383196Y-113896773D01*
X124377235Y-113920572D01*
X124368970Y-113943671D01*
X124358480Y-113965850D01*
X124345868Y-113986893D01*
X124331253Y-114006599D01*
X124314777Y-114024777D01*
X124296599Y-114041253D01*
X124276893Y-114055868D01*
X124255850Y-114068480D01*
X124233671Y-114078970D01*
X124210572Y-114087235D01*
X124186773Y-114093196D01*
X124162505Y-114096796D01*
X124138001Y-114098000D01*
X121987999Y-114098000D01*
X121963495Y-114096796D01*
X121939227Y-114093196D01*
X121915428Y-114087235D01*
X121892329Y-114078970D01*
X121870150Y-114068480D01*
X121849107Y-114055868D01*
X121829401Y-114041253D01*
X121811223Y-114024777D01*
X121794747Y-114006599D01*
X121780132Y-113986893D01*
X121767520Y-113965850D01*
X121757030Y-113943671D01*
X121748765Y-113920572D01*
X121742804Y-113896773D01*
X121739204Y-113872505D01*
X121738000Y-113848001D01*
X121738000Y-112822999D01*
X121739204Y-112798495D01*
X121742804Y-112774227D01*
X121748765Y-112750428D01*
X121757030Y-112727329D01*
X121767520Y-112705150D01*
X121780132Y-112684107D01*
X121794747Y-112664401D01*
X121811223Y-112646223D01*
X121829401Y-112629747D01*
X121849107Y-112615132D01*
X121870150Y-112602520D01*
X121892329Y-112592030D01*
X121915428Y-112583765D01*
X121939227Y-112577804D01*
X121963495Y-112574204D01*
X121987999Y-112573000D01*
X124138001Y-112573000D01*
X124162505Y-112574204D01*
G37*
G04 #@! TD.AperFunction*
G04 #@! TD*
G04 #@! TA.AperFunction,SMDPad,CuDef*
G04 #@! TO.P,R105,2*
G04 #@! TO.N,/D9*
G36*
X167490505Y-100403204D02*
G01*
X167514773Y-100406804D01*
X167538572Y-100412765D01*
X167561671Y-100421030D01*
X167583850Y-100431520D01*
X167604893Y-100444132D01*
X167624599Y-100458747D01*
X167642777Y-100475223D01*
X167659253Y-100493401D01*
X167673868Y-100513107D01*
X167686480Y-100534150D01*
X167696970Y-100556329D01*
X167705235Y-100579428D01*
X167711196Y-100603227D01*
X167714796Y-100627495D01*
X167716000Y-100651999D01*
X167716000Y-102802001D01*
X167714796Y-102826505D01*
X167711196Y-102850773D01*
X167705235Y-102874572D01*
X167696970Y-102897671D01*
X167686480Y-102919850D01*
X167673868Y-102940893D01*
X167659253Y-102960599D01*
X167642777Y-102978777D01*
X167624599Y-102995253D01*
X167604893Y-103009868D01*
X167583850Y-103022480D01*
X167561671Y-103032970D01*
X167538572Y-103041235D01*
X167514773Y-103047196D01*
X167490505Y-103050796D01*
X167466001Y-103052000D01*
X166440999Y-103052000D01*
X166416495Y-103050796D01*
X166392227Y-103047196D01*
X166368428Y-103041235D01*
X166345329Y-103032970D01*
X166323150Y-103022480D01*
X166302107Y-103009868D01*
X166282401Y-102995253D01*
X166264223Y-102978777D01*
X166247747Y-102960599D01*
X166233132Y-102940893D01*
X166220520Y-102919850D01*
X166210030Y-102897671D01*
X166201765Y-102874572D01*
X166195804Y-102850773D01*
X166192204Y-102826505D01*
X166191000Y-102802001D01*
X166191000Y-100651999D01*
X166192204Y-100627495D01*
X166195804Y-100603227D01*
X166201765Y-100579428D01*
X166210030Y-100556329D01*
X166220520Y-100534150D01*
X166233132Y-100513107D01*
X166247747Y-100493401D01*
X166264223Y-100475223D01*
X166282401Y-100458747D01*
X166302107Y-100444132D01*
X166323150Y-100431520D01*
X166345329Y-100421030D01*
X166368428Y-100412765D01*
X166392227Y-100406804D01*
X166416495Y-100403204D01*
X166440999Y-100402000D01*
X167466001Y-100402000D01*
X167490505Y-100403204D01*
G37*
G04 #@! TD.AperFunction*
G04 #@! TA.AperFunction,SMDPad,CuDef*
G04 #@! TO.P,R105,1*
G04 #@! TO.N,Net-(FET5-Pad2)*
G36*
X172165505Y-100403204D02*
G01*
X172189773Y-100406804D01*
X172213572Y-100412765D01*
X172236671Y-100421030D01*
X172258850Y-100431520D01*
X172279893Y-100444132D01*
X172299599Y-100458747D01*
X172317777Y-100475223D01*
X172334253Y-100493401D01*
X172348868Y-100513107D01*
X172361480Y-100534150D01*
X172371970Y-100556329D01*
X172380235Y-100579428D01*
X172386196Y-100603227D01*
X172389796Y-100627495D01*
X172391000Y-100651999D01*
X172391000Y-102802001D01*
X172389796Y-102826505D01*
X172386196Y-102850773D01*
X172380235Y-102874572D01*
X172371970Y-102897671D01*
X172361480Y-102919850D01*
X172348868Y-102940893D01*
X172334253Y-102960599D01*
X172317777Y-102978777D01*
X172299599Y-102995253D01*
X172279893Y-103009868D01*
X172258850Y-103022480D01*
X172236671Y-103032970D01*
X172213572Y-103041235D01*
X172189773Y-103047196D01*
X172165505Y-103050796D01*
X172141001Y-103052000D01*
X171115999Y-103052000D01*
X171091495Y-103050796D01*
X171067227Y-103047196D01*
X171043428Y-103041235D01*
X171020329Y-103032970D01*
X170998150Y-103022480D01*
X170977107Y-103009868D01*
X170957401Y-102995253D01*
X170939223Y-102978777D01*
X170922747Y-102960599D01*
X170908132Y-102940893D01*
X170895520Y-102919850D01*
X170885030Y-102897671D01*
X170876765Y-102874572D01*
X170870804Y-102850773D01*
X170867204Y-102826505D01*
X170866000Y-102802001D01*
X170866000Y-100651999D01*
X170867204Y-100627495D01*
X170870804Y-100603227D01*
X170876765Y-100579428D01*
X170885030Y-100556329D01*
X170895520Y-100534150D01*
X170908132Y-100513107D01*
X170922747Y-100493401D01*
X170939223Y-100475223D01*
X170957401Y-100458747D01*
X170977107Y-100444132D01*
X170998150Y-100431520D01*
X171020329Y-100421030D01*
X171043428Y-100412765D01*
X171067227Y-100406804D01*
X171091495Y-100403204D01*
X171115999Y-100402000D01*
X172141001Y-100402000D01*
X172165505Y-100403204D01*
G37*
G04 #@! TD.AperFunction*
G04 #@! TD*
G04 #@! TA.AperFunction,SMDPad,CuDef*
G04 #@! TO.P,R104,2*
G04 #@! TO.N,/D6*
G36*
X167566005Y-110436204D02*
G01*
X167590273Y-110439804D01*
X167614072Y-110445765D01*
X167637171Y-110454030D01*
X167659350Y-110464520D01*
X167680393Y-110477132D01*
X167700099Y-110491747D01*
X167718277Y-110508223D01*
X167734753Y-110526401D01*
X167749368Y-110546107D01*
X167761980Y-110567150D01*
X167772470Y-110589329D01*
X167780735Y-110612428D01*
X167786696Y-110636227D01*
X167790296Y-110660495D01*
X167791500Y-110684999D01*
X167791500Y-112835001D01*
X167790296Y-112859505D01*
X167786696Y-112883773D01*
X167780735Y-112907572D01*
X167772470Y-112930671D01*
X167761980Y-112952850D01*
X167749368Y-112973893D01*
X167734753Y-112993599D01*
X167718277Y-113011777D01*
X167700099Y-113028253D01*
X167680393Y-113042868D01*
X167659350Y-113055480D01*
X167637171Y-113065970D01*
X167614072Y-113074235D01*
X167590273Y-113080196D01*
X167566005Y-113083796D01*
X167541501Y-113085000D01*
X166516499Y-113085000D01*
X166491995Y-113083796D01*
X166467727Y-113080196D01*
X166443928Y-113074235D01*
X166420829Y-113065970D01*
X166398650Y-113055480D01*
X166377607Y-113042868D01*
X166357901Y-113028253D01*
X166339723Y-113011777D01*
X166323247Y-112993599D01*
X166308632Y-112973893D01*
X166296020Y-112952850D01*
X166285530Y-112930671D01*
X166277265Y-112907572D01*
X166271304Y-112883773D01*
X166267704Y-112859505D01*
X166266500Y-112835001D01*
X166266500Y-110684999D01*
X166267704Y-110660495D01*
X166271304Y-110636227D01*
X166277265Y-110612428D01*
X166285530Y-110589329D01*
X166296020Y-110567150D01*
X166308632Y-110546107D01*
X166323247Y-110526401D01*
X166339723Y-110508223D01*
X166357901Y-110491747D01*
X166377607Y-110477132D01*
X166398650Y-110464520D01*
X166420829Y-110454030D01*
X166443928Y-110445765D01*
X166467727Y-110439804D01*
X166491995Y-110436204D01*
X166516499Y-110435000D01*
X167541501Y-110435000D01*
X167566005Y-110436204D01*
G37*
G04 #@! TD.AperFunction*
G04 #@! TA.AperFunction,SMDPad,CuDef*
G04 #@! TO.P,R104,1*
G04 #@! TO.N,Net-(FET4-Pad2)*
G36*
X172241005Y-110436204D02*
G01*
X172265273Y-110439804D01*
X172289072Y-110445765D01*
X172312171Y-110454030D01*
X172334350Y-110464520D01*
X172355393Y-110477132D01*
X172375099Y-110491747D01*
X172393277Y-110508223D01*
X172409753Y-110526401D01*
X172424368Y-110546107D01*
X172436980Y-110567150D01*
X172447470Y-110589329D01*
X172455735Y-110612428D01*
X172461696Y-110636227D01*
X172465296Y-110660495D01*
X172466500Y-110684999D01*
X172466500Y-112835001D01*
X172465296Y-112859505D01*
X172461696Y-112883773D01*
X172455735Y-112907572D01*
X172447470Y-112930671D01*
X172436980Y-112952850D01*
X172424368Y-112973893D01*
X172409753Y-112993599D01*
X172393277Y-113011777D01*
X172375099Y-113028253D01*
X172355393Y-113042868D01*
X172334350Y-113055480D01*
X172312171Y-113065970D01*
X172289072Y-113074235D01*
X172265273Y-113080196D01*
X172241005Y-113083796D01*
X172216501Y-113085000D01*
X171191499Y-113085000D01*
X171166995Y-113083796D01*
X171142727Y-113080196D01*
X171118928Y-113074235D01*
X171095829Y-113065970D01*
X171073650Y-113055480D01*
X171052607Y-113042868D01*
X171032901Y-113028253D01*
X171014723Y-113011777D01*
X170998247Y-112993599D01*
X170983632Y-112973893D01*
X170971020Y-112952850D01*
X170960530Y-112930671D01*
X170952265Y-112907572D01*
X170946304Y-112883773D01*
X170942704Y-112859505D01*
X170941500Y-112835001D01*
X170941500Y-110684999D01*
X170942704Y-110660495D01*
X170946304Y-110636227D01*
X170952265Y-110612428D01*
X170960530Y-110589329D01*
X170971020Y-110567150D01*
X170983632Y-110546107D01*
X170998247Y-110526401D01*
X171014723Y-110508223D01*
X171032901Y-110491747D01*
X171052607Y-110477132D01*
X171073650Y-110464520D01*
X171095829Y-110454030D01*
X171118928Y-110445765D01*
X171142727Y-110439804D01*
X171166995Y-110436204D01*
X171191499Y-110435000D01*
X172216501Y-110435000D01*
X172241005Y-110436204D01*
G37*
G04 #@! TD.AperFunction*
G04 #@! TD*
G04 #@! TA.AperFunction,SMDPad,CuDef*
G04 #@! TO.P,R103,2*
G04 #@! TO.N,/D5*
G36*
X167490505Y-120469204D02*
G01*
X167514773Y-120472804D01*
X167538572Y-120478765D01*
X167561671Y-120487030D01*
X167583850Y-120497520D01*
X167604893Y-120510132D01*
X167624599Y-120524747D01*
X167642777Y-120541223D01*
X167659253Y-120559401D01*
X167673868Y-120579107D01*
X167686480Y-120600150D01*
X167696970Y-120622329D01*
X167705235Y-120645428D01*
X167711196Y-120669227D01*
X167714796Y-120693495D01*
X167716000Y-120717999D01*
X167716000Y-122868001D01*
X167714796Y-122892505D01*
X167711196Y-122916773D01*
X167705235Y-122940572D01*
X167696970Y-122963671D01*
X167686480Y-122985850D01*
X167673868Y-123006893D01*
X167659253Y-123026599D01*
X167642777Y-123044777D01*
X167624599Y-123061253D01*
X167604893Y-123075868D01*
X167583850Y-123088480D01*
X167561671Y-123098970D01*
X167538572Y-123107235D01*
X167514773Y-123113196D01*
X167490505Y-123116796D01*
X167466001Y-123118000D01*
X166440999Y-123118000D01*
X166416495Y-123116796D01*
X166392227Y-123113196D01*
X166368428Y-123107235D01*
X166345329Y-123098970D01*
X166323150Y-123088480D01*
X166302107Y-123075868D01*
X166282401Y-123061253D01*
X166264223Y-123044777D01*
X166247747Y-123026599D01*
X166233132Y-123006893D01*
X166220520Y-122985850D01*
X166210030Y-122963671D01*
X166201765Y-122940572D01*
X166195804Y-122916773D01*
X166192204Y-122892505D01*
X166191000Y-122868001D01*
X166191000Y-120717999D01*
X166192204Y-120693495D01*
X166195804Y-120669227D01*
X166201765Y-120645428D01*
X166210030Y-120622329D01*
X166220520Y-120600150D01*
X166233132Y-120579107D01*
X166247747Y-120559401D01*
X166264223Y-120541223D01*
X166282401Y-120524747D01*
X166302107Y-120510132D01*
X166323150Y-120497520D01*
X166345329Y-120487030D01*
X166368428Y-120478765D01*
X166392227Y-120472804D01*
X166416495Y-120469204D01*
X166440999Y-120468000D01*
X167466001Y-120468000D01*
X167490505Y-120469204D01*
G37*
G04 #@! TD.AperFunction*
G04 #@! TA.AperFunction,SMDPad,CuDef*
G04 #@! TO.P,R103,1*
G04 #@! TO.N,Net-(FET3-Pad2)*
G36*
X172165505Y-120469204D02*
G01*
X172189773Y-120472804D01*
X172213572Y-120478765D01*
X172236671Y-120487030D01*
X172258850Y-120497520D01*
X172279893Y-120510132D01*
X172299599Y-120524747D01*
X172317777Y-120541223D01*
X172334253Y-120559401D01*
X172348868Y-120579107D01*
X172361480Y-120600150D01*
X172371970Y-120622329D01*
X172380235Y-120645428D01*
X172386196Y-120669227D01*
X172389796Y-120693495D01*
X172391000Y-120717999D01*
X172391000Y-122868001D01*
X172389796Y-122892505D01*
X172386196Y-122916773D01*
X172380235Y-122940572D01*
X172371970Y-122963671D01*
X172361480Y-122985850D01*
X172348868Y-123006893D01*
X172334253Y-123026599D01*
X172317777Y-123044777D01*
X172299599Y-123061253D01*
X172279893Y-123075868D01*
X172258850Y-123088480D01*
X172236671Y-123098970D01*
X172213572Y-123107235D01*
X172189773Y-123113196D01*
X172165505Y-123116796D01*
X172141001Y-123118000D01*
X171115999Y-123118000D01*
X171091495Y-123116796D01*
X171067227Y-123113196D01*
X171043428Y-123107235D01*
X171020329Y-123098970D01*
X170998150Y-123088480D01*
X170977107Y-123075868D01*
X170957401Y-123061253D01*
X170939223Y-123044777D01*
X170922747Y-123026599D01*
X170908132Y-123006893D01*
X170895520Y-122985850D01*
X170885030Y-122963671D01*
X170876765Y-122940572D01*
X170870804Y-122916773D01*
X170867204Y-122892505D01*
X170866000Y-122868001D01*
X170866000Y-120717999D01*
X170867204Y-120693495D01*
X170870804Y-120669227D01*
X170876765Y-120645428D01*
X170885030Y-120622329D01*
X170895520Y-120600150D01*
X170908132Y-120579107D01*
X170922747Y-120559401D01*
X170939223Y-120541223D01*
X170957401Y-120524747D01*
X170977107Y-120510132D01*
X170998150Y-120497520D01*
X171020329Y-120487030D01*
X171043428Y-120478765D01*
X171067227Y-120472804D01*
X171091495Y-120469204D01*
X171115999Y-120468000D01*
X172141001Y-120468000D01*
X172165505Y-120469204D01*
G37*
G04 #@! TD.AperFunction*
G04 #@! TD*
G04 #@! TA.AperFunction,SMDPad,CuDef*
G04 #@! TO.P,R102,2*
G04 #@! TO.N,/D12*
G36*
X167439005Y-67891204D02*
G01*
X167463273Y-67894804D01*
X167487072Y-67900765D01*
X167510171Y-67909030D01*
X167532350Y-67919520D01*
X167553393Y-67932132D01*
X167573099Y-67946747D01*
X167591277Y-67963223D01*
X167607753Y-67981401D01*
X167622368Y-68001107D01*
X167634980Y-68022150D01*
X167645470Y-68044329D01*
X167653735Y-68067428D01*
X167659696Y-68091227D01*
X167663296Y-68115495D01*
X167664500Y-68139999D01*
X167664500Y-70290001D01*
X167663296Y-70314505D01*
X167659696Y-70338773D01*
X167653735Y-70362572D01*
X167645470Y-70385671D01*
X167634980Y-70407850D01*
X167622368Y-70428893D01*
X167607753Y-70448599D01*
X167591277Y-70466777D01*
X167573099Y-70483253D01*
X167553393Y-70497868D01*
X167532350Y-70510480D01*
X167510171Y-70520970D01*
X167487072Y-70529235D01*
X167463273Y-70535196D01*
X167439005Y-70538796D01*
X167414501Y-70540000D01*
X166389499Y-70540000D01*
X166364995Y-70538796D01*
X166340727Y-70535196D01*
X166316928Y-70529235D01*
X166293829Y-70520970D01*
X166271650Y-70510480D01*
X166250607Y-70497868D01*
X166230901Y-70483253D01*
X166212723Y-70466777D01*
X166196247Y-70448599D01*
X166181632Y-70428893D01*
X166169020Y-70407850D01*
X166158530Y-70385671D01*
X166150265Y-70362572D01*
X166144304Y-70338773D01*
X166140704Y-70314505D01*
X166139500Y-70290001D01*
X166139500Y-68139999D01*
X166140704Y-68115495D01*
X166144304Y-68091227D01*
X166150265Y-68067428D01*
X166158530Y-68044329D01*
X166169020Y-68022150D01*
X166181632Y-68001107D01*
X166196247Y-67981401D01*
X166212723Y-67963223D01*
X166230901Y-67946747D01*
X166250607Y-67932132D01*
X166271650Y-67919520D01*
X166293829Y-67909030D01*
X166316928Y-67900765D01*
X166340727Y-67894804D01*
X166364995Y-67891204D01*
X166389499Y-67890000D01*
X167414501Y-67890000D01*
X167439005Y-67891204D01*
G37*
G04 #@! TD.AperFunction*
G04 #@! TA.AperFunction,SMDPad,CuDef*
G04 #@! TO.P,R102,1*
G04 #@! TO.N,Net-(FET2-Pad2)*
G36*
X172114005Y-67891204D02*
G01*
X172138273Y-67894804D01*
X172162072Y-67900765D01*
X172185171Y-67909030D01*
X172207350Y-67919520D01*
X172228393Y-67932132D01*
X172248099Y-67946747D01*
X172266277Y-67963223D01*
X172282753Y-67981401D01*
X172297368Y-68001107D01*
X172309980Y-68022150D01*
X172320470Y-68044329D01*
X172328735Y-68067428D01*
X172334696Y-68091227D01*
X172338296Y-68115495D01*
X172339500Y-68139999D01*
X172339500Y-70290001D01*
X172338296Y-70314505D01*
X172334696Y-70338773D01*
X172328735Y-70362572D01*
X172320470Y-70385671D01*
X172309980Y-70407850D01*
X172297368Y-70428893D01*
X172282753Y-70448599D01*
X172266277Y-70466777D01*
X172248099Y-70483253D01*
X172228393Y-70497868D01*
X172207350Y-70510480D01*
X172185171Y-70520970D01*
X172162072Y-70529235D01*
X172138273Y-70535196D01*
X172114005Y-70538796D01*
X172089501Y-70540000D01*
X171064499Y-70540000D01*
X171039995Y-70538796D01*
X171015727Y-70535196D01*
X170991928Y-70529235D01*
X170968829Y-70520970D01*
X170946650Y-70510480D01*
X170925607Y-70497868D01*
X170905901Y-70483253D01*
X170887723Y-70466777D01*
X170871247Y-70448599D01*
X170856632Y-70428893D01*
X170844020Y-70407850D01*
X170833530Y-70385671D01*
X170825265Y-70362572D01*
X170819304Y-70338773D01*
X170815704Y-70314505D01*
X170814500Y-70290001D01*
X170814500Y-68139999D01*
X170815704Y-68115495D01*
X170819304Y-68091227D01*
X170825265Y-68067428D01*
X170833530Y-68044329D01*
X170844020Y-68022150D01*
X170856632Y-68001107D01*
X170871247Y-67981401D01*
X170887723Y-67963223D01*
X170905901Y-67946747D01*
X170925607Y-67932132D01*
X170946650Y-67919520D01*
X170968829Y-67909030D01*
X170991928Y-67900765D01*
X171015727Y-67894804D01*
X171039995Y-67891204D01*
X171064499Y-67890000D01*
X172089501Y-67890000D01*
X172114005Y-67891204D01*
G37*
G04 #@! TD.AperFunction*
G04 #@! TD*
G04 #@! TA.AperFunction,SMDPad,CuDef*
G04 #@! TO.P,R101,2*
G04 #@! TO.N,/D11*
G36*
X167363505Y-78305204D02*
G01*
X167387773Y-78308804D01*
X167411572Y-78314765D01*
X167434671Y-78323030D01*
X167456850Y-78333520D01*
X167477893Y-78346132D01*
X167497599Y-78360747D01*
X167515777Y-78377223D01*
X167532253Y-78395401D01*
X167546868Y-78415107D01*
X167559480Y-78436150D01*
X167569970Y-78458329D01*
X167578235Y-78481428D01*
X167584196Y-78505227D01*
X167587796Y-78529495D01*
X167589000Y-78553999D01*
X167589000Y-80704001D01*
X167587796Y-80728505D01*
X167584196Y-80752773D01*
X167578235Y-80776572D01*
X167569970Y-80799671D01*
X167559480Y-80821850D01*
X167546868Y-80842893D01*
X167532253Y-80862599D01*
X167515777Y-80880777D01*
X167497599Y-80897253D01*
X167477893Y-80911868D01*
X167456850Y-80924480D01*
X167434671Y-80934970D01*
X167411572Y-80943235D01*
X167387773Y-80949196D01*
X167363505Y-80952796D01*
X167339001Y-80954000D01*
X166313999Y-80954000D01*
X166289495Y-80952796D01*
X166265227Y-80949196D01*
X166241428Y-80943235D01*
X166218329Y-80934970D01*
X166196150Y-80924480D01*
X166175107Y-80911868D01*
X166155401Y-80897253D01*
X166137223Y-80880777D01*
X166120747Y-80862599D01*
X166106132Y-80842893D01*
X166093520Y-80821850D01*
X166083030Y-80799671D01*
X166074765Y-80776572D01*
X166068804Y-80752773D01*
X166065204Y-80728505D01*
X166064000Y-80704001D01*
X166064000Y-78553999D01*
X166065204Y-78529495D01*
X166068804Y-78505227D01*
X166074765Y-78481428D01*
X166083030Y-78458329D01*
X166093520Y-78436150D01*
X166106132Y-78415107D01*
X166120747Y-78395401D01*
X166137223Y-78377223D01*
X166155401Y-78360747D01*
X166175107Y-78346132D01*
X166196150Y-78333520D01*
X166218329Y-78323030D01*
X166241428Y-78314765D01*
X166265227Y-78308804D01*
X166289495Y-78305204D01*
X166313999Y-78304000D01*
X167339001Y-78304000D01*
X167363505Y-78305204D01*
G37*
G04 #@! TD.AperFunction*
G04 #@! TA.AperFunction,SMDPad,CuDef*
G04 #@! TO.P,R101,1*
G04 #@! TO.N,Net-(FET1-Pad2)*
G36*
X172038505Y-78305204D02*
G01*
X172062773Y-78308804D01*
X172086572Y-78314765D01*
X172109671Y-78323030D01*
X172131850Y-78333520D01*
X172152893Y-78346132D01*
X172172599Y-78360747D01*
X172190777Y-78377223D01*
X172207253Y-78395401D01*
X172221868Y-78415107D01*
X172234480Y-78436150D01*
X172244970Y-78458329D01*
X172253235Y-78481428D01*
X172259196Y-78505227D01*
X172262796Y-78529495D01*
X172264000Y-78553999D01*
X172264000Y-80704001D01*
X172262796Y-80728505D01*
X172259196Y-80752773D01*
X172253235Y-80776572D01*
X172244970Y-80799671D01*
X172234480Y-80821850D01*
X172221868Y-80842893D01*
X172207253Y-80862599D01*
X172190777Y-80880777D01*
X172172599Y-80897253D01*
X172152893Y-80911868D01*
X172131850Y-80924480D01*
X172109671Y-80934970D01*
X172086572Y-80943235D01*
X172062773Y-80949196D01*
X172038505Y-80952796D01*
X172014001Y-80954000D01*
X170988999Y-80954000D01*
X170964495Y-80952796D01*
X170940227Y-80949196D01*
X170916428Y-80943235D01*
X170893329Y-80934970D01*
X170871150Y-80924480D01*
X170850107Y-80911868D01*
X170830401Y-80897253D01*
X170812223Y-80880777D01*
X170795747Y-80862599D01*
X170781132Y-80842893D01*
X170768520Y-80821850D01*
X170758030Y-80799671D01*
X170749765Y-80776572D01*
X170743804Y-80752773D01*
X170740204Y-80728505D01*
X170739000Y-80704001D01*
X170739000Y-78553999D01*
X170740204Y-78529495D01*
X170743804Y-78505227D01*
X170749765Y-78481428D01*
X170758030Y-78458329D01*
X170768520Y-78436150D01*
X170781132Y-78415107D01*
X170795747Y-78395401D01*
X170812223Y-78377223D01*
X170830401Y-78360747D01*
X170850107Y-78346132D01*
X170871150Y-78333520D01*
X170893329Y-78323030D01*
X170916428Y-78314765D01*
X170940227Y-78308804D01*
X170964495Y-78305204D01*
X170988999Y-78304000D01*
X172014001Y-78304000D01*
X172038505Y-78305204D01*
G37*
G04 #@! TD.AperFunction*
G04 #@! TD*
G04 #@! TA.AperFunction,SMDPad,CuDef*
G04 #@! TO.P,R100,2*
G04 #@! TO.N,/D10*
G36*
X167236505Y-88592204D02*
G01*
X167260773Y-88595804D01*
X167284572Y-88601765D01*
X167307671Y-88610030D01*
X167329850Y-88620520D01*
X167350893Y-88633132D01*
X167370599Y-88647747D01*
X167388777Y-88664223D01*
X167405253Y-88682401D01*
X167419868Y-88702107D01*
X167432480Y-88723150D01*
X167442970Y-88745329D01*
X167451235Y-88768428D01*
X167457196Y-88792227D01*
X167460796Y-88816495D01*
X167462000Y-88840999D01*
X167462000Y-90991001D01*
X167460796Y-91015505D01*
X167457196Y-91039773D01*
X167451235Y-91063572D01*
X167442970Y-91086671D01*
X167432480Y-91108850D01*
X167419868Y-91129893D01*
X167405253Y-91149599D01*
X167388777Y-91167777D01*
X167370599Y-91184253D01*
X167350893Y-91198868D01*
X167329850Y-91211480D01*
X167307671Y-91221970D01*
X167284572Y-91230235D01*
X167260773Y-91236196D01*
X167236505Y-91239796D01*
X167212001Y-91241000D01*
X166186999Y-91241000D01*
X166162495Y-91239796D01*
X166138227Y-91236196D01*
X166114428Y-91230235D01*
X166091329Y-91221970D01*
X166069150Y-91211480D01*
X166048107Y-91198868D01*
X166028401Y-91184253D01*
X166010223Y-91167777D01*
X165993747Y-91149599D01*
X165979132Y-91129893D01*
X165966520Y-91108850D01*
X165956030Y-91086671D01*
X165947765Y-91063572D01*
X165941804Y-91039773D01*
X165938204Y-91015505D01*
X165937000Y-90991001D01*
X165937000Y-88840999D01*
X165938204Y-88816495D01*
X165941804Y-88792227D01*
X165947765Y-88768428D01*
X165956030Y-88745329D01*
X165966520Y-88723150D01*
X165979132Y-88702107D01*
X165993747Y-88682401D01*
X166010223Y-88664223D01*
X166028401Y-88647747D01*
X166048107Y-88633132D01*
X166069150Y-88620520D01*
X166091329Y-88610030D01*
X166114428Y-88601765D01*
X166138227Y-88595804D01*
X166162495Y-88592204D01*
X166186999Y-88591000D01*
X167212001Y-88591000D01*
X167236505Y-88592204D01*
G37*
G04 #@! TD.AperFunction*
G04 #@! TA.AperFunction,SMDPad,CuDef*
G04 #@! TO.P,R100,1*
G04 #@! TO.N,Net-(FET0-Pad2)*
G36*
X171911505Y-88592204D02*
G01*
X171935773Y-88595804D01*
X171959572Y-88601765D01*
X171982671Y-88610030D01*
X172004850Y-88620520D01*
X172025893Y-88633132D01*
X172045599Y-88647747D01*
X172063777Y-88664223D01*
X172080253Y-88682401D01*
X172094868Y-88702107D01*
X172107480Y-88723150D01*
X172117970Y-88745329D01*
X172126235Y-88768428D01*
X172132196Y-88792227D01*
X172135796Y-88816495D01*
X172137000Y-88840999D01*
X172137000Y-90991001D01*
X172135796Y-91015505D01*
X172132196Y-91039773D01*
X172126235Y-91063572D01*
X172117970Y-91086671D01*
X172107480Y-91108850D01*
X172094868Y-91129893D01*
X172080253Y-91149599D01*
X172063777Y-91167777D01*
X172045599Y-91184253D01*
X172025893Y-91198868D01*
X172004850Y-91211480D01*
X171982671Y-91221970D01*
X171959572Y-91230235D01*
X171935773Y-91236196D01*
X171911505Y-91239796D01*
X171887001Y-91241000D01*
X170861999Y-91241000D01*
X170837495Y-91239796D01*
X170813227Y-91236196D01*
X170789428Y-91230235D01*
X170766329Y-91221970D01*
X170744150Y-91211480D01*
X170723107Y-91198868D01*
X170703401Y-91184253D01*
X170685223Y-91167777D01*
X170668747Y-91149599D01*
X170654132Y-91129893D01*
X170641520Y-91108850D01*
X170631030Y-91086671D01*
X170622765Y-91063572D01*
X170616804Y-91039773D01*
X170613204Y-91015505D01*
X170612000Y-90991001D01*
X170612000Y-88840999D01*
X170613204Y-88816495D01*
X170616804Y-88792227D01*
X170622765Y-88768428D01*
X170631030Y-88745329D01*
X170641520Y-88723150D01*
X170654132Y-88702107D01*
X170668747Y-88682401D01*
X170685223Y-88664223D01*
X170703401Y-88647747D01*
X170723107Y-88633132D01*
X170744150Y-88620520D01*
X170766329Y-88610030D01*
X170789428Y-88601765D01*
X170813227Y-88595804D01*
X170837495Y-88592204D01*
X170861999Y-88591000D01*
X171887001Y-88591000D01*
X171911505Y-88592204D01*
G37*
G04 #@! TD.AperFunction*
G04 #@! TD*
G04 #@! TA.AperFunction,SMDPad,CuDef*
G04 #@! TO.P,R10,2*
G04 #@! TO.N,Net-(Prt_IC1-Pad2)*
G36*
X130131505Y-109931204D02*
G01*
X130155773Y-109934804D01*
X130179572Y-109940765D01*
X130202671Y-109949030D01*
X130224850Y-109959520D01*
X130245893Y-109972132D01*
X130265599Y-109986747D01*
X130283777Y-110003223D01*
X130300253Y-110021401D01*
X130314868Y-110041107D01*
X130327480Y-110062150D01*
X130337970Y-110084329D01*
X130346235Y-110107428D01*
X130352196Y-110131227D01*
X130355796Y-110155495D01*
X130357000Y-110179999D01*
X130357000Y-111205001D01*
X130355796Y-111229505D01*
X130352196Y-111253773D01*
X130346235Y-111277572D01*
X130337970Y-111300671D01*
X130327480Y-111322850D01*
X130314868Y-111343893D01*
X130300253Y-111363599D01*
X130283777Y-111381777D01*
X130265599Y-111398253D01*
X130245893Y-111412868D01*
X130224850Y-111425480D01*
X130202671Y-111435970D01*
X130179572Y-111444235D01*
X130155773Y-111450196D01*
X130131505Y-111453796D01*
X130107001Y-111455000D01*
X127956999Y-111455000D01*
X127932495Y-111453796D01*
X127908227Y-111450196D01*
X127884428Y-111444235D01*
X127861329Y-111435970D01*
X127839150Y-111425480D01*
X127818107Y-111412868D01*
X127798401Y-111398253D01*
X127780223Y-111381777D01*
X127763747Y-111363599D01*
X127749132Y-111343893D01*
X127736520Y-111322850D01*
X127726030Y-111300671D01*
X127717765Y-111277572D01*
X127711804Y-111253773D01*
X127708204Y-111229505D01*
X127707000Y-111205001D01*
X127707000Y-110179999D01*
X127708204Y-110155495D01*
X127711804Y-110131227D01*
X127717765Y-110107428D01*
X127726030Y-110084329D01*
X127736520Y-110062150D01*
X127749132Y-110041107D01*
X127763747Y-110021401D01*
X127780223Y-110003223D01*
X127798401Y-109986747D01*
X127818107Y-109972132D01*
X127839150Y-109959520D01*
X127861329Y-109949030D01*
X127884428Y-109940765D01*
X127908227Y-109934804D01*
X127932495Y-109931204D01*
X127956999Y-109930000D01*
X130107001Y-109930000D01*
X130131505Y-109931204D01*
G37*
G04 #@! TD.AperFunction*
G04 #@! TA.AperFunction,SMDPad,CuDef*
G04 #@! TO.P,R10,1*
G04 #@! TO.N,/RJ45_4*
G36*
X130131505Y-114606204D02*
G01*
X130155773Y-114609804D01*
X130179572Y-114615765D01*
X130202671Y-114624030D01*
X130224850Y-114634520D01*
X130245893Y-114647132D01*
X130265599Y-114661747D01*
X130283777Y-114678223D01*
X130300253Y-114696401D01*
X130314868Y-114716107D01*
X130327480Y-114737150D01*
X130337970Y-114759329D01*
X130346235Y-114782428D01*
X130352196Y-114806227D01*
X130355796Y-114830495D01*
X130357000Y-114854999D01*
X130357000Y-115880001D01*
X130355796Y-115904505D01*
X130352196Y-115928773D01*
X130346235Y-115952572D01*
X130337970Y-115975671D01*
X130327480Y-115997850D01*
X130314868Y-116018893D01*
X130300253Y-116038599D01*
X130283777Y-116056777D01*
X130265599Y-116073253D01*
X130245893Y-116087868D01*
X130224850Y-116100480D01*
X130202671Y-116110970D01*
X130179572Y-116119235D01*
X130155773Y-116125196D01*
X130131505Y-116128796D01*
X130107001Y-116130000D01*
X127956999Y-116130000D01*
X127932495Y-116128796D01*
X127908227Y-116125196D01*
X127884428Y-116119235D01*
X127861329Y-116110970D01*
X127839150Y-116100480D01*
X127818107Y-116087868D01*
X127798401Y-116073253D01*
X127780223Y-116056777D01*
X127763747Y-116038599D01*
X127749132Y-116018893D01*
X127736520Y-115997850D01*
X127726030Y-115975671D01*
X127717765Y-115952572D01*
X127711804Y-115928773D01*
X127708204Y-115904505D01*
X127707000Y-115880001D01*
X127707000Y-114854999D01*
X127708204Y-114830495D01*
X127711804Y-114806227D01*
X127717765Y-114782428D01*
X127726030Y-114759329D01*
X127736520Y-114737150D01*
X127749132Y-114716107D01*
X127763747Y-114696401D01*
X127780223Y-114678223D01*
X127798401Y-114661747D01*
X127818107Y-114647132D01*
X127839150Y-114634520D01*
X127861329Y-114624030D01*
X127884428Y-114615765D01*
X127908227Y-114609804D01*
X127932495Y-114606204D01*
X127956999Y-114605000D01*
X130107001Y-114605000D01*
X130131505Y-114606204D01*
G37*
G04 #@! TD.AperFunction*
G04 #@! TD*
D24*
G04 #@! TO.P,FET5,3*
G04 #@! TO.N,Net-(FET5-Pad3)*
X174117000Y-107188000D03*
G04 #@! TO.P,FET5,2*
G04 #@! TO.N,Net-(FET5-Pad2)*
X171577000Y-107188000D03*
D25*
G04 #@! TO.P,FET5,1*
G04 #@! TO.N,GND*
X169037000Y-107188000D03*
G04 #@! TD*
D24*
G04 #@! TO.P,FET4,3*
G04 #@! TO.N,Net-(FET4-Pad3)*
X174117000Y-117348000D03*
G04 #@! TO.P,FET4,2*
G04 #@! TO.N,Net-(FET4-Pad2)*
X171577000Y-117348000D03*
D25*
G04 #@! TO.P,FET4,1*
G04 #@! TO.N,GND*
X169037000Y-117348000D03*
G04 #@! TD*
D24*
G04 #@! TO.P,FET3,3*
G04 #@! TO.N,Net-(FET3-Pad3)*
X174117000Y-127508000D03*
G04 #@! TO.P,FET3,2*
G04 #@! TO.N,Net-(FET3-Pad2)*
X171577000Y-127508000D03*
D25*
G04 #@! TO.P,FET3,1*
G04 #@! TO.N,GND*
X169037000Y-127508000D03*
G04 #@! TD*
D24*
G04 #@! TO.P,FET1,3*
G04 #@! TO.N,Net-(FET1-Pad3)*
X174117000Y-85344000D03*
G04 #@! TO.P,FET1,2*
G04 #@! TO.N,Net-(FET1-Pad2)*
X171577000Y-85344000D03*
D25*
G04 #@! TO.P,FET1,1*
G04 #@! TO.N,GND*
X169037000Y-85344000D03*
G04 #@! TD*
D24*
G04 #@! TO.P,FET0,3*
G04 #@! TO.N,Net-(FET0-Pad3)*
X173863000Y-95504000D03*
G04 #@! TO.P,FET0,2*
G04 #@! TO.N,Net-(FET0-Pad2)*
X171323000Y-95504000D03*
D25*
G04 #@! TO.P,FET0,1*
G04 #@! TO.N,GND*
X168783000Y-95504000D03*
G04 #@! TD*
D15*
G04 #@! TO.P,RJ0,1*
G04 #@! TO.N,N/C*
X130556000Y-125095000D03*
D16*
G04 #@! TO.P,RJ0,2*
X128524000Y-125095000D03*
G04 #@! TO.P,RJ0,3*
X126492000Y-125095000D03*
G04 #@! TO.P,RJ0,4*
G04 #@! TO.N,/RJ45_4*
X124460000Y-125095000D03*
G04 #@! TO.P,RJ0,5*
G04 #@! TO.N,/RJ45_5*
X122428000Y-125095000D03*
G04 #@! TO.P,RJ0,6*
G04 #@! TO.N,N/C*
X120396000Y-125095000D03*
G04 #@! TO.P,RJ0,7*
X131572000Y-122555000D03*
G04 #@! TO.P,RJ0,8*
X129540000Y-122555000D03*
G04 #@! TO.P,RJ0,9*
X127508000Y-122555000D03*
G04 #@! TO.P,RJ0,10*
X123444000Y-122555000D03*
G04 #@! TO.P,RJ0,11*
X121412000Y-122555000D03*
G04 #@! TO.P,RJ0,12*
X119380000Y-122555000D03*
D17*
G04 #@! TO.P,RJ0,13*
X131572000Y-120015000D03*
G04 #@! TO.P,RJ0,14*
X129032000Y-120015000D03*
G04 #@! TO.P,RJ0,15*
X121920000Y-120015000D03*
G04 #@! TO.P,RJ0,16*
X119380000Y-120015000D03*
D18*
G04 #@! TO.P,RJ0,SH*
X117411500Y-143510000D03*
D19*
X133540500Y-143510000D03*
G04 #@! TD*
D29*
G04 #@! TO.P,J3,12*
G04 #@! TO.N,N/C*
X150114000Y-103632000D03*
G04 #@! TO.P,J3,11*
X150114000Y-101092000D03*
G04 #@! TO.P,J3,10*
G04 #@! TO.N,/D5*
X150114000Y-98552000D03*
G04 #@! TO.P,J3,9*
G04 #@! TO.N,/D6*
X150114000Y-96012000D03*
G04 #@! TO.P,J3,8*
G04 #@! TO.N,/D9*
X150114000Y-93472000D03*
G04 #@! TO.P,J3,7*
G04 #@! TO.N,/D10*
X150114000Y-90932000D03*
G04 #@! TO.P,J3,6*
G04 #@! TO.N,/D11*
X150114000Y-88392000D03*
G04 #@! TO.P,J3,5*
G04 #@! TO.N,/D12*
X150114000Y-85852000D03*
G04 #@! TO.P,J3,4*
G04 #@! TO.N,N/C*
X150114000Y-83312000D03*
G04 #@! TO.P,J3,3*
G04 #@! TO.N,+5V*
X150114000Y-80772000D03*
G04 #@! TO.P,J3,2*
G04 #@! TO.N,N/C*
X150114000Y-78232000D03*
D22*
G04 #@! TO.P,J3,1*
X150114000Y-75692000D03*
G04 #@! TD*
D29*
G04 #@! TO.P,J2,16*
G04 #@! TO.N,GND*
X129794000Y-103632000D03*
G04 #@! TO.P,J2,15*
G04 #@! TO.N,/TX1*
X129794000Y-101092000D03*
G04 #@! TO.P,J2,14*
G04 #@! TO.N,/RX0*
X129794000Y-98552000D03*
G04 #@! TO.P,J2,13*
G04 #@! TO.N,/MISO*
X129794000Y-96012000D03*
G04 #@! TO.P,J2,12*
G04 #@! TO.N,N/C*
X129794000Y-93472000D03*
G04 #@! TO.P,J2,11*
G04 #@! TO.N,/SCK*
X129794000Y-90932000D03*
G04 #@! TO.P,J2,10*
G04 #@! TO.N,N/C*
X129794000Y-88392000D03*
G04 #@! TO.P,J2,9*
G04 #@! TO.N,/A4*
X129794000Y-85852000D03*
G04 #@! TO.P,J2,8*
G04 #@! TO.N,N/C*
X129794000Y-83312000D03*
G04 #@! TO.P,J2,7*
X129794000Y-80772000D03*
G04 #@! TO.P,J2,6*
X129794000Y-78232000D03*
G04 #@! TO.P,J2,5*
G04 #@! TO.N,/A0*
X129794000Y-75692000D03*
G04 #@! TO.P,J2,4*
G04 #@! TO.N,GND*
X129794000Y-73152000D03*
G04 #@! TO.P,J2,3*
G04 #@! TO.N,N/C*
X129794000Y-70612000D03*
G04 #@! TO.P,J2,2*
G04 #@! TO.N,+3V3*
X129794000Y-68072000D03*
D22*
G04 #@! TO.P,J2,1*
G04 #@! TO.N,N/C*
X129794000Y-65532000D03*
G04 #@! TD*
D30*
G04 #@! TO.N,/INP3_1*
X125222000Y-101473000D03*
X125621999Y-98951999D03*
X125621999Y-86251999D03*
X125603000Y-80137000D03*
X123190000Y-71501000D03*
G04 #@! TO.N,/INP3_0*
X122809000Y-73533000D03*
X123063000Y-84328000D03*
X124460000Y-82931000D03*
X121793000Y-101981000D03*
X123063000Y-98298000D03*
G04 #@! TO.N,/INP2_1*
X106045000Y-69342000D03*
G04 #@! TO.N,/INP2_0*
X121412000Y-80391000D03*
G04 #@! TO.N,GND*
X137033000Y-109728000D03*
X118110000Y-68072000D03*
X110490000Y-77343000D03*
X110490000Y-99314000D03*
X116967000Y-90170000D03*
X140589000Y-112141000D03*
X108077000Y-92964000D03*
G04 #@! TO.N,/MISO*
X120396000Y-63373000D03*
G04 #@! TO.N,/SCK*
X119761000Y-97536000D03*
X121793000Y-95250000D03*
G04 #@! TO.N,/A4*
X141859000Y-102108000D03*
X139319000Y-97155000D03*
G04 #@! TO.N,/A0*
X117805200Y-86918800D03*
X121158000Y-85979000D03*
G04 #@! TO.N,/RJ45_5*
X143129000Y-113030000D03*
X122936000Y-115570000D03*
G04 #@! TO.N,/SHIFT2_OUT*
X108823201Y-88900000D03*
X108839000Y-70993000D03*
G04 #@! TD*
D31*
G04 #@! TO.N,/INP5_1*
X106680000Y-137033000D02*
X109220000Y-134493000D01*
X111617201Y-98044000D02*
X112953800Y-98044000D01*
X109220000Y-134493000D02*
X109220000Y-99044201D01*
X97917000Y-137033000D02*
X106680000Y-137033000D01*
X109220000Y-99044201D02*
X109235799Y-99044201D01*
X110236000Y-98044000D02*
X112953800Y-98044000D01*
X109235799Y-99044201D02*
X110236000Y-98044000D01*
G04 #@! TO.N,/INP5_0*
X97917000Y-131953000D02*
X105086991Y-131953000D01*
X107823000Y-129216991D02*
X105086991Y-131953000D01*
X107823000Y-99060000D02*
X107823000Y-129216991D01*
X112953800Y-96774000D02*
X110109000Y-96774000D01*
X110109000Y-96774000D02*
X107823000Y-99060000D01*
G04 #@! TO.N,/INP4_1*
X111617201Y-95504000D02*
X112953800Y-95504000D01*
X106553000Y-123317000D02*
X106553000Y-99171201D01*
X105029000Y-124841000D02*
X106553000Y-123317000D01*
X105029000Y-124841000D02*
X97917000Y-124841000D01*
X106553000Y-99171201D02*
X106568799Y-99171201D01*
X106568799Y-99171201D02*
X110236000Y-95504000D01*
X110236000Y-95504000D02*
X112953800Y-95504000D01*
G04 #@! TO.N,/INP4_0*
X109347000Y-94234000D02*
X110998000Y-94234000D01*
X110871000Y-94234000D02*
X110998000Y-94234000D01*
X110998000Y-94234000D02*
X112953800Y-94234000D01*
X105283000Y-118237000D02*
X105283000Y-98298000D01*
X97917000Y-119761000D02*
X103759000Y-119761000D01*
X103759000Y-119761000D02*
X105283000Y-118237000D01*
X105283000Y-98298000D02*
X109347000Y-94234000D01*
G04 #@! TO.N,/INP3_1*
X125621999Y-101073001D02*
X125621999Y-98951999D01*
X125222000Y-101473000D02*
X125621999Y-101073001D01*
X125621999Y-98951999D02*
X125621999Y-98951999D01*
X125621999Y-85686314D02*
X125603000Y-85667315D01*
X125621999Y-86251999D02*
X125621999Y-85686314D01*
X125603000Y-85667315D02*
X125603000Y-80137000D01*
X125603000Y-80137000D02*
X125603000Y-80137000D01*
X122428000Y-72263000D02*
X117805200Y-72263000D01*
X123190000Y-71501000D02*
X122428000Y-72263000D01*
G04 #@! TO.N,/INP3_0*
X122243315Y-73533000D02*
X117805200Y-73533000D01*
X122809000Y-73533000D02*
X122243315Y-73533000D01*
X124460000Y-82931000D02*
X123063000Y-84328000D01*
X121793000Y-101415315D02*
X123063000Y-100145315D01*
X121793000Y-101981000D02*
X121793000Y-101415315D01*
X123063000Y-100145315D02*
X123063000Y-98298000D01*
X123063000Y-98298000D02*
X123063000Y-98298000D01*
G04 #@! TO.N,/INP2_1*
X118364000Y-74803000D02*
X117805200Y-74803000D01*
X125349000Y-73914000D02*
X124460000Y-74803000D01*
X106045000Y-66929000D02*
X104140000Y-65024000D01*
X106934000Y-62230000D02*
X124714000Y-62230000D01*
X106045000Y-69342000D02*
X106045000Y-66929000D01*
X124460000Y-74803000D02*
X118364000Y-74803000D01*
X124714000Y-62230000D02*
X125349000Y-62865000D01*
X104140000Y-65024000D02*
X106934000Y-62230000D01*
X125349000Y-62865000D02*
X125349000Y-73914000D01*
G04 #@! TO.N,/INP2_0*
X121412000Y-80391000D02*
X121412000Y-77851000D01*
X119634000Y-76073000D02*
X117805200Y-76073000D01*
X121412000Y-77851000D02*
X119634000Y-76073000D01*
G04 #@! TO.N,/INP1_1*
X104267000Y-76073000D02*
X113080800Y-76073000D01*
X102997000Y-77343000D02*
X104267000Y-76073000D01*
X97917000Y-87757000D02*
X102997000Y-82677000D01*
X102997000Y-82677000D02*
X102997000Y-77343000D01*
G04 #@! TO.N,/INP1_0*
X99667000Y-82677000D02*
X101219000Y-81125000D01*
X97917000Y-82677000D02*
X99667000Y-82677000D01*
X101219000Y-81125000D02*
X101219000Y-76581000D01*
X102997000Y-74803000D02*
X113080800Y-74803000D01*
X101219000Y-76581000D02*
X102997000Y-74803000D01*
G04 #@! TO.N,/INP0_1*
X100038320Y-75057000D02*
X101562320Y-73533000D01*
X97917000Y-75057000D02*
X100038320Y-75057000D01*
X101562320Y-73533000D02*
X113080800Y-73533000D01*
G04 #@! TO.N,/INP0_0*
X97917000Y-69977000D02*
X100457000Y-69977000D01*
X102743000Y-72263000D02*
X113080800Y-72263000D01*
X100457000Y-69977000D02*
X102743000Y-72263000D01*
G04 #@! TO.N,GND*
X134937500Y-109728000D02*
X137033000Y-109728000D01*
X137033000Y-109728000D02*
X137033000Y-109728000D01*
X117805200Y-69189000D02*
X118110000Y-68884200D01*
X117805200Y-69723000D02*
X117805200Y-69189000D01*
X118110000Y-68884200D02*
X118110000Y-68072000D01*
X118110000Y-68072000D02*
X118110000Y-68072000D01*
X113080800Y-77343000D02*
X111744201Y-77343000D01*
X111744201Y-77343000D02*
X110490000Y-77343000D01*
X110490000Y-77343000D02*
X110490000Y-77343000D01*
X112953800Y-99314000D02*
X111617201Y-99314000D01*
X111617201Y-99314000D02*
X110490000Y-99314000D01*
X110490000Y-99314000D02*
X110490000Y-99314000D01*
X117678200Y-91160000D02*
X116967000Y-90448800D01*
X117678200Y-91694000D02*
X117678200Y-91160000D01*
X116967000Y-90448800D02*
X116967000Y-90170000D01*
X116967000Y-90170000D02*
X116967000Y-90170000D01*
X140589000Y-109782348D02*
X140589000Y-110759797D01*
X140589000Y-110759797D02*
X140589000Y-112141000D01*
X140589000Y-112141000D02*
X140589000Y-112141000D01*
X112953800Y-92964000D02*
X108077000Y-92964000D01*
X108077000Y-92964000D02*
X108077000Y-92964000D01*
G04 #@! TO.N,/TX1*
X130996081Y-101092000D02*
X129794000Y-101092000D01*
X138318797Y-101092000D02*
X130996081Y-101092000D01*
X140589000Y-103362203D02*
X138318797Y-101092000D01*
X140589000Y-104339652D02*
X140589000Y-103362203D01*
G04 #@! TO.N,/RX0*
X141097000Y-98552000D02*
X129794000Y-98552000D01*
X144399000Y-104339652D02*
X144399000Y-101854000D01*
X144399000Y-101854000D02*
X141097000Y-98552000D01*
G04 #@! TO.N,/MISO*
X120396000Y-63373000D02*
X117729000Y-63373000D01*
X113080800Y-68021200D02*
X113080800Y-69723000D01*
X117729000Y-63373000D02*
X113080800Y-68021200D01*
G04 #@! TO.N,/SCK*
X119014799Y-99314000D02*
X119761000Y-98567799D01*
X117678200Y-99314000D02*
X119014799Y-99314000D01*
X119761000Y-98567799D02*
X119761000Y-97790000D01*
X119761000Y-97790000D02*
X119761000Y-97790000D01*
X119761000Y-97790000D02*
X119761000Y-97536000D01*
X119761000Y-97536000D02*
X119761000Y-97536000D01*
X122428000Y-90932000D02*
X129794000Y-90932000D01*
X121793000Y-95250000D02*
X121793000Y-91567000D01*
X121793000Y-91567000D02*
X122428000Y-90932000D01*
X122428000Y-90932000D02*
X120015000Y-88519000D01*
X120015000Y-88519000D02*
X120015000Y-77851000D01*
X119507000Y-77343000D02*
X117805200Y-77343000D01*
X120015000Y-77851000D02*
X119507000Y-77343000D01*
G04 #@! TO.N,/A4*
X143129000Y-104339652D02*
X141859000Y-104339652D01*
X141859000Y-104339652D02*
X141859000Y-102108000D01*
X141859000Y-102108000D02*
X141859000Y-102108000D01*
X137414000Y-85852000D02*
X129794000Y-85852000D01*
X139319000Y-97155000D02*
X139319000Y-87757000D01*
X139319000Y-87757000D02*
X137414000Y-85852000D01*
G04 #@! TO.N,/A0*
X117805200Y-78613000D02*
X117805200Y-86918800D01*
X117805200Y-89103200D02*
X119634000Y-90932000D01*
X119634000Y-90932000D02*
X119634000Y-95377000D01*
X119634000Y-95377000D02*
X121031000Y-96774000D01*
X121031000Y-96774000D02*
X121031000Y-99314000D01*
X119761000Y-100584000D02*
X117678200Y-100584000D01*
X121031000Y-99314000D02*
X119761000Y-100584000D01*
X117805200Y-86918800D02*
X117805200Y-89103200D01*
X121557999Y-85579001D02*
X121557999Y-82150001D01*
X121158000Y-85979000D02*
X121557999Y-85579001D01*
X128016000Y-75692000D02*
X129794000Y-75692000D01*
X121557999Y-82150001D02*
X128016000Y-75692000D01*
G04 #@! TO.N,/D5*
X151316081Y-98552000D02*
X161671000Y-108906919D01*
X150114000Y-98552000D02*
X151316081Y-98552000D01*
X161671000Y-116510500D02*
X166953500Y-121793000D01*
X161671000Y-108906919D02*
X161671000Y-116510500D01*
G04 #@! TO.N,/D6*
X165735000Y-111760000D02*
X167029000Y-111760000D01*
X164084000Y-106045000D02*
X164084000Y-110109000D01*
X150114000Y-96012000D02*
X154051000Y-96012000D01*
X164084000Y-110109000D02*
X165735000Y-111760000D01*
X154051000Y-96012000D02*
X164084000Y-106045000D01*
G04 #@! TO.N,/D9*
X165100000Y-101727000D02*
X166953500Y-101727000D01*
X150114000Y-93472000D02*
X156845000Y-93472000D01*
X156845000Y-93472000D02*
X165100000Y-101727000D01*
G04 #@! TO.N,/D10*
X150114000Y-90932000D02*
X156718000Y-90932000D01*
X157734000Y-89916000D02*
X166699500Y-89916000D01*
X156718000Y-90932000D02*
X157734000Y-89916000D01*
G04 #@! TO.N,/D11*
X150114000Y-88392000D02*
X155194000Y-88392000D01*
X163957000Y-79629000D02*
X166826500Y-79629000D01*
X155194000Y-88392000D02*
X163957000Y-79629000D01*
G04 #@! TO.N,/D12*
X166902000Y-68350000D02*
X166902000Y-69215000D01*
X150114000Y-85852000D02*
X155829000Y-85852000D01*
X155829000Y-85852000D02*
X160147000Y-81534000D01*
X160147000Y-81534000D02*
X160147000Y-72136000D01*
X163068000Y-69215000D02*
X166902000Y-69215000D01*
X160147000Y-72136000D02*
X163068000Y-69215000D01*
G04 #@! TO.N,/RJ45_4*
X141859000Y-109782348D02*
X141859000Y-115189000D01*
X141859000Y-115189000D02*
X139192000Y-117856000D01*
X139192000Y-117856000D02*
X139192000Y-125730000D01*
X139192000Y-125730000D02*
X141859000Y-128397000D01*
X141859000Y-128397000D02*
X146177000Y-128397000D01*
X147828000Y-126746000D02*
X147828000Y-125222000D01*
X146177000Y-128397000D02*
X147828000Y-126746000D01*
X141859000Y-128397000D02*
X125857000Y-128397000D01*
X124460000Y-127000000D02*
X124460000Y-125095000D01*
X125857000Y-128397000D02*
X124460000Y-127000000D01*
X139192000Y-117856000D02*
X136144000Y-117856000D01*
X133655500Y-115367500D02*
X129032000Y-115367500D01*
X136144000Y-117856000D02*
X133655500Y-115367500D01*
G04 #@! TO.N,/RJ45_5*
X143129000Y-109782348D02*
X143129000Y-113030000D01*
X143129000Y-115697000D02*
X140716000Y-118110000D01*
X140716000Y-118110000D02*
X140716000Y-125603000D01*
X140716000Y-125603000D02*
X142113000Y-127000000D01*
X144018000Y-127000000D02*
X145796000Y-125222000D01*
X142113000Y-127000000D02*
X144018000Y-127000000D01*
X143129000Y-113030000D02*
X143129000Y-115697000D01*
X122936000Y-113462500D02*
X123063000Y-113335500D01*
X122936000Y-115570000D02*
X122936000Y-113462500D01*
X120269000Y-127254000D02*
X122428000Y-125095000D01*
X117348000Y-127254000D02*
X120269000Y-127254000D01*
X122370315Y-115570000D02*
X120973315Y-116967000D01*
X117729000Y-116967000D02*
X115781499Y-118914501D01*
X122936000Y-115570000D02*
X122370315Y-115570000D01*
X120973315Y-116967000D02*
X117729000Y-116967000D01*
X115781499Y-118914501D02*
X115781499Y-125687499D01*
X115781499Y-125687499D02*
X117348000Y-127254000D01*
G04 #@! TO.N,/SHIFT2_OUT*
X111617201Y-91694000D02*
X108823201Y-88900000D01*
X112953800Y-91694000D02*
X111617201Y-91694000D01*
X108823201Y-88900000D02*
X108823201Y-88900000D01*
X108839000Y-70993000D02*
X113080800Y-70993000D01*
D32*
G04 #@! TO.N,+5V*
X154051000Y-80772000D02*
X150114000Y-80772000D01*
X154051000Y-80772000D02*
X154051000Y-66929000D01*
X154051000Y-66929000D02*
X156464000Y-64516000D01*
X161925000Y-64516000D02*
X167894000Y-58547000D01*
X156464000Y-64516000D02*
X161925000Y-64516000D01*
D31*
G04 #@! TO.N,+3V3*
X121440000Y-58166000D02*
X118110000Y-58166000D01*
X123190000Y-58166000D02*
X121440000Y-58166000D01*
X115988680Y-58166000D02*
X113030000Y-58166000D01*
X118110000Y-58166000D02*
X115988680Y-58166000D01*
X113030000Y-58166000D02*
X107950000Y-58166000D01*
X105828680Y-58166000D02*
X102870000Y-58166000D01*
X107950000Y-58166000D02*
X105828680Y-58166000D01*
X100748680Y-58166000D02*
X97790000Y-58166000D01*
X102870000Y-58166000D02*
X100748680Y-58166000D01*
X144471652Y-109855000D02*
X144399000Y-109782348D01*
X146971000Y-109855000D02*
X144471652Y-109855000D01*
X112903000Y-100634800D02*
X112953800Y-100584000D01*
X112903000Y-103410000D02*
X112903000Y-100634800D01*
X113030000Y-78663800D02*
X113080800Y-78613000D01*
X113030000Y-81026000D02*
X113030000Y-78663800D01*
X129794000Y-68072000D02*
X137668000Y-68072000D01*
X137668000Y-68072000D02*
X146971000Y-77375000D01*
X146971000Y-105251000D02*
X146971000Y-109855000D01*
X146971000Y-77375000D02*
X146971000Y-105251000D01*
X116110000Y-103410000D02*
X112903000Y-103410000D01*
X119507000Y-106807000D02*
X116110000Y-103410000D01*
X146971000Y-105251000D02*
X145415000Y-106807000D01*
X145415000Y-106807000D02*
X119507000Y-106807000D01*
X116110000Y-103410000D02*
X116110000Y-102902000D01*
X116110000Y-102902000D02*
X115443000Y-102235000D01*
X115443000Y-102235000D02*
X115443000Y-82042000D01*
X114427000Y-81026000D02*
X113030000Y-81026000D01*
X115443000Y-82042000D02*
X114427000Y-81026000D01*
X124940000Y-58166000D02*
X126591000Y-59817000D01*
X123190000Y-58166000D02*
X124940000Y-58166000D01*
X126591000Y-59817000D02*
X126591000Y-67028000D01*
X127635000Y-68072000D02*
X129794000Y-68072000D01*
X126591000Y-67028000D02*
X127635000Y-68072000D01*
D33*
G04 #@! TO.N,Net-(FET0-Pad3)*
X173863000Y-95504000D02*
X182880000Y-95504000D01*
D31*
G04 #@! TO.N,Net-(FET0-Pad2)*
X171374500Y-95452500D02*
X171323000Y-95504000D01*
X171374500Y-89916000D02*
X171374500Y-95452500D01*
D33*
G04 #@! TO.N,Net-(FET1-Pad3)*
X174117000Y-85344000D02*
X182880000Y-85344000D01*
D31*
G04 #@! TO.N,Net-(FET1-Pad2)*
X171501500Y-85268500D02*
X171577000Y-85344000D01*
X171501500Y-79629000D02*
X171501500Y-85268500D01*
D33*
G04 #@! TO.N,Net-(FET2-Pad3)*
X174117000Y-75184000D02*
X182880000Y-75184000D01*
D31*
G04 #@! TO.N,Net-(FET2-Pad2)*
X171577000Y-69215000D02*
X171577000Y-75184000D01*
D33*
G04 #@! TO.N,Net-(FET3-Pad3)*
X174117000Y-127508000D02*
X183007000Y-127508000D01*
D31*
G04 #@! TO.N,Net-(FET3-Pad2)*
X171628500Y-127456500D02*
X171577000Y-127508000D01*
X171628500Y-121793000D02*
X171628500Y-127456500D01*
D33*
G04 #@! TO.N,Net-(FET4-Pad3)*
X174117000Y-117348000D02*
X183007000Y-117348000D01*
D31*
G04 #@! TO.N,Net-(FET4-Pad2)*
X171704000Y-117221000D02*
X171577000Y-117348000D01*
X171704000Y-111760000D02*
X171704000Y-117221000D01*
D33*
G04 #@! TO.N,Net-(FET5-Pad3)*
X174117000Y-107188000D02*
X183007000Y-107188000D01*
D31*
G04 #@! TO.N,Net-(FET5-Pad2)*
X171628500Y-107136500D02*
X171577000Y-107188000D01*
X171628500Y-101727000D02*
X171628500Y-107136500D01*
G04 #@! TO.N,Net-(Prt_IC1-Pad2)*
X129046499Y-110678001D02*
X129032000Y-110692500D01*
X133032500Y-110678001D02*
X129046499Y-110678001D01*
G04 #@! TO.N,Net-(Prt_IC1-Pad1)*
X123180499Y-108777999D02*
X123063000Y-108660500D01*
X133032500Y-108777999D02*
X123180499Y-108777999D01*
G04 #@! TD*
M02*
