M48
; DRILL file {KiCad 5.1.5-52549c5~84~ubuntu18.04.1} date Wed 12 Feb 2020 07:32:07 PM EST
; FORMAT={-:-/ absolute / metric / decimal}
; #@! TF.CreationDate,2020-02-12T19:32:07-05:00
; #@! TF.GenerationSoftware,Kicad,Pcbnew,5.1.5-52549c5~84~ubuntu18.04.1
; #@! TF.FileFunction,Plated,1,2,PTH
FMAT,2
METRIC
T1C0.400
T2C0.600
T3C0.760
T4C0.800
T5C1.000
T6C1.100
T7C1.520
%
G90
G05
T1
X104.292Y-80.696
X106.782Y-69.215
X106.782Y-80.442
X109.296Y-77.343
X109.474Y-92.38
X110.261Y-70.968
X115.468Y-67.437
X117.348Y-88.189
X117.958Y-80.239
X118.085Y-85.115
X118.339Y-89.764
X120.117Y-100.584
X122.022Y-64.592
X129.718Y-101.854
X132.055Y-117.119
X134.722Y-111.277
X136.195Y-125.654
T2
X113.03Y-81.026
X113.03Y-83.026
X144.685Y-119.253
X146.685Y-119.253
X112.903Y-103.41
X112.903Y-105.41
T3
X126.898Y-131.343
X128.168Y-128.803
X129.438Y-131.343
X130.708Y-128.803
X131.978Y-131.343
X133.248Y-128.803
X134.518Y-131.343
X135.788Y-128.803
X143.866Y-131.343
X145.136Y-128.803
X146.406Y-131.343
X147.676Y-128.803
X148.946Y-131.343
X150.216Y-128.803
X151.486Y-131.343
X152.756Y-128.803
T4
X153.822Y-104.013
X174.142Y-104.013
X120.599Y-117.069
X120.599Y-137.389
X154.305Y-72.542
X174.625Y-72.542
X115.468Y-115.087
X115.468Y-135.407
X154.127Y-93.243
X174.447Y-93.243
X154.127Y-114.275
X174.447Y-114.275
X154.305Y-83.007
X174.625Y-83.007
X149.352Y-86.589
X151.852Y-86.589
X154.127Y-124.562
X174.447Y-124.562
T5
X167.183Y-59.817
X125.4Y-71.374
X125.4Y-73.914
X125.4Y-76.454
X125.4Y-78.994
X125.4Y-81.534
X125.4Y-84.074
X125.4Y-86.614
X125.4Y-89.154
X125.4Y-91.694
X125.4Y-94.234
X125.4Y-96.774
X125.4Y-99.314
X125.4Y-101.854
X125.4Y-104.394
X125.4Y-106.934
X125.4Y-109.474
X145.72Y-81.534
X145.72Y-84.074
X145.72Y-86.614
X145.72Y-89.154
X145.72Y-91.694
X145.72Y-94.234
X145.72Y-96.774
X145.72Y-99.314
X145.72Y-101.854
X145.72Y-104.394
X145.72Y-106.934
X145.72Y-109.474
T6
X167.767Y-109.855
X170.307Y-109.855
X172.847Y-109.855
X167.767Y-130.175
X170.307Y-130.175
X172.847Y-130.175
X167.894Y-78.613
X170.434Y-78.613
X172.974Y-78.613
X167.64Y-98.933
X170.18Y-98.933
X172.72Y-98.933
X167.767Y-120.015
X170.307Y-120.015
X172.847Y-120.015
X167.894Y-88.773
X170.434Y-88.773
X172.974Y-88.773
T7
X97.917Y-80.391
X97.917Y-85.471
X97.917Y-105.283
X97.917Y-110.363
X97.917Y-117.475
X97.917Y-122.555
X154.686Y-59.817
X159.766Y-59.817
X181.737Y-78.613
X181.737Y-83.693
X181.737Y-88.773
X181.737Y-93.853
X181.737Y-98.933
X181.737Y-104.013
X181.737Y-64.897
X181.737Y-69.977
X97.917Y-67.691
X97.917Y-72.771
X104.013Y-59.436
X109.093Y-59.436
X114.173Y-59.436
X119.253Y-59.436
X124.333Y-59.436
X129.413Y-59.436
X181.737Y-109.855
X181.737Y-114.935
X181.737Y-120.015
X181.737Y-125.095
X181.737Y-130.175
X181.737Y-135.255
X97.917Y-129.667
X97.917Y-134.747
X97.917Y-93.091
X97.917Y-98.171
T0
M30
