G04 #@! TF.GenerationSoftware,KiCad,Pcbnew,5.1.5-52549c5~84~ubuntu18.04.1*
G04 #@! TF.CreationDate,2020-03-09T14:00:33-04:00*
G04 #@! TF.ProjectId,solenoid_board,736f6c65-6e6f-4696-945f-626f6172642e,rev?*
G04 #@! TF.SameCoordinates,Original*
G04 #@! TF.FileFunction,Soldermask,Top*
G04 #@! TF.FilePolarity,Negative*
%FSLAX46Y46*%
G04 Gerber Fmt 4.6, Leading zero omitted, Abs format (unit mm)*
G04 Created by KiCad (PCBNEW 5.1.5-52549c5~84~ubuntu18.04.1) date 2020-03-09 14:00:33*
%MOMM*%
%LPD*%
G04 APERTURE LIST*
G04 #@! TA.AperFunction,Profile*
%ADD10C,0.050000*%
G04 #@! TD*
%ADD11C,0.150000*%
G04 APERTURE END LIST*
D10*
X97000000Y-60000000D02*
X97000000Y-127000000D01*
X175000000Y-60000000D02*
X97000000Y-60000000D01*
X175000000Y-127000000D02*
X175000000Y-60000000D01*
X97000000Y-127000000D02*
X175000000Y-127000000D01*
D11*
G36*
X136460800Y-124268800D02*
G01*
X134658800Y-124268800D01*
X134658800Y-122466800D01*
X136460800Y-122466800D01*
X136460800Y-124268800D01*
G37*
G36*
X140474000Y-124243400D02*
G01*
X138672000Y-124243400D01*
X138672000Y-122441400D01*
X140474000Y-122441400D01*
X140474000Y-124243400D01*
G37*
G36*
X127066659Y-122620260D02*
G01*
X127171342Y-122663621D01*
X127203332Y-122676872D01*
X127326335Y-122759060D01*
X127430940Y-122863665D01*
X127513128Y-122986668D01*
X127569740Y-123123341D01*
X127598600Y-123268433D01*
X127598600Y-123416367D01*
X127569740Y-123561459D01*
X127513128Y-123698132D01*
X127430940Y-123821135D01*
X127326335Y-123925740D01*
X127203332Y-124007928D01*
X127203331Y-124007929D01*
X127203330Y-124007929D01*
X127066659Y-124064540D01*
X126921568Y-124093400D01*
X126773632Y-124093400D01*
X126628541Y-124064540D01*
X126491870Y-124007929D01*
X126491869Y-124007929D01*
X126491868Y-124007928D01*
X126368865Y-123925740D01*
X126264260Y-123821135D01*
X126182072Y-123698132D01*
X126125460Y-123561459D01*
X126096600Y-123416367D01*
X126096600Y-123268433D01*
X126125460Y-123123341D01*
X126182072Y-122986668D01*
X126264260Y-122863665D01*
X126368865Y-122759060D01*
X126491868Y-122676872D01*
X126523859Y-122663621D01*
X126628541Y-122620260D01*
X126773632Y-122591400D01*
X126921568Y-122591400D01*
X127066659Y-122620260D01*
G37*
G36*
X171286164Y-120628474D02*
G01*
X171408657Y-120652839D01*
X171514267Y-120696585D01*
X171663621Y-120758449D01*
X171704170Y-120785543D01*
X171893086Y-120911772D01*
X172088228Y-121106914D01*
X172136996Y-121179901D01*
X172241551Y-121336379D01*
X172261997Y-121385740D01*
X172347161Y-121591343D01*
X172362563Y-121668775D01*
X172401000Y-121862012D01*
X172401000Y-122137988D01*
X172347161Y-122408656D01*
X172241551Y-122663621D01*
X172232697Y-122676872D01*
X172088228Y-122893086D01*
X171893086Y-123088228D01*
X171840535Y-123123341D01*
X171663621Y-123241551D01*
X171514267Y-123303415D01*
X171408657Y-123347161D01*
X171318433Y-123365107D01*
X171137988Y-123401000D01*
X170862012Y-123401000D01*
X170681567Y-123365107D01*
X170591343Y-123347161D01*
X170485733Y-123303415D01*
X170336379Y-123241551D01*
X170159465Y-123123341D01*
X170106914Y-123088228D01*
X169911772Y-122893086D01*
X169767303Y-122676872D01*
X169758449Y-122663621D01*
X169652839Y-122408656D01*
X169599000Y-122137988D01*
X169599000Y-121862012D01*
X169637437Y-121668775D01*
X169652839Y-121591343D01*
X169738003Y-121385740D01*
X169758449Y-121336379D01*
X169863004Y-121179901D01*
X169911772Y-121106914D01*
X170106914Y-120911772D01*
X170295830Y-120785543D01*
X170336379Y-120758449D01*
X170485733Y-120696585D01*
X170591343Y-120652839D01*
X170713836Y-120628474D01*
X170862012Y-120599000D01*
X171137988Y-120599000D01*
X171286164Y-120628474D01*
G37*
G36*
X102286164Y-120628474D02*
G01*
X102408657Y-120652839D01*
X102514267Y-120696585D01*
X102663621Y-120758449D01*
X102704170Y-120785543D01*
X102893086Y-120911772D01*
X103088228Y-121106914D01*
X103136996Y-121179901D01*
X103241551Y-121336379D01*
X103261997Y-121385740D01*
X103347161Y-121591343D01*
X103362563Y-121668775D01*
X103401000Y-121862012D01*
X103401000Y-122137988D01*
X103347161Y-122408656D01*
X103241551Y-122663621D01*
X103232697Y-122676872D01*
X103088228Y-122893086D01*
X102893086Y-123088228D01*
X102840535Y-123123341D01*
X102663621Y-123241551D01*
X102514267Y-123303415D01*
X102408657Y-123347161D01*
X102318433Y-123365107D01*
X102137988Y-123401000D01*
X101862012Y-123401000D01*
X101681567Y-123365107D01*
X101591343Y-123347161D01*
X101485733Y-123303415D01*
X101336379Y-123241551D01*
X101159465Y-123123341D01*
X101106914Y-123088228D01*
X100911772Y-122893086D01*
X100767303Y-122676872D01*
X100758449Y-122663621D01*
X100652839Y-122408656D01*
X100599000Y-122137988D01*
X100599000Y-121862012D01*
X100637437Y-121668775D01*
X100652839Y-121591343D01*
X100738003Y-121385740D01*
X100758449Y-121336379D01*
X100863004Y-121179901D01*
X100911772Y-121106914D01*
X101106914Y-120911772D01*
X101295830Y-120785543D01*
X101336379Y-120758449D01*
X101485733Y-120696585D01*
X101591343Y-120652839D01*
X101713836Y-120628474D01*
X101862012Y-120599000D01*
X102137988Y-120599000D01*
X102286164Y-120628474D01*
G37*
G36*
X135673312Y-119931727D02*
G01*
X135822612Y-119961424D01*
X135986584Y-120029344D01*
X136134154Y-120127947D01*
X136259653Y-120253446D01*
X136358256Y-120401016D01*
X136426176Y-120564988D01*
X136443650Y-120652839D01*
X136458687Y-120728433D01*
X136460800Y-120739059D01*
X136460800Y-120916541D01*
X136426176Y-121090612D01*
X136358256Y-121254584D01*
X136259653Y-121402154D01*
X136134154Y-121527653D01*
X135986584Y-121626256D01*
X135822612Y-121694176D01*
X135673312Y-121723873D01*
X135648542Y-121728800D01*
X135471058Y-121728800D01*
X135446288Y-121723873D01*
X135296988Y-121694176D01*
X135133016Y-121626256D01*
X134985446Y-121527653D01*
X134859947Y-121402154D01*
X134761344Y-121254584D01*
X134693424Y-121090612D01*
X134658800Y-120916541D01*
X134658800Y-120739059D01*
X134660914Y-120728433D01*
X134675950Y-120652839D01*
X134693424Y-120564988D01*
X134761344Y-120401016D01*
X134859947Y-120253446D01*
X134985446Y-120127947D01*
X135133016Y-120029344D01*
X135296988Y-119961424D01*
X135446288Y-119931727D01*
X135471058Y-119926800D01*
X135648542Y-119926800D01*
X135673312Y-119931727D01*
G37*
G36*
X139686512Y-119906327D02*
G01*
X139835812Y-119936024D01*
X139999784Y-120003944D01*
X140147354Y-120102547D01*
X140272853Y-120228046D01*
X140371456Y-120375616D01*
X140439376Y-120539588D01*
X140474000Y-120713659D01*
X140474000Y-120891141D01*
X140439376Y-121065212D01*
X140371456Y-121229184D01*
X140272853Y-121376754D01*
X140147354Y-121502253D01*
X139999784Y-121600856D01*
X139835812Y-121668776D01*
X139686512Y-121698473D01*
X139661742Y-121703400D01*
X139484258Y-121703400D01*
X139459488Y-121698473D01*
X139310188Y-121668776D01*
X139146216Y-121600856D01*
X138998646Y-121502253D01*
X138873147Y-121376754D01*
X138774544Y-121229184D01*
X138706624Y-121065212D01*
X138672000Y-120891141D01*
X138672000Y-120713659D01*
X138706624Y-120539588D01*
X138774544Y-120375616D01*
X138873147Y-120228046D01*
X138998646Y-120102547D01*
X139146216Y-120003944D01*
X139310188Y-119936024D01*
X139459488Y-119906327D01*
X139484258Y-119901400D01*
X139661742Y-119901400D01*
X139686512Y-119906327D01*
G37*
G36*
X130927459Y-120080260D02*
G01*
X131042586Y-120127947D01*
X131064132Y-120136872D01*
X131187135Y-120219060D01*
X131291740Y-120323665D01*
X131373928Y-120446668D01*
X131373929Y-120446670D01*
X131430540Y-120583341D01*
X131459400Y-120728432D01*
X131459400Y-120876368D01*
X131456461Y-120891142D01*
X131430540Y-121021459D01*
X131373928Y-121158132D01*
X131291740Y-121281135D01*
X131187135Y-121385740D01*
X131064132Y-121467928D01*
X131064131Y-121467929D01*
X131064130Y-121467929D01*
X130927459Y-121524540D01*
X130782368Y-121553400D01*
X130634432Y-121553400D01*
X130489341Y-121524540D01*
X130352670Y-121467929D01*
X130352669Y-121467929D01*
X130352668Y-121467928D01*
X130229665Y-121385740D01*
X130125060Y-121281135D01*
X130042872Y-121158132D01*
X129986260Y-121021459D01*
X129960339Y-120891142D01*
X129957400Y-120876368D01*
X129957400Y-120728432D01*
X129986260Y-120583341D01*
X130042871Y-120446670D01*
X130042872Y-120446668D01*
X130125060Y-120323665D01*
X130229665Y-120219060D01*
X130352668Y-120136872D01*
X130374215Y-120127947D01*
X130489341Y-120080260D01*
X130634432Y-120051400D01*
X130782368Y-120051400D01*
X130927459Y-120080260D01*
G37*
G36*
X162238342Y-119766642D02*
G01*
X162386301Y-119827929D01*
X162519455Y-119916899D01*
X162632701Y-120030145D01*
X162721671Y-120163299D01*
X162782958Y-120311258D01*
X162814200Y-120468325D01*
X162814200Y-120628475D01*
X162782958Y-120785542D01*
X162721671Y-120933501D01*
X162632701Y-121066655D01*
X162519455Y-121179901D01*
X162386301Y-121268871D01*
X162238342Y-121330158D01*
X162081275Y-121361400D01*
X161921125Y-121361400D01*
X161764058Y-121330158D01*
X161616099Y-121268871D01*
X161482945Y-121179901D01*
X161369699Y-121066655D01*
X161280729Y-120933501D01*
X161219442Y-120785542D01*
X161188200Y-120628475D01*
X161188200Y-120468325D01*
X161219442Y-120311258D01*
X161280729Y-120163299D01*
X161369699Y-120030145D01*
X161482945Y-119916899D01*
X161616099Y-119827929D01*
X161764058Y-119766642D01*
X161921125Y-119735400D01*
X162081275Y-119735400D01*
X162238342Y-119766642D01*
G37*
G36*
X159698342Y-119766642D02*
G01*
X159846301Y-119827929D01*
X159979455Y-119916899D01*
X160092701Y-120030145D01*
X160181671Y-120163299D01*
X160242958Y-120311258D01*
X160274200Y-120468325D01*
X160274200Y-120628475D01*
X160242958Y-120785542D01*
X160181671Y-120933501D01*
X160092701Y-121066655D01*
X159979455Y-121179901D01*
X159846301Y-121268871D01*
X159698342Y-121330158D01*
X159541275Y-121361400D01*
X159381125Y-121361400D01*
X159224058Y-121330158D01*
X159076099Y-121268871D01*
X158942945Y-121179901D01*
X158829699Y-121066655D01*
X158740729Y-120933501D01*
X158679442Y-120785542D01*
X158648200Y-120628475D01*
X158648200Y-120468325D01*
X158679442Y-120311258D01*
X158740729Y-120163299D01*
X158829699Y-120030145D01*
X158942945Y-119916899D01*
X159076099Y-119827929D01*
X159224058Y-119766642D01*
X159381125Y-119735400D01*
X159541275Y-119735400D01*
X159698342Y-119766642D01*
G37*
G36*
X157158342Y-119766642D02*
G01*
X157306301Y-119827929D01*
X157439455Y-119916899D01*
X157552701Y-120030145D01*
X157641671Y-120163299D01*
X157702958Y-120311258D01*
X157734200Y-120468325D01*
X157734200Y-120628475D01*
X157702958Y-120785542D01*
X157641671Y-120933501D01*
X157552701Y-121066655D01*
X157439455Y-121179901D01*
X157306301Y-121268871D01*
X157158342Y-121330158D01*
X157001275Y-121361400D01*
X156841125Y-121361400D01*
X156684058Y-121330158D01*
X156536099Y-121268871D01*
X156402945Y-121179901D01*
X156289699Y-121066655D01*
X156200729Y-120933501D01*
X156139442Y-120785542D01*
X156108200Y-120628475D01*
X156108200Y-120468325D01*
X156139442Y-120311258D01*
X156200729Y-120163299D01*
X156289699Y-120030145D01*
X156402945Y-119916899D01*
X156536099Y-119827929D01*
X156684058Y-119766642D01*
X156841125Y-119735400D01*
X157001275Y-119735400D01*
X157158342Y-119766642D01*
G37*
G36*
X127066659Y-117540260D02*
G01*
X127203332Y-117596872D01*
X127326335Y-117679060D01*
X127430940Y-117783665D01*
X127513128Y-117906668D01*
X127569740Y-118043341D01*
X127598600Y-118188433D01*
X127598600Y-118336367D01*
X127569740Y-118481459D01*
X127513128Y-118618132D01*
X127430940Y-118741135D01*
X127326335Y-118845740D01*
X127203332Y-118927928D01*
X127203331Y-118927929D01*
X127203330Y-118927929D01*
X127066659Y-118984540D01*
X126921568Y-119013400D01*
X126773632Y-119013400D01*
X126628541Y-118984540D01*
X126491870Y-118927929D01*
X126491869Y-118927929D01*
X126491868Y-118927928D01*
X126368865Y-118845740D01*
X126264260Y-118741135D01*
X126182072Y-118618132D01*
X126125460Y-118481459D01*
X126096600Y-118336367D01*
X126096600Y-118188433D01*
X126125460Y-118043341D01*
X126182072Y-117906668D01*
X126264260Y-117783665D01*
X126368865Y-117679060D01*
X126491868Y-117596872D01*
X126628541Y-117540260D01*
X126773632Y-117511400D01*
X126921568Y-117511400D01*
X127066659Y-117540260D01*
G37*
G36*
X157230299Y-115764183D02*
G01*
X157299059Y-115777860D01*
X157435732Y-115834472D01*
X157558735Y-115916660D01*
X157663340Y-116021265D01*
X157745528Y-116144268D01*
X157802140Y-116280941D01*
X157831000Y-116426033D01*
X157831000Y-116573967D01*
X157802140Y-116719059D01*
X157745528Y-116855732D01*
X157663340Y-116978735D01*
X157558735Y-117083340D01*
X157435732Y-117165528D01*
X157435731Y-117165529D01*
X157435730Y-117165529D01*
X157299059Y-117222140D01*
X157153968Y-117251000D01*
X157006032Y-117251000D01*
X156860941Y-117222140D01*
X156724270Y-117165529D01*
X156724269Y-117165529D01*
X156724268Y-117165528D01*
X156601265Y-117083340D01*
X156496660Y-116978735D01*
X156414472Y-116855732D01*
X156357860Y-116719059D01*
X156329000Y-116573967D01*
X156329000Y-116426033D01*
X156357860Y-116280941D01*
X156414472Y-116144268D01*
X156496660Y-116021265D01*
X156601265Y-115916660D01*
X156724268Y-115834472D01*
X156860941Y-115777860D01*
X156929701Y-115764183D01*
X157006032Y-115749000D01*
X157153968Y-115749000D01*
X157230299Y-115764183D01*
G37*
G36*
X159650299Y-115764183D02*
G01*
X159719059Y-115777860D01*
X159855732Y-115834472D01*
X159978735Y-115916660D01*
X160083340Y-116021265D01*
X160165528Y-116144268D01*
X160222140Y-116280941D01*
X160251000Y-116426033D01*
X160251000Y-116573967D01*
X160222140Y-116719059D01*
X160165528Y-116855732D01*
X160083340Y-116978735D01*
X159978735Y-117083340D01*
X159855732Y-117165528D01*
X159855731Y-117165529D01*
X159855730Y-117165529D01*
X159719059Y-117222140D01*
X159573968Y-117251000D01*
X159426032Y-117251000D01*
X159280941Y-117222140D01*
X159144270Y-117165529D01*
X159144269Y-117165529D01*
X159144268Y-117165528D01*
X159021265Y-117083340D01*
X158916660Y-116978735D01*
X158834472Y-116855732D01*
X158777860Y-116719059D01*
X158749000Y-116573967D01*
X158749000Y-116426033D01*
X158777860Y-116280941D01*
X158834472Y-116144268D01*
X158916660Y-116021265D01*
X159021265Y-115916660D01*
X159144268Y-115834472D01*
X159280941Y-115777860D01*
X159349701Y-115764183D01*
X159426032Y-115749000D01*
X159573968Y-115749000D01*
X159650299Y-115764183D01*
G37*
G36*
X164730299Y-115764183D02*
G01*
X164799059Y-115777860D01*
X164935732Y-115834472D01*
X165058735Y-115916660D01*
X165163340Y-116021265D01*
X165245528Y-116144268D01*
X165302140Y-116280941D01*
X165331000Y-116426033D01*
X165331000Y-116573967D01*
X165302140Y-116719059D01*
X165245528Y-116855732D01*
X165163340Y-116978735D01*
X165058735Y-117083340D01*
X164935732Y-117165528D01*
X164935731Y-117165529D01*
X164935730Y-117165529D01*
X164799059Y-117222140D01*
X164653968Y-117251000D01*
X164506032Y-117251000D01*
X164360941Y-117222140D01*
X164224270Y-117165529D01*
X164224269Y-117165529D01*
X164224268Y-117165528D01*
X164101265Y-117083340D01*
X163996660Y-116978735D01*
X163914472Y-116855732D01*
X163857860Y-116719059D01*
X163829000Y-116573967D01*
X163829000Y-116426033D01*
X163857860Y-116280941D01*
X163914472Y-116144268D01*
X163996660Y-116021265D01*
X164101265Y-115916660D01*
X164224268Y-115834472D01*
X164360941Y-115777860D01*
X164429701Y-115764183D01*
X164506032Y-115749000D01*
X164653968Y-115749000D01*
X164730299Y-115764183D01*
G37*
G36*
X152150299Y-115764183D02*
G01*
X152219059Y-115777860D01*
X152355732Y-115834472D01*
X152478735Y-115916660D01*
X152583340Y-116021265D01*
X152665528Y-116144268D01*
X152722140Y-116280941D01*
X152751000Y-116426033D01*
X152751000Y-116573967D01*
X152722140Y-116719059D01*
X152665528Y-116855732D01*
X152583340Y-116978735D01*
X152478735Y-117083340D01*
X152355732Y-117165528D01*
X152355731Y-117165529D01*
X152355730Y-117165529D01*
X152219059Y-117222140D01*
X152073968Y-117251000D01*
X151926032Y-117251000D01*
X151780941Y-117222140D01*
X151644270Y-117165529D01*
X151644269Y-117165529D01*
X151644268Y-117165528D01*
X151521265Y-117083340D01*
X151416660Y-116978735D01*
X151334472Y-116855732D01*
X151277860Y-116719059D01*
X151249000Y-116573967D01*
X151249000Y-116426033D01*
X151277860Y-116280941D01*
X151334472Y-116144268D01*
X151416660Y-116021265D01*
X151521265Y-115916660D01*
X151644268Y-115834472D01*
X151780941Y-115777860D01*
X151849701Y-115764183D01*
X151926032Y-115749000D01*
X152073968Y-115749000D01*
X152150299Y-115764183D01*
G37*
G36*
X134213800Y-116647201D02*
G01*
X132816400Y-116647201D01*
X132816400Y-115986401D01*
X134213800Y-115986401D01*
X134213800Y-116647201D01*
G37*
G36*
X130927459Y-115000260D02*
G01*
X131014709Y-115036400D01*
X131064132Y-115056872D01*
X131187135Y-115139060D01*
X131291740Y-115243665D01*
X131291741Y-115243667D01*
X131373929Y-115366670D01*
X131430540Y-115503341D01*
X131458492Y-115643865D01*
X131459400Y-115648433D01*
X131459400Y-115796367D01*
X131430540Y-115941459D01*
X131373928Y-116078132D01*
X131291740Y-116201135D01*
X131187135Y-116305740D01*
X131064132Y-116387928D01*
X131064131Y-116387929D01*
X131064130Y-116387929D01*
X130927459Y-116444540D01*
X130782368Y-116473400D01*
X130634432Y-116473400D01*
X130489341Y-116444540D01*
X130352670Y-116387929D01*
X130352669Y-116387929D01*
X130352668Y-116387928D01*
X130229665Y-116305740D01*
X130125060Y-116201135D01*
X130042872Y-116078132D01*
X129986260Y-115941459D01*
X129957400Y-115796367D01*
X129957400Y-115648433D01*
X129958309Y-115643865D01*
X129986260Y-115503341D01*
X130042871Y-115366670D01*
X130125059Y-115243667D01*
X130125060Y-115243665D01*
X130229665Y-115139060D01*
X130352668Y-115056872D01*
X130402092Y-115036400D01*
X130489341Y-115000260D01*
X130634432Y-114971400D01*
X130782368Y-114971400D01*
X130927459Y-115000260D01*
G37*
G36*
X138079200Y-115843997D02*
G01*
X137409200Y-115843997D01*
X137409200Y-114287099D01*
X138079200Y-114287099D01*
X138079200Y-115843997D01*
G37*
G36*
X141889200Y-115843997D02*
G01*
X141219200Y-115843997D01*
X141219200Y-114287099D01*
X141889200Y-114287099D01*
X141889200Y-115843997D01*
G37*
G36*
X140619200Y-115843997D02*
G01*
X139949200Y-115843997D01*
X139949200Y-114287099D01*
X140619200Y-114287099D01*
X140619200Y-115843997D01*
G37*
G36*
X139349200Y-115843997D02*
G01*
X138679200Y-115843997D01*
X138679200Y-114287099D01*
X139349200Y-114287099D01*
X139349200Y-115843997D01*
G37*
G36*
X147158200Y-115789200D02*
G01*
X145856200Y-115789200D01*
X145856200Y-114487200D01*
X147158200Y-114487200D01*
X147158200Y-115789200D01*
G37*
G36*
X144697090Y-114512217D02*
G01*
X144815564Y-114561291D01*
X144922188Y-114632535D01*
X145012865Y-114723212D01*
X145084110Y-114829838D01*
X145133183Y-114948310D01*
X145158200Y-115074081D01*
X145158200Y-115202319D01*
X145133183Y-115328090D01*
X145117203Y-115366670D01*
X145084109Y-115446564D01*
X145012865Y-115553188D01*
X144922188Y-115643865D01*
X144815564Y-115715109D01*
X144815563Y-115715110D01*
X144815562Y-115715110D01*
X144697090Y-115764183D01*
X144571319Y-115789200D01*
X144443081Y-115789200D01*
X144317310Y-115764183D01*
X144198838Y-115715110D01*
X144198837Y-115715110D01*
X144198836Y-115715109D01*
X144092212Y-115643865D01*
X144001535Y-115553188D01*
X143930291Y-115446564D01*
X143897198Y-115366670D01*
X143881217Y-115328090D01*
X143856200Y-115202319D01*
X143856200Y-115074081D01*
X143881217Y-114948310D01*
X143930290Y-114829838D01*
X144001535Y-114723212D01*
X144092212Y-114632535D01*
X144198836Y-114561291D01*
X144317310Y-114512217D01*
X144443081Y-114487200D01*
X144571319Y-114487200D01*
X144697090Y-114512217D01*
G37*
G36*
X136118800Y-115697200D02*
G01*
X134721400Y-115697200D01*
X134721400Y-115036400D01*
X136118800Y-115036400D01*
X136118800Y-115697200D01*
G37*
G36*
X134213800Y-114747199D02*
G01*
X132816400Y-114747199D01*
X132816400Y-114086399D01*
X134213800Y-114086399D01*
X134213800Y-114747199D01*
G37*
G36*
X162441542Y-112146642D02*
G01*
X162589501Y-112207929D01*
X162722655Y-112296899D01*
X162835901Y-112410145D01*
X162924871Y-112543299D01*
X162986158Y-112691258D01*
X163017400Y-112848325D01*
X163017400Y-113008475D01*
X162986158Y-113165542D01*
X162924871Y-113313501D01*
X162835901Y-113446655D01*
X162722655Y-113559901D01*
X162589501Y-113648871D01*
X162441542Y-113710158D01*
X162284475Y-113741400D01*
X162124325Y-113741400D01*
X161967258Y-113710158D01*
X161819299Y-113648871D01*
X161686145Y-113559901D01*
X161572899Y-113446655D01*
X161483929Y-113313501D01*
X161422642Y-113165542D01*
X161391400Y-113008475D01*
X161391400Y-112848325D01*
X161422642Y-112691258D01*
X161483929Y-112543299D01*
X161572899Y-112410145D01*
X161686145Y-112296899D01*
X161819299Y-112207929D01*
X161967258Y-112146642D01*
X162124325Y-112115400D01*
X162284475Y-112115400D01*
X162441542Y-112146642D01*
G37*
G36*
X159901542Y-112146642D02*
G01*
X160049501Y-112207929D01*
X160182655Y-112296899D01*
X160295901Y-112410145D01*
X160384871Y-112543299D01*
X160446158Y-112691258D01*
X160477400Y-112848325D01*
X160477400Y-113008475D01*
X160446158Y-113165542D01*
X160384871Y-113313501D01*
X160295901Y-113446655D01*
X160182655Y-113559901D01*
X160049501Y-113648871D01*
X159901542Y-113710158D01*
X159744475Y-113741400D01*
X159584325Y-113741400D01*
X159427258Y-113710158D01*
X159279299Y-113648871D01*
X159146145Y-113559901D01*
X159032899Y-113446655D01*
X158943929Y-113313501D01*
X158882642Y-113165542D01*
X158851400Y-113008475D01*
X158851400Y-112848325D01*
X158882642Y-112691258D01*
X158943929Y-112543299D01*
X159032899Y-112410145D01*
X159146145Y-112296899D01*
X159279299Y-112207929D01*
X159427258Y-112146642D01*
X159584325Y-112115400D01*
X159744475Y-112115400D01*
X159901542Y-112146642D01*
G37*
G36*
X157361542Y-112146642D02*
G01*
X157509501Y-112207929D01*
X157642655Y-112296899D01*
X157755901Y-112410145D01*
X157844871Y-112543299D01*
X157906158Y-112691258D01*
X157937400Y-112848325D01*
X157937400Y-113008475D01*
X157906158Y-113165542D01*
X157844871Y-113313501D01*
X157755901Y-113446655D01*
X157642655Y-113559901D01*
X157509501Y-113648871D01*
X157361542Y-113710158D01*
X157204475Y-113741400D01*
X157044325Y-113741400D01*
X156887258Y-113710158D01*
X156739299Y-113648871D01*
X156606145Y-113559901D01*
X156492899Y-113446655D01*
X156403929Y-113313501D01*
X156342642Y-113165542D01*
X156311400Y-113008475D01*
X156311400Y-112848325D01*
X156342642Y-112691258D01*
X156403929Y-112543299D01*
X156492899Y-112410145D01*
X156606145Y-112296899D01*
X156739299Y-112207929D01*
X156887258Y-112146642D01*
X157044325Y-112115400D01*
X157204475Y-112115400D01*
X157361542Y-112146642D01*
G37*
G36*
X113223800Y-111369600D02*
G01*
X111921800Y-111369600D01*
X111921800Y-110067600D01*
X113223800Y-110067600D01*
X113223800Y-111369600D01*
G37*
G36*
X139349200Y-110401301D02*
G01*
X138679200Y-110401301D01*
X138679200Y-108844403D01*
X139349200Y-108844403D01*
X139349200Y-110401301D01*
G37*
G36*
X141889200Y-110401301D02*
G01*
X141219200Y-110401301D01*
X141219200Y-108844403D01*
X141889200Y-108844403D01*
X141889200Y-110401301D01*
G37*
G36*
X140619200Y-110401301D02*
G01*
X139949200Y-110401301D01*
X139949200Y-108844403D01*
X140619200Y-108844403D01*
X140619200Y-110401301D01*
G37*
G36*
X138079200Y-110401301D02*
G01*
X137409200Y-110401301D01*
X137409200Y-108844403D01*
X138079200Y-108844403D01*
X138079200Y-110401301D01*
G37*
G36*
X145833312Y-108577927D02*
G01*
X145982612Y-108607624D01*
X146146584Y-108675544D01*
X146294154Y-108774147D01*
X146419653Y-108899646D01*
X146518256Y-109047216D01*
X146586176Y-109211188D01*
X146620800Y-109385259D01*
X146620800Y-109562741D01*
X146586176Y-109736812D01*
X146518256Y-109900784D01*
X146419653Y-110048354D01*
X146294154Y-110173853D01*
X146146584Y-110272456D01*
X145982612Y-110340376D01*
X145833312Y-110370073D01*
X145808542Y-110375000D01*
X145631058Y-110375000D01*
X145606288Y-110370073D01*
X145456988Y-110340376D01*
X145293016Y-110272456D01*
X145145446Y-110173853D01*
X145019947Y-110048354D01*
X144921344Y-109900784D01*
X144853424Y-109736812D01*
X144818800Y-109562741D01*
X144818800Y-109385259D01*
X144853424Y-109211188D01*
X144921344Y-109047216D01*
X145019947Y-108899646D01*
X145145446Y-108774147D01*
X145293016Y-108675544D01*
X145456988Y-108607624D01*
X145606288Y-108577927D01*
X145631058Y-108573000D01*
X145808542Y-108573000D01*
X145833312Y-108577927D01*
G37*
G36*
X125513312Y-108577927D02*
G01*
X125662612Y-108607624D01*
X125826584Y-108675544D01*
X125974154Y-108774147D01*
X126099653Y-108899646D01*
X126198256Y-109047216D01*
X126266176Y-109211188D01*
X126300800Y-109385259D01*
X126300800Y-109562741D01*
X126266176Y-109736812D01*
X126198256Y-109900784D01*
X126099653Y-110048354D01*
X125974154Y-110173853D01*
X125826584Y-110272456D01*
X125662612Y-110340376D01*
X125513312Y-110370073D01*
X125488542Y-110375000D01*
X125311058Y-110375000D01*
X125286288Y-110370073D01*
X125136988Y-110340376D01*
X124973016Y-110272456D01*
X124825446Y-110173853D01*
X124699947Y-110048354D01*
X124601344Y-109900784D01*
X124533424Y-109736812D01*
X124498800Y-109562741D01*
X124498800Y-109385259D01*
X124533424Y-109211188D01*
X124601344Y-109047216D01*
X124699947Y-108899646D01*
X124825446Y-108774147D01*
X124973016Y-108675544D01*
X125136988Y-108607624D01*
X125286288Y-108577927D01*
X125311058Y-108573000D01*
X125488542Y-108573000D01*
X125513312Y-108577927D01*
G37*
G36*
X159719059Y-108277860D02*
G01*
X159855732Y-108334472D01*
X159978735Y-108416660D01*
X160083340Y-108521265D01*
X160117908Y-108573000D01*
X160165529Y-108644270D01*
X160222140Y-108780941D01*
X160245752Y-108899646D01*
X160251000Y-108926033D01*
X160251000Y-109073967D01*
X160222140Y-109219059D01*
X160165528Y-109355732D01*
X160083340Y-109478735D01*
X159978735Y-109583340D01*
X159855732Y-109665528D01*
X159855731Y-109665529D01*
X159855730Y-109665529D01*
X159719059Y-109722140D01*
X159573968Y-109751000D01*
X159426032Y-109751000D01*
X159280941Y-109722140D01*
X159144270Y-109665529D01*
X159144269Y-109665529D01*
X159144268Y-109665528D01*
X159021265Y-109583340D01*
X158916660Y-109478735D01*
X158834472Y-109355732D01*
X158777860Y-109219059D01*
X158749000Y-109073967D01*
X158749000Y-108926033D01*
X158754249Y-108899646D01*
X158777860Y-108780941D01*
X158834471Y-108644270D01*
X158882092Y-108573000D01*
X158916660Y-108521265D01*
X159021265Y-108416660D01*
X159144268Y-108334472D01*
X159280941Y-108277860D01*
X159426032Y-108249000D01*
X159573968Y-108249000D01*
X159719059Y-108277860D01*
G37*
G36*
X164799059Y-108277860D02*
G01*
X164935732Y-108334472D01*
X165058735Y-108416660D01*
X165163340Y-108521265D01*
X165197908Y-108573000D01*
X165245529Y-108644270D01*
X165302140Y-108780941D01*
X165325752Y-108899646D01*
X165331000Y-108926033D01*
X165331000Y-109073967D01*
X165302140Y-109219059D01*
X165245528Y-109355732D01*
X165163340Y-109478735D01*
X165058735Y-109583340D01*
X164935732Y-109665528D01*
X164935731Y-109665529D01*
X164935730Y-109665529D01*
X164799059Y-109722140D01*
X164653968Y-109751000D01*
X164506032Y-109751000D01*
X164360941Y-109722140D01*
X164224270Y-109665529D01*
X164224269Y-109665529D01*
X164224268Y-109665528D01*
X164101265Y-109583340D01*
X163996660Y-109478735D01*
X163914472Y-109355732D01*
X163857860Y-109219059D01*
X163829000Y-109073967D01*
X163829000Y-108926033D01*
X163834249Y-108899646D01*
X163857860Y-108780941D01*
X163914471Y-108644270D01*
X163962092Y-108573000D01*
X163996660Y-108521265D01*
X164101265Y-108416660D01*
X164224268Y-108334472D01*
X164360941Y-108277860D01*
X164506032Y-108249000D01*
X164653968Y-108249000D01*
X164799059Y-108277860D01*
G37*
G36*
X157299059Y-108277860D02*
G01*
X157435732Y-108334472D01*
X157558735Y-108416660D01*
X157663340Y-108521265D01*
X157697908Y-108573000D01*
X157745529Y-108644270D01*
X157802140Y-108780941D01*
X157825752Y-108899646D01*
X157831000Y-108926033D01*
X157831000Y-109073967D01*
X157802140Y-109219059D01*
X157745528Y-109355732D01*
X157663340Y-109478735D01*
X157558735Y-109583340D01*
X157435732Y-109665528D01*
X157435731Y-109665529D01*
X157435730Y-109665529D01*
X157299059Y-109722140D01*
X157153968Y-109751000D01*
X157006032Y-109751000D01*
X156860941Y-109722140D01*
X156724270Y-109665529D01*
X156724269Y-109665529D01*
X156724268Y-109665528D01*
X156601265Y-109583340D01*
X156496660Y-109478735D01*
X156414472Y-109355732D01*
X156357860Y-109219059D01*
X156329000Y-109073967D01*
X156329000Y-108926033D01*
X156334249Y-108899646D01*
X156357860Y-108780941D01*
X156414471Y-108644270D01*
X156462092Y-108573000D01*
X156496660Y-108521265D01*
X156601265Y-108416660D01*
X156724268Y-108334472D01*
X156860941Y-108277860D01*
X157006032Y-108249000D01*
X157153968Y-108249000D01*
X157299059Y-108277860D01*
G37*
G36*
X152219059Y-108277860D02*
G01*
X152355732Y-108334472D01*
X152478735Y-108416660D01*
X152583340Y-108521265D01*
X152617908Y-108573000D01*
X152665529Y-108644270D01*
X152722140Y-108780941D01*
X152745752Y-108899646D01*
X152751000Y-108926033D01*
X152751000Y-109073967D01*
X152722140Y-109219059D01*
X152665528Y-109355732D01*
X152583340Y-109478735D01*
X152478735Y-109583340D01*
X152355732Y-109665528D01*
X152355731Y-109665529D01*
X152355730Y-109665529D01*
X152219059Y-109722140D01*
X152073968Y-109751000D01*
X151926032Y-109751000D01*
X151780941Y-109722140D01*
X151644270Y-109665529D01*
X151644269Y-109665529D01*
X151644268Y-109665528D01*
X151521265Y-109583340D01*
X151416660Y-109478735D01*
X151334472Y-109355732D01*
X151277860Y-109219059D01*
X151249000Y-109073967D01*
X151249000Y-108926033D01*
X151254249Y-108899646D01*
X151277860Y-108780941D01*
X151334471Y-108644270D01*
X151382092Y-108573000D01*
X151416660Y-108521265D01*
X151521265Y-108416660D01*
X151644268Y-108334472D01*
X151780941Y-108277860D01*
X151926032Y-108249000D01*
X152073968Y-108249000D01*
X152219059Y-108277860D01*
G37*
G36*
X112762690Y-108092617D02*
G01*
X112881164Y-108141691D01*
X112987788Y-108212935D01*
X113078465Y-108303612D01*
X113149710Y-108410238D01*
X113198783Y-108528710D01*
X113221769Y-108644268D01*
X113223800Y-108654482D01*
X113223800Y-108782718D01*
X113198783Y-108908490D01*
X113149709Y-109026964D01*
X113078465Y-109133588D01*
X112987788Y-109224265D01*
X112881164Y-109295509D01*
X112881163Y-109295510D01*
X112881162Y-109295510D01*
X112762690Y-109344583D01*
X112636919Y-109369600D01*
X112508681Y-109369600D01*
X112382910Y-109344583D01*
X112264438Y-109295510D01*
X112264437Y-109295510D01*
X112264436Y-109295509D01*
X112157812Y-109224265D01*
X112067135Y-109133588D01*
X111995891Y-109026964D01*
X111946817Y-108908490D01*
X111921800Y-108782718D01*
X111921800Y-108654482D01*
X111923832Y-108644268D01*
X111946817Y-108528710D01*
X111995890Y-108410238D01*
X112067135Y-108303612D01*
X112157812Y-108212935D01*
X112264436Y-108141691D01*
X112382910Y-108092617D01*
X112508681Y-108067600D01*
X112636919Y-108067600D01*
X112762690Y-108092617D01*
G37*
G36*
X145833312Y-106037927D02*
G01*
X145982612Y-106067624D01*
X146146584Y-106135544D01*
X146294154Y-106234147D01*
X146419653Y-106359646D01*
X146518256Y-106507216D01*
X146586176Y-106671188D01*
X146620800Y-106845259D01*
X146620800Y-107022741D01*
X146586176Y-107196812D01*
X146518256Y-107360784D01*
X146419653Y-107508354D01*
X146294154Y-107633853D01*
X146146584Y-107732456D01*
X145982612Y-107800376D01*
X145833312Y-107830073D01*
X145808542Y-107835000D01*
X145631058Y-107835000D01*
X145606288Y-107830073D01*
X145456988Y-107800376D01*
X145293016Y-107732456D01*
X145145446Y-107633853D01*
X145019947Y-107508354D01*
X144921344Y-107360784D01*
X144853424Y-107196812D01*
X144818800Y-107022741D01*
X144818800Y-106845259D01*
X144853424Y-106671188D01*
X144921344Y-106507216D01*
X145019947Y-106359646D01*
X145145446Y-106234147D01*
X145293016Y-106135544D01*
X145456988Y-106067624D01*
X145606288Y-106037927D01*
X145631058Y-106033000D01*
X145808542Y-106033000D01*
X145833312Y-106037927D01*
G37*
G36*
X125513312Y-106037927D02*
G01*
X125662612Y-106067624D01*
X125826584Y-106135544D01*
X125974154Y-106234147D01*
X126099653Y-106359646D01*
X126198256Y-106507216D01*
X126266176Y-106671188D01*
X126300800Y-106845259D01*
X126300800Y-107022741D01*
X126266176Y-107196812D01*
X126198256Y-107360784D01*
X126099653Y-107508354D01*
X125974154Y-107633853D01*
X125826584Y-107732456D01*
X125662612Y-107800376D01*
X125513312Y-107830073D01*
X125488542Y-107835000D01*
X125311058Y-107835000D01*
X125286288Y-107830073D01*
X125136988Y-107800376D01*
X124973016Y-107732456D01*
X124825446Y-107633853D01*
X124699947Y-107508354D01*
X124601344Y-107360784D01*
X124533424Y-107196812D01*
X124498800Y-107022741D01*
X124498800Y-106845259D01*
X124533424Y-106671188D01*
X124601344Y-106507216D01*
X124699947Y-106359646D01*
X124825446Y-106234147D01*
X124973016Y-106135544D01*
X125136988Y-106067624D01*
X125286288Y-106037927D01*
X125311058Y-106033000D01*
X125488542Y-106033000D01*
X125513312Y-106037927D01*
G37*
G36*
X105320400Y-106768200D02*
G01*
X103518400Y-106768200D01*
X103518400Y-104966200D01*
X105320400Y-104966200D01*
X105320400Y-106768200D01*
G37*
G36*
X171055512Y-104463127D02*
G01*
X171204812Y-104492824D01*
X171368784Y-104560744D01*
X171516354Y-104659347D01*
X171641853Y-104784846D01*
X171740456Y-104932416D01*
X171808376Y-105096388D01*
X171838073Y-105245688D01*
X171840995Y-105260376D01*
X171843000Y-105270459D01*
X171843000Y-105447941D01*
X171808376Y-105622012D01*
X171740456Y-105785984D01*
X171641853Y-105933554D01*
X171516354Y-106059053D01*
X171368784Y-106157656D01*
X171204812Y-106225576D01*
X171055512Y-106255273D01*
X171030742Y-106260200D01*
X170853258Y-106260200D01*
X170828488Y-106255273D01*
X170679188Y-106225576D01*
X170515216Y-106157656D01*
X170367646Y-106059053D01*
X170242147Y-105933554D01*
X170143544Y-105785984D01*
X170075624Y-105622012D01*
X170041000Y-105447941D01*
X170041000Y-105270459D01*
X170043006Y-105260376D01*
X170045927Y-105245688D01*
X170075624Y-105096388D01*
X170143544Y-104932416D01*
X170242147Y-104784846D01*
X170367646Y-104659347D01*
X170515216Y-104560744D01*
X170679188Y-104492824D01*
X170828488Y-104463127D01*
X170853258Y-104458200D01*
X171030742Y-104458200D01*
X171055512Y-104463127D01*
G37*
G36*
X113761199Y-106227600D02*
G01*
X111486001Y-106227600D01*
X111486001Y-105557600D01*
X113761199Y-105557600D01*
X113761199Y-106227600D01*
G37*
G36*
X118485599Y-106227600D02*
G01*
X116210401Y-106227600D01*
X116210401Y-105557600D01*
X118485599Y-105557600D01*
X118485599Y-106227600D01*
G37*
G36*
X162365342Y-104475842D02*
G01*
X162513301Y-104537129D01*
X162646455Y-104626099D01*
X162759701Y-104739345D01*
X162848671Y-104872499D01*
X162909958Y-105020458D01*
X162941200Y-105177525D01*
X162941200Y-105337675D01*
X162909958Y-105494742D01*
X162848671Y-105642701D01*
X162759701Y-105775855D01*
X162646455Y-105889101D01*
X162513301Y-105978071D01*
X162365342Y-106039358D01*
X162208275Y-106070600D01*
X162048125Y-106070600D01*
X161891058Y-106039358D01*
X161743099Y-105978071D01*
X161609945Y-105889101D01*
X161496699Y-105775855D01*
X161407729Y-105642701D01*
X161346442Y-105494742D01*
X161315200Y-105337675D01*
X161315200Y-105177525D01*
X161346442Y-105020458D01*
X161407729Y-104872499D01*
X161496699Y-104739345D01*
X161609945Y-104626099D01*
X161743099Y-104537129D01*
X161891058Y-104475842D01*
X162048125Y-104444600D01*
X162208275Y-104444600D01*
X162365342Y-104475842D01*
G37*
G36*
X159825342Y-104475842D02*
G01*
X159973301Y-104537129D01*
X160106455Y-104626099D01*
X160219701Y-104739345D01*
X160308671Y-104872499D01*
X160369958Y-105020458D01*
X160401200Y-105177525D01*
X160401200Y-105337675D01*
X160369958Y-105494742D01*
X160308671Y-105642701D01*
X160219701Y-105775855D01*
X160106455Y-105889101D01*
X159973301Y-105978071D01*
X159825342Y-106039358D01*
X159668275Y-106070600D01*
X159508125Y-106070600D01*
X159351058Y-106039358D01*
X159203099Y-105978071D01*
X159069945Y-105889101D01*
X158956699Y-105775855D01*
X158867729Y-105642701D01*
X158806442Y-105494742D01*
X158775200Y-105337675D01*
X158775200Y-105177525D01*
X158806442Y-105020458D01*
X158867729Y-104872499D01*
X158956699Y-104739345D01*
X159069945Y-104626099D01*
X159203099Y-104537129D01*
X159351058Y-104475842D01*
X159508125Y-104444600D01*
X159668275Y-104444600D01*
X159825342Y-104475842D01*
G37*
G36*
X157285342Y-104475842D02*
G01*
X157433301Y-104537129D01*
X157566455Y-104626099D01*
X157679701Y-104739345D01*
X157768671Y-104872499D01*
X157829958Y-105020458D01*
X157861200Y-105177525D01*
X157861200Y-105337675D01*
X157829958Y-105494742D01*
X157768671Y-105642701D01*
X157679701Y-105775855D01*
X157566455Y-105889101D01*
X157433301Y-105978071D01*
X157285342Y-106039358D01*
X157128275Y-106070600D01*
X156968125Y-106070600D01*
X156811058Y-106039358D01*
X156663099Y-105978071D01*
X156529945Y-105889101D01*
X156416699Y-105775855D01*
X156327729Y-105642701D01*
X156266442Y-105494742D01*
X156235200Y-105337675D01*
X156235200Y-105177525D01*
X156266442Y-105020458D01*
X156327729Y-104872499D01*
X156416699Y-104739345D01*
X156529945Y-104626099D01*
X156663099Y-104537129D01*
X156811058Y-104475842D01*
X156968125Y-104444600D01*
X157128275Y-104444600D01*
X157285342Y-104475842D01*
G37*
G36*
X125513312Y-103497927D02*
G01*
X125662612Y-103527624D01*
X125826584Y-103595544D01*
X125974154Y-103694147D01*
X126099653Y-103819646D01*
X126198256Y-103967216D01*
X126266176Y-104131188D01*
X126278585Y-104193575D01*
X126300800Y-104305258D01*
X126300800Y-104482742D01*
X126298794Y-104492825D01*
X126266176Y-104656812D01*
X126198256Y-104820784D01*
X126099653Y-104968354D01*
X125974154Y-105093853D01*
X125826584Y-105192456D01*
X125662612Y-105260376D01*
X125513312Y-105290073D01*
X125488542Y-105295000D01*
X125311058Y-105295000D01*
X125286288Y-105290073D01*
X125136988Y-105260376D01*
X124973016Y-105192456D01*
X124825446Y-105093853D01*
X124699947Y-104968354D01*
X124601344Y-104820784D01*
X124533424Y-104656812D01*
X124500806Y-104492825D01*
X124498800Y-104482742D01*
X124498800Y-104305258D01*
X124521015Y-104193575D01*
X124533424Y-104131188D01*
X124601344Y-103967216D01*
X124699947Y-103819646D01*
X124825446Y-103694147D01*
X124973016Y-103595544D01*
X125136988Y-103527624D01*
X125286288Y-103497927D01*
X125311058Y-103493000D01*
X125488542Y-103493000D01*
X125513312Y-103497927D01*
G37*
G36*
X145833312Y-103497927D02*
G01*
X145982612Y-103527624D01*
X146146584Y-103595544D01*
X146294154Y-103694147D01*
X146419653Y-103819646D01*
X146518256Y-103967216D01*
X146586176Y-104131188D01*
X146598585Y-104193575D01*
X146620800Y-104305258D01*
X146620800Y-104482742D01*
X146618794Y-104492825D01*
X146586176Y-104656812D01*
X146518256Y-104820784D01*
X146419653Y-104968354D01*
X146294154Y-105093853D01*
X146146584Y-105192456D01*
X145982612Y-105260376D01*
X145833312Y-105290073D01*
X145808542Y-105295000D01*
X145631058Y-105295000D01*
X145606288Y-105290073D01*
X145456988Y-105260376D01*
X145293016Y-105192456D01*
X145145446Y-105093853D01*
X145019947Y-104968354D01*
X144921344Y-104820784D01*
X144853424Y-104656812D01*
X144820806Y-104492825D01*
X144818800Y-104482742D01*
X144818800Y-104305258D01*
X144841015Y-104193575D01*
X144853424Y-104131188D01*
X144921344Y-103967216D01*
X145019947Y-103819646D01*
X145145446Y-103694147D01*
X145293016Y-103595544D01*
X145456988Y-103527624D01*
X145606288Y-103497927D01*
X145631058Y-103493000D01*
X145808542Y-103493000D01*
X145833312Y-103497927D01*
G37*
G36*
X113761199Y-104957600D02*
G01*
X111486001Y-104957600D01*
X111486001Y-104287600D01*
X113761199Y-104287600D01*
X113761199Y-104957600D01*
G37*
G36*
X118485599Y-104957600D02*
G01*
X116210401Y-104957600D01*
X116210401Y-104287600D01*
X118485599Y-104287600D01*
X118485599Y-104957600D01*
G37*
G36*
X104532912Y-102431127D02*
G01*
X104682212Y-102460824D01*
X104846184Y-102528744D01*
X104993754Y-102627347D01*
X105119253Y-102752846D01*
X105217856Y-102900416D01*
X105285776Y-103064388D01*
X105320400Y-103238459D01*
X105320400Y-103415941D01*
X105285776Y-103590012D01*
X105217856Y-103753984D01*
X105119253Y-103901554D01*
X104993754Y-104027053D01*
X104846184Y-104125656D01*
X104682212Y-104193576D01*
X104532912Y-104223273D01*
X104508142Y-104228200D01*
X104330658Y-104228200D01*
X104305888Y-104223273D01*
X104156588Y-104193576D01*
X103992616Y-104125656D01*
X103845046Y-104027053D01*
X103719547Y-103901554D01*
X103620944Y-103753984D01*
X103553024Y-103590012D01*
X103518400Y-103415941D01*
X103518400Y-103238459D01*
X103553024Y-103064388D01*
X103620944Y-102900416D01*
X103719547Y-102752846D01*
X103845046Y-102627347D01*
X103992616Y-102528744D01*
X104156588Y-102460824D01*
X104305888Y-102431127D01*
X104330658Y-102426200D01*
X104508142Y-102426200D01*
X104532912Y-102431127D01*
G37*
G36*
X171055512Y-101923127D02*
G01*
X171204812Y-101952824D01*
X171368784Y-102020744D01*
X171516354Y-102119347D01*
X171641853Y-102244846D01*
X171740456Y-102392416D01*
X171808376Y-102556388D01*
X171838073Y-102705688D01*
X171840995Y-102720376D01*
X171843000Y-102730459D01*
X171843000Y-102907941D01*
X171808376Y-103082012D01*
X171740456Y-103245984D01*
X171641853Y-103393554D01*
X171516354Y-103519053D01*
X171368784Y-103617656D01*
X171204812Y-103685576D01*
X171055512Y-103715273D01*
X171030742Y-103720200D01*
X170853258Y-103720200D01*
X170828488Y-103715273D01*
X170679188Y-103685576D01*
X170515216Y-103617656D01*
X170367646Y-103519053D01*
X170242147Y-103393554D01*
X170143544Y-103245984D01*
X170075624Y-103082012D01*
X170041000Y-102907941D01*
X170041000Y-102730459D01*
X170043006Y-102720376D01*
X170045927Y-102705688D01*
X170075624Y-102556388D01*
X170143544Y-102392416D01*
X170242147Y-102244846D01*
X170367646Y-102119347D01*
X170515216Y-102020744D01*
X170679188Y-101952824D01*
X170828488Y-101923127D01*
X170853258Y-101918200D01*
X171030742Y-101918200D01*
X171055512Y-101923127D01*
G37*
G36*
X113761199Y-103687600D02*
G01*
X111486001Y-103687600D01*
X111486001Y-103017600D01*
X113761199Y-103017600D01*
X113761199Y-103687600D01*
G37*
G36*
X118485599Y-103687600D02*
G01*
X116210401Y-103687600D01*
X116210401Y-103017600D01*
X118485599Y-103017600D01*
X118485599Y-103687600D01*
G37*
G36*
X125513312Y-100957927D02*
G01*
X125662612Y-100987624D01*
X125826584Y-101055544D01*
X125974154Y-101154147D01*
X126099653Y-101279646D01*
X126198256Y-101427216D01*
X126266176Y-101591188D01*
X126278585Y-101653575D01*
X126300800Y-101765258D01*
X126300800Y-101942742D01*
X126298794Y-101952825D01*
X126266176Y-102116812D01*
X126198256Y-102280784D01*
X126099653Y-102428354D01*
X125974154Y-102553853D01*
X125826584Y-102652456D01*
X125662612Y-102720376D01*
X125513312Y-102750073D01*
X125488542Y-102755000D01*
X125311058Y-102755000D01*
X125286288Y-102750073D01*
X125136988Y-102720376D01*
X124973016Y-102652456D01*
X124825446Y-102553853D01*
X124699947Y-102428354D01*
X124601344Y-102280784D01*
X124533424Y-102116812D01*
X124500806Y-101952825D01*
X124498800Y-101942742D01*
X124498800Y-101765258D01*
X124521015Y-101653575D01*
X124533424Y-101591188D01*
X124601344Y-101427216D01*
X124699947Y-101279646D01*
X124825446Y-101154147D01*
X124973016Y-101055544D01*
X125136988Y-100987624D01*
X125286288Y-100957927D01*
X125311058Y-100953000D01*
X125488542Y-100953000D01*
X125513312Y-100957927D01*
G37*
G36*
X145833312Y-100957927D02*
G01*
X145982612Y-100987624D01*
X146146584Y-101055544D01*
X146294154Y-101154147D01*
X146419653Y-101279646D01*
X146518256Y-101427216D01*
X146586176Y-101591188D01*
X146598585Y-101653575D01*
X146620800Y-101765258D01*
X146620800Y-101942742D01*
X146618794Y-101952825D01*
X146586176Y-102116812D01*
X146518256Y-102280784D01*
X146419653Y-102428354D01*
X146294154Y-102553853D01*
X146146584Y-102652456D01*
X145982612Y-102720376D01*
X145833312Y-102750073D01*
X145808542Y-102755000D01*
X145631058Y-102755000D01*
X145606288Y-102750073D01*
X145456988Y-102720376D01*
X145293016Y-102652456D01*
X145145446Y-102553853D01*
X145019947Y-102428354D01*
X144921344Y-102280784D01*
X144853424Y-102116812D01*
X144820806Y-101952825D01*
X144818800Y-101942742D01*
X144818800Y-101765258D01*
X144841015Y-101653575D01*
X144853424Y-101591188D01*
X144921344Y-101427216D01*
X145019947Y-101279646D01*
X145145446Y-101154147D01*
X145293016Y-101055544D01*
X145456988Y-100987624D01*
X145606288Y-100957927D01*
X145631058Y-100953000D01*
X145808542Y-100953000D01*
X145833312Y-100957927D01*
G37*
G36*
X113761199Y-102417600D02*
G01*
X111486001Y-102417600D01*
X111486001Y-101747600D01*
X113761199Y-101747600D01*
X113761199Y-102417600D01*
G37*
G36*
X118485599Y-102417600D02*
G01*
X116210401Y-102417600D01*
X116210401Y-101747600D01*
X118485599Y-101747600D01*
X118485599Y-102417600D01*
G37*
G36*
X157219059Y-100777860D02*
G01*
X157355732Y-100834472D01*
X157478735Y-100916660D01*
X157583340Y-101021265D01*
X157621019Y-101077656D01*
X157665529Y-101144270D01*
X157722140Y-101280941D01*
X157751000Y-101426032D01*
X157751000Y-101573968D01*
X157735165Y-101653575D01*
X157722140Y-101719059D01*
X157665528Y-101855732D01*
X157583340Y-101978735D01*
X157478735Y-102083340D01*
X157355732Y-102165528D01*
X157355731Y-102165529D01*
X157355730Y-102165529D01*
X157219059Y-102222140D01*
X157073968Y-102251000D01*
X156926032Y-102251000D01*
X156780941Y-102222140D01*
X156644270Y-102165529D01*
X156644269Y-102165529D01*
X156644268Y-102165528D01*
X156521265Y-102083340D01*
X156416660Y-101978735D01*
X156334472Y-101855732D01*
X156277860Y-101719059D01*
X156264835Y-101653575D01*
X156249000Y-101573968D01*
X156249000Y-101426032D01*
X156277860Y-101280941D01*
X156334471Y-101144270D01*
X156378981Y-101077656D01*
X156416660Y-101021265D01*
X156521265Y-100916660D01*
X156644268Y-100834472D01*
X156780941Y-100777860D01*
X156926032Y-100749000D01*
X157073968Y-100749000D01*
X157219059Y-100777860D01*
G37*
G36*
X152139059Y-100777860D02*
G01*
X152275732Y-100834472D01*
X152398735Y-100916660D01*
X152503340Y-101021265D01*
X152541019Y-101077656D01*
X152585529Y-101144270D01*
X152642140Y-101280941D01*
X152671000Y-101426032D01*
X152671000Y-101573968D01*
X152655165Y-101653575D01*
X152642140Y-101719059D01*
X152585528Y-101855732D01*
X152503340Y-101978735D01*
X152398735Y-102083340D01*
X152275732Y-102165528D01*
X152275731Y-102165529D01*
X152275730Y-102165529D01*
X152139059Y-102222140D01*
X151993968Y-102251000D01*
X151846032Y-102251000D01*
X151700941Y-102222140D01*
X151564270Y-102165529D01*
X151564269Y-102165529D01*
X151564268Y-102165528D01*
X151441265Y-102083340D01*
X151336660Y-101978735D01*
X151254472Y-101855732D01*
X151197860Y-101719059D01*
X151184835Y-101653575D01*
X151169000Y-101573968D01*
X151169000Y-101426032D01*
X151197860Y-101280941D01*
X151254471Y-101144270D01*
X151298981Y-101077656D01*
X151336660Y-101021265D01*
X151441265Y-100916660D01*
X151564268Y-100834472D01*
X151700941Y-100777860D01*
X151846032Y-100749000D01*
X151993968Y-100749000D01*
X152139059Y-100777860D01*
G37*
G36*
X164799059Y-100777860D02*
G01*
X164935732Y-100834472D01*
X165058735Y-100916660D01*
X165163340Y-101021265D01*
X165201019Y-101077656D01*
X165245529Y-101144270D01*
X165302140Y-101280941D01*
X165331000Y-101426032D01*
X165331000Y-101573968D01*
X165315165Y-101653575D01*
X165302140Y-101719059D01*
X165245528Y-101855732D01*
X165163340Y-101978735D01*
X165058735Y-102083340D01*
X164935732Y-102165528D01*
X164935731Y-102165529D01*
X164935730Y-102165529D01*
X164799059Y-102222140D01*
X164653968Y-102251000D01*
X164506032Y-102251000D01*
X164360941Y-102222140D01*
X164224270Y-102165529D01*
X164224269Y-102165529D01*
X164224268Y-102165528D01*
X164101265Y-102083340D01*
X163996660Y-101978735D01*
X163914472Y-101855732D01*
X163857860Y-101719059D01*
X163844835Y-101653575D01*
X163829000Y-101573968D01*
X163829000Y-101426032D01*
X163857860Y-101280941D01*
X163914471Y-101144270D01*
X163958981Y-101077656D01*
X163996660Y-101021265D01*
X164101265Y-100916660D01*
X164224268Y-100834472D01*
X164360941Y-100777860D01*
X164506032Y-100749000D01*
X164653968Y-100749000D01*
X164799059Y-100777860D01*
G37*
G36*
X159719059Y-100777860D02*
G01*
X159855732Y-100834472D01*
X159978735Y-100916660D01*
X160083340Y-101021265D01*
X160121019Y-101077656D01*
X160165529Y-101144270D01*
X160222140Y-101280941D01*
X160251000Y-101426032D01*
X160251000Y-101573968D01*
X160235165Y-101653575D01*
X160222140Y-101719059D01*
X160165528Y-101855732D01*
X160083340Y-101978735D01*
X159978735Y-102083340D01*
X159855732Y-102165528D01*
X159855731Y-102165529D01*
X159855730Y-102165529D01*
X159719059Y-102222140D01*
X159573968Y-102251000D01*
X159426032Y-102251000D01*
X159280941Y-102222140D01*
X159144270Y-102165529D01*
X159144269Y-102165529D01*
X159144268Y-102165528D01*
X159021265Y-102083340D01*
X158916660Y-101978735D01*
X158834472Y-101855732D01*
X158777860Y-101719059D01*
X158764835Y-101653575D01*
X158749000Y-101573968D01*
X158749000Y-101426032D01*
X158777860Y-101280941D01*
X158834471Y-101144270D01*
X158878981Y-101077656D01*
X158916660Y-101021265D01*
X159021265Y-100916660D01*
X159144268Y-100834472D01*
X159280941Y-100777860D01*
X159426032Y-100749000D01*
X159573968Y-100749000D01*
X159719059Y-100777860D01*
G37*
G36*
X104532912Y-99891127D02*
G01*
X104682212Y-99920824D01*
X104846184Y-99988744D01*
X104993754Y-100087347D01*
X105119253Y-100212846D01*
X105217856Y-100360416D01*
X105285776Y-100524388D01*
X105320400Y-100698459D01*
X105320400Y-100875941D01*
X105285776Y-101050012D01*
X105217856Y-101213984D01*
X105119253Y-101361554D01*
X104993754Y-101487053D01*
X104846184Y-101585656D01*
X104682212Y-101653576D01*
X104532912Y-101683273D01*
X104508142Y-101688200D01*
X104330658Y-101688200D01*
X104305888Y-101683273D01*
X104156588Y-101653576D01*
X103992616Y-101585656D01*
X103845046Y-101487053D01*
X103719547Y-101361554D01*
X103620944Y-101213984D01*
X103553024Y-101050012D01*
X103518400Y-100875941D01*
X103518400Y-100698459D01*
X103553024Y-100524388D01*
X103620944Y-100360416D01*
X103719547Y-100212846D01*
X103845046Y-100087347D01*
X103992616Y-99988744D01*
X104156588Y-99920824D01*
X104305888Y-99891127D01*
X104330658Y-99886200D01*
X104508142Y-99886200D01*
X104532912Y-99891127D01*
G37*
G36*
X171055512Y-99383127D02*
G01*
X171204812Y-99412824D01*
X171368784Y-99480744D01*
X171516354Y-99579347D01*
X171641853Y-99704846D01*
X171740456Y-99852416D01*
X171808376Y-100016388D01*
X171838073Y-100165688D01*
X171840995Y-100180376D01*
X171843000Y-100190459D01*
X171843000Y-100367941D01*
X171808376Y-100542012D01*
X171740456Y-100705984D01*
X171641853Y-100853554D01*
X171516354Y-100979053D01*
X171368784Y-101077656D01*
X171204812Y-101145576D01*
X171055512Y-101175273D01*
X171030742Y-101180200D01*
X170853258Y-101180200D01*
X170828488Y-101175273D01*
X170679188Y-101145576D01*
X170515216Y-101077656D01*
X170367646Y-100979053D01*
X170242147Y-100853554D01*
X170143544Y-100705984D01*
X170075624Y-100542012D01*
X170041000Y-100367941D01*
X170041000Y-100190459D01*
X170043006Y-100180376D01*
X170045927Y-100165688D01*
X170075624Y-100016388D01*
X170143544Y-99852416D01*
X170242147Y-99704846D01*
X170367646Y-99579347D01*
X170515216Y-99480744D01*
X170679188Y-99412824D01*
X170828488Y-99383127D01*
X170853258Y-99378200D01*
X171030742Y-99378200D01*
X171055512Y-99383127D01*
G37*
G36*
X113761199Y-101147600D02*
G01*
X111486001Y-101147600D01*
X111486001Y-100477600D01*
X113761199Y-100477600D01*
X113761199Y-101147600D01*
G37*
G36*
X118485599Y-101147600D02*
G01*
X116210401Y-101147600D01*
X116210401Y-100477600D01*
X118485599Y-100477600D01*
X118485599Y-101147600D01*
G37*
G36*
X145833312Y-98417927D02*
G01*
X145982612Y-98447624D01*
X146146584Y-98515544D01*
X146294154Y-98614147D01*
X146419653Y-98739646D01*
X146518256Y-98887216D01*
X146586176Y-99051188D01*
X146598585Y-99113575D01*
X146620800Y-99225258D01*
X146620800Y-99402742D01*
X146618794Y-99412825D01*
X146586176Y-99576812D01*
X146518256Y-99740784D01*
X146419653Y-99888354D01*
X146294154Y-100013853D01*
X146146584Y-100112456D01*
X145982612Y-100180376D01*
X145833312Y-100210073D01*
X145808542Y-100215000D01*
X145631058Y-100215000D01*
X145606288Y-100210073D01*
X145456988Y-100180376D01*
X145293016Y-100112456D01*
X145145446Y-100013853D01*
X145019947Y-99888354D01*
X144921344Y-99740784D01*
X144853424Y-99576812D01*
X144820806Y-99412825D01*
X144818800Y-99402742D01*
X144818800Y-99225258D01*
X144841015Y-99113575D01*
X144853424Y-99051188D01*
X144921344Y-98887216D01*
X145019947Y-98739646D01*
X145145446Y-98614147D01*
X145293016Y-98515544D01*
X145456988Y-98447624D01*
X145606288Y-98417927D01*
X145631058Y-98413000D01*
X145808542Y-98413000D01*
X145833312Y-98417927D01*
G37*
G36*
X125513312Y-98417927D02*
G01*
X125662612Y-98447624D01*
X125826584Y-98515544D01*
X125974154Y-98614147D01*
X126099653Y-98739646D01*
X126198256Y-98887216D01*
X126266176Y-99051188D01*
X126278585Y-99113575D01*
X126300800Y-99225258D01*
X126300800Y-99402742D01*
X126298794Y-99412825D01*
X126266176Y-99576812D01*
X126198256Y-99740784D01*
X126099653Y-99888354D01*
X125974154Y-100013853D01*
X125826584Y-100112456D01*
X125662612Y-100180376D01*
X125513312Y-100210073D01*
X125488542Y-100215000D01*
X125311058Y-100215000D01*
X125286288Y-100210073D01*
X125136988Y-100180376D01*
X124973016Y-100112456D01*
X124825446Y-100013853D01*
X124699947Y-99888354D01*
X124601344Y-99740784D01*
X124533424Y-99576812D01*
X124500806Y-99412825D01*
X124498800Y-99402742D01*
X124498800Y-99225258D01*
X124521015Y-99113575D01*
X124533424Y-99051188D01*
X124601344Y-98887216D01*
X124699947Y-98739646D01*
X124825446Y-98614147D01*
X124973016Y-98515544D01*
X125136988Y-98447624D01*
X125286288Y-98417927D01*
X125311058Y-98413000D01*
X125488542Y-98413000D01*
X125513312Y-98417927D01*
G37*
G36*
X113761199Y-99877600D02*
G01*
X111486001Y-99877600D01*
X111486001Y-99207600D01*
X113761199Y-99207600D01*
X113761199Y-99877600D01*
G37*
G36*
X118485599Y-99877600D02*
G01*
X116210401Y-99877600D01*
X116210401Y-99207600D01*
X118485599Y-99207600D01*
X118485599Y-99877600D01*
G37*
G36*
X104525521Y-97349657D02*
G01*
X104682212Y-97380824D01*
X104846184Y-97448744D01*
X104993754Y-97547347D01*
X105119253Y-97672846D01*
X105217856Y-97820416D01*
X105285776Y-97984388D01*
X105320400Y-98158459D01*
X105320400Y-98335941D01*
X105285776Y-98510012D01*
X105217856Y-98673984D01*
X105119253Y-98821554D01*
X104993754Y-98947053D01*
X104846184Y-99045656D01*
X104682212Y-99113576D01*
X104532912Y-99143273D01*
X104508142Y-99148200D01*
X104330658Y-99148200D01*
X104305888Y-99143273D01*
X104156588Y-99113576D01*
X103992616Y-99045656D01*
X103845046Y-98947053D01*
X103719547Y-98821554D01*
X103620944Y-98673984D01*
X103553024Y-98510012D01*
X103518400Y-98335941D01*
X103518400Y-98158459D01*
X103553024Y-97984388D01*
X103620944Y-97820416D01*
X103719547Y-97672846D01*
X103845046Y-97547347D01*
X103992616Y-97448744D01*
X104156588Y-97380824D01*
X104313279Y-97349657D01*
X104330658Y-97346200D01*
X104508142Y-97346200D01*
X104525521Y-97349657D01*
G37*
G36*
X171055512Y-96843127D02*
G01*
X171204812Y-96872824D01*
X171368784Y-96940744D01*
X171516354Y-97039347D01*
X171641853Y-97164846D01*
X171740456Y-97312416D01*
X171808376Y-97476388D01*
X171838073Y-97625688D01*
X171840995Y-97640376D01*
X171843000Y-97650459D01*
X171843000Y-97827941D01*
X171808376Y-98002012D01*
X171740456Y-98165984D01*
X171641853Y-98313554D01*
X171516354Y-98439053D01*
X171368784Y-98537656D01*
X171204812Y-98605576D01*
X171055512Y-98635273D01*
X171030742Y-98640200D01*
X170853258Y-98640200D01*
X170828488Y-98635273D01*
X170679188Y-98605576D01*
X170515216Y-98537656D01*
X170367646Y-98439053D01*
X170242147Y-98313554D01*
X170143544Y-98165984D01*
X170075624Y-98002012D01*
X170041000Y-97827941D01*
X170041000Y-97650459D01*
X170043006Y-97640376D01*
X170045927Y-97625688D01*
X170075624Y-97476388D01*
X170143544Y-97312416D01*
X170242147Y-97164846D01*
X170367646Y-97039347D01*
X170515216Y-96940744D01*
X170679188Y-96872824D01*
X170828488Y-96843127D01*
X170853258Y-96838200D01*
X171030742Y-96838200D01*
X171055512Y-96843127D01*
G37*
G36*
X113761199Y-98607600D02*
G01*
X111486001Y-98607600D01*
X111486001Y-97937600D01*
X113761199Y-97937600D01*
X113761199Y-98607600D01*
G37*
G36*
X118485599Y-98607600D02*
G01*
X116210401Y-98607600D01*
X116210401Y-97937600D01*
X118485599Y-97937600D01*
X118485599Y-98607600D01*
G37*
G36*
X162365342Y-96805042D02*
G01*
X162513301Y-96866329D01*
X162646455Y-96955299D01*
X162759701Y-97068545D01*
X162848671Y-97201699D01*
X162909958Y-97349658D01*
X162941200Y-97506725D01*
X162941200Y-97666875D01*
X162909958Y-97823942D01*
X162848671Y-97971901D01*
X162759701Y-98105055D01*
X162646455Y-98218301D01*
X162513301Y-98307271D01*
X162365342Y-98368558D01*
X162208275Y-98399800D01*
X162048125Y-98399800D01*
X161891058Y-98368558D01*
X161743099Y-98307271D01*
X161609945Y-98218301D01*
X161496699Y-98105055D01*
X161407729Y-97971901D01*
X161346442Y-97823942D01*
X161315200Y-97666875D01*
X161315200Y-97506725D01*
X161346442Y-97349658D01*
X161407729Y-97201699D01*
X161496699Y-97068545D01*
X161609945Y-96955299D01*
X161743099Y-96866329D01*
X161891058Y-96805042D01*
X162048125Y-96773800D01*
X162208275Y-96773800D01*
X162365342Y-96805042D01*
G37*
G36*
X157285342Y-96805042D02*
G01*
X157433301Y-96866329D01*
X157566455Y-96955299D01*
X157679701Y-97068545D01*
X157768671Y-97201699D01*
X157829958Y-97349658D01*
X157861200Y-97506725D01*
X157861200Y-97666875D01*
X157829958Y-97823942D01*
X157768671Y-97971901D01*
X157679701Y-98105055D01*
X157566455Y-98218301D01*
X157433301Y-98307271D01*
X157285342Y-98368558D01*
X157128275Y-98399800D01*
X156968125Y-98399800D01*
X156811058Y-98368558D01*
X156663099Y-98307271D01*
X156529945Y-98218301D01*
X156416699Y-98105055D01*
X156327729Y-97971901D01*
X156266442Y-97823942D01*
X156235200Y-97666875D01*
X156235200Y-97506725D01*
X156266442Y-97349658D01*
X156327729Y-97201699D01*
X156416699Y-97068545D01*
X156529945Y-96955299D01*
X156663099Y-96866329D01*
X156811058Y-96805042D01*
X156968125Y-96773800D01*
X157128275Y-96773800D01*
X157285342Y-96805042D01*
G37*
G36*
X159825342Y-96805042D02*
G01*
X159973301Y-96866329D01*
X160106455Y-96955299D01*
X160219701Y-97068545D01*
X160308671Y-97201699D01*
X160369958Y-97349658D01*
X160401200Y-97506725D01*
X160401200Y-97666875D01*
X160369958Y-97823942D01*
X160308671Y-97971901D01*
X160219701Y-98105055D01*
X160106455Y-98218301D01*
X159973301Y-98307271D01*
X159825342Y-98368558D01*
X159668275Y-98399800D01*
X159508125Y-98399800D01*
X159351058Y-98368558D01*
X159203099Y-98307271D01*
X159069945Y-98218301D01*
X158956699Y-98105055D01*
X158867729Y-97971901D01*
X158806442Y-97823942D01*
X158775200Y-97666875D01*
X158775200Y-97506725D01*
X158806442Y-97349658D01*
X158867729Y-97201699D01*
X158956699Y-97068545D01*
X159069945Y-96955299D01*
X159203099Y-96866329D01*
X159351058Y-96805042D01*
X159508125Y-96773800D01*
X159668275Y-96773800D01*
X159825342Y-96805042D01*
G37*
G36*
X125513312Y-95877927D02*
G01*
X125662612Y-95907624D01*
X125826584Y-95975544D01*
X125974154Y-96074147D01*
X126099653Y-96199646D01*
X126198256Y-96347216D01*
X126266176Y-96511188D01*
X126278585Y-96573575D01*
X126300800Y-96685258D01*
X126300800Y-96862742D01*
X126298794Y-96872825D01*
X126266176Y-97036812D01*
X126198256Y-97200784D01*
X126099653Y-97348354D01*
X125974154Y-97473853D01*
X125826584Y-97572456D01*
X125662612Y-97640376D01*
X125529394Y-97666874D01*
X125488542Y-97675000D01*
X125311058Y-97675000D01*
X125270206Y-97666874D01*
X125136988Y-97640376D01*
X124973016Y-97572456D01*
X124825446Y-97473853D01*
X124699947Y-97348354D01*
X124601344Y-97200784D01*
X124533424Y-97036812D01*
X124500806Y-96872825D01*
X124498800Y-96862742D01*
X124498800Y-96685258D01*
X124521015Y-96573575D01*
X124533424Y-96511188D01*
X124601344Y-96347216D01*
X124699947Y-96199646D01*
X124825446Y-96074147D01*
X124973016Y-95975544D01*
X125136988Y-95907624D01*
X125286288Y-95877927D01*
X125311058Y-95873000D01*
X125488542Y-95873000D01*
X125513312Y-95877927D01*
G37*
G36*
X145833312Y-95877927D02*
G01*
X145982612Y-95907624D01*
X146146584Y-95975544D01*
X146294154Y-96074147D01*
X146419653Y-96199646D01*
X146518256Y-96347216D01*
X146586176Y-96511188D01*
X146598585Y-96573575D01*
X146620800Y-96685258D01*
X146620800Y-96862742D01*
X146618794Y-96872825D01*
X146586176Y-97036812D01*
X146518256Y-97200784D01*
X146419653Y-97348354D01*
X146294154Y-97473853D01*
X146146584Y-97572456D01*
X145982612Y-97640376D01*
X145849394Y-97666874D01*
X145808542Y-97675000D01*
X145631058Y-97675000D01*
X145590206Y-97666874D01*
X145456988Y-97640376D01*
X145293016Y-97572456D01*
X145145446Y-97473853D01*
X145019947Y-97348354D01*
X144921344Y-97200784D01*
X144853424Y-97036812D01*
X144820806Y-96872825D01*
X144818800Y-96862742D01*
X144818800Y-96685258D01*
X144841015Y-96573575D01*
X144853424Y-96511188D01*
X144921344Y-96347216D01*
X145019947Y-96199646D01*
X145145446Y-96074147D01*
X145293016Y-95975544D01*
X145456988Y-95907624D01*
X145606288Y-95877927D01*
X145631058Y-95873000D01*
X145808542Y-95873000D01*
X145833312Y-95877927D01*
G37*
G36*
X118485599Y-97337600D02*
G01*
X116210401Y-97337600D01*
X116210401Y-96667600D01*
X118485599Y-96667600D01*
X118485599Y-97337600D01*
G37*
G36*
X113761199Y-97337600D02*
G01*
X111486001Y-97337600D01*
X111486001Y-96667600D01*
X113761199Y-96667600D01*
X113761199Y-97337600D01*
G37*
G36*
X104532912Y-94811127D02*
G01*
X104682212Y-94840824D01*
X104846184Y-94908744D01*
X104993754Y-95007347D01*
X105119253Y-95132846D01*
X105217856Y-95280416D01*
X105285776Y-95444388D01*
X105320400Y-95618459D01*
X105320400Y-95795941D01*
X105285776Y-95970012D01*
X105217856Y-96133984D01*
X105119253Y-96281554D01*
X104993754Y-96407053D01*
X104846184Y-96505656D01*
X104682212Y-96573576D01*
X104532912Y-96603273D01*
X104508142Y-96608200D01*
X104330658Y-96608200D01*
X104305888Y-96603273D01*
X104156588Y-96573576D01*
X103992616Y-96505656D01*
X103845046Y-96407053D01*
X103719547Y-96281554D01*
X103620944Y-96133984D01*
X103553024Y-95970012D01*
X103518400Y-95795941D01*
X103518400Y-95618459D01*
X103553024Y-95444388D01*
X103620944Y-95280416D01*
X103719547Y-95132846D01*
X103845046Y-95007347D01*
X103992616Y-94908744D01*
X104156588Y-94840824D01*
X104305888Y-94811127D01*
X104330658Y-94806200D01*
X104508142Y-94806200D01*
X104532912Y-94811127D01*
G37*
G36*
X171055512Y-94303127D02*
G01*
X171204812Y-94332824D01*
X171368784Y-94400744D01*
X171516354Y-94499347D01*
X171641853Y-94624846D01*
X171740456Y-94772416D01*
X171808376Y-94936388D01*
X171838073Y-95085688D01*
X171840995Y-95100376D01*
X171843000Y-95110459D01*
X171843000Y-95287941D01*
X171808376Y-95462012D01*
X171740456Y-95625984D01*
X171641853Y-95773554D01*
X171516354Y-95899053D01*
X171368784Y-95997656D01*
X171204812Y-96065576D01*
X171055512Y-96095273D01*
X171030742Y-96100200D01*
X170853258Y-96100200D01*
X170828488Y-96095273D01*
X170679188Y-96065576D01*
X170515216Y-95997656D01*
X170367646Y-95899053D01*
X170242147Y-95773554D01*
X170143544Y-95625984D01*
X170075624Y-95462012D01*
X170041000Y-95287941D01*
X170041000Y-95110459D01*
X170043006Y-95100376D01*
X170045927Y-95085688D01*
X170075624Y-94936388D01*
X170143544Y-94772416D01*
X170242147Y-94624846D01*
X170367646Y-94499347D01*
X170515216Y-94400744D01*
X170679188Y-94332824D01*
X170828488Y-94303127D01*
X170853258Y-94298200D01*
X171030742Y-94298200D01*
X171055512Y-94303127D01*
G37*
G36*
X125513312Y-93337927D02*
G01*
X125662612Y-93367624D01*
X125826584Y-93435544D01*
X125974154Y-93534147D01*
X126099653Y-93659646D01*
X126198256Y-93807216D01*
X126266176Y-93971188D01*
X126278585Y-94033575D01*
X126300800Y-94145258D01*
X126300800Y-94322742D01*
X126298794Y-94332825D01*
X126266176Y-94496812D01*
X126198256Y-94660784D01*
X126099653Y-94808354D01*
X125974154Y-94933853D01*
X125826584Y-95032456D01*
X125662612Y-95100376D01*
X125513312Y-95130073D01*
X125488542Y-95135000D01*
X125311058Y-95135000D01*
X125286288Y-95130073D01*
X125136988Y-95100376D01*
X124973016Y-95032456D01*
X124825446Y-94933853D01*
X124699947Y-94808354D01*
X124601344Y-94660784D01*
X124533424Y-94496812D01*
X124500806Y-94332825D01*
X124498800Y-94322742D01*
X124498800Y-94145258D01*
X124521015Y-94033575D01*
X124533424Y-93971188D01*
X124601344Y-93807216D01*
X124699947Y-93659646D01*
X124825446Y-93534147D01*
X124973016Y-93435544D01*
X125136988Y-93367624D01*
X125286288Y-93337927D01*
X125311058Y-93333000D01*
X125488542Y-93333000D01*
X125513312Y-93337927D01*
G37*
G36*
X145833312Y-93337927D02*
G01*
X145982612Y-93367624D01*
X146146584Y-93435544D01*
X146294154Y-93534147D01*
X146419653Y-93659646D01*
X146518256Y-93807216D01*
X146586176Y-93971188D01*
X146598585Y-94033575D01*
X146620800Y-94145258D01*
X146620800Y-94322742D01*
X146618794Y-94332825D01*
X146586176Y-94496812D01*
X146518256Y-94660784D01*
X146419653Y-94808354D01*
X146294154Y-94933853D01*
X146146584Y-95032456D01*
X145982612Y-95100376D01*
X145833312Y-95130073D01*
X145808542Y-95135000D01*
X145631058Y-95135000D01*
X145606288Y-95130073D01*
X145456988Y-95100376D01*
X145293016Y-95032456D01*
X145145446Y-94933853D01*
X145019947Y-94808354D01*
X144921344Y-94660784D01*
X144853424Y-94496812D01*
X144820806Y-94332825D01*
X144818800Y-94322742D01*
X144818800Y-94145258D01*
X144841015Y-94033575D01*
X144853424Y-93971188D01*
X144921344Y-93807216D01*
X145019947Y-93659646D01*
X145145446Y-93534147D01*
X145293016Y-93435544D01*
X145456988Y-93367624D01*
X145606288Y-93337927D01*
X145631058Y-93333000D01*
X145808542Y-93333000D01*
X145833312Y-93337927D01*
G37*
G36*
X159719059Y-92777860D02*
G01*
X159855732Y-92834472D01*
X159978735Y-92916660D01*
X160083340Y-93021265D01*
X160165528Y-93144268D01*
X160165529Y-93144270D01*
X160222140Y-93280941D01*
X160251000Y-93426032D01*
X160251000Y-93573968D01*
X160233958Y-93659646D01*
X160222140Y-93719059D01*
X160165528Y-93855732D01*
X160083340Y-93978735D01*
X159978735Y-94083340D01*
X159855732Y-94165528D01*
X159855731Y-94165529D01*
X159855730Y-94165529D01*
X159719059Y-94222140D01*
X159573968Y-94251000D01*
X159426032Y-94251000D01*
X159280941Y-94222140D01*
X159144270Y-94165529D01*
X159144269Y-94165529D01*
X159144268Y-94165528D01*
X159021265Y-94083340D01*
X158916660Y-93978735D01*
X158834472Y-93855732D01*
X158777860Y-93719059D01*
X158766042Y-93659646D01*
X158749000Y-93573968D01*
X158749000Y-93426032D01*
X158777860Y-93280941D01*
X158834471Y-93144270D01*
X158834472Y-93144268D01*
X158916660Y-93021265D01*
X159021265Y-92916660D01*
X159144268Y-92834472D01*
X159280941Y-92777860D01*
X159426032Y-92749000D01*
X159573968Y-92749000D01*
X159719059Y-92777860D01*
G37*
G36*
X152139059Y-92777860D02*
G01*
X152275732Y-92834472D01*
X152398735Y-92916660D01*
X152503340Y-93021265D01*
X152585528Y-93144268D01*
X152585529Y-93144270D01*
X152642140Y-93280941D01*
X152671000Y-93426032D01*
X152671000Y-93573968D01*
X152653958Y-93659646D01*
X152642140Y-93719059D01*
X152585528Y-93855732D01*
X152503340Y-93978735D01*
X152398735Y-94083340D01*
X152275732Y-94165528D01*
X152275731Y-94165529D01*
X152275730Y-94165529D01*
X152139059Y-94222140D01*
X151993968Y-94251000D01*
X151846032Y-94251000D01*
X151700941Y-94222140D01*
X151564270Y-94165529D01*
X151564269Y-94165529D01*
X151564268Y-94165528D01*
X151441265Y-94083340D01*
X151336660Y-93978735D01*
X151254472Y-93855732D01*
X151197860Y-93719059D01*
X151186042Y-93659646D01*
X151169000Y-93573968D01*
X151169000Y-93426032D01*
X151197860Y-93280941D01*
X151254471Y-93144270D01*
X151254472Y-93144268D01*
X151336660Y-93021265D01*
X151441265Y-92916660D01*
X151564268Y-92834472D01*
X151700941Y-92777860D01*
X151846032Y-92749000D01*
X151993968Y-92749000D01*
X152139059Y-92777860D01*
G37*
G36*
X157219059Y-92777860D02*
G01*
X157355732Y-92834472D01*
X157478735Y-92916660D01*
X157583340Y-93021265D01*
X157665528Y-93144268D01*
X157665529Y-93144270D01*
X157722140Y-93280941D01*
X157751000Y-93426032D01*
X157751000Y-93573968D01*
X157733958Y-93659646D01*
X157722140Y-93719059D01*
X157665528Y-93855732D01*
X157583340Y-93978735D01*
X157478735Y-94083340D01*
X157355732Y-94165528D01*
X157355731Y-94165529D01*
X157355730Y-94165529D01*
X157219059Y-94222140D01*
X157073968Y-94251000D01*
X156926032Y-94251000D01*
X156780941Y-94222140D01*
X156644270Y-94165529D01*
X156644269Y-94165529D01*
X156644268Y-94165528D01*
X156521265Y-94083340D01*
X156416660Y-93978735D01*
X156334472Y-93855732D01*
X156277860Y-93719059D01*
X156266042Y-93659646D01*
X156249000Y-93573968D01*
X156249000Y-93426032D01*
X156277860Y-93280941D01*
X156334471Y-93144270D01*
X156334472Y-93144268D01*
X156416660Y-93021265D01*
X156521265Y-92916660D01*
X156644268Y-92834472D01*
X156780941Y-92777860D01*
X156926032Y-92749000D01*
X157073968Y-92749000D01*
X157219059Y-92777860D01*
G37*
G36*
X164799059Y-92777860D02*
G01*
X164935732Y-92834472D01*
X165058735Y-92916660D01*
X165163340Y-93021265D01*
X165245528Y-93144268D01*
X165245529Y-93144270D01*
X165302140Y-93280941D01*
X165331000Y-93426032D01*
X165331000Y-93573968D01*
X165313958Y-93659646D01*
X165302140Y-93719059D01*
X165245528Y-93855732D01*
X165163340Y-93978735D01*
X165058735Y-94083340D01*
X164935732Y-94165528D01*
X164935731Y-94165529D01*
X164935730Y-94165529D01*
X164799059Y-94222140D01*
X164653968Y-94251000D01*
X164506032Y-94251000D01*
X164360941Y-94222140D01*
X164224270Y-94165529D01*
X164224269Y-94165529D01*
X164224268Y-94165528D01*
X164101265Y-94083340D01*
X163996660Y-93978735D01*
X163914472Y-93855732D01*
X163857860Y-93719059D01*
X163846042Y-93659646D01*
X163829000Y-93573968D01*
X163829000Y-93426032D01*
X163857860Y-93280941D01*
X163914471Y-93144270D01*
X163914472Y-93144268D01*
X163996660Y-93021265D01*
X164101265Y-92916660D01*
X164224268Y-92834472D01*
X164360941Y-92777860D01*
X164506032Y-92749000D01*
X164653968Y-92749000D01*
X164799059Y-92777860D01*
G37*
G36*
X104532912Y-92271127D02*
G01*
X104682212Y-92300824D01*
X104846184Y-92368744D01*
X104993754Y-92467347D01*
X105119253Y-92592846D01*
X105217856Y-92740416D01*
X105285776Y-92904388D01*
X105320400Y-93078459D01*
X105320400Y-93255941D01*
X105285776Y-93430012D01*
X105217856Y-93593984D01*
X105119253Y-93741554D01*
X104993754Y-93867053D01*
X104846184Y-93965656D01*
X104682212Y-94033576D01*
X104532912Y-94063273D01*
X104508142Y-94068200D01*
X104330658Y-94068200D01*
X104305888Y-94063273D01*
X104156588Y-94033576D01*
X103992616Y-93965656D01*
X103845046Y-93867053D01*
X103719547Y-93741554D01*
X103620944Y-93593984D01*
X103553024Y-93430012D01*
X103518400Y-93255941D01*
X103518400Y-93078459D01*
X103553024Y-92904388D01*
X103620944Y-92740416D01*
X103719547Y-92592846D01*
X103845046Y-92467347D01*
X103992616Y-92368744D01*
X104156588Y-92300824D01*
X104305888Y-92271127D01*
X104330658Y-92266200D01*
X104508142Y-92266200D01*
X104532912Y-92271127D01*
G37*
G36*
X171843000Y-93560200D02*
G01*
X170041000Y-93560200D01*
X170041000Y-91758200D01*
X171843000Y-91758200D01*
X171843000Y-93560200D01*
G37*
G36*
X145833312Y-90797927D02*
G01*
X145982612Y-90827624D01*
X146146584Y-90895544D01*
X146294154Y-90994147D01*
X146419653Y-91119646D01*
X146518256Y-91267216D01*
X146586176Y-91431188D01*
X146620800Y-91605259D01*
X146620800Y-91782741D01*
X146586176Y-91956812D01*
X146518256Y-92120784D01*
X146419653Y-92268354D01*
X146294154Y-92393853D01*
X146146584Y-92492456D01*
X145982612Y-92560376D01*
X145833312Y-92590073D01*
X145808542Y-92595000D01*
X145631058Y-92595000D01*
X145606288Y-92590073D01*
X145456988Y-92560376D01*
X145293016Y-92492456D01*
X145145446Y-92393853D01*
X145019947Y-92268354D01*
X144921344Y-92120784D01*
X144853424Y-91956812D01*
X144818800Y-91782741D01*
X144818800Y-91605259D01*
X144853424Y-91431188D01*
X144921344Y-91267216D01*
X145019947Y-91119646D01*
X145145446Y-90994147D01*
X145293016Y-90895544D01*
X145456988Y-90827624D01*
X145606288Y-90797927D01*
X145631058Y-90793000D01*
X145808542Y-90793000D01*
X145833312Y-90797927D01*
G37*
G36*
X125513312Y-90797927D02*
G01*
X125662612Y-90827624D01*
X125826584Y-90895544D01*
X125974154Y-90994147D01*
X126099653Y-91119646D01*
X126198256Y-91267216D01*
X126266176Y-91431188D01*
X126300800Y-91605259D01*
X126300800Y-91782741D01*
X126266176Y-91956812D01*
X126198256Y-92120784D01*
X126099653Y-92268354D01*
X125974154Y-92393853D01*
X125826584Y-92492456D01*
X125662612Y-92560376D01*
X125513312Y-92590073D01*
X125488542Y-92595000D01*
X125311058Y-92595000D01*
X125286288Y-92590073D01*
X125136988Y-92560376D01*
X124973016Y-92492456D01*
X124825446Y-92393853D01*
X124699947Y-92268354D01*
X124601344Y-92120784D01*
X124533424Y-91956812D01*
X124498800Y-91782741D01*
X124498800Y-91605259D01*
X124533424Y-91431188D01*
X124601344Y-91267216D01*
X124699947Y-91119646D01*
X124825446Y-90994147D01*
X124973016Y-90895544D01*
X125136988Y-90827624D01*
X125286288Y-90797927D01*
X125311058Y-90793000D01*
X125488542Y-90793000D01*
X125513312Y-90797927D01*
G37*
G36*
X162737142Y-89718242D02*
G01*
X162885101Y-89779529D01*
X163018255Y-89868499D01*
X163131501Y-89981745D01*
X163220471Y-90114899D01*
X163281758Y-90262858D01*
X163313000Y-90419925D01*
X163313000Y-90580075D01*
X163281758Y-90737142D01*
X163220471Y-90885101D01*
X163131501Y-91018255D01*
X163018255Y-91131501D01*
X162885101Y-91220471D01*
X162737142Y-91281758D01*
X162580075Y-91313000D01*
X162419925Y-91313000D01*
X162262858Y-91281758D01*
X162114899Y-91220471D01*
X161981745Y-91131501D01*
X161868499Y-91018255D01*
X161779529Y-90885101D01*
X161718242Y-90737142D01*
X161687000Y-90580075D01*
X161687000Y-90419925D01*
X161718242Y-90262858D01*
X161779529Y-90114899D01*
X161868499Y-89981745D01*
X161981745Y-89868499D01*
X162114899Y-89779529D01*
X162262858Y-89718242D01*
X162419925Y-89687000D01*
X162580075Y-89687000D01*
X162737142Y-89718242D01*
G37*
G36*
X160197142Y-89718242D02*
G01*
X160345101Y-89779529D01*
X160478255Y-89868499D01*
X160591501Y-89981745D01*
X160680471Y-90114899D01*
X160741758Y-90262858D01*
X160773000Y-90419925D01*
X160773000Y-90580075D01*
X160741758Y-90737142D01*
X160680471Y-90885101D01*
X160591501Y-91018255D01*
X160478255Y-91131501D01*
X160345101Y-91220471D01*
X160197142Y-91281758D01*
X160040075Y-91313000D01*
X159879925Y-91313000D01*
X159722858Y-91281758D01*
X159574899Y-91220471D01*
X159441745Y-91131501D01*
X159328499Y-91018255D01*
X159239529Y-90885101D01*
X159178242Y-90737142D01*
X159147000Y-90580075D01*
X159147000Y-90419925D01*
X159178242Y-90262858D01*
X159239529Y-90114899D01*
X159328499Y-89981745D01*
X159441745Y-89868499D01*
X159574899Y-89779529D01*
X159722858Y-89718242D01*
X159879925Y-89687000D01*
X160040075Y-89687000D01*
X160197142Y-89718242D01*
G37*
G36*
X165277142Y-89718242D02*
G01*
X165425101Y-89779529D01*
X165558255Y-89868499D01*
X165671501Y-89981745D01*
X165760471Y-90114899D01*
X165821758Y-90262858D01*
X165853000Y-90419925D01*
X165853000Y-90580075D01*
X165821758Y-90737142D01*
X165760471Y-90885101D01*
X165671501Y-91018255D01*
X165558255Y-91131501D01*
X165425101Y-91220471D01*
X165277142Y-91281758D01*
X165120075Y-91313000D01*
X164959925Y-91313000D01*
X164802858Y-91281758D01*
X164654899Y-91220471D01*
X164521745Y-91131501D01*
X164408499Y-91018255D01*
X164319529Y-90885101D01*
X164258242Y-90737142D01*
X164227000Y-90580075D01*
X164227000Y-90419925D01*
X164258242Y-90262858D01*
X164319529Y-90114899D01*
X164408499Y-89981745D01*
X164521745Y-89868499D01*
X164654899Y-89779529D01*
X164802858Y-89718242D01*
X164959925Y-89687000D01*
X165120075Y-89687000D01*
X165277142Y-89718242D01*
G37*
G36*
X145833312Y-88257927D02*
G01*
X145982612Y-88287624D01*
X146146584Y-88355544D01*
X146294154Y-88454147D01*
X146419653Y-88579646D01*
X146518256Y-88727216D01*
X146586176Y-88891188D01*
X146620800Y-89065259D01*
X146620800Y-89242741D01*
X146586176Y-89416812D01*
X146518256Y-89580784D01*
X146419653Y-89728354D01*
X146294154Y-89853853D01*
X146146584Y-89952456D01*
X145982612Y-90020376D01*
X145833312Y-90050073D01*
X145808542Y-90055000D01*
X145631058Y-90055000D01*
X145606288Y-90050073D01*
X145456988Y-90020376D01*
X145293016Y-89952456D01*
X145145446Y-89853853D01*
X145019947Y-89728354D01*
X144921344Y-89580784D01*
X144853424Y-89416812D01*
X144818800Y-89242741D01*
X144818800Y-89065259D01*
X144853424Y-88891188D01*
X144921344Y-88727216D01*
X145019947Y-88579646D01*
X145145446Y-88454147D01*
X145293016Y-88355544D01*
X145456988Y-88287624D01*
X145606288Y-88257927D01*
X145631058Y-88253000D01*
X145808542Y-88253000D01*
X145833312Y-88257927D01*
G37*
G36*
X125513312Y-88257927D02*
G01*
X125662612Y-88287624D01*
X125826584Y-88355544D01*
X125974154Y-88454147D01*
X126099653Y-88579646D01*
X126198256Y-88727216D01*
X126266176Y-88891188D01*
X126300800Y-89065259D01*
X126300800Y-89242741D01*
X126266176Y-89416812D01*
X126198256Y-89580784D01*
X126099653Y-89728354D01*
X125974154Y-89853853D01*
X125826584Y-89952456D01*
X125662612Y-90020376D01*
X125513312Y-90050073D01*
X125488542Y-90055000D01*
X125311058Y-90055000D01*
X125286288Y-90050073D01*
X125136988Y-90020376D01*
X124973016Y-89952456D01*
X124825446Y-89853853D01*
X124699947Y-89728354D01*
X124601344Y-89580784D01*
X124533424Y-89416812D01*
X124498800Y-89242741D01*
X124498800Y-89065259D01*
X124533424Y-88891188D01*
X124601344Y-88727216D01*
X124699947Y-88579646D01*
X124825446Y-88454147D01*
X124973016Y-88355544D01*
X125136988Y-88287624D01*
X125286288Y-88257927D01*
X125311058Y-88253000D01*
X125488542Y-88253000D01*
X125513312Y-88257927D01*
G37*
G36*
X105244200Y-89572400D02*
G01*
X103442200Y-89572400D01*
X103442200Y-87770400D01*
X105244200Y-87770400D01*
X105244200Y-89572400D01*
G37*
G36*
X112889690Y-87708617D02*
G01*
X113008164Y-87757691D01*
X113027184Y-87770400D01*
X113114788Y-87828935D01*
X113205465Y-87919612D01*
X113276710Y-88026238D01*
X113325783Y-88144710D01*
X113350800Y-88270481D01*
X113350800Y-88398719D01*
X113325783Y-88524490D01*
X113302937Y-88579646D01*
X113276709Y-88642964D01*
X113205465Y-88749588D01*
X113114788Y-88840265D01*
X113008164Y-88911509D01*
X113008163Y-88911510D01*
X113008162Y-88911510D01*
X112889690Y-88960583D01*
X112763919Y-88985600D01*
X112635681Y-88985600D01*
X112509910Y-88960583D01*
X112391438Y-88911510D01*
X112391437Y-88911510D01*
X112391436Y-88911509D01*
X112284812Y-88840265D01*
X112194135Y-88749588D01*
X112122891Y-88642964D01*
X112096664Y-88579646D01*
X112073817Y-88524490D01*
X112048800Y-88398719D01*
X112048800Y-88270481D01*
X112073817Y-88144710D01*
X112122890Y-88026238D01*
X112194135Y-87919612D01*
X112284812Y-87828935D01*
X112372416Y-87770400D01*
X112391436Y-87757691D01*
X112509910Y-87708617D01*
X112635681Y-87683600D01*
X112763919Y-87683600D01*
X112889690Y-87708617D01*
G37*
G36*
X145833312Y-85717927D02*
G01*
X145982612Y-85747624D01*
X146146584Y-85815544D01*
X146294154Y-85914147D01*
X146419653Y-86039646D01*
X146518256Y-86187216D01*
X146586176Y-86351188D01*
X146620800Y-86525259D01*
X146620800Y-86702741D01*
X146586176Y-86876812D01*
X146518256Y-87040784D01*
X146419653Y-87188354D01*
X146294154Y-87313853D01*
X146146584Y-87412456D01*
X145982612Y-87480376D01*
X145833312Y-87510073D01*
X145808542Y-87515000D01*
X145631058Y-87515000D01*
X145606288Y-87510073D01*
X145456988Y-87480376D01*
X145293016Y-87412456D01*
X145145446Y-87313853D01*
X145019947Y-87188354D01*
X144921344Y-87040784D01*
X144853424Y-86876812D01*
X144818800Y-86702741D01*
X144818800Y-86525259D01*
X144853424Y-86351188D01*
X144921344Y-86187216D01*
X145019947Y-86039646D01*
X145145446Y-85914147D01*
X145293016Y-85815544D01*
X145456988Y-85747624D01*
X145606288Y-85717927D01*
X145631058Y-85713000D01*
X145808542Y-85713000D01*
X145833312Y-85717927D01*
G37*
G36*
X125513312Y-85717927D02*
G01*
X125662612Y-85747624D01*
X125826584Y-85815544D01*
X125974154Y-85914147D01*
X126099653Y-86039646D01*
X126198256Y-86187216D01*
X126266176Y-86351188D01*
X126300800Y-86525259D01*
X126300800Y-86702741D01*
X126266176Y-86876812D01*
X126198256Y-87040784D01*
X126099653Y-87188354D01*
X125974154Y-87313853D01*
X125826584Y-87412456D01*
X125662612Y-87480376D01*
X125513312Y-87510073D01*
X125488542Y-87515000D01*
X125311058Y-87515000D01*
X125286288Y-87510073D01*
X125136988Y-87480376D01*
X124973016Y-87412456D01*
X124825446Y-87313853D01*
X124699947Y-87188354D01*
X124601344Y-87040784D01*
X124533424Y-86876812D01*
X124498800Y-86702741D01*
X124498800Y-86525259D01*
X124533424Y-86351188D01*
X124601344Y-86187216D01*
X124699947Y-86039646D01*
X124825446Y-85914147D01*
X124973016Y-85815544D01*
X125136988Y-85747624D01*
X125286288Y-85717927D01*
X125311058Y-85713000D01*
X125488542Y-85713000D01*
X125513312Y-85717927D01*
G37*
G36*
X150203000Y-87439600D02*
G01*
X148501000Y-87439600D01*
X148501000Y-85737600D01*
X150203000Y-85737600D01*
X150203000Y-87439600D01*
G37*
G36*
X152100228Y-85770303D02*
G01*
X152255100Y-85834453D01*
X152394481Y-85927585D01*
X152513015Y-86046119D01*
X152606147Y-86185500D01*
X152670297Y-86340372D01*
X152703000Y-86504784D01*
X152703000Y-86672416D01*
X152670297Y-86836828D01*
X152606147Y-86991700D01*
X152513015Y-87131081D01*
X152394481Y-87249615D01*
X152255100Y-87342747D01*
X152100228Y-87406897D01*
X151935816Y-87439600D01*
X151768184Y-87439600D01*
X151603772Y-87406897D01*
X151448900Y-87342747D01*
X151309519Y-87249615D01*
X151190985Y-87131081D01*
X151097853Y-86991700D01*
X151033703Y-86836828D01*
X151001000Y-86672416D01*
X151001000Y-86504784D01*
X151033703Y-86340372D01*
X151097853Y-86185500D01*
X151190985Y-86046119D01*
X151309519Y-85927585D01*
X151448900Y-85834453D01*
X151603772Y-85770303D01*
X151768184Y-85737600D01*
X151935816Y-85737600D01*
X152100228Y-85770303D01*
G37*
G36*
X167799059Y-85777860D02*
G01*
X167935687Y-85834453D01*
X167935732Y-85834472D01*
X168058735Y-85916660D01*
X168163340Y-86021265D01*
X168245528Y-86144268D01*
X168302140Y-86280941D01*
X168331000Y-86426033D01*
X168331000Y-86573967D01*
X168302140Y-86719059D01*
X168245528Y-86855732D01*
X168163340Y-86978735D01*
X168058735Y-87083340D01*
X167935732Y-87165528D01*
X167935731Y-87165529D01*
X167935730Y-87165529D01*
X167799059Y-87222140D01*
X167653968Y-87251000D01*
X167506032Y-87251000D01*
X167360941Y-87222140D01*
X167224270Y-87165529D01*
X167224269Y-87165529D01*
X167224268Y-87165528D01*
X167101265Y-87083340D01*
X166996660Y-86978735D01*
X166914472Y-86855732D01*
X166857860Y-86719059D01*
X166829000Y-86573967D01*
X166829000Y-86426033D01*
X166857860Y-86280941D01*
X166914472Y-86144268D01*
X166996660Y-86021265D01*
X167101265Y-85916660D01*
X167224268Y-85834472D01*
X167224314Y-85834453D01*
X167360941Y-85777860D01*
X167506032Y-85749000D01*
X167653968Y-85749000D01*
X167799059Y-85777860D01*
G37*
G36*
X162719059Y-85777860D02*
G01*
X162855687Y-85834453D01*
X162855732Y-85834472D01*
X162978735Y-85916660D01*
X163083340Y-86021265D01*
X163165528Y-86144268D01*
X163222140Y-86280941D01*
X163251000Y-86426033D01*
X163251000Y-86573967D01*
X163222140Y-86719059D01*
X163165528Y-86855732D01*
X163083340Y-86978735D01*
X162978735Y-87083340D01*
X162855732Y-87165528D01*
X162855731Y-87165529D01*
X162855730Y-87165529D01*
X162719059Y-87222140D01*
X162573968Y-87251000D01*
X162426032Y-87251000D01*
X162280941Y-87222140D01*
X162144270Y-87165529D01*
X162144269Y-87165529D01*
X162144268Y-87165528D01*
X162021265Y-87083340D01*
X161916660Y-86978735D01*
X161834472Y-86855732D01*
X161777860Y-86719059D01*
X161749000Y-86573967D01*
X161749000Y-86426033D01*
X161777860Y-86280941D01*
X161834472Y-86144268D01*
X161916660Y-86021265D01*
X162021265Y-85916660D01*
X162144268Y-85834472D01*
X162144314Y-85834453D01*
X162280941Y-85777860D01*
X162426032Y-85749000D01*
X162573968Y-85749000D01*
X162719059Y-85777860D01*
G37*
G36*
X160219059Y-85777860D02*
G01*
X160355687Y-85834453D01*
X160355732Y-85834472D01*
X160478735Y-85916660D01*
X160583340Y-86021265D01*
X160665528Y-86144268D01*
X160722140Y-86280941D01*
X160751000Y-86426033D01*
X160751000Y-86573967D01*
X160722140Y-86719059D01*
X160665528Y-86855732D01*
X160583340Y-86978735D01*
X160478735Y-87083340D01*
X160355732Y-87165528D01*
X160355731Y-87165529D01*
X160355730Y-87165529D01*
X160219059Y-87222140D01*
X160073968Y-87251000D01*
X159926032Y-87251000D01*
X159780941Y-87222140D01*
X159644270Y-87165529D01*
X159644269Y-87165529D01*
X159644268Y-87165528D01*
X159521265Y-87083340D01*
X159416660Y-86978735D01*
X159334472Y-86855732D01*
X159277860Y-86719059D01*
X159249000Y-86573967D01*
X159249000Y-86426033D01*
X159277860Y-86280941D01*
X159334472Y-86144268D01*
X159416660Y-86021265D01*
X159521265Y-85916660D01*
X159644268Y-85834472D01*
X159644314Y-85834453D01*
X159780941Y-85777860D01*
X159926032Y-85749000D01*
X160073968Y-85749000D01*
X160219059Y-85777860D01*
G37*
G36*
X155139059Y-85777860D02*
G01*
X155275687Y-85834453D01*
X155275732Y-85834472D01*
X155398735Y-85916660D01*
X155503340Y-86021265D01*
X155585528Y-86144268D01*
X155642140Y-86280941D01*
X155671000Y-86426033D01*
X155671000Y-86573967D01*
X155642140Y-86719059D01*
X155585528Y-86855732D01*
X155503340Y-86978735D01*
X155398735Y-87083340D01*
X155275732Y-87165528D01*
X155275731Y-87165529D01*
X155275730Y-87165529D01*
X155139059Y-87222140D01*
X154993968Y-87251000D01*
X154846032Y-87251000D01*
X154700941Y-87222140D01*
X154564270Y-87165529D01*
X154564269Y-87165529D01*
X154564268Y-87165528D01*
X154441265Y-87083340D01*
X154336660Y-86978735D01*
X154254472Y-86855732D01*
X154197860Y-86719059D01*
X154169000Y-86573967D01*
X154169000Y-86426033D01*
X154197860Y-86280941D01*
X154254472Y-86144268D01*
X154336660Y-86021265D01*
X154441265Y-85916660D01*
X154564268Y-85834472D01*
X154564314Y-85834453D01*
X154700941Y-85777860D01*
X154846032Y-85749000D01*
X154993968Y-85749000D01*
X155139059Y-85777860D01*
G37*
G36*
X104456712Y-85235327D02*
G01*
X104606012Y-85265024D01*
X104769984Y-85332944D01*
X104917554Y-85431547D01*
X105043053Y-85557046D01*
X105141656Y-85704616D01*
X105209576Y-85868588D01*
X105244200Y-86042659D01*
X105244200Y-86220141D01*
X105209576Y-86394212D01*
X105141656Y-86558184D01*
X105043053Y-86705754D01*
X104917554Y-86831253D01*
X104769984Y-86929856D01*
X104606012Y-86997776D01*
X104456712Y-87027473D01*
X104431942Y-87032400D01*
X104254458Y-87032400D01*
X104229688Y-87027473D01*
X104080388Y-86997776D01*
X103916416Y-86929856D01*
X103768846Y-86831253D01*
X103643347Y-86705754D01*
X103544744Y-86558184D01*
X103476824Y-86394212D01*
X103442200Y-86220141D01*
X103442200Y-86042659D01*
X103476824Y-85868588D01*
X103544744Y-85704616D01*
X103643347Y-85557046D01*
X103768846Y-85431547D01*
X103916416Y-85332944D01*
X104080388Y-85265024D01*
X104229688Y-85235327D01*
X104254458Y-85230400D01*
X104431942Y-85230400D01*
X104456712Y-85235327D01*
G37*
G36*
X113350800Y-86985600D02*
G01*
X112048800Y-86985600D01*
X112048800Y-85683600D01*
X113350800Y-85683600D01*
X113350800Y-86985600D01*
G37*
G36*
X145833312Y-83177927D02*
G01*
X145982612Y-83207624D01*
X146146584Y-83275544D01*
X146294154Y-83374147D01*
X146419653Y-83499646D01*
X146518256Y-83647216D01*
X146586176Y-83811188D01*
X146620800Y-83985259D01*
X146620800Y-84162741D01*
X146586176Y-84336812D01*
X146518256Y-84500784D01*
X146419653Y-84648354D01*
X146294154Y-84773853D01*
X146146584Y-84872456D01*
X145982612Y-84940376D01*
X145833312Y-84970073D01*
X145808542Y-84975000D01*
X145631058Y-84975000D01*
X145606288Y-84970073D01*
X145456988Y-84940376D01*
X145293016Y-84872456D01*
X145145446Y-84773853D01*
X145019947Y-84648354D01*
X144921344Y-84500784D01*
X144853424Y-84336812D01*
X144818800Y-84162741D01*
X144818800Y-83985259D01*
X144853424Y-83811188D01*
X144921344Y-83647216D01*
X145019947Y-83499646D01*
X145145446Y-83374147D01*
X145293016Y-83275544D01*
X145456988Y-83207624D01*
X145606288Y-83177927D01*
X145631058Y-83173000D01*
X145808542Y-83173000D01*
X145833312Y-83177927D01*
G37*
G36*
X125513312Y-83177927D02*
G01*
X125662612Y-83207624D01*
X125826584Y-83275544D01*
X125974154Y-83374147D01*
X126099653Y-83499646D01*
X126198256Y-83647216D01*
X126266176Y-83811188D01*
X126300800Y-83985259D01*
X126300800Y-84162741D01*
X126266176Y-84336812D01*
X126198256Y-84500784D01*
X126099653Y-84648354D01*
X125974154Y-84773853D01*
X125826584Y-84872456D01*
X125662612Y-84940376D01*
X125513312Y-84970073D01*
X125488542Y-84975000D01*
X125311058Y-84975000D01*
X125286288Y-84970073D01*
X125136988Y-84940376D01*
X124973016Y-84872456D01*
X124825446Y-84773853D01*
X124699947Y-84648354D01*
X124601344Y-84500784D01*
X124533424Y-84336812D01*
X124498800Y-84162741D01*
X124498800Y-83985259D01*
X124533424Y-83811188D01*
X124601344Y-83647216D01*
X124699947Y-83499646D01*
X124825446Y-83374147D01*
X124973016Y-83275544D01*
X125136988Y-83207624D01*
X125286288Y-83177927D01*
X125311058Y-83173000D01*
X125488542Y-83173000D01*
X125513312Y-83177927D01*
G37*
G36*
X104456712Y-82695327D02*
G01*
X104606012Y-82725024D01*
X104769984Y-82792944D01*
X104917554Y-82891547D01*
X105043053Y-83017046D01*
X105141656Y-83164616D01*
X105209576Y-83328588D01*
X105244200Y-83502659D01*
X105244200Y-83680141D01*
X105209576Y-83854212D01*
X105141656Y-84018184D01*
X105043053Y-84165754D01*
X104917554Y-84291253D01*
X104769984Y-84389856D01*
X104606012Y-84457776D01*
X104456712Y-84487473D01*
X104431942Y-84492400D01*
X104254458Y-84492400D01*
X104229688Y-84487473D01*
X104080388Y-84457776D01*
X103916416Y-84389856D01*
X103768846Y-84291253D01*
X103643347Y-84165754D01*
X103544744Y-84018184D01*
X103476824Y-83854212D01*
X103442200Y-83680141D01*
X103442200Y-83502659D01*
X103476824Y-83328588D01*
X103544744Y-83164616D01*
X103643347Y-83017046D01*
X103768846Y-82891547D01*
X103916416Y-82792944D01*
X104080388Y-82725024D01*
X104229688Y-82695327D01*
X104254458Y-82690400D01*
X104431942Y-82690400D01*
X104456712Y-82695327D01*
G37*
G36*
X113888199Y-84256600D02*
G01*
X111613001Y-84256600D01*
X111613001Y-83586600D01*
X113888199Y-83586600D01*
X113888199Y-84256600D01*
G37*
G36*
X118612599Y-84256600D02*
G01*
X116337401Y-84256600D01*
X116337401Y-83586600D01*
X118612599Y-83586600D01*
X118612599Y-84256600D01*
G37*
G36*
X165277142Y-82218242D02*
G01*
X165425101Y-82279529D01*
X165558255Y-82368499D01*
X165671501Y-82481745D01*
X165760471Y-82614899D01*
X165821758Y-82762858D01*
X165853000Y-82919925D01*
X165853000Y-83080075D01*
X165821758Y-83237142D01*
X165760471Y-83385101D01*
X165671501Y-83518255D01*
X165558255Y-83631501D01*
X165425101Y-83720471D01*
X165277142Y-83781758D01*
X165120075Y-83813000D01*
X164959925Y-83813000D01*
X164802858Y-83781758D01*
X164654899Y-83720471D01*
X164521745Y-83631501D01*
X164408499Y-83518255D01*
X164319529Y-83385101D01*
X164258242Y-83237142D01*
X164227000Y-83080075D01*
X164227000Y-82919925D01*
X164258242Y-82762858D01*
X164319529Y-82614899D01*
X164408499Y-82481745D01*
X164521745Y-82368499D01*
X164654899Y-82279529D01*
X164802858Y-82218242D01*
X164959925Y-82187000D01*
X165120075Y-82187000D01*
X165277142Y-82218242D01*
G37*
G36*
X160197142Y-82218242D02*
G01*
X160345101Y-82279529D01*
X160478255Y-82368499D01*
X160591501Y-82481745D01*
X160680471Y-82614899D01*
X160741758Y-82762858D01*
X160773000Y-82919925D01*
X160773000Y-83080075D01*
X160741758Y-83237142D01*
X160680471Y-83385101D01*
X160591501Y-83518255D01*
X160478255Y-83631501D01*
X160345101Y-83720471D01*
X160197142Y-83781758D01*
X160040075Y-83813000D01*
X159879925Y-83813000D01*
X159722858Y-83781758D01*
X159574899Y-83720471D01*
X159441745Y-83631501D01*
X159328499Y-83518255D01*
X159239529Y-83385101D01*
X159178242Y-83237142D01*
X159147000Y-83080075D01*
X159147000Y-82919925D01*
X159178242Y-82762858D01*
X159239529Y-82614899D01*
X159328499Y-82481745D01*
X159441745Y-82368499D01*
X159574899Y-82279529D01*
X159722858Y-82218242D01*
X159879925Y-82187000D01*
X160040075Y-82187000D01*
X160197142Y-82218242D01*
G37*
G36*
X162737142Y-82218242D02*
G01*
X162885101Y-82279529D01*
X163018255Y-82368499D01*
X163131501Y-82481745D01*
X163220471Y-82614899D01*
X163281758Y-82762858D01*
X163313000Y-82919925D01*
X163313000Y-83080075D01*
X163281758Y-83237142D01*
X163220471Y-83385101D01*
X163131501Y-83518255D01*
X163018255Y-83631501D01*
X162885101Y-83720471D01*
X162737142Y-83781758D01*
X162580075Y-83813000D01*
X162419925Y-83813000D01*
X162262858Y-83781758D01*
X162114899Y-83720471D01*
X161981745Y-83631501D01*
X161868499Y-83518255D01*
X161779529Y-83385101D01*
X161718242Y-83237142D01*
X161687000Y-83080075D01*
X161687000Y-82919925D01*
X161718242Y-82762858D01*
X161779529Y-82614899D01*
X161868499Y-82481745D01*
X161981745Y-82368499D01*
X162114899Y-82279529D01*
X162262858Y-82218242D01*
X162419925Y-82187000D01*
X162580075Y-82187000D01*
X162737142Y-82218242D01*
G37*
G36*
X113888199Y-82986600D02*
G01*
X111613001Y-82986600D01*
X111613001Y-82316600D01*
X113888199Y-82316600D01*
X113888199Y-82986600D01*
G37*
G36*
X118612599Y-82986600D02*
G01*
X116337401Y-82986600D01*
X116337401Y-82316600D01*
X118612599Y-82316600D01*
X118612599Y-82986600D01*
G37*
G36*
X146620800Y-82435000D02*
G01*
X144818800Y-82435000D01*
X144818800Y-80633000D01*
X146620800Y-80633000D01*
X146620800Y-82435000D01*
G37*
G36*
X125513312Y-80637927D02*
G01*
X125662612Y-80667624D01*
X125826584Y-80735544D01*
X125974154Y-80834147D01*
X126099653Y-80959646D01*
X126198256Y-81107216D01*
X126266176Y-81271188D01*
X126300800Y-81445259D01*
X126300800Y-81622741D01*
X126266176Y-81796812D01*
X126198256Y-81960784D01*
X126099653Y-82108354D01*
X125974154Y-82233853D01*
X125826584Y-82332456D01*
X125662612Y-82400376D01*
X125513312Y-82430073D01*
X125488542Y-82435000D01*
X125311058Y-82435000D01*
X125286288Y-82430073D01*
X125136988Y-82400376D01*
X124973016Y-82332456D01*
X124825446Y-82233853D01*
X124699947Y-82108354D01*
X124601344Y-81960784D01*
X124533424Y-81796812D01*
X124498800Y-81622741D01*
X124498800Y-81445259D01*
X124533424Y-81271188D01*
X124601344Y-81107216D01*
X124699947Y-80959646D01*
X124825446Y-80834147D01*
X124973016Y-80735544D01*
X125136988Y-80667624D01*
X125286288Y-80637927D01*
X125311058Y-80633000D01*
X125488542Y-80633000D01*
X125513312Y-80637927D01*
G37*
G36*
X104456712Y-80155327D02*
G01*
X104606012Y-80185024D01*
X104769984Y-80252944D01*
X104917554Y-80351547D01*
X105043053Y-80477046D01*
X105141656Y-80624616D01*
X105209576Y-80788588D01*
X105244200Y-80962659D01*
X105244200Y-81140141D01*
X105209576Y-81314212D01*
X105141656Y-81478184D01*
X105043053Y-81625754D01*
X104917554Y-81751253D01*
X104769984Y-81849856D01*
X104606012Y-81917776D01*
X104456712Y-81947473D01*
X104431942Y-81952400D01*
X104254458Y-81952400D01*
X104229688Y-81947473D01*
X104080388Y-81917776D01*
X103916416Y-81849856D01*
X103768846Y-81751253D01*
X103643347Y-81625754D01*
X103544744Y-81478184D01*
X103476824Y-81314212D01*
X103442200Y-81140141D01*
X103442200Y-80962659D01*
X103476824Y-80788588D01*
X103544744Y-80624616D01*
X103643347Y-80477046D01*
X103768846Y-80351547D01*
X103916416Y-80252944D01*
X104080388Y-80185024D01*
X104229688Y-80155327D01*
X104254458Y-80150400D01*
X104431942Y-80150400D01*
X104456712Y-80155327D01*
G37*
G36*
X118612599Y-81716600D02*
G01*
X116337401Y-81716600D01*
X116337401Y-81046600D01*
X118612599Y-81046600D01*
X118612599Y-81716600D01*
G37*
G36*
X113888199Y-81716600D02*
G01*
X111613001Y-81716600D01*
X111613001Y-81046600D01*
X113888199Y-81046600D01*
X113888199Y-81716600D01*
G37*
G36*
X118612599Y-80446600D02*
G01*
X116337401Y-80446600D01*
X116337401Y-79776600D01*
X118612599Y-79776600D01*
X118612599Y-80446600D01*
G37*
G36*
X113888199Y-80446600D02*
G01*
X111613001Y-80446600D01*
X111613001Y-79776600D01*
X113888199Y-79776600D01*
X113888199Y-80446600D01*
G37*
G36*
X125513312Y-78097927D02*
G01*
X125662612Y-78127624D01*
X125826584Y-78195544D01*
X125974154Y-78294147D01*
X126099653Y-78419646D01*
X126198256Y-78567216D01*
X126266176Y-78731188D01*
X126300800Y-78905259D01*
X126300800Y-79082741D01*
X126266176Y-79256812D01*
X126198256Y-79420784D01*
X126099653Y-79568354D01*
X125974154Y-79693853D01*
X125826584Y-79792456D01*
X125662612Y-79860376D01*
X125513312Y-79890073D01*
X125488542Y-79895000D01*
X125311058Y-79895000D01*
X125286288Y-79890073D01*
X125136988Y-79860376D01*
X124973016Y-79792456D01*
X124825446Y-79693853D01*
X124699947Y-79568354D01*
X124601344Y-79420784D01*
X124533424Y-79256812D01*
X124498800Y-79082741D01*
X124498800Y-78905259D01*
X124533424Y-78731188D01*
X124601344Y-78567216D01*
X124699947Y-78419646D01*
X124825446Y-78294147D01*
X124973016Y-78195544D01*
X125136988Y-78127624D01*
X125286288Y-78097927D01*
X125311058Y-78093000D01*
X125488542Y-78093000D01*
X125513312Y-78097927D01*
G37*
G36*
X163219059Y-78277860D02*
G01*
X163355732Y-78334472D01*
X163478735Y-78416660D01*
X163583340Y-78521265D01*
X163636043Y-78600141D01*
X163665529Y-78644270D01*
X163722140Y-78780941D01*
X163751000Y-78926032D01*
X163751000Y-79073968D01*
X163723693Y-79211252D01*
X163722140Y-79219059D01*
X163665528Y-79355732D01*
X163583340Y-79478735D01*
X163478735Y-79583340D01*
X163355732Y-79665528D01*
X163355731Y-79665529D01*
X163355730Y-79665529D01*
X163219059Y-79722140D01*
X163073968Y-79751000D01*
X162926032Y-79751000D01*
X162780941Y-79722140D01*
X162644270Y-79665529D01*
X162644269Y-79665529D01*
X162644268Y-79665528D01*
X162521265Y-79583340D01*
X162416660Y-79478735D01*
X162334472Y-79355732D01*
X162277860Y-79219059D01*
X162276307Y-79211252D01*
X162249000Y-79073968D01*
X162249000Y-78926032D01*
X162277860Y-78780941D01*
X162334471Y-78644270D01*
X162363957Y-78600141D01*
X162416660Y-78521265D01*
X162521265Y-78416660D01*
X162644268Y-78334472D01*
X162780941Y-78277860D01*
X162926032Y-78249000D01*
X163073968Y-78249000D01*
X163219059Y-78277860D01*
G37*
G36*
X160219059Y-78277860D02*
G01*
X160355732Y-78334472D01*
X160478735Y-78416660D01*
X160583340Y-78521265D01*
X160636043Y-78600141D01*
X160665529Y-78644270D01*
X160722140Y-78780941D01*
X160751000Y-78926032D01*
X160751000Y-79073968D01*
X160723693Y-79211252D01*
X160722140Y-79219059D01*
X160665528Y-79355732D01*
X160583340Y-79478735D01*
X160478735Y-79583340D01*
X160355732Y-79665528D01*
X160355731Y-79665529D01*
X160355730Y-79665529D01*
X160219059Y-79722140D01*
X160073968Y-79751000D01*
X159926032Y-79751000D01*
X159780941Y-79722140D01*
X159644270Y-79665529D01*
X159644269Y-79665529D01*
X159644268Y-79665528D01*
X159521265Y-79583340D01*
X159416660Y-79478735D01*
X159334472Y-79355732D01*
X159277860Y-79219059D01*
X159276307Y-79211252D01*
X159249000Y-79073968D01*
X159249000Y-78926032D01*
X159277860Y-78780941D01*
X159334471Y-78644270D01*
X159363957Y-78600141D01*
X159416660Y-78521265D01*
X159521265Y-78416660D01*
X159644268Y-78334472D01*
X159780941Y-78277860D01*
X159926032Y-78249000D01*
X160073968Y-78249000D01*
X160219059Y-78277860D01*
G37*
G36*
X155139059Y-78277860D02*
G01*
X155275732Y-78334472D01*
X155398735Y-78416660D01*
X155503340Y-78521265D01*
X155556043Y-78600141D01*
X155585529Y-78644270D01*
X155642140Y-78780941D01*
X155671000Y-78926032D01*
X155671000Y-79073968D01*
X155643693Y-79211252D01*
X155642140Y-79219059D01*
X155585528Y-79355732D01*
X155503340Y-79478735D01*
X155398735Y-79583340D01*
X155275732Y-79665528D01*
X155275731Y-79665529D01*
X155275730Y-79665529D01*
X155139059Y-79722140D01*
X154993968Y-79751000D01*
X154846032Y-79751000D01*
X154700941Y-79722140D01*
X154564270Y-79665529D01*
X154564269Y-79665529D01*
X154564268Y-79665528D01*
X154441265Y-79583340D01*
X154336660Y-79478735D01*
X154254472Y-79355732D01*
X154197860Y-79219059D01*
X154196307Y-79211252D01*
X154169000Y-79073968D01*
X154169000Y-78926032D01*
X154197860Y-78780941D01*
X154254471Y-78644270D01*
X154283957Y-78600141D01*
X154336660Y-78521265D01*
X154441265Y-78416660D01*
X154564268Y-78334472D01*
X154700941Y-78277860D01*
X154846032Y-78249000D01*
X154993968Y-78249000D01*
X155139059Y-78277860D01*
G37*
G36*
X168299059Y-78277860D02*
G01*
X168435732Y-78334472D01*
X168558735Y-78416660D01*
X168663340Y-78521265D01*
X168716043Y-78600141D01*
X168745529Y-78644270D01*
X168802140Y-78780941D01*
X168831000Y-78926032D01*
X168831000Y-79073968D01*
X168803693Y-79211252D01*
X168802140Y-79219059D01*
X168745528Y-79355732D01*
X168663340Y-79478735D01*
X168558735Y-79583340D01*
X168435732Y-79665528D01*
X168435731Y-79665529D01*
X168435730Y-79665529D01*
X168299059Y-79722140D01*
X168153968Y-79751000D01*
X168006032Y-79751000D01*
X167860941Y-79722140D01*
X167724270Y-79665529D01*
X167724269Y-79665529D01*
X167724268Y-79665528D01*
X167601265Y-79583340D01*
X167496660Y-79478735D01*
X167414472Y-79355732D01*
X167357860Y-79219059D01*
X167356307Y-79211252D01*
X167329000Y-79073968D01*
X167329000Y-78926032D01*
X167357860Y-78780941D01*
X167414471Y-78644270D01*
X167443957Y-78600141D01*
X167496660Y-78521265D01*
X167601265Y-78416660D01*
X167724268Y-78334472D01*
X167860941Y-78277860D01*
X168006032Y-78249000D01*
X168153968Y-78249000D01*
X168299059Y-78277860D01*
G37*
G36*
X104456712Y-77615327D02*
G01*
X104606012Y-77645024D01*
X104769984Y-77712944D01*
X104917554Y-77811547D01*
X105043053Y-77937046D01*
X105141656Y-78084616D01*
X105209576Y-78248588D01*
X105244200Y-78422659D01*
X105244200Y-78600141D01*
X105209576Y-78774212D01*
X105141656Y-78938184D01*
X105043053Y-79085754D01*
X104917554Y-79211253D01*
X104769984Y-79309856D01*
X104606012Y-79377776D01*
X104456712Y-79407473D01*
X104431942Y-79412400D01*
X104254458Y-79412400D01*
X104229688Y-79407473D01*
X104080388Y-79377776D01*
X103916416Y-79309856D01*
X103768846Y-79211253D01*
X103643347Y-79085754D01*
X103544744Y-78938184D01*
X103476824Y-78774212D01*
X103442200Y-78600141D01*
X103442200Y-78422659D01*
X103476824Y-78248588D01*
X103544744Y-78084616D01*
X103643347Y-77937046D01*
X103768846Y-77811547D01*
X103916416Y-77712944D01*
X104080388Y-77645024D01*
X104229688Y-77615327D01*
X104254458Y-77610400D01*
X104431942Y-77610400D01*
X104456712Y-77615327D01*
G37*
G36*
X118612599Y-79176600D02*
G01*
X116337401Y-79176600D01*
X116337401Y-78506600D01*
X118612599Y-78506600D01*
X118612599Y-79176600D01*
G37*
G36*
X113888199Y-79176600D02*
G01*
X111613001Y-79176600D01*
X111613001Y-78506600D01*
X113888199Y-78506600D01*
X113888199Y-79176600D01*
G37*
G36*
X118612599Y-77906600D02*
G01*
X116337401Y-77906600D01*
X116337401Y-77236600D01*
X118612599Y-77236600D01*
X118612599Y-77906600D01*
G37*
G36*
X113888199Y-77906600D02*
G01*
X111613001Y-77906600D01*
X111613001Y-77236600D01*
X113888199Y-77236600D01*
X113888199Y-77906600D01*
G37*
G36*
X125513312Y-75557927D02*
G01*
X125662612Y-75587624D01*
X125826584Y-75655544D01*
X125974154Y-75754147D01*
X126099653Y-75879646D01*
X126198256Y-76027216D01*
X126266176Y-76191188D01*
X126300800Y-76365259D01*
X126300800Y-76542741D01*
X126266176Y-76716812D01*
X126198256Y-76880784D01*
X126099653Y-77028354D01*
X125974154Y-77153853D01*
X125826584Y-77252456D01*
X125662612Y-77320376D01*
X125513312Y-77350073D01*
X125488542Y-77355000D01*
X125311058Y-77355000D01*
X125286288Y-77350073D01*
X125136988Y-77320376D01*
X124973016Y-77252456D01*
X124825446Y-77153853D01*
X124699947Y-77028354D01*
X124601344Y-76880784D01*
X124533424Y-76716812D01*
X124498800Y-76542741D01*
X124498800Y-76365259D01*
X124533424Y-76191188D01*
X124601344Y-76027216D01*
X124699947Y-75879646D01*
X124825446Y-75754147D01*
X124973016Y-75655544D01*
X125136988Y-75587624D01*
X125286288Y-75557927D01*
X125311058Y-75553000D01*
X125488542Y-75553000D01*
X125513312Y-75557927D01*
G37*
G36*
X104456712Y-75075327D02*
G01*
X104606012Y-75105024D01*
X104769984Y-75172944D01*
X104917554Y-75271547D01*
X105043053Y-75397046D01*
X105141656Y-75544616D01*
X105209576Y-75708588D01*
X105244200Y-75882659D01*
X105244200Y-76060141D01*
X105209576Y-76234212D01*
X105141656Y-76398184D01*
X105043053Y-76545754D01*
X104917554Y-76671253D01*
X104769984Y-76769856D01*
X104606012Y-76837776D01*
X104456712Y-76867473D01*
X104431942Y-76872400D01*
X104254458Y-76872400D01*
X104229688Y-76867473D01*
X104080388Y-76837776D01*
X103916416Y-76769856D01*
X103768846Y-76671253D01*
X103643347Y-76545754D01*
X103544744Y-76398184D01*
X103476824Y-76234212D01*
X103442200Y-76060141D01*
X103442200Y-75882659D01*
X103476824Y-75708588D01*
X103544744Y-75544616D01*
X103643347Y-75397046D01*
X103768846Y-75271547D01*
X103916416Y-75172944D01*
X104080388Y-75105024D01*
X104229688Y-75075327D01*
X104254458Y-75070400D01*
X104431942Y-75070400D01*
X104456712Y-75075327D01*
G37*
G36*
X118612599Y-76636600D02*
G01*
X116337401Y-76636600D01*
X116337401Y-75966600D01*
X118612599Y-75966600D01*
X118612599Y-76636600D01*
G37*
G36*
X113888199Y-76636600D02*
G01*
X111613001Y-76636600D01*
X111613001Y-75966600D01*
X113888199Y-75966600D01*
X113888199Y-76636600D01*
G37*
G36*
X171944600Y-75704000D02*
G01*
X170142600Y-75704000D01*
X170142600Y-73902000D01*
X171944600Y-73902000D01*
X171944600Y-75704000D01*
G37*
G36*
X118612599Y-75366600D02*
G01*
X116337401Y-75366600D01*
X116337401Y-74696600D01*
X118612599Y-74696600D01*
X118612599Y-75366600D01*
G37*
G36*
X113888199Y-75366600D02*
G01*
X111613001Y-75366600D01*
X111613001Y-74696600D01*
X113888199Y-74696600D01*
X113888199Y-75366600D01*
G37*
G36*
X125513312Y-73017927D02*
G01*
X125662612Y-73047624D01*
X125826584Y-73115544D01*
X125974154Y-73214147D01*
X126099653Y-73339646D01*
X126198256Y-73487216D01*
X126266176Y-73651188D01*
X126300800Y-73825259D01*
X126300800Y-74002741D01*
X126266176Y-74176812D01*
X126198256Y-74340784D01*
X126099653Y-74488354D01*
X125974154Y-74613853D01*
X125826584Y-74712456D01*
X125662612Y-74780376D01*
X125513312Y-74810073D01*
X125488542Y-74815000D01*
X125311058Y-74815000D01*
X125286288Y-74810073D01*
X125136988Y-74780376D01*
X124973016Y-74712456D01*
X124825446Y-74613853D01*
X124699947Y-74488354D01*
X124601344Y-74340784D01*
X124533424Y-74176812D01*
X124498800Y-74002741D01*
X124498800Y-73825259D01*
X124533424Y-73651188D01*
X124601344Y-73487216D01*
X124699947Y-73339646D01*
X124825446Y-73214147D01*
X124973016Y-73115544D01*
X125136988Y-73047624D01*
X125286288Y-73017927D01*
X125311058Y-73013000D01*
X125488542Y-73013000D01*
X125513312Y-73017927D01*
G37*
G36*
X149440112Y-72560727D02*
G01*
X149589412Y-72590424D01*
X149753384Y-72658344D01*
X149900954Y-72756947D01*
X150026453Y-72882446D01*
X150125056Y-73030016D01*
X150192976Y-73193988D01*
X150227600Y-73368059D01*
X150227600Y-73545541D01*
X150192976Y-73719612D01*
X150125056Y-73883584D01*
X150026453Y-74031154D01*
X149900954Y-74156653D01*
X149753384Y-74255256D01*
X149589412Y-74323176D01*
X149440112Y-74352873D01*
X149415342Y-74357800D01*
X149237858Y-74357800D01*
X149213088Y-74352873D01*
X149063788Y-74323176D01*
X148899816Y-74255256D01*
X148752246Y-74156653D01*
X148626747Y-74031154D01*
X148528144Y-73883584D01*
X148460224Y-73719612D01*
X148425600Y-73545541D01*
X148425600Y-73368059D01*
X148460224Y-73193988D01*
X148528144Y-73030016D01*
X148626747Y-72882446D01*
X148752246Y-72756947D01*
X148899816Y-72658344D01*
X149063788Y-72590424D01*
X149213088Y-72560727D01*
X149237858Y-72555800D01*
X149415342Y-72555800D01*
X149440112Y-72560727D01*
G37*
G36*
X152767600Y-74357800D02*
G01*
X150965600Y-74357800D01*
X150965600Y-72555800D01*
X152767600Y-72555800D01*
X152767600Y-74357800D01*
G37*
G36*
X126300800Y-72275000D02*
G01*
X124498800Y-72275000D01*
X124498800Y-70473000D01*
X126300800Y-70473000D01*
X126300800Y-72275000D01*
G37*
G36*
X171995400Y-71690800D02*
G01*
X170193400Y-71690800D01*
X170193400Y-69888800D01*
X171995400Y-69888800D01*
X171995400Y-71690800D01*
G37*
G36*
X170318433Y-63634893D02*
G01*
X170408657Y-63652839D01*
X170514267Y-63696585D01*
X170663621Y-63758449D01*
X170663622Y-63758450D01*
X170893086Y-63911772D01*
X171088228Y-64106914D01*
X171117386Y-64150553D01*
X171241551Y-64336379D01*
X171347161Y-64591344D01*
X171401000Y-64862012D01*
X171401000Y-65137988D01*
X171347161Y-65408656D01*
X171241551Y-65663621D01*
X171241550Y-65663622D01*
X171088228Y-65893086D01*
X170893086Y-66088228D01*
X170739763Y-66190675D01*
X170663621Y-66241551D01*
X170514267Y-66303415D01*
X170408657Y-66347161D01*
X170318433Y-66365107D01*
X170137988Y-66401000D01*
X169862012Y-66401000D01*
X169681567Y-66365107D01*
X169591343Y-66347161D01*
X169485733Y-66303415D01*
X169336379Y-66241551D01*
X169260237Y-66190675D01*
X169106914Y-66088228D01*
X168911772Y-65893086D01*
X168758450Y-65663622D01*
X168758449Y-65663621D01*
X168652839Y-65408656D01*
X168599000Y-65137988D01*
X168599000Y-64862012D01*
X168652839Y-64591344D01*
X168758449Y-64336379D01*
X168882614Y-64150553D01*
X168911772Y-64106914D01*
X169106914Y-63911772D01*
X169336378Y-63758450D01*
X169336379Y-63758449D01*
X169485733Y-63696585D01*
X169591343Y-63652839D01*
X169681567Y-63634893D01*
X169862012Y-63599000D01*
X170137988Y-63599000D01*
X170318433Y-63634893D01*
G37*
G36*
X102318433Y-63634893D02*
G01*
X102408657Y-63652839D01*
X102514267Y-63696585D01*
X102663621Y-63758449D01*
X102663622Y-63758450D01*
X102893086Y-63911772D01*
X103088228Y-64106914D01*
X103117386Y-64150553D01*
X103241551Y-64336379D01*
X103347161Y-64591344D01*
X103401000Y-64862012D01*
X103401000Y-65137988D01*
X103347161Y-65408656D01*
X103241551Y-65663621D01*
X103241550Y-65663622D01*
X103088228Y-65893086D01*
X102893086Y-66088228D01*
X102739763Y-66190675D01*
X102663621Y-66241551D01*
X102514267Y-66303415D01*
X102408657Y-66347161D01*
X102318433Y-66365107D01*
X102137988Y-66401000D01*
X101862012Y-66401000D01*
X101681567Y-66365107D01*
X101591343Y-66347161D01*
X101485733Y-66303415D01*
X101336379Y-66241551D01*
X101260237Y-66190675D01*
X101106914Y-66088228D01*
X100911772Y-65893086D01*
X100758450Y-65663622D01*
X100758449Y-65663621D01*
X100652839Y-65408656D01*
X100599000Y-65137988D01*
X100599000Y-64862012D01*
X100652839Y-64591344D01*
X100758449Y-64336379D01*
X100882614Y-64150553D01*
X100911772Y-64106914D01*
X101106914Y-63911772D01*
X101336378Y-63758450D01*
X101336379Y-63758449D01*
X101485733Y-63696585D01*
X101591343Y-63652839D01*
X101681567Y-63634893D01*
X101862012Y-63599000D01*
X102137988Y-63599000D01*
X102318433Y-63634893D01*
G37*
G36*
X112584712Y-62680127D02*
G01*
X112734012Y-62709824D01*
X112897984Y-62777744D01*
X113045554Y-62876347D01*
X113171053Y-63001846D01*
X113269656Y-63149416D01*
X113337576Y-63313388D01*
X113372200Y-63487459D01*
X113372200Y-63664941D01*
X113337576Y-63839012D01*
X113269656Y-64002984D01*
X113171053Y-64150554D01*
X113045554Y-64276053D01*
X112897984Y-64374656D01*
X112734012Y-64442576D01*
X112584712Y-64472273D01*
X112559942Y-64477200D01*
X112382458Y-64477200D01*
X112357688Y-64472273D01*
X112208388Y-64442576D01*
X112044416Y-64374656D01*
X111896846Y-64276053D01*
X111771347Y-64150554D01*
X111672744Y-64002984D01*
X111604824Y-63839012D01*
X111570200Y-63664941D01*
X111570200Y-63487459D01*
X111604824Y-63313388D01*
X111672744Y-63149416D01*
X111771347Y-63001846D01*
X111896846Y-62876347D01*
X112044416Y-62777744D01*
X112208388Y-62709824D01*
X112357688Y-62680127D01*
X112382458Y-62675200D01*
X112559942Y-62675200D01*
X112584712Y-62680127D01*
G37*
G36*
X108292200Y-64477200D02*
G01*
X106490200Y-64477200D01*
X106490200Y-62675200D01*
X108292200Y-62675200D01*
X108292200Y-64477200D01*
G37*
G36*
X115124712Y-62680127D02*
G01*
X115274012Y-62709824D01*
X115437984Y-62777744D01*
X115585554Y-62876347D01*
X115711053Y-63001846D01*
X115809656Y-63149416D01*
X115877576Y-63313388D01*
X115912200Y-63487459D01*
X115912200Y-63664941D01*
X115877576Y-63839012D01*
X115809656Y-64002984D01*
X115711053Y-64150554D01*
X115585554Y-64276053D01*
X115437984Y-64374656D01*
X115274012Y-64442576D01*
X115124712Y-64472273D01*
X115099942Y-64477200D01*
X114922458Y-64477200D01*
X114897688Y-64472273D01*
X114748388Y-64442576D01*
X114584416Y-64374656D01*
X114436846Y-64276053D01*
X114311347Y-64150554D01*
X114212744Y-64002984D01*
X114144824Y-63839012D01*
X114110200Y-63664941D01*
X114110200Y-63487459D01*
X114144824Y-63313388D01*
X114212744Y-63149416D01*
X114311347Y-63001846D01*
X114436846Y-62876347D01*
X114584416Y-62777744D01*
X114748388Y-62709824D01*
X114897688Y-62680127D01*
X114922458Y-62675200D01*
X115099942Y-62675200D01*
X115124712Y-62680127D01*
G37*
G36*
X120204712Y-62680127D02*
G01*
X120354012Y-62709824D01*
X120517984Y-62777744D01*
X120665554Y-62876347D01*
X120791053Y-63001846D01*
X120889656Y-63149416D01*
X120957576Y-63313388D01*
X120992200Y-63487459D01*
X120992200Y-63664941D01*
X120957576Y-63839012D01*
X120889656Y-64002984D01*
X120791053Y-64150554D01*
X120665554Y-64276053D01*
X120517984Y-64374656D01*
X120354012Y-64442576D01*
X120204712Y-64472273D01*
X120179942Y-64477200D01*
X120002458Y-64477200D01*
X119977688Y-64472273D01*
X119828388Y-64442576D01*
X119664416Y-64374656D01*
X119516846Y-64276053D01*
X119391347Y-64150554D01*
X119292744Y-64002984D01*
X119224824Y-63839012D01*
X119190200Y-63664941D01*
X119190200Y-63487459D01*
X119224824Y-63313388D01*
X119292744Y-63149416D01*
X119391347Y-63001846D01*
X119516846Y-62876347D01*
X119664416Y-62777744D01*
X119828388Y-62709824D01*
X119977688Y-62680127D01*
X120002458Y-62675200D01*
X120179942Y-62675200D01*
X120204712Y-62680127D01*
G37*
G36*
X110044712Y-62680127D02*
G01*
X110194012Y-62709824D01*
X110357984Y-62777744D01*
X110505554Y-62876347D01*
X110631053Y-63001846D01*
X110729656Y-63149416D01*
X110797576Y-63313388D01*
X110832200Y-63487459D01*
X110832200Y-63664941D01*
X110797576Y-63839012D01*
X110729656Y-64002984D01*
X110631053Y-64150554D01*
X110505554Y-64276053D01*
X110357984Y-64374656D01*
X110194012Y-64442576D01*
X110044712Y-64472273D01*
X110019942Y-64477200D01*
X109842458Y-64477200D01*
X109817688Y-64472273D01*
X109668388Y-64442576D01*
X109504416Y-64374656D01*
X109356846Y-64276053D01*
X109231347Y-64150554D01*
X109132744Y-64002984D01*
X109064824Y-63839012D01*
X109030200Y-63664941D01*
X109030200Y-63487459D01*
X109064824Y-63313388D01*
X109132744Y-63149416D01*
X109231347Y-63001846D01*
X109356846Y-62876347D01*
X109504416Y-62777744D01*
X109668388Y-62709824D01*
X109817688Y-62680127D01*
X109842458Y-62675200D01*
X110019942Y-62675200D01*
X110044712Y-62680127D01*
G37*
G36*
X117664712Y-62680127D02*
G01*
X117814012Y-62709824D01*
X117977984Y-62777744D01*
X118125554Y-62876347D01*
X118251053Y-63001846D01*
X118349656Y-63149416D01*
X118417576Y-63313388D01*
X118452200Y-63487459D01*
X118452200Y-63664941D01*
X118417576Y-63839012D01*
X118349656Y-64002984D01*
X118251053Y-64150554D01*
X118125554Y-64276053D01*
X117977984Y-64374656D01*
X117814012Y-64442576D01*
X117664712Y-64472273D01*
X117639942Y-64477200D01*
X117462458Y-64477200D01*
X117437688Y-64472273D01*
X117288388Y-64442576D01*
X117124416Y-64374656D01*
X116976846Y-64276053D01*
X116851347Y-64150554D01*
X116752744Y-64002984D01*
X116684824Y-63839012D01*
X116650200Y-63664941D01*
X116650200Y-63487459D01*
X116684824Y-63313388D01*
X116752744Y-63149416D01*
X116851347Y-63001846D01*
X116976846Y-62876347D01*
X117124416Y-62777744D01*
X117288388Y-62709824D01*
X117437688Y-62680127D01*
X117462458Y-62675200D01*
X117639942Y-62675200D01*
X117664712Y-62680127D01*
G37*
G36*
X150659312Y-62235627D02*
G01*
X150808612Y-62265324D01*
X150972584Y-62333244D01*
X151120154Y-62431847D01*
X151245653Y-62557346D01*
X151344256Y-62704916D01*
X151412176Y-62868888D01*
X151446800Y-63042959D01*
X151446800Y-63220441D01*
X151412176Y-63394512D01*
X151344256Y-63558484D01*
X151245653Y-63706054D01*
X151120154Y-63831553D01*
X150972584Y-63930156D01*
X150808612Y-63998076D01*
X150659312Y-64027773D01*
X150634542Y-64032700D01*
X150457058Y-64032700D01*
X150432288Y-64027773D01*
X150282988Y-63998076D01*
X150119016Y-63930156D01*
X149971446Y-63831553D01*
X149845947Y-63706054D01*
X149747344Y-63558484D01*
X149679424Y-63394512D01*
X149644800Y-63220441D01*
X149644800Y-63042959D01*
X149679424Y-62868888D01*
X149747344Y-62704916D01*
X149845947Y-62557346D01*
X149971446Y-62431847D01*
X150119016Y-62333244D01*
X150282988Y-62265324D01*
X150432288Y-62235627D01*
X150457058Y-62230700D01*
X150634542Y-62230700D01*
X150659312Y-62235627D01*
G37*
G36*
X163359312Y-62235627D02*
G01*
X163508612Y-62265324D01*
X163672584Y-62333244D01*
X163820154Y-62431847D01*
X163945653Y-62557346D01*
X164044256Y-62704916D01*
X164112176Y-62868888D01*
X164146800Y-63042959D01*
X164146800Y-63220441D01*
X164112176Y-63394512D01*
X164044256Y-63558484D01*
X163945653Y-63706054D01*
X163820154Y-63831553D01*
X163672584Y-63930156D01*
X163508612Y-63998076D01*
X163359312Y-64027773D01*
X163334542Y-64032700D01*
X163157058Y-64032700D01*
X163132288Y-64027773D01*
X162982988Y-63998076D01*
X162819016Y-63930156D01*
X162671446Y-63831553D01*
X162545947Y-63706054D01*
X162447344Y-63558484D01*
X162379424Y-63394512D01*
X162344800Y-63220441D01*
X162344800Y-63042959D01*
X162379424Y-62868888D01*
X162447344Y-62704916D01*
X162545947Y-62557346D01*
X162671446Y-62431847D01*
X162819016Y-62333244D01*
X162982988Y-62265324D01*
X163132288Y-62235627D01*
X163157058Y-62230700D01*
X163334542Y-62230700D01*
X163359312Y-62235627D01*
G37*
G36*
X160819312Y-62235627D02*
G01*
X160968612Y-62265324D01*
X161132584Y-62333244D01*
X161280154Y-62431847D01*
X161405653Y-62557346D01*
X161504256Y-62704916D01*
X161572176Y-62868888D01*
X161606800Y-63042959D01*
X161606800Y-63220441D01*
X161572176Y-63394512D01*
X161504256Y-63558484D01*
X161405653Y-63706054D01*
X161280154Y-63831553D01*
X161132584Y-63930156D01*
X160968612Y-63998076D01*
X160819312Y-64027773D01*
X160794542Y-64032700D01*
X160617058Y-64032700D01*
X160592288Y-64027773D01*
X160442988Y-63998076D01*
X160279016Y-63930156D01*
X160131446Y-63831553D01*
X160005947Y-63706054D01*
X159907344Y-63558484D01*
X159839424Y-63394512D01*
X159804800Y-63220441D01*
X159804800Y-63042959D01*
X159839424Y-62868888D01*
X159907344Y-62704916D01*
X160005947Y-62557346D01*
X160131446Y-62431847D01*
X160279016Y-62333244D01*
X160442988Y-62265324D01*
X160592288Y-62235627D01*
X160617058Y-62230700D01*
X160794542Y-62230700D01*
X160819312Y-62235627D01*
G37*
G36*
X158279312Y-62235627D02*
G01*
X158428612Y-62265324D01*
X158592584Y-62333244D01*
X158740154Y-62431847D01*
X158865653Y-62557346D01*
X158964256Y-62704916D01*
X159032176Y-62868888D01*
X159066800Y-63042959D01*
X159066800Y-63220441D01*
X159032176Y-63394512D01*
X158964256Y-63558484D01*
X158865653Y-63706054D01*
X158740154Y-63831553D01*
X158592584Y-63930156D01*
X158428612Y-63998076D01*
X158279312Y-64027773D01*
X158254542Y-64032700D01*
X158077058Y-64032700D01*
X158052288Y-64027773D01*
X157902988Y-63998076D01*
X157739016Y-63930156D01*
X157591446Y-63831553D01*
X157465947Y-63706054D01*
X157367344Y-63558484D01*
X157299424Y-63394512D01*
X157264800Y-63220441D01*
X157264800Y-63042959D01*
X157299424Y-62868888D01*
X157367344Y-62704916D01*
X157465947Y-62557346D01*
X157591446Y-62431847D01*
X157739016Y-62333244D01*
X157902988Y-62265324D01*
X158052288Y-62235627D01*
X158077058Y-62230700D01*
X158254542Y-62230700D01*
X158279312Y-62235627D01*
G37*
G36*
X155739312Y-62235627D02*
G01*
X155888612Y-62265324D01*
X156052584Y-62333244D01*
X156200154Y-62431847D01*
X156325653Y-62557346D01*
X156424256Y-62704916D01*
X156492176Y-62868888D01*
X156526800Y-63042959D01*
X156526800Y-63220441D01*
X156492176Y-63394512D01*
X156424256Y-63558484D01*
X156325653Y-63706054D01*
X156200154Y-63831553D01*
X156052584Y-63930156D01*
X155888612Y-63998076D01*
X155739312Y-64027773D01*
X155714542Y-64032700D01*
X155537058Y-64032700D01*
X155512288Y-64027773D01*
X155362988Y-63998076D01*
X155199016Y-63930156D01*
X155051446Y-63831553D01*
X154925947Y-63706054D01*
X154827344Y-63558484D01*
X154759424Y-63394512D01*
X154724800Y-63220441D01*
X154724800Y-63042959D01*
X154759424Y-62868888D01*
X154827344Y-62704916D01*
X154925947Y-62557346D01*
X155051446Y-62431847D01*
X155199016Y-62333244D01*
X155362988Y-62265324D01*
X155512288Y-62235627D01*
X155537058Y-62230700D01*
X155714542Y-62230700D01*
X155739312Y-62235627D01*
G37*
G36*
X153199312Y-62235627D02*
G01*
X153348612Y-62265324D01*
X153512584Y-62333244D01*
X153660154Y-62431847D01*
X153785653Y-62557346D01*
X153884256Y-62704916D01*
X153952176Y-62868888D01*
X153986800Y-63042959D01*
X153986800Y-63220441D01*
X153952176Y-63394512D01*
X153884256Y-63558484D01*
X153785653Y-63706054D01*
X153660154Y-63831553D01*
X153512584Y-63930156D01*
X153348612Y-63998076D01*
X153199312Y-64027773D01*
X153174542Y-64032700D01*
X152997058Y-64032700D01*
X152972288Y-64027773D01*
X152822988Y-63998076D01*
X152659016Y-63930156D01*
X152511446Y-63831553D01*
X152385947Y-63706054D01*
X152287344Y-63558484D01*
X152219424Y-63394512D01*
X152184800Y-63220441D01*
X152184800Y-63042959D01*
X152219424Y-62868888D01*
X152287344Y-62704916D01*
X152385947Y-62557346D01*
X152511446Y-62431847D01*
X152659016Y-62333244D01*
X152822988Y-62265324D01*
X152972288Y-62235627D01*
X152997058Y-62230700D01*
X153174542Y-62230700D01*
X153199312Y-62235627D01*
G37*
G36*
X146366800Y-64032700D02*
G01*
X144564800Y-64032700D01*
X144564800Y-62230700D01*
X146366800Y-62230700D01*
X146366800Y-64032700D01*
G37*
G36*
X148119312Y-62235627D02*
G01*
X148268612Y-62265324D01*
X148432584Y-62333244D01*
X148580154Y-62431847D01*
X148705653Y-62557346D01*
X148804256Y-62704916D01*
X148872176Y-62868888D01*
X148906800Y-63042959D01*
X148906800Y-63220441D01*
X148872176Y-63394512D01*
X148804256Y-63558484D01*
X148705653Y-63706054D01*
X148580154Y-63831553D01*
X148432584Y-63930156D01*
X148268612Y-63998076D01*
X148119312Y-64027773D01*
X148094542Y-64032700D01*
X147917058Y-64032700D01*
X147892288Y-64027773D01*
X147742988Y-63998076D01*
X147579016Y-63930156D01*
X147431446Y-63831553D01*
X147305947Y-63706054D01*
X147207344Y-63558484D01*
X147139424Y-63394512D01*
X147104800Y-63220441D01*
X147104800Y-63042959D01*
X147139424Y-62868888D01*
X147207344Y-62704916D01*
X147305947Y-62557346D01*
X147431446Y-62431847D01*
X147579016Y-62333244D01*
X147742988Y-62265324D01*
X147892288Y-62235627D01*
X147917058Y-62230700D01*
X148094542Y-62230700D01*
X148119312Y-62235627D01*
G37*
M02*
