M48
; DRILL file {KiCad 5.1.5-52549c5~84~ubuntu18.04.1} date Mon 09 Mar 2020 02:00:29 PM EDT
; FORMAT={-:-/ absolute / metric / decimal}
; #@! TF.CreationDate,2020-03-09T14:00:29-04:00
; #@! TF.GenerationSoftware,Kicad,Pcbnew,5.1.5-52549c5~84~ubuntu18.04.1
; #@! TF.FileFunction,Plated,1,2,PTH
FMAT,2
METRIC
T1C0.400
T2C0.600
T3C0.700
T4C0.762
T5C0.800
T6C0.900
T7C1.000
%
G90
G05
T1
X109.88Y-98.26
T2
X112.7Y-86.335
X112.7Y-88.335
X112.573Y-108.719
X112.573Y-110.719
X144.507Y-115.138
X146.507Y-115.138
T3
X152.0Y-109.0
X157.08Y-109.0
X163.0Y-79.0
X168.08Y-79.0
X151.92Y-93.5
X157.0Y-93.5
X159.5Y-109.0
X164.58Y-109.0
X154.92Y-86.5
X160.0Y-86.5
X159.5Y-101.5
X164.58Y-101.5
X126.848Y-118.262
X126.848Y-123.342
X151.92Y-101.5
X157.0Y-101.5
X152.0Y-116.5
X157.08Y-116.5
X154.92Y-79.0
X160.0Y-79.0
X159.5Y-93.5
X164.58Y-93.5
X159.5Y-116.5
X164.58Y-116.5
X130.708Y-115.722
X130.708Y-120.802
X162.5Y-86.5
X167.58Y-86.5
T4
X157.048Y-97.587
X159.588Y-97.587
X162.128Y-97.587
X159.96Y-90.5
X162.5Y-90.5
X165.04Y-90.5
X157.124Y-112.928
X159.664Y-112.928
X162.204Y-112.928
X156.921Y-120.548
X159.461Y-120.548
X162.001Y-120.548
X159.96Y-83.0
X162.5Y-83.0
X165.04Y-83.0
X157.048Y-105.258
X159.588Y-105.258
X162.128Y-105.258
T5
X149.352Y-86.589
X151.852Y-86.589
T6
X107.62Y-97.333
X108.242Y-112.103
X108.407Y-71.196
X109.004Y-86.601
X109.061Y-106.248
X109.753Y-75.755
X110.007Y-83.185
X110.655Y-90.449
X111.925Y-93.015
X114.871Y-71.73
X117.45Y-72.466
X119.736Y-77.0
X120.142Y-107.556
X120.231Y-96.056
X120.701Y-75.171
X121.12Y-80.239
X121.78Y-110.223
X121.78Y-114.605
X121.971Y-85.827
X129.311Y-73.927
X132.182Y-107.239
X136.399Y-117.475
T7
X171.044Y-74.803
X107.391Y-63.576
X109.931Y-63.576
X112.471Y-63.576
X115.011Y-63.576
X117.551Y-63.576
X120.091Y-63.576
X145.466Y-63.132
X148.006Y-63.132
X150.546Y-63.132
X153.086Y-63.132
X155.626Y-63.132
X158.166Y-63.132
X160.706Y-63.132
X163.246Y-63.132
X104.343Y-75.971
X104.343Y-78.511
X104.343Y-81.051
X104.343Y-83.591
X104.343Y-86.131
X104.343Y-88.671
X149.327Y-73.457
X151.867Y-73.457
X171.094Y-70.79
X170.942Y-92.659
X170.942Y-95.199
X170.942Y-97.739
X170.942Y-100.279
X170.942Y-102.819
X170.942Y-105.359
X145.72Y-81.534
X145.72Y-84.074
X145.72Y-86.614
X145.72Y-89.154
X145.72Y-91.694
X145.72Y-94.234
X145.72Y-96.774
X145.72Y-99.314
X145.72Y-101.854
X145.72Y-104.394
X145.72Y-106.934
X145.72Y-109.474
X139.573Y-120.802
X139.573Y-123.342
X125.4Y-71.374
X125.4Y-73.914
X125.4Y-76.454
X125.4Y-78.994
X125.4Y-81.534
X125.4Y-84.074
X125.4Y-86.614
X125.4Y-89.154
X125.4Y-91.694
X125.4Y-94.234
X125.4Y-96.774
X125.4Y-99.314
X125.4Y-101.854
X125.4Y-104.394
X125.4Y-106.934
X125.4Y-109.474
X135.56Y-120.828
X135.56Y-123.368
X104.419Y-93.167
X104.419Y-95.707
X104.419Y-98.247
X104.419Y-100.787
X104.419Y-103.327
X104.419Y-105.867
T0
M30
