G04 #@! TF.GenerationSoftware,KiCad,Pcbnew,5.1.5-52549c5~84~ubuntu18.04.1*
G04 #@! TF.CreationDate,2020-03-09T13:29:06-04:00*
G04 #@! TF.ProjectId,solenoid_board,736f6c65-6e6f-4696-945f-626f6172642e,rev?*
G04 #@! TF.SameCoordinates,Original*
G04 #@! TF.FileFunction,Copper,L2,Bot*
G04 #@! TF.FilePolarity,Positive*
%FSLAX46Y46*%
G04 Gerber Fmt 4.6, Leading zero omitted, Abs format (unit mm)*
G04 Created by KiCad (PCBNEW 5.1.5-52549c5~84~ubuntu18.04.1) date 2020-03-09 13:29:06*
%MOMM*%
%LPD*%
G04 APERTURE LIST*
G04 #@! TA.AperFunction,Profile*
%ADD10C,0.050000*%
G04 #@! TD*
G04 #@! TA.AperFunction,ComponentPad*
%ADD11C,1.524000*%
G04 #@! TD*
G04 #@! TA.AperFunction,ComponentPad*
%ADD12O,1.400000X1.400000*%
G04 #@! TD*
G04 #@! TA.AperFunction,ComponentPad*
%ADD13C,1.400000*%
G04 #@! TD*
G04 #@! TA.AperFunction,ComponentPad*
%ADD14O,1.700000X1.700000*%
G04 #@! TD*
G04 #@! TA.AperFunction,ComponentPad*
%ADD15R,1.700000X1.700000*%
G04 #@! TD*
G04 #@! TA.AperFunction,ComponentPad*
%ADD16C,1.600000*%
G04 #@! TD*
G04 #@! TA.AperFunction,ComponentPad*
%ADD17R,1.600000X1.600000*%
G04 #@! TD*
G04 #@! TA.AperFunction,ComponentPad*
%ADD18C,1.200000*%
G04 #@! TD*
G04 #@! TA.AperFunction,ComponentPad*
%ADD19R,1.200000X1.200000*%
G04 #@! TD*
G04 #@! TA.AperFunction,ViaPad*
%ADD20C,1.800000*%
G04 #@! TD*
G04 #@! TA.AperFunction,ViaPad*
%ADD21C,0.800000*%
G04 #@! TD*
G04 #@! TA.AperFunction,Conductor*
%ADD22C,0.850000*%
G04 #@! TD*
G04 #@! TA.AperFunction,Conductor*
%ADD23C,2.000000*%
G04 #@! TD*
G04 #@! TA.AperFunction,Conductor*
%ADD24C,0.750000*%
G04 #@! TD*
G04 #@! TA.AperFunction,Conductor*
%ADD25C,0.254000*%
G04 #@! TD*
G04 APERTURE END LIST*
D10*
X97000000Y-60000000D02*
X97000000Y-127000000D01*
X175000000Y-60000000D02*
X97000000Y-60000000D01*
X175000000Y-127000000D02*
X175000000Y-60000000D01*
X97000000Y-127000000D02*
X175000000Y-127000000D01*
D11*
G04 #@! TO.P,FET0,3*
G04 #@! TO.N,Net-(FET0-Pad3)*
X161950400Y-81737200D03*
G04 #@! TO.P,FET0,2*
G04 #@! TO.N,Net-(FET0-Pad2)*
X156870400Y-81737200D03*
G04 #@! TO.P,FET0,1*
G04 #@! TO.N,GND*
X159410400Y-81737200D03*
G04 #@! TD*
G04 #@! TO.P,FET5,3*
G04 #@! TO.N,Net-(FET5-Pad3)*
X162001200Y-120548400D03*
G04 #@! TO.P,FET5,2*
G04 #@! TO.N,Net-(FET5-Pad2)*
X156921200Y-120548400D03*
G04 #@! TO.P,FET5,1*
G04 #@! TO.N,GND*
X159461200Y-120548400D03*
G04 #@! TD*
G04 #@! TO.P,FET4,3*
G04 #@! TO.N,Net-(FET4-Pad3)*
X162204400Y-112928400D03*
G04 #@! TO.P,FET4,2*
G04 #@! TO.N,Net-(FET4-Pad2)*
X157124400Y-112928400D03*
G04 #@! TO.P,FET4,1*
G04 #@! TO.N,GND*
X159664400Y-112928400D03*
G04 #@! TD*
G04 #@! TO.P,FET3,3*
G04 #@! TO.N,Net-(FET3-Pad3)*
X162128200Y-105257600D03*
G04 #@! TO.P,FET3,2*
G04 #@! TO.N,Net-(FET3-Pad2)*
X157048200Y-105257600D03*
G04 #@! TO.P,FET3,1*
G04 #@! TO.N,GND*
X159588200Y-105257600D03*
G04 #@! TD*
G04 #@! TO.P,FET2,3*
G04 #@! TO.N,Net-(FET2-Pad3)*
X162128200Y-97586800D03*
G04 #@! TO.P,FET2,2*
G04 #@! TO.N,Net-(FET2-Pad2)*
X157048200Y-97586800D03*
G04 #@! TO.P,FET2,1*
G04 #@! TO.N,GND*
X159588200Y-97586800D03*
G04 #@! TD*
G04 #@! TO.P,FET1,3*
G04 #@! TO.N,Net-(FET1-Pad3)*
X162077400Y-89814400D03*
G04 #@! TO.P,FET1,2*
G04 #@! TO.N,Net-(FET1-Pad2)*
X156997400Y-89814400D03*
G04 #@! TO.P,FET1,1*
G04 #@! TO.N,GND*
X159537400Y-89814400D03*
G04 #@! TD*
D12*
G04 #@! TO.P,R105,2*
G04 #@! TO.N,/D5*
X156895800Y-115798600D03*
D13*
G04 #@! TO.P,R105,1*
G04 #@! TO.N,Net-(FET5-Pad2)*
X161975800Y-115798600D03*
G04 #@! TD*
D12*
G04 #@! TO.P,R104,2*
G04 #@! TO.N,/D6*
X157149800Y-108178600D03*
D13*
G04 #@! TO.P,R104,1*
G04 #@! TO.N,Net-(FET4-Pad2)*
X162229800Y-108178600D03*
G04 #@! TD*
D12*
G04 #@! TO.P,R103,2*
G04 #@! TO.N,/D9*
X157022800Y-100431600D03*
D13*
G04 #@! TO.P,R103,1*
G04 #@! TO.N,Net-(FET3-Pad2)*
X162102800Y-100431600D03*
G04 #@! TD*
D12*
G04 #@! TO.P,R102,2*
G04 #@! TO.N,/D10*
X156972000Y-92760800D03*
D13*
G04 #@! TO.P,R102,1*
G04 #@! TO.N,Net-(FET2-Pad2)*
X162052000Y-92760800D03*
G04 #@! TD*
D12*
G04 #@! TO.P,R101,2*
G04 #@! TO.N,/D11*
X156972000Y-84937600D03*
D13*
G04 #@! TO.P,R101,1*
G04 #@! TO.N,Net-(FET1-Pad2)*
X162052000Y-84937600D03*
G04 #@! TD*
D12*
G04 #@! TO.P,R100,2*
G04 #@! TO.N,/D12*
X156921200Y-76835000D03*
D13*
G04 #@! TO.P,R100,1*
G04 #@! TO.N,Net-(FET0-Pad2)*
X162001200Y-76835000D03*
G04 #@! TD*
D12*
G04 #@! TO.P,R11,2*
G04 #@! TO.N,Net-(Prt_IC1-Pad1)*
X126847600Y-118262400D03*
D13*
G04 #@! TO.P,R11,1*
G04 #@! TO.N,/B*
X126847600Y-123342400D03*
G04 #@! TD*
D12*
G04 #@! TO.P,R10,2*
G04 #@! TO.N,Net-(Prt_IC1-Pad2)*
X130708400Y-115722400D03*
D13*
G04 #@! TO.P,R10,1*
G04 #@! TO.N,/A*
X130708400Y-120802400D03*
G04 #@! TD*
D14*
G04 #@! TO.P,Solenoid_IN1,6*
G04 #@! TO.N,Net-(FET5-Pad3)*
X170942000Y-105359200D03*
G04 #@! TO.P,Solenoid_IN1,5*
G04 #@! TO.N,Net-(FET4-Pad3)*
X170942000Y-102819200D03*
G04 #@! TO.P,Solenoid_IN1,4*
G04 #@! TO.N,Net-(FET3-Pad3)*
X170942000Y-100279200D03*
G04 #@! TO.P,Solenoid_IN1,3*
G04 #@! TO.N,Net-(FET2-Pad3)*
X170942000Y-97739200D03*
G04 #@! TO.P,Solenoid_IN1,2*
G04 #@! TO.N,Net-(FET1-Pad3)*
X170942000Y-95199200D03*
D15*
G04 #@! TO.P,Solenoid_IN1,1*
G04 #@! TO.N,Net-(FET0-Pad3)*
X170942000Y-92659200D03*
G04 #@! TD*
D14*
G04 #@! TO.P,INP3_INP5,6*
G04 #@! TO.N,/INP3_0*
X104419400Y-93167200D03*
G04 #@! TO.P,INP3_INP5,5*
G04 #@! TO.N,/INP3_1*
X104419400Y-95707200D03*
G04 #@! TO.P,INP3_INP5,4*
G04 #@! TO.N,/INP4_0*
X104419400Y-98247200D03*
G04 #@! TO.P,INP3_INP5,3*
G04 #@! TO.N,/INP4_1*
X104419400Y-100787200D03*
G04 #@! TO.P,INP3_INP5,2*
G04 #@! TO.N,/INP5_0*
X104419400Y-103327200D03*
D15*
G04 #@! TO.P,INP3_INP5,1*
G04 #@! TO.N,/INP5_1*
X104419400Y-105867200D03*
G04 #@! TD*
D14*
G04 #@! TO.P,INP0_INP2,6*
G04 #@! TO.N,/INP0_0*
X104343200Y-75971400D03*
G04 #@! TO.P,INP0_INP2,5*
G04 #@! TO.N,/INP0_1*
X104343200Y-78511400D03*
G04 #@! TO.P,INP0_INP2,4*
G04 #@! TO.N,/INP1_0*
X104343200Y-81051400D03*
G04 #@! TO.P,INP0_INP2,3*
G04 #@! TO.N,/INP1_1*
X104343200Y-83591400D03*
G04 #@! TO.P,INP0_INP2,2*
G04 #@! TO.N,/INP2_0*
X104343200Y-86131400D03*
D15*
G04 #@! TO.P,INP0_INP2,1*
G04 #@! TO.N,/INP2_1*
X104343200Y-88671400D03*
G04 #@! TD*
D14*
G04 #@! TO.P,COMMS1,2*
G04 #@! TO.N,/A*
X135559800Y-120827800D03*
D15*
G04 #@! TO.P,COMMS1,1*
G04 #@! TO.N,/B*
X135559800Y-123367800D03*
G04 #@! TD*
D14*
G04 #@! TO.P,COMMS0,2*
G04 #@! TO.N,/A*
X139573000Y-120802400D03*
D15*
G04 #@! TO.P,COMMS0,1*
G04 #@! TO.N,/B*
X139573000Y-123342400D03*
G04 #@! TD*
G04 #@! TO.P,COMM_GND1,1*
G04 #@! TO.N,GND*
X171043600Y-74803000D03*
G04 #@! TD*
D14*
G04 #@! TO.P,+5VIN1,2*
G04 #@! TO.N,+5V*
X149326600Y-73456800D03*
D15*
G04 #@! TO.P,+5VIN1,1*
G04 #@! TO.N,GND*
X151866600Y-73456800D03*
G04 #@! TD*
G04 #@! TO.P,+48V_GND1,1*
G04 #@! TO.N,GND*
X171094400Y-70789800D03*
G04 #@! TD*
D14*
G04 #@! TO.P,+48V1,8*
G04 #@! TO.N,+48V*
X163245800Y-63131700D03*
G04 #@! TO.P,+48V1,7*
X160705800Y-63131700D03*
G04 #@! TO.P,+48V1,6*
X158165800Y-63131700D03*
G04 #@! TO.P,+48V1,5*
X155625800Y-63131700D03*
G04 #@! TO.P,+48V1,4*
X153085800Y-63131700D03*
G04 #@! TO.P,+48V1,3*
X150545800Y-63131700D03*
G04 #@! TO.P,+48V1,2*
X148005800Y-63131700D03*
D15*
G04 #@! TO.P,+48V1,1*
X145465800Y-63131700D03*
G04 #@! TD*
D14*
G04 #@! TO.P,+3V3_OUT1,6*
G04 #@! TO.N,+3V3*
X120091200Y-63576200D03*
G04 #@! TO.P,+3V3_OUT1,5*
X117551200Y-63576200D03*
G04 #@! TO.P,+3V3_OUT1,4*
X115011200Y-63576200D03*
G04 #@! TO.P,+3V3_OUT1,3*
X112471200Y-63576200D03*
G04 #@! TO.P,+3V3_OUT1,2*
X109931200Y-63576200D03*
D15*
G04 #@! TO.P,+3V3_OUT1,1*
X107391200Y-63576200D03*
G04 #@! TD*
D16*
G04 #@! TO.P,CP0,2*
G04 #@! TO.N,GND*
X151852000Y-86588600D03*
D17*
G04 #@! TO.P,CP0,1*
G04 #@! TO.N,+5V*
X149352000Y-86588600D03*
G04 #@! TD*
D18*
G04 #@! TO.P,C0.1nF2,2*
G04 #@! TO.N,GND*
X112699800Y-88334600D03*
D19*
G04 #@! TO.P,C0.1nF2,1*
G04 #@! TO.N,+3V3*
X112699800Y-86334600D03*
G04 #@! TD*
D18*
G04 #@! TO.P,C0.1nF1,2*
G04 #@! TO.N,+3V3*
X112572800Y-108718600D03*
D19*
G04 #@! TO.P,C0.1nF1,1*
G04 #@! TO.N,GND*
X112572800Y-110718600D03*
G04 #@! TD*
D18*
G04 #@! TO.P,C0.1nF0,2*
G04 #@! TO.N,+3V3*
X144507200Y-115138200D03*
D19*
G04 #@! TO.P,C0.1nF0,1*
G04 #@! TO.N,GND*
X146507200Y-115138200D03*
G04 #@! TD*
D14*
G04 #@! TO.P,J3,12*
G04 #@! TO.N,/SDA*
X145719800Y-109474000D03*
G04 #@! TO.P,J3,11*
G04 #@! TO.N,/SCL*
X145719800Y-106934000D03*
G04 #@! TO.P,J3,10*
G04 #@! TO.N,/D5*
X145719800Y-104394000D03*
G04 #@! TO.P,J3,9*
G04 #@! TO.N,/D6*
X145719800Y-101854000D03*
G04 #@! TO.P,J3,8*
G04 #@! TO.N,/D9*
X145719800Y-99314000D03*
G04 #@! TO.P,J3,7*
G04 #@! TO.N,/D10*
X145719800Y-96774000D03*
G04 #@! TO.P,J3,6*
G04 #@! TO.N,/D11*
X145719800Y-94234000D03*
G04 #@! TO.P,J3,5*
G04 #@! TO.N,/D12*
X145719800Y-91694000D03*
G04 #@! TO.P,J3,4*
G04 #@! TO.N,/D13*
X145719800Y-89154000D03*
G04 #@! TO.P,J3,3*
G04 #@! TO.N,+5V*
X145719800Y-86614000D03*
G04 #@! TO.P,J3,2*
G04 #@! TO.N,/En*
X145719800Y-84074000D03*
D15*
G04 #@! TO.P,J3,1*
G04 #@! TO.N,/BAT*
X145719800Y-81534000D03*
G04 #@! TD*
D14*
G04 #@! TO.P,J2,16*
G04 #@! TO.N,GND*
X125399800Y-109474000D03*
G04 #@! TO.P,J2,15*
G04 #@! TO.N,/TX1*
X125399800Y-106934000D03*
G04 #@! TO.P,J2,14*
G04 #@! TO.N,/RX0*
X125399800Y-104394000D03*
G04 #@! TO.P,J2,13*
G04 #@! TO.N,/MISO*
X125399800Y-101854000D03*
G04 #@! TO.P,J2,12*
G04 #@! TO.N,/MOSI*
X125399800Y-99314000D03*
G04 #@! TO.P,J2,11*
G04 #@! TO.N,/SCK*
X125399800Y-96774000D03*
G04 #@! TO.P,J2,10*
G04 #@! TO.N,/A5*
X125399800Y-94234000D03*
G04 #@! TO.P,J2,9*
G04 #@! TO.N,/A4*
X125399800Y-91694000D03*
G04 #@! TO.P,J2,8*
G04 #@! TO.N,/A3*
X125399800Y-89154000D03*
G04 #@! TO.P,J2,7*
G04 #@! TO.N,/A2*
X125399800Y-86614000D03*
G04 #@! TO.P,J2,6*
G04 #@! TO.N,/A1*
X125399800Y-84074000D03*
G04 #@! TO.P,J2,5*
G04 #@! TO.N,/A0*
X125399800Y-81534000D03*
G04 #@! TO.P,J2,4*
G04 #@! TO.N,GND*
X125399800Y-78994000D03*
G04 #@! TO.P,J2,3*
G04 #@! TO.N,/ARf*
X125399800Y-76454000D03*
G04 #@! TO.P,J2,2*
G04 #@! TO.N,+3V3*
X125399800Y-73914000D03*
D15*
G04 #@! TO.P,J2,1*
G04 #@! TO.N,/RST*
X125399800Y-71374000D03*
G04 #@! TD*
D20*
G04 #@! TO.N,/INP3_1*
X111925100Y-93014800D03*
X119735600Y-77000100D03*
G04 #@! TO.N,/INP3_0*
X110655100Y-90449400D03*
X120700800Y-75171300D03*
G04 #@! TO.N,/INP2_1*
X121119900Y-80238600D03*
G04 #@! TO.N,/INP2_0*
X114871500Y-71729600D03*
G04 #@! TO.N,GND*
X136398900Y-117475000D03*
D21*
X109880400Y-98259900D03*
D20*
X120230900Y-96056299D03*
X121780300Y-110223300D03*
X121780300Y-114604800D03*
X129311400Y-73926700D03*
X117449600Y-72466200D03*
X109061401Y-106248200D03*
X110007400Y-83185000D03*
X108242100Y-112102900D03*
X108407200Y-71196200D03*
G04 #@! TO.N,/A4*
X132181600Y-107238800D03*
G04 #@! TO.N,/A0*
X121970800Y-85826600D03*
X120142000Y-107556300D03*
G04 #@! TO.N,/SHIFT2_OUT*
X107619800Y-97332800D03*
X109753400Y-75755500D03*
G04 #@! TO.N,+3V3*
X109004100Y-86601300D03*
G04 #@! TD*
D22*
G04 #@! TO.N,/INP3_1*
X111925100Y-93014800D02*
X117513100Y-93014800D01*
X117513100Y-93014800D02*
X117513100Y-92798900D01*
X117513100Y-92798900D02*
X118795800Y-91516200D01*
X118795800Y-91516200D02*
X118795800Y-77939900D01*
X118795800Y-77939900D02*
X119735600Y-77000100D01*
X119735600Y-77000100D02*
X119735600Y-77000100D01*
G04 #@! TO.N,/INP3_0*
X110655100Y-90449400D02*
X116293900Y-90449400D01*
X116293900Y-90449400D02*
X116433600Y-90449400D01*
X116433600Y-90449400D02*
X117094000Y-89789000D01*
X117094000Y-89789000D02*
X117094000Y-75311000D01*
X117094000Y-75311000D02*
X118427500Y-73977500D01*
X118427500Y-73977500D02*
X119507000Y-73977500D01*
X119507000Y-73977500D02*
X120700800Y-75171300D01*
X120700800Y-75171300D02*
X120700800Y-75171300D01*
G04 #@! TO.N,/INP2_1*
X121119900Y-80238600D02*
X121119900Y-80238600D01*
X102298500Y-88671400D02*
X104343200Y-88671400D01*
X99085400Y-85458300D02*
X102298500Y-88671400D01*
X99085400Y-74256900D02*
X99085400Y-85458300D01*
X117690900Y-70027800D02*
X114693700Y-67030600D01*
X121119900Y-80238600D02*
X122019899Y-79338601D01*
X122019899Y-79338601D02*
X122134199Y-79338601D01*
X122134199Y-79338601D02*
X122885200Y-78587600D01*
X122885200Y-78587600D02*
X122885200Y-75196700D01*
X122885200Y-75196700D02*
X117716300Y-70027800D01*
X106311700Y-67030600D02*
X99085400Y-74256900D01*
X114693700Y-67030600D02*
X106311700Y-67030600D01*
X117716300Y-70027800D02*
X117690900Y-70027800D01*
G04 #@! TO.N,/INP2_0*
X104343200Y-86131400D02*
X102819200Y-86131400D01*
X102819200Y-86131400D02*
X101193600Y-84505800D01*
X101193600Y-84505800D02*
X101193600Y-74815700D01*
X101193600Y-74815700D02*
X107429300Y-68580000D01*
X107429300Y-68580000D02*
X111721900Y-68580000D01*
X111721900Y-68580000D02*
X114871500Y-71729600D01*
X114871500Y-71729600D02*
X114871500Y-71729600D01*
D23*
G04 #@! TO.N,GND*
X171094400Y-74752200D02*
X171043600Y-74803000D01*
X171094400Y-70789800D02*
X171094400Y-74752200D01*
X159410400Y-81737200D02*
X159410400Y-89789600D01*
X159410400Y-89789600D02*
X159600000Y-89979200D01*
X159600000Y-89979200D02*
X159600000Y-97600000D01*
X159600000Y-97600000D02*
X159600000Y-105400000D01*
X159600000Y-105400000D02*
X159600000Y-107400000D01*
X159600000Y-107400000D02*
X159600000Y-120600000D01*
X159400000Y-120400000D02*
X159400000Y-120600000D01*
D22*
G04 #@! TO.N,/A4*
X132181600Y-107238800D02*
X130149600Y-107238800D01*
X130149600Y-107238800D02*
X128473200Y-105562400D01*
X128473200Y-94767400D02*
X125399800Y-91694000D01*
X128473200Y-105562400D02*
X128473200Y-94767400D01*
G04 #@! TO.N,/A0*
X120142000Y-107556300D02*
X120142000Y-107556300D01*
X121970800Y-87099392D02*
X122682000Y-87810592D01*
X121970800Y-85826600D02*
X121970800Y-87099392D01*
X122682000Y-105016300D02*
X120142000Y-107556300D01*
X122682000Y-87810592D02*
X122682000Y-105016300D01*
G04 #@! TO.N,/SHIFT2_OUT*
X107327700Y-96913700D02*
X107327700Y-76720700D01*
X107327700Y-76720700D02*
X108292900Y-75755500D01*
X108292900Y-75755500D02*
X109753400Y-75755500D01*
X109753400Y-75755500D02*
X109753400Y-75755500D01*
D24*
G04 #@! TO.N,+3V3*
X112572800Y-108718600D02*
X113658400Y-108718600D01*
D22*
X143907201Y-114538201D02*
X143907201Y-114494001D01*
X144507200Y-115138200D02*
X143907201Y-114538201D01*
X143907201Y-114494001D02*
X141833600Y-112420400D01*
X141833600Y-112420400D02*
X119786400Y-112420400D01*
X113421328Y-108718600D02*
X112572800Y-108718600D01*
X116084600Y-108718600D02*
X113421328Y-108718600D01*
X119786400Y-112420400D02*
X116084600Y-108718600D01*
X141833600Y-112420400D02*
X141808200Y-112420400D01*
X130708400Y-79222600D02*
X125399800Y-73914000D01*
X130708400Y-101320600D02*
X130708400Y-79222600D01*
X141833600Y-112420400D02*
X141833600Y-105613200D01*
X141833600Y-105613200D02*
X138658600Y-102438200D01*
X131826000Y-102438200D02*
X130708400Y-101320600D01*
X138658600Y-102438200D02*
X131826000Y-102438200D01*
X109004100Y-86601300D02*
X109004100Y-94462600D01*
X112572800Y-98031300D02*
X112572800Y-108718600D01*
X109004100Y-94462600D02*
X112572800Y-98031300D01*
D23*
X120091200Y-63576200D02*
X121500000Y-64985000D01*
X121500000Y-71334202D02*
X123665798Y-73500000D01*
X121500000Y-64985000D02*
X121500000Y-71334202D01*
X123665798Y-73500000D02*
X125000000Y-73500000D01*
G04 #@! TO.N,Net-(FET0-Pad3)*
X170942000Y-92659200D02*
X170942000Y-83942000D01*
X170942000Y-83942000D02*
X169000000Y-82000000D01*
X169000000Y-82000000D02*
X162500000Y-82000000D01*
X162500000Y-82000000D02*
X162000000Y-81500000D01*
G04 #@! TO.N,Net-(FET1-Pad3)*
X170942000Y-95199200D02*
X168699200Y-95199200D01*
X168699200Y-95199200D02*
X163500000Y-90000000D01*
X163500000Y-90000000D02*
X162500000Y-90000000D01*
G04 #@! TO.N,Net-(FET2-Pad3)*
X169739919Y-97739200D02*
X169479119Y-98000000D01*
X170942000Y-97739200D02*
X169739919Y-97739200D01*
X169479119Y-98000000D02*
X162500000Y-98000000D01*
G04 #@! TO.N,Net-(FET3-Pad3)*
X169739919Y-100279200D02*
X169519119Y-100500000D01*
X170942000Y-100279200D02*
X169739919Y-100279200D01*
X169519119Y-100500000D02*
X166000000Y-100500000D01*
X166000000Y-100500000D02*
X162500000Y-104000000D01*
X162500000Y-104000000D02*
X162500000Y-105000000D01*
G04 #@! TO.N,Net-(FET4-Pad3)*
X169739919Y-102819200D02*
X169559119Y-103000000D01*
X170942000Y-102819200D02*
X169739919Y-102819200D01*
X169559119Y-103000000D02*
X168500000Y-103000000D01*
X168500000Y-103000000D02*
X165000000Y-106500000D01*
X165000000Y-106500000D02*
X165000000Y-111500000D01*
X165000000Y-111500000D02*
X163500000Y-113000000D01*
X163500000Y-113000000D02*
X162500000Y-113000000D01*
G04 #@! TO.N,Net-(FET5-Pad3)*
X170092001Y-106209199D02*
X170092001Y-112407999D01*
X170942000Y-105359200D02*
X170092001Y-106209199D01*
X170092001Y-112407999D02*
X162500000Y-120000000D01*
X162500000Y-120000000D02*
X162500000Y-120500000D01*
D22*
G04 #@! TO.N,/A*
X130733800Y-120827800D02*
X130708400Y-120802400D01*
X135559800Y-120827800D02*
X130733800Y-120827800D01*
G04 #@! TO.N,/B*
X126873000Y-123367800D02*
X126847600Y-123342400D01*
X135559800Y-123367800D02*
X126873000Y-123367800D01*
G04 #@! TD*
D25*
G04 #@! TO.N,GND*
G36*
X171861683Y-72618728D02*
G01*
X171798345Y-73315447D01*
X171329350Y-73318000D01*
X171170600Y-73476750D01*
X171170600Y-74676000D01*
X171190600Y-74676000D01*
X171190600Y-74930000D01*
X171170600Y-74930000D01*
X171170600Y-76129250D01*
X171329350Y-76288000D01*
X171528015Y-76289082D01*
X171383481Y-77878957D01*
X161993325Y-78373176D01*
X161968711Y-78376915D01*
X161945300Y-78385384D01*
X161923990Y-78398258D01*
X161905602Y-78415041D01*
X161891098Y-78434659D01*
X160391098Y-80934659D01*
X160382397Y-80953034D01*
X160375965Y-80951240D01*
X159590005Y-81737200D01*
X159604148Y-81751343D01*
X159424543Y-81930948D01*
X159410400Y-81916805D01*
X158624440Y-82702765D01*
X158691420Y-82942856D01*
X158940448Y-83059956D01*
X159207535Y-83126223D01*
X159482417Y-83139110D01*
X159754533Y-83098122D01*
X160013423Y-83004836D01*
X160129380Y-82942856D01*
X160196359Y-82702767D01*
X160312769Y-82819177D01*
X160393209Y-82738737D01*
X160463176Y-88755830D01*
X160439769Y-88732423D01*
X160323359Y-88848833D01*
X160256380Y-88608744D01*
X160007352Y-88491644D01*
X159740265Y-88425377D01*
X159465383Y-88412490D01*
X159193267Y-88453478D01*
X158934377Y-88546764D01*
X158818420Y-88608744D01*
X158751440Y-88848835D01*
X159537400Y-89634795D01*
X159551543Y-89620653D01*
X159731148Y-89800258D01*
X159717005Y-89814400D01*
X159731148Y-89828543D01*
X159551543Y-90008148D01*
X159537400Y-89994005D01*
X158751440Y-90779965D01*
X158818420Y-91020056D01*
X159067448Y-91137156D01*
X159334535Y-91203423D01*
X159609417Y-91216310D01*
X159881533Y-91175322D01*
X160140423Y-91082036D01*
X160256380Y-91020056D01*
X160323359Y-90779967D01*
X160439769Y-90896377D01*
X160487511Y-90848635D01*
X160554018Y-96568272D01*
X160490569Y-96504823D01*
X160374159Y-96621233D01*
X160307180Y-96381144D01*
X160058152Y-96264044D01*
X159791065Y-96197777D01*
X159516183Y-96184890D01*
X159244067Y-96225878D01*
X158985177Y-96319164D01*
X158869220Y-96381144D01*
X158802240Y-96621235D01*
X159588200Y-97407195D01*
X159602343Y-97393053D01*
X159781948Y-97572658D01*
X159767805Y-97586800D01*
X159781948Y-97600943D01*
X159602343Y-97780548D01*
X159588200Y-97766405D01*
X158802240Y-98552365D01*
X158869220Y-98792456D01*
X159118248Y-98909556D01*
X159385335Y-98975823D01*
X159660217Y-98988710D01*
X159932333Y-98947722D01*
X160191223Y-98854436D01*
X160307180Y-98792456D01*
X160374159Y-98552367D01*
X160490569Y-98668777D01*
X160577433Y-98581913D01*
X160646218Y-104497432D01*
X160553765Y-104471640D01*
X159767805Y-105257600D01*
X160553765Y-106043560D01*
X160663839Y-106012852D01*
X160735455Y-112171869D01*
X160629965Y-112142440D01*
X159844005Y-112928400D01*
X160629965Y-113714360D01*
X160752992Y-113680038D01*
X160770887Y-115218996D01*
X160692104Y-115409195D01*
X160640800Y-115667114D01*
X160640800Y-115930086D01*
X160692104Y-116188005D01*
X160784755Y-116411685D01*
X160824102Y-119795519D01*
X160763195Y-119886673D01*
X160733508Y-119958343D01*
X160728836Y-119945377D01*
X160666856Y-119829420D01*
X160426765Y-119762440D01*
X159640805Y-120548400D01*
X160426765Y-121334360D01*
X160666856Y-121267380D01*
X160730685Y-121131640D01*
X160763195Y-121210127D01*
X160841921Y-121327949D01*
X160871295Y-123854092D01*
X141023376Y-121122727D01*
X141058000Y-120948660D01*
X141058000Y-120656140D01*
X141009201Y-120410808D01*
X155524200Y-120410808D01*
X155524200Y-120685992D01*
X155577886Y-120955890D01*
X155683195Y-121210127D01*
X155836080Y-121438935D01*
X156030665Y-121633520D01*
X156259473Y-121786405D01*
X156513710Y-121891714D01*
X156783608Y-121945400D01*
X157058792Y-121945400D01*
X157328690Y-121891714D01*
X157582927Y-121786405D01*
X157811735Y-121633520D01*
X157931290Y-121513965D01*
X158675240Y-121513965D01*
X158742220Y-121754056D01*
X158991248Y-121871156D01*
X159258335Y-121937423D01*
X159533217Y-121950310D01*
X159805333Y-121909322D01*
X160064223Y-121816036D01*
X160180180Y-121754056D01*
X160247160Y-121513965D01*
X159461200Y-120728005D01*
X158675240Y-121513965D01*
X157931290Y-121513965D01*
X158006320Y-121438935D01*
X158159205Y-121210127D01*
X158188892Y-121138457D01*
X158193564Y-121151423D01*
X158255544Y-121267380D01*
X158495635Y-121334360D01*
X159281595Y-120548400D01*
X158495635Y-119762440D01*
X158255544Y-119829420D01*
X158191715Y-119965160D01*
X158159205Y-119886673D01*
X158006320Y-119657865D01*
X157931290Y-119582835D01*
X158675240Y-119582835D01*
X159461200Y-120368795D01*
X160247160Y-119582835D01*
X160180180Y-119342744D01*
X159931152Y-119225644D01*
X159664065Y-119159377D01*
X159389183Y-119146490D01*
X159117067Y-119187478D01*
X158858177Y-119280764D01*
X158742220Y-119342744D01*
X158675240Y-119582835D01*
X157931290Y-119582835D01*
X157811735Y-119463280D01*
X157582927Y-119310395D01*
X157328690Y-119205086D01*
X157058792Y-119151400D01*
X156783608Y-119151400D01*
X156513710Y-119205086D01*
X156259473Y-119310395D01*
X156030665Y-119463280D01*
X155836080Y-119657865D01*
X155683195Y-119886673D01*
X155577886Y-120140910D01*
X155524200Y-120410808D01*
X141009201Y-120410808D01*
X141000932Y-120369242D01*
X140888990Y-120098989D01*
X140726475Y-119855768D01*
X140519632Y-119648925D01*
X140276411Y-119486410D01*
X140006158Y-119374468D01*
X139719260Y-119317400D01*
X139426740Y-119317400D01*
X139139842Y-119374468D01*
X138869589Y-119486410D01*
X138626368Y-119648925D01*
X138419525Y-119855768D01*
X138257010Y-120098989D01*
X138145068Y-120369242D01*
X138088000Y-120656140D01*
X138088000Y-120718776D01*
X137023056Y-120572224D01*
X136987732Y-120394642D01*
X136875790Y-120124389D01*
X136713275Y-119881168D01*
X136506432Y-119674325D01*
X136263211Y-119511810D01*
X135992958Y-119399868D01*
X135706060Y-119342800D01*
X135413540Y-119342800D01*
X135126642Y-119399868D01*
X134856389Y-119511810D01*
X134613168Y-119674325D01*
X134519693Y-119767800D01*
X131561775Y-119767800D01*
X131559413Y-119765438D01*
X131340759Y-119619339D01*
X131097805Y-119518704D01*
X130839886Y-119467400D01*
X130576914Y-119467400D01*
X130318995Y-119518704D01*
X130081706Y-119616993D01*
X127707683Y-119290292D01*
X127884562Y-119113413D01*
X128030661Y-118894759D01*
X128131296Y-118651805D01*
X128182600Y-118393886D01*
X128182600Y-118130914D01*
X128131296Y-117872995D01*
X128030661Y-117630041D01*
X127884562Y-117411387D01*
X127698613Y-117225438D01*
X127479959Y-117079339D01*
X127237005Y-116978704D01*
X126979086Y-116927400D01*
X126716114Y-116927400D01*
X126458195Y-116978704D01*
X126215241Y-117079339D01*
X125996587Y-117225438D01*
X125810638Y-117411387D01*
X125664539Y-117630041D01*
X125563904Y-117872995D01*
X125512600Y-118130914D01*
X125512600Y-118393886D01*
X125563904Y-118651805D01*
X125664539Y-118894759D01*
X125748694Y-119020706D01*
X106628158Y-116389440D01*
X106636475Y-115590914D01*
X129373400Y-115590914D01*
X129373400Y-115853886D01*
X129424704Y-116111805D01*
X129525339Y-116354759D01*
X129671438Y-116573413D01*
X129857387Y-116759362D01*
X130076041Y-116905461D01*
X130318995Y-117006096D01*
X130576914Y-117057400D01*
X130839886Y-117057400D01*
X131097805Y-117006096D01*
X131340759Y-116905461D01*
X131559413Y-116759362D01*
X131745362Y-116573413D01*
X131891461Y-116354759D01*
X131992096Y-116111805D01*
X132043400Y-115853886D01*
X132043400Y-115590914D01*
X131992096Y-115332995D01*
X131891461Y-115090041D01*
X131745362Y-114871387D01*
X131559413Y-114685438D01*
X131340759Y-114539339D01*
X131097805Y-114438704D01*
X130839886Y-114387400D01*
X130576914Y-114387400D01*
X130318995Y-114438704D01*
X130076041Y-114539339D01*
X129857387Y-114685438D01*
X129671438Y-114871387D01*
X129525339Y-115090041D01*
X129424704Y-115332995D01*
X129373400Y-115590914D01*
X106636475Y-115590914D01*
X106680979Y-111318600D01*
X111334728Y-111318600D01*
X111346988Y-111443082D01*
X111383298Y-111562780D01*
X111442263Y-111673094D01*
X111521615Y-111769785D01*
X111618306Y-111849137D01*
X111728620Y-111908102D01*
X111848318Y-111944412D01*
X111972800Y-111956672D01*
X112287050Y-111953600D01*
X112445800Y-111794850D01*
X112445800Y-110845600D01*
X112699800Y-110845600D01*
X112699800Y-111794850D01*
X112858550Y-111953600D01*
X113172800Y-111956672D01*
X113297282Y-111944412D01*
X113416980Y-111908102D01*
X113527294Y-111849137D01*
X113623985Y-111769785D01*
X113703337Y-111673094D01*
X113762302Y-111562780D01*
X113798612Y-111443082D01*
X113810872Y-111318600D01*
X113807800Y-111004350D01*
X113649050Y-110845600D01*
X112699800Y-110845600D01*
X112445800Y-110845600D01*
X111496550Y-110845600D01*
X111337800Y-111004350D01*
X111334728Y-111318600D01*
X106680979Y-111318600D01*
X106813050Y-98639875D01*
X106892705Y-98693099D01*
X107172057Y-98808811D01*
X107468616Y-98867800D01*
X107770984Y-98867800D01*
X108067543Y-98808811D01*
X108346895Y-98693099D01*
X108598305Y-98525112D01*
X108812112Y-98311305D01*
X108980099Y-98059895D01*
X109095811Y-97780543D01*
X109154800Y-97483984D01*
X109154800Y-97181616D01*
X109095811Y-96885057D01*
X108980099Y-96605705D01*
X108812112Y-96354295D01*
X108598305Y-96140488D01*
X108387700Y-95999766D01*
X108387700Y-95345265D01*
X111512800Y-98470366D01*
X111512801Y-108082059D01*
X111478357Y-108133608D01*
X111385260Y-108358364D01*
X111337800Y-108596963D01*
X111337800Y-108840237D01*
X111385260Y-109078836D01*
X111478357Y-109303592D01*
X111613513Y-109505867D01*
X111668747Y-109561101D01*
X111618306Y-109588063D01*
X111521615Y-109667415D01*
X111442263Y-109764106D01*
X111383298Y-109874420D01*
X111346988Y-109994118D01*
X111334728Y-110118600D01*
X111337800Y-110432850D01*
X111496550Y-110591600D01*
X112445800Y-110591600D01*
X112445800Y-110571600D01*
X112699800Y-110571600D01*
X112699800Y-110591600D01*
X113649050Y-110591600D01*
X113807800Y-110432850D01*
X113810872Y-110118600D01*
X113798612Y-109994118D01*
X113762302Y-109874420D01*
X113711084Y-109778600D01*
X115645535Y-109778600D01*
X119000050Y-113133116D01*
X119033241Y-113173559D01*
X119194647Y-113306022D01*
X119367384Y-113398352D01*
X119378793Y-113404450D01*
X119578603Y-113465062D01*
X119596719Y-113466846D01*
X119734334Y-113480400D01*
X119734342Y-113480400D01*
X119786400Y-113485527D01*
X119838458Y-113480400D01*
X141394535Y-113480400D01*
X142995733Y-115081599D01*
X143021579Y-115129954D01*
X143154042Y-115291360D01*
X143194490Y-115324555D01*
X143307565Y-115437630D01*
X143319660Y-115498436D01*
X143412757Y-115723192D01*
X143547913Y-115925467D01*
X143719933Y-116097487D01*
X143922208Y-116232643D01*
X144146964Y-116325740D01*
X144385563Y-116373200D01*
X144628837Y-116373200D01*
X144867436Y-116325740D01*
X145092192Y-116232643D01*
X145294467Y-116097487D01*
X145349701Y-116042253D01*
X145376663Y-116092694D01*
X145456015Y-116189385D01*
X145552706Y-116268737D01*
X145663020Y-116327702D01*
X145782718Y-116364012D01*
X145907200Y-116376272D01*
X146221450Y-116373200D01*
X146380200Y-116214450D01*
X146380200Y-115265200D01*
X146634200Y-115265200D01*
X146634200Y-116214450D01*
X146792950Y-116373200D01*
X147107200Y-116376272D01*
X147231682Y-116364012D01*
X147351380Y-116327702D01*
X147461694Y-116268737D01*
X147558385Y-116189385D01*
X147637737Y-116092694D01*
X147696702Y-115982380D01*
X147733012Y-115862682D01*
X147745272Y-115738200D01*
X147744578Y-115667114D01*
X155560800Y-115667114D01*
X155560800Y-115930086D01*
X155612104Y-116188005D01*
X155712739Y-116430959D01*
X155858838Y-116649613D01*
X156044787Y-116835562D01*
X156263441Y-116981661D01*
X156506395Y-117082296D01*
X156764314Y-117133600D01*
X157027286Y-117133600D01*
X157285205Y-117082296D01*
X157528159Y-116981661D01*
X157746813Y-116835562D01*
X157932762Y-116649613D01*
X158078861Y-116430959D01*
X158179496Y-116188005D01*
X158230800Y-115930086D01*
X158230800Y-115667114D01*
X158179496Y-115409195D01*
X158078861Y-115166241D01*
X157932762Y-114947587D01*
X157746813Y-114761638D01*
X157528159Y-114615539D01*
X157285205Y-114514904D01*
X157027286Y-114463600D01*
X156764314Y-114463600D01*
X156506395Y-114514904D01*
X156263441Y-114615539D01*
X156044787Y-114761638D01*
X155858838Y-114947587D01*
X155712739Y-115166241D01*
X155612104Y-115409195D01*
X155560800Y-115667114D01*
X147744578Y-115667114D01*
X147742200Y-115423950D01*
X147583450Y-115265200D01*
X146634200Y-115265200D01*
X146380200Y-115265200D01*
X146360200Y-115265200D01*
X146360200Y-115011200D01*
X146380200Y-115011200D01*
X146380200Y-114061950D01*
X146634200Y-114061950D01*
X146634200Y-115011200D01*
X147583450Y-115011200D01*
X147742200Y-114852450D01*
X147745272Y-114538200D01*
X147733012Y-114413718D01*
X147696702Y-114294020D01*
X147637737Y-114183706D01*
X147558385Y-114087015D01*
X147461694Y-114007663D01*
X147351380Y-113948698D01*
X147231682Y-113912388D01*
X147107200Y-113900128D01*
X146792950Y-113903200D01*
X146634200Y-114061950D01*
X146380200Y-114061950D01*
X146221450Y-113903200D01*
X145907200Y-113900128D01*
X145782718Y-113912388D01*
X145663020Y-113948698D01*
X145552706Y-114007663D01*
X145456015Y-114087015D01*
X145376663Y-114183706D01*
X145349701Y-114234147D01*
X145294467Y-114178913D01*
X145092192Y-114043757D01*
X144867436Y-113950660D01*
X144812902Y-113939812D01*
X144792823Y-113902248D01*
X144660360Y-113740842D01*
X144619918Y-113707652D01*
X143703074Y-112790808D01*
X155727400Y-112790808D01*
X155727400Y-113065992D01*
X155781086Y-113335890D01*
X155886395Y-113590127D01*
X156039280Y-113818935D01*
X156233865Y-114013520D01*
X156462673Y-114166405D01*
X156716910Y-114271714D01*
X156986808Y-114325400D01*
X157261992Y-114325400D01*
X157531890Y-114271714D01*
X157786127Y-114166405D01*
X158014935Y-114013520D01*
X158134490Y-113893965D01*
X158878440Y-113893965D01*
X158945420Y-114134056D01*
X159194448Y-114251156D01*
X159461535Y-114317423D01*
X159736417Y-114330310D01*
X160008533Y-114289322D01*
X160267423Y-114196036D01*
X160383380Y-114134056D01*
X160450360Y-113893965D01*
X159664400Y-113108005D01*
X158878440Y-113893965D01*
X158134490Y-113893965D01*
X158209520Y-113818935D01*
X158362405Y-113590127D01*
X158392092Y-113518457D01*
X158396764Y-113531423D01*
X158458744Y-113647380D01*
X158698835Y-113714360D01*
X159484795Y-112928400D01*
X158698835Y-112142440D01*
X158458744Y-112209420D01*
X158394915Y-112345160D01*
X158362405Y-112266673D01*
X158209520Y-112037865D01*
X158134490Y-111962835D01*
X158878440Y-111962835D01*
X159664400Y-112748795D01*
X160450360Y-111962835D01*
X160383380Y-111722744D01*
X160134352Y-111605644D01*
X159867265Y-111539377D01*
X159592383Y-111526490D01*
X159320267Y-111567478D01*
X159061377Y-111660764D01*
X158945420Y-111722744D01*
X158878440Y-111962835D01*
X158134490Y-111962835D01*
X158014935Y-111843280D01*
X157786127Y-111690395D01*
X157531890Y-111585086D01*
X157261992Y-111531400D01*
X156986808Y-111531400D01*
X156716910Y-111585086D01*
X156462673Y-111690395D01*
X156233865Y-111843280D01*
X156039280Y-112037865D01*
X155886395Y-112266673D01*
X155781086Y-112520910D01*
X155727400Y-112790808D01*
X143703074Y-112790808D01*
X142893600Y-111981335D01*
X142893600Y-105665255D01*
X142898727Y-105613199D01*
X142893600Y-105561143D01*
X142893600Y-105561134D01*
X142878262Y-105405404D01*
X142817650Y-105205593D01*
X142719222Y-105021447D01*
X142686970Y-104982148D01*
X142619949Y-104900482D01*
X142619945Y-104900478D01*
X142586759Y-104860041D01*
X142546322Y-104826855D01*
X139444953Y-101725488D01*
X139411759Y-101685041D01*
X139250353Y-101552578D01*
X139066207Y-101454150D01*
X138866396Y-101393538D01*
X138710666Y-101378200D01*
X138710656Y-101378200D01*
X138658600Y-101373073D01*
X138606544Y-101378200D01*
X132265066Y-101378200D01*
X131768400Y-100881534D01*
X131768400Y-80684000D01*
X144231728Y-80684000D01*
X144231728Y-82384000D01*
X144243988Y-82508482D01*
X144280298Y-82628180D01*
X144339263Y-82738494D01*
X144418615Y-82835185D01*
X144515306Y-82914537D01*
X144625620Y-82973502D01*
X144698180Y-82995513D01*
X144566325Y-83127368D01*
X144403810Y-83370589D01*
X144291868Y-83640842D01*
X144234800Y-83927740D01*
X144234800Y-84220260D01*
X144291868Y-84507158D01*
X144403810Y-84777411D01*
X144566325Y-85020632D01*
X144773168Y-85227475D01*
X144947560Y-85344000D01*
X144773168Y-85460525D01*
X144566325Y-85667368D01*
X144403810Y-85910589D01*
X144291868Y-86180842D01*
X144234800Y-86467740D01*
X144234800Y-86760260D01*
X144291868Y-87047158D01*
X144403810Y-87317411D01*
X144566325Y-87560632D01*
X144773168Y-87767475D01*
X144947560Y-87884000D01*
X144773168Y-88000525D01*
X144566325Y-88207368D01*
X144403810Y-88450589D01*
X144291868Y-88720842D01*
X144234800Y-89007740D01*
X144234800Y-89300260D01*
X144291868Y-89587158D01*
X144403810Y-89857411D01*
X144566325Y-90100632D01*
X144773168Y-90307475D01*
X144947560Y-90424000D01*
X144773168Y-90540525D01*
X144566325Y-90747368D01*
X144403810Y-90990589D01*
X144291868Y-91260842D01*
X144234800Y-91547740D01*
X144234800Y-91840260D01*
X144291868Y-92127158D01*
X144403810Y-92397411D01*
X144566325Y-92640632D01*
X144773168Y-92847475D01*
X144947560Y-92964000D01*
X144773168Y-93080525D01*
X144566325Y-93287368D01*
X144403810Y-93530589D01*
X144291868Y-93800842D01*
X144234800Y-94087740D01*
X144234800Y-94380260D01*
X144291868Y-94667158D01*
X144403810Y-94937411D01*
X144566325Y-95180632D01*
X144773168Y-95387475D01*
X144947560Y-95504000D01*
X144773168Y-95620525D01*
X144566325Y-95827368D01*
X144403810Y-96070589D01*
X144291868Y-96340842D01*
X144234800Y-96627740D01*
X144234800Y-96920260D01*
X144291868Y-97207158D01*
X144403810Y-97477411D01*
X144566325Y-97720632D01*
X144773168Y-97927475D01*
X144947560Y-98044000D01*
X144773168Y-98160525D01*
X144566325Y-98367368D01*
X144403810Y-98610589D01*
X144291868Y-98880842D01*
X144234800Y-99167740D01*
X144234800Y-99460260D01*
X144291868Y-99747158D01*
X144403810Y-100017411D01*
X144566325Y-100260632D01*
X144773168Y-100467475D01*
X144947560Y-100584000D01*
X144773168Y-100700525D01*
X144566325Y-100907368D01*
X144403810Y-101150589D01*
X144291868Y-101420842D01*
X144234800Y-101707740D01*
X144234800Y-102000260D01*
X144291868Y-102287158D01*
X144403810Y-102557411D01*
X144566325Y-102800632D01*
X144773168Y-103007475D01*
X144947560Y-103124000D01*
X144773168Y-103240525D01*
X144566325Y-103447368D01*
X144403810Y-103690589D01*
X144291868Y-103960842D01*
X144234800Y-104247740D01*
X144234800Y-104540260D01*
X144291868Y-104827158D01*
X144403810Y-105097411D01*
X144566325Y-105340632D01*
X144773168Y-105547475D01*
X144947560Y-105664000D01*
X144773168Y-105780525D01*
X144566325Y-105987368D01*
X144403810Y-106230589D01*
X144291868Y-106500842D01*
X144234800Y-106787740D01*
X144234800Y-107080260D01*
X144291868Y-107367158D01*
X144403810Y-107637411D01*
X144566325Y-107880632D01*
X144773168Y-108087475D01*
X144947560Y-108204000D01*
X144773168Y-108320525D01*
X144566325Y-108527368D01*
X144403810Y-108770589D01*
X144291868Y-109040842D01*
X144234800Y-109327740D01*
X144234800Y-109620260D01*
X144291868Y-109907158D01*
X144403810Y-110177411D01*
X144566325Y-110420632D01*
X144773168Y-110627475D01*
X145016389Y-110789990D01*
X145286642Y-110901932D01*
X145573540Y-110959000D01*
X145866060Y-110959000D01*
X146152958Y-110901932D01*
X146423211Y-110789990D01*
X146666432Y-110627475D01*
X146873275Y-110420632D01*
X147035790Y-110177411D01*
X147147732Y-109907158D01*
X147204800Y-109620260D01*
X147204800Y-109327740D01*
X147147732Y-109040842D01*
X147035790Y-108770589D01*
X146873275Y-108527368D01*
X146666432Y-108320525D01*
X146492040Y-108204000D01*
X146666432Y-108087475D01*
X146706793Y-108047114D01*
X155814800Y-108047114D01*
X155814800Y-108310086D01*
X155866104Y-108568005D01*
X155966739Y-108810959D01*
X156112838Y-109029613D01*
X156298787Y-109215562D01*
X156517441Y-109361661D01*
X156760395Y-109462296D01*
X157018314Y-109513600D01*
X157281286Y-109513600D01*
X157539205Y-109462296D01*
X157782159Y-109361661D01*
X158000813Y-109215562D01*
X158186762Y-109029613D01*
X158332861Y-108810959D01*
X158433496Y-108568005D01*
X158484800Y-108310086D01*
X158484800Y-108047114D01*
X158433496Y-107789195D01*
X158332861Y-107546241D01*
X158186762Y-107327587D01*
X158000813Y-107141638D01*
X157782159Y-106995539D01*
X157539205Y-106894904D01*
X157281286Y-106843600D01*
X157018314Y-106843600D01*
X156760395Y-106894904D01*
X156517441Y-106995539D01*
X156298787Y-107141638D01*
X156112838Y-107327587D01*
X155966739Y-107546241D01*
X155866104Y-107789195D01*
X155814800Y-108047114D01*
X146706793Y-108047114D01*
X146873275Y-107880632D01*
X147035790Y-107637411D01*
X147147732Y-107367158D01*
X147204800Y-107080260D01*
X147204800Y-106787740D01*
X147147732Y-106500842D01*
X147035790Y-106230589D01*
X146873275Y-105987368D01*
X146666432Y-105780525D01*
X146492040Y-105664000D01*
X146666432Y-105547475D01*
X146873275Y-105340632D01*
X147020691Y-105120008D01*
X155651200Y-105120008D01*
X155651200Y-105395192D01*
X155704886Y-105665090D01*
X155810195Y-105919327D01*
X155963080Y-106148135D01*
X156157665Y-106342720D01*
X156386473Y-106495605D01*
X156640710Y-106600914D01*
X156910608Y-106654600D01*
X157185792Y-106654600D01*
X157455690Y-106600914D01*
X157709927Y-106495605D01*
X157938735Y-106342720D01*
X158058290Y-106223165D01*
X158802240Y-106223165D01*
X158869220Y-106463256D01*
X159118248Y-106580356D01*
X159385335Y-106646623D01*
X159660217Y-106659510D01*
X159932333Y-106618522D01*
X160191223Y-106525236D01*
X160307180Y-106463256D01*
X160374160Y-106223165D01*
X159588200Y-105437205D01*
X158802240Y-106223165D01*
X158058290Y-106223165D01*
X158133320Y-106148135D01*
X158286205Y-105919327D01*
X158315892Y-105847657D01*
X158320564Y-105860623D01*
X158382544Y-105976580D01*
X158622635Y-106043560D01*
X159408595Y-105257600D01*
X158622635Y-104471640D01*
X158382544Y-104538620D01*
X158318715Y-104674360D01*
X158286205Y-104595873D01*
X158133320Y-104367065D01*
X158058290Y-104292035D01*
X158802240Y-104292035D01*
X159588200Y-105077995D01*
X160374160Y-104292035D01*
X160307180Y-104051944D01*
X160058152Y-103934844D01*
X159791065Y-103868577D01*
X159516183Y-103855690D01*
X159244067Y-103896678D01*
X158985177Y-103989964D01*
X158869220Y-104051944D01*
X158802240Y-104292035D01*
X158058290Y-104292035D01*
X157938735Y-104172480D01*
X157709927Y-104019595D01*
X157455690Y-103914286D01*
X157185792Y-103860600D01*
X156910608Y-103860600D01*
X156640710Y-103914286D01*
X156386473Y-104019595D01*
X156157665Y-104172480D01*
X155963080Y-104367065D01*
X155810195Y-104595873D01*
X155704886Y-104850110D01*
X155651200Y-105120008D01*
X147020691Y-105120008D01*
X147035790Y-105097411D01*
X147147732Y-104827158D01*
X147204800Y-104540260D01*
X147204800Y-104247740D01*
X147147732Y-103960842D01*
X147035790Y-103690589D01*
X146873275Y-103447368D01*
X146666432Y-103240525D01*
X146492040Y-103124000D01*
X146666432Y-103007475D01*
X146873275Y-102800632D01*
X147035790Y-102557411D01*
X147147732Y-102287158D01*
X147204800Y-102000260D01*
X147204800Y-101707740D01*
X147147732Y-101420842D01*
X147035790Y-101150589D01*
X146873275Y-100907368D01*
X146666432Y-100700525D01*
X146492040Y-100584000D01*
X146666432Y-100467475D01*
X146833793Y-100300114D01*
X155687800Y-100300114D01*
X155687800Y-100563086D01*
X155739104Y-100821005D01*
X155839739Y-101063959D01*
X155985838Y-101282613D01*
X156171787Y-101468562D01*
X156390441Y-101614661D01*
X156633395Y-101715296D01*
X156891314Y-101766600D01*
X157154286Y-101766600D01*
X157412205Y-101715296D01*
X157655159Y-101614661D01*
X157873813Y-101468562D01*
X158059762Y-101282613D01*
X158205861Y-101063959D01*
X158306496Y-100821005D01*
X158357800Y-100563086D01*
X158357800Y-100300114D01*
X158306496Y-100042195D01*
X158205861Y-99799241D01*
X158059762Y-99580587D01*
X157873813Y-99394638D01*
X157655159Y-99248539D01*
X157412205Y-99147904D01*
X157154286Y-99096600D01*
X156891314Y-99096600D01*
X156633395Y-99147904D01*
X156390441Y-99248539D01*
X156171787Y-99394638D01*
X155985838Y-99580587D01*
X155839739Y-99799241D01*
X155739104Y-100042195D01*
X155687800Y-100300114D01*
X146833793Y-100300114D01*
X146873275Y-100260632D01*
X147035790Y-100017411D01*
X147147732Y-99747158D01*
X147204800Y-99460260D01*
X147204800Y-99167740D01*
X147147732Y-98880842D01*
X147035790Y-98610589D01*
X146873275Y-98367368D01*
X146666432Y-98160525D01*
X146492040Y-98044000D01*
X146666432Y-97927475D01*
X146873275Y-97720632D01*
X147035790Y-97477411D01*
X147047472Y-97449208D01*
X155651200Y-97449208D01*
X155651200Y-97724392D01*
X155704886Y-97994290D01*
X155810195Y-98248527D01*
X155963080Y-98477335D01*
X156157665Y-98671920D01*
X156386473Y-98824805D01*
X156640710Y-98930114D01*
X156910608Y-98983800D01*
X157185792Y-98983800D01*
X157455690Y-98930114D01*
X157709927Y-98824805D01*
X157938735Y-98671920D01*
X158133320Y-98477335D01*
X158286205Y-98248527D01*
X158315892Y-98176857D01*
X158320564Y-98189823D01*
X158382544Y-98305780D01*
X158622635Y-98372760D01*
X159408595Y-97586800D01*
X158622635Y-96800840D01*
X158382544Y-96867820D01*
X158318715Y-97003560D01*
X158286205Y-96925073D01*
X158133320Y-96696265D01*
X157938735Y-96501680D01*
X157709927Y-96348795D01*
X157455690Y-96243486D01*
X157185792Y-96189800D01*
X156910608Y-96189800D01*
X156640710Y-96243486D01*
X156386473Y-96348795D01*
X156157665Y-96501680D01*
X155963080Y-96696265D01*
X155810195Y-96925073D01*
X155704886Y-97179310D01*
X155651200Y-97449208D01*
X147047472Y-97449208D01*
X147147732Y-97207158D01*
X147204800Y-96920260D01*
X147204800Y-96627740D01*
X147147732Y-96340842D01*
X147035790Y-96070589D01*
X146873275Y-95827368D01*
X146666432Y-95620525D01*
X146492040Y-95504000D01*
X146666432Y-95387475D01*
X146873275Y-95180632D01*
X147035790Y-94937411D01*
X147147732Y-94667158D01*
X147204800Y-94380260D01*
X147204800Y-94087740D01*
X147147732Y-93800842D01*
X147035790Y-93530589D01*
X146873275Y-93287368D01*
X146666432Y-93080525D01*
X146492040Y-92964000D01*
X146666432Y-92847475D01*
X146873275Y-92640632D01*
X146880837Y-92629314D01*
X155637000Y-92629314D01*
X155637000Y-92892286D01*
X155688304Y-93150205D01*
X155788939Y-93393159D01*
X155935038Y-93611813D01*
X156120987Y-93797762D01*
X156339641Y-93943861D01*
X156582595Y-94044496D01*
X156840514Y-94095800D01*
X157103486Y-94095800D01*
X157361405Y-94044496D01*
X157604359Y-93943861D01*
X157823013Y-93797762D01*
X158008962Y-93611813D01*
X158155061Y-93393159D01*
X158255696Y-93150205D01*
X158307000Y-92892286D01*
X158307000Y-92629314D01*
X158255696Y-92371395D01*
X158155061Y-92128441D01*
X158008962Y-91909787D01*
X157823013Y-91723838D01*
X157604359Y-91577739D01*
X157361405Y-91477104D01*
X157103486Y-91425800D01*
X156840514Y-91425800D01*
X156582595Y-91477104D01*
X156339641Y-91577739D01*
X156120987Y-91723838D01*
X155935038Y-91909787D01*
X155788939Y-92128441D01*
X155688304Y-92371395D01*
X155637000Y-92629314D01*
X146880837Y-92629314D01*
X147035790Y-92397411D01*
X147147732Y-92127158D01*
X147204800Y-91840260D01*
X147204800Y-91547740D01*
X147147732Y-91260842D01*
X147035790Y-90990589D01*
X146873275Y-90747368D01*
X146666432Y-90540525D01*
X146492040Y-90424000D01*
X146666432Y-90307475D01*
X146873275Y-90100632D01*
X147035790Y-89857411D01*
X147110597Y-89676808D01*
X155600400Y-89676808D01*
X155600400Y-89951992D01*
X155654086Y-90221890D01*
X155759395Y-90476127D01*
X155912280Y-90704935D01*
X156106865Y-90899520D01*
X156335673Y-91052405D01*
X156589910Y-91157714D01*
X156859808Y-91211400D01*
X157134992Y-91211400D01*
X157404890Y-91157714D01*
X157659127Y-91052405D01*
X157887935Y-90899520D01*
X158082520Y-90704935D01*
X158235405Y-90476127D01*
X158265092Y-90404457D01*
X158269764Y-90417423D01*
X158331744Y-90533380D01*
X158571835Y-90600360D01*
X159357795Y-89814400D01*
X158571835Y-89028440D01*
X158331744Y-89095420D01*
X158267915Y-89231160D01*
X158235405Y-89152673D01*
X158082520Y-88923865D01*
X157887935Y-88729280D01*
X157659127Y-88576395D01*
X157404890Y-88471086D01*
X157134992Y-88417400D01*
X156859808Y-88417400D01*
X156589910Y-88471086D01*
X156335673Y-88576395D01*
X156106865Y-88729280D01*
X155912280Y-88923865D01*
X155759395Y-89152673D01*
X155654086Y-89406910D01*
X155600400Y-89676808D01*
X147110597Y-89676808D01*
X147147732Y-89587158D01*
X147204800Y-89300260D01*
X147204800Y-89007740D01*
X147147732Y-88720842D01*
X147035790Y-88450589D01*
X146873275Y-88207368D01*
X146666432Y-88000525D01*
X146492040Y-87884000D01*
X146666432Y-87767475D01*
X146873275Y-87560632D01*
X147035790Y-87317411D01*
X147147732Y-87047158D01*
X147204800Y-86760260D01*
X147204800Y-86467740D01*
X147147732Y-86180842D01*
X147035790Y-85910589D01*
X146954280Y-85788600D01*
X147913928Y-85788600D01*
X147913928Y-87388600D01*
X147926188Y-87513082D01*
X147962498Y-87632780D01*
X148021463Y-87743094D01*
X148100815Y-87839785D01*
X148197506Y-87919137D01*
X148307820Y-87978102D01*
X148427518Y-88014412D01*
X148552000Y-88026672D01*
X150152000Y-88026672D01*
X150276482Y-88014412D01*
X150396180Y-87978102D01*
X150506494Y-87919137D01*
X150603185Y-87839785D01*
X150682537Y-87743094D01*
X150741502Y-87632780D01*
X150757117Y-87581302D01*
X151038903Y-87581302D01*
X151110486Y-87825271D01*
X151365996Y-87946171D01*
X151640184Y-88014900D01*
X151922512Y-88028817D01*
X152202130Y-87987387D01*
X152468292Y-87892203D01*
X152593514Y-87825271D01*
X152665097Y-87581302D01*
X151852000Y-86768205D01*
X151038903Y-87581302D01*
X150757117Y-87581302D01*
X150777812Y-87513082D01*
X150790072Y-87388600D01*
X150790072Y-87381385D01*
X150859298Y-87401697D01*
X151672395Y-86588600D01*
X152031605Y-86588600D01*
X152844702Y-87401697D01*
X153088671Y-87330114D01*
X153209571Y-87074604D01*
X153278300Y-86800416D01*
X153292217Y-86518088D01*
X153250787Y-86238470D01*
X153155603Y-85972308D01*
X153088671Y-85847086D01*
X152844702Y-85775503D01*
X152031605Y-86588600D01*
X151672395Y-86588600D01*
X150859298Y-85775503D01*
X150790072Y-85795815D01*
X150790072Y-85788600D01*
X150777812Y-85664118D01*
X150757118Y-85595898D01*
X151038903Y-85595898D01*
X151852000Y-86408995D01*
X152665097Y-85595898D01*
X152593514Y-85351929D01*
X152338004Y-85231029D01*
X152063816Y-85162300D01*
X151781488Y-85148383D01*
X151501870Y-85189813D01*
X151235708Y-85284997D01*
X151110486Y-85351929D01*
X151038903Y-85595898D01*
X150757118Y-85595898D01*
X150741502Y-85544420D01*
X150682537Y-85434106D01*
X150603185Y-85337415D01*
X150506494Y-85258063D01*
X150396180Y-85199098D01*
X150276482Y-85162788D01*
X150152000Y-85150528D01*
X148552000Y-85150528D01*
X148427518Y-85162788D01*
X148307820Y-85199098D01*
X148197506Y-85258063D01*
X148100815Y-85337415D01*
X148021463Y-85434106D01*
X147962498Y-85544420D01*
X147926188Y-85664118D01*
X147913928Y-85788600D01*
X146954280Y-85788600D01*
X146873275Y-85667368D01*
X146666432Y-85460525D01*
X146492040Y-85344000D01*
X146666432Y-85227475D01*
X146873275Y-85020632D01*
X147016611Y-84806114D01*
X155637000Y-84806114D01*
X155637000Y-85069086D01*
X155688304Y-85327005D01*
X155788939Y-85569959D01*
X155935038Y-85788613D01*
X156120987Y-85974562D01*
X156339641Y-86120661D01*
X156582595Y-86221296D01*
X156840514Y-86272600D01*
X157103486Y-86272600D01*
X157361405Y-86221296D01*
X157604359Y-86120661D01*
X157823013Y-85974562D01*
X158008962Y-85788613D01*
X158155061Y-85569959D01*
X158255696Y-85327005D01*
X158307000Y-85069086D01*
X158307000Y-84806114D01*
X158255696Y-84548195D01*
X158155061Y-84305241D01*
X158008962Y-84086587D01*
X157823013Y-83900638D01*
X157604359Y-83754539D01*
X157361405Y-83653904D01*
X157103486Y-83602600D01*
X156840514Y-83602600D01*
X156582595Y-83653904D01*
X156339641Y-83754539D01*
X156120987Y-83900638D01*
X155935038Y-84086587D01*
X155788939Y-84305241D01*
X155688304Y-84548195D01*
X155637000Y-84806114D01*
X147016611Y-84806114D01*
X147035790Y-84777411D01*
X147147732Y-84507158D01*
X147204800Y-84220260D01*
X147204800Y-83927740D01*
X147147732Y-83640842D01*
X147035790Y-83370589D01*
X146873275Y-83127368D01*
X146741420Y-82995513D01*
X146813980Y-82973502D01*
X146924294Y-82914537D01*
X147020985Y-82835185D01*
X147100337Y-82738494D01*
X147159302Y-82628180D01*
X147195612Y-82508482D01*
X147207872Y-82384000D01*
X147207872Y-81599608D01*
X155473400Y-81599608D01*
X155473400Y-81874792D01*
X155527086Y-82144690D01*
X155632395Y-82398927D01*
X155785280Y-82627735D01*
X155979865Y-82822320D01*
X156208673Y-82975205D01*
X156462910Y-83080514D01*
X156732808Y-83134200D01*
X157007992Y-83134200D01*
X157277890Y-83080514D01*
X157532127Y-82975205D01*
X157760935Y-82822320D01*
X157955520Y-82627735D01*
X158108405Y-82398927D01*
X158138092Y-82327257D01*
X158142764Y-82340223D01*
X158204744Y-82456180D01*
X158444835Y-82523160D01*
X159230795Y-81737200D01*
X158444835Y-80951240D01*
X158204744Y-81018220D01*
X158140915Y-81153960D01*
X158108405Y-81075473D01*
X157955520Y-80846665D01*
X157880490Y-80771635D01*
X158624440Y-80771635D01*
X159410400Y-81557595D01*
X160196360Y-80771635D01*
X160129380Y-80531544D01*
X159880352Y-80414444D01*
X159613265Y-80348177D01*
X159338383Y-80335290D01*
X159066267Y-80376278D01*
X158807377Y-80469564D01*
X158691420Y-80531544D01*
X158624440Y-80771635D01*
X157880490Y-80771635D01*
X157760935Y-80652080D01*
X157532127Y-80499195D01*
X157277890Y-80393886D01*
X157007992Y-80340200D01*
X156732808Y-80340200D01*
X156462910Y-80393886D01*
X156208673Y-80499195D01*
X155979865Y-80652080D01*
X155785280Y-80846665D01*
X155632395Y-81075473D01*
X155527086Y-81329710D01*
X155473400Y-81599608D01*
X147207872Y-81599608D01*
X147207872Y-80684000D01*
X147195612Y-80559518D01*
X147159302Y-80439820D01*
X147100337Y-80329506D01*
X147020985Y-80232815D01*
X146924294Y-80153463D01*
X146813980Y-80094498D01*
X146694282Y-80058188D01*
X146569800Y-80045928D01*
X144869800Y-80045928D01*
X144745318Y-80058188D01*
X144625620Y-80094498D01*
X144515306Y-80153463D01*
X144418615Y-80232815D01*
X144339263Y-80329506D01*
X144280298Y-80439820D01*
X144243988Y-80559518D01*
X144231728Y-80684000D01*
X131768400Y-80684000D01*
X131768400Y-79274655D01*
X131773527Y-79222599D01*
X131768400Y-79170543D01*
X131768400Y-79170534D01*
X131753062Y-79014804D01*
X131692450Y-78814993D01*
X131594022Y-78630847D01*
X131556759Y-78585442D01*
X131494749Y-78509882D01*
X131494745Y-78509878D01*
X131461559Y-78469441D01*
X131421122Y-78436255D01*
X129688381Y-76703514D01*
X155586200Y-76703514D01*
X155586200Y-76966486D01*
X155637504Y-77224405D01*
X155738139Y-77467359D01*
X155884238Y-77686013D01*
X156070187Y-77871962D01*
X156288841Y-78018061D01*
X156531795Y-78118696D01*
X156789714Y-78170000D01*
X157052686Y-78170000D01*
X157310605Y-78118696D01*
X157553559Y-78018061D01*
X157772213Y-77871962D01*
X157958162Y-77686013D01*
X158104261Y-77467359D01*
X158204896Y-77224405D01*
X158256200Y-76966486D01*
X158256200Y-76703514D01*
X160666200Y-76703514D01*
X160666200Y-76966486D01*
X160717504Y-77224405D01*
X160818139Y-77467359D01*
X160964238Y-77686013D01*
X161150187Y-77871962D01*
X161368841Y-78018061D01*
X161611795Y-78118696D01*
X161869714Y-78170000D01*
X162132686Y-78170000D01*
X162390605Y-78118696D01*
X162633559Y-78018061D01*
X162852213Y-77871962D01*
X163038162Y-77686013D01*
X163184261Y-77467359D01*
X163284896Y-77224405D01*
X163336200Y-76966486D01*
X163336200Y-76703514D01*
X163284896Y-76445595D01*
X163184261Y-76202641D01*
X163038162Y-75983987D01*
X162852213Y-75798038D01*
X162635147Y-75653000D01*
X169555528Y-75653000D01*
X169567788Y-75777482D01*
X169604098Y-75897180D01*
X169663063Y-76007494D01*
X169742415Y-76104185D01*
X169839106Y-76183537D01*
X169949420Y-76242502D01*
X170069118Y-76278812D01*
X170193600Y-76291072D01*
X170757850Y-76288000D01*
X170916600Y-76129250D01*
X170916600Y-74930000D01*
X169717350Y-74930000D01*
X169558600Y-75088750D01*
X169555528Y-75653000D01*
X162635147Y-75653000D01*
X162633559Y-75651939D01*
X162390605Y-75551304D01*
X162132686Y-75500000D01*
X161869714Y-75500000D01*
X161611795Y-75551304D01*
X161368841Y-75651939D01*
X161150187Y-75798038D01*
X160964238Y-75983987D01*
X160818139Y-76202641D01*
X160717504Y-76445595D01*
X160666200Y-76703514D01*
X158256200Y-76703514D01*
X158204896Y-76445595D01*
X158104261Y-76202641D01*
X157958162Y-75983987D01*
X157772213Y-75798038D01*
X157553559Y-75651939D01*
X157310605Y-75551304D01*
X157052686Y-75500000D01*
X156789714Y-75500000D01*
X156531795Y-75551304D01*
X156288841Y-75651939D01*
X156070187Y-75798038D01*
X155884238Y-75983987D01*
X155738139Y-76202641D01*
X155637504Y-76445595D01*
X155586200Y-76703514D01*
X129688381Y-76703514D01*
X126884800Y-73899935D01*
X126884800Y-73767740D01*
X126827732Y-73480842D01*
X126757191Y-73310540D01*
X147841600Y-73310540D01*
X147841600Y-73603060D01*
X147898668Y-73889958D01*
X148010610Y-74160211D01*
X148173125Y-74403432D01*
X148379968Y-74610275D01*
X148623189Y-74772790D01*
X148893442Y-74884732D01*
X149180340Y-74941800D01*
X149472860Y-74941800D01*
X149759758Y-74884732D01*
X150030011Y-74772790D01*
X150273232Y-74610275D01*
X150405087Y-74478420D01*
X150427098Y-74550980D01*
X150486063Y-74661294D01*
X150565415Y-74757985D01*
X150662106Y-74837337D01*
X150772420Y-74896302D01*
X150892118Y-74932612D01*
X151016600Y-74944872D01*
X151580850Y-74941800D01*
X151739600Y-74783050D01*
X151739600Y-73583800D01*
X151993600Y-73583800D01*
X151993600Y-74783050D01*
X152152350Y-74941800D01*
X152716600Y-74944872D01*
X152841082Y-74932612D01*
X152960780Y-74896302D01*
X153071094Y-74837337D01*
X153167785Y-74757985D01*
X153247137Y-74661294D01*
X153306102Y-74550980D01*
X153342412Y-74431282D01*
X153354672Y-74306800D01*
X153352746Y-73953000D01*
X169555528Y-73953000D01*
X169558600Y-74517250D01*
X169717350Y-74676000D01*
X170916600Y-74676000D01*
X170916600Y-73476750D01*
X170757850Y-73318000D01*
X170193600Y-73314928D01*
X170069118Y-73327188D01*
X169949420Y-73363498D01*
X169839106Y-73422463D01*
X169742415Y-73501815D01*
X169663063Y-73598506D01*
X169604098Y-73708820D01*
X169567788Y-73828518D01*
X169555528Y-73953000D01*
X153352746Y-73953000D01*
X153351600Y-73742550D01*
X153192850Y-73583800D01*
X151993600Y-73583800D01*
X151739600Y-73583800D01*
X151719600Y-73583800D01*
X151719600Y-73329800D01*
X151739600Y-73329800D01*
X151739600Y-72130550D01*
X151993600Y-72130550D01*
X151993600Y-73329800D01*
X153192850Y-73329800D01*
X153351600Y-73171050D01*
X153354672Y-72606800D01*
X153342412Y-72482318D01*
X153306102Y-72362620D01*
X153247137Y-72252306D01*
X153167785Y-72155615D01*
X153071094Y-72076263D01*
X152960780Y-72017298D01*
X152841082Y-71980988D01*
X152716600Y-71968728D01*
X152152350Y-71971800D01*
X151993600Y-72130550D01*
X151739600Y-72130550D01*
X151580850Y-71971800D01*
X151016600Y-71968728D01*
X150892118Y-71980988D01*
X150772420Y-72017298D01*
X150662106Y-72076263D01*
X150565415Y-72155615D01*
X150486063Y-72252306D01*
X150427098Y-72362620D01*
X150405087Y-72435180D01*
X150273232Y-72303325D01*
X150030011Y-72140810D01*
X149759758Y-72028868D01*
X149472860Y-71971800D01*
X149180340Y-71971800D01*
X148893442Y-72028868D01*
X148623189Y-72140810D01*
X148379968Y-72303325D01*
X148173125Y-72510168D01*
X148010610Y-72753389D01*
X147898668Y-73023642D01*
X147841600Y-73310540D01*
X126757191Y-73310540D01*
X126715790Y-73210589D01*
X126553275Y-72967368D01*
X126544265Y-72958358D01*
X126517852Y-72871285D01*
X126487945Y-72815333D01*
X126493980Y-72813502D01*
X126604294Y-72754537D01*
X126700985Y-72675185D01*
X126780337Y-72578494D01*
X126839302Y-72468180D01*
X126875612Y-72348482D01*
X126887872Y-72224000D01*
X126887872Y-70524000D01*
X126875612Y-70399518D01*
X126839302Y-70279820D01*
X126780337Y-70169506D01*
X126700985Y-70072815D01*
X126604294Y-69993463D01*
X126493980Y-69934498D01*
X126374282Y-69898188D01*
X126249800Y-69885928D01*
X124549800Y-69885928D01*
X124425318Y-69898188D01*
X124305620Y-69934498D01*
X124195306Y-69993463D01*
X124098615Y-70072815D01*
X124019263Y-70169506D01*
X123960298Y-70279820D01*
X123923988Y-70399518D01*
X123911728Y-70524000D01*
X123911728Y-71433691D01*
X123135000Y-70656964D01*
X123135000Y-69620163D01*
X171861683Y-72618728D01*
G37*
X171861683Y-72618728D02*
X171798345Y-73315447D01*
X171329350Y-73318000D01*
X171170600Y-73476750D01*
X171170600Y-74676000D01*
X171190600Y-74676000D01*
X171190600Y-74930000D01*
X171170600Y-74930000D01*
X171170600Y-76129250D01*
X171329350Y-76288000D01*
X171528015Y-76289082D01*
X171383481Y-77878957D01*
X161993325Y-78373176D01*
X161968711Y-78376915D01*
X161945300Y-78385384D01*
X161923990Y-78398258D01*
X161905602Y-78415041D01*
X161891098Y-78434659D01*
X160391098Y-80934659D01*
X160382397Y-80953034D01*
X160375965Y-80951240D01*
X159590005Y-81737200D01*
X159604148Y-81751343D01*
X159424543Y-81930948D01*
X159410400Y-81916805D01*
X158624440Y-82702765D01*
X158691420Y-82942856D01*
X158940448Y-83059956D01*
X159207535Y-83126223D01*
X159482417Y-83139110D01*
X159754533Y-83098122D01*
X160013423Y-83004836D01*
X160129380Y-82942856D01*
X160196359Y-82702767D01*
X160312769Y-82819177D01*
X160393209Y-82738737D01*
X160463176Y-88755830D01*
X160439769Y-88732423D01*
X160323359Y-88848833D01*
X160256380Y-88608744D01*
X160007352Y-88491644D01*
X159740265Y-88425377D01*
X159465383Y-88412490D01*
X159193267Y-88453478D01*
X158934377Y-88546764D01*
X158818420Y-88608744D01*
X158751440Y-88848835D01*
X159537400Y-89634795D01*
X159551543Y-89620653D01*
X159731148Y-89800258D01*
X159717005Y-89814400D01*
X159731148Y-89828543D01*
X159551543Y-90008148D01*
X159537400Y-89994005D01*
X158751440Y-90779965D01*
X158818420Y-91020056D01*
X159067448Y-91137156D01*
X159334535Y-91203423D01*
X159609417Y-91216310D01*
X159881533Y-91175322D01*
X160140423Y-91082036D01*
X160256380Y-91020056D01*
X160323359Y-90779967D01*
X160439769Y-90896377D01*
X160487511Y-90848635D01*
X160554018Y-96568272D01*
X160490569Y-96504823D01*
X160374159Y-96621233D01*
X160307180Y-96381144D01*
X160058152Y-96264044D01*
X159791065Y-96197777D01*
X159516183Y-96184890D01*
X159244067Y-96225878D01*
X158985177Y-96319164D01*
X158869220Y-96381144D01*
X158802240Y-96621235D01*
X159588200Y-97407195D01*
X159602343Y-97393053D01*
X159781948Y-97572658D01*
X159767805Y-97586800D01*
X159781948Y-97600943D01*
X159602343Y-97780548D01*
X159588200Y-97766405D01*
X158802240Y-98552365D01*
X158869220Y-98792456D01*
X159118248Y-98909556D01*
X159385335Y-98975823D01*
X159660217Y-98988710D01*
X159932333Y-98947722D01*
X160191223Y-98854436D01*
X160307180Y-98792456D01*
X160374159Y-98552367D01*
X160490569Y-98668777D01*
X160577433Y-98581913D01*
X160646218Y-104497432D01*
X160553765Y-104471640D01*
X159767805Y-105257600D01*
X160553765Y-106043560D01*
X160663839Y-106012852D01*
X160735455Y-112171869D01*
X160629965Y-112142440D01*
X159844005Y-112928400D01*
X160629965Y-113714360D01*
X160752992Y-113680038D01*
X160770887Y-115218996D01*
X160692104Y-115409195D01*
X160640800Y-115667114D01*
X160640800Y-115930086D01*
X160692104Y-116188005D01*
X160784755Y-116411685D01*
X160824102Y-119795519D01*
X160763195Y-119886673D01*
X160733508Y-119958343D01*
X160728836Y-119945377D01*
X160666856Y-119829420D01*
X160426765Y-119762440D01*
X159640805Y-120548400D01*
X160426765Y-121334360D01*
X160666856Y-121267380D01*
X160730685Y-121131640D01*
X160763195Y-121210127D01*
X160841921Y-121327949D01*
X160871295Y-123854092D01*
X141023376Y-121122727D01*
X141058000Y-120948660D01*
X141058000Y-120656140D01*
X141009201Y-120410808D01*
X155524200Y-120410808D01*
X155524200Y-120685992D01*
X155577886Y-120955890D01*
X155683195Y-121210127D01*
X155836080Y-121438935D01*
X156030665Y-121633520D01*
X156259473Y-121786405D01*
X156513710Y-121891714D01*
X156783608Y-121945400D01*
X157058792Y-121945400D01*
X157328690Y-121891714D01*
X157582927Y-121786405D01*
X157811735Y-121633520D01*
X157931290Y-121513965D01*
X158675240Y-121513965D01*
X158742220Y-121754056D01*
X158991248Y-121871156D01*
X159258335Y-121937423D01*
X159533217Y-121950310D01*
X159805333Y-121909322D01*
X160064223Y-121816036D01*
X160180180Y-121754056D01*
X160247160Y-121513965D01*
X159461200Y-120728005D01*
X158675240Y-121513965D01*
X157931290Y-121513965D01*
X158006320Y-121438935D01*
X158159205Y-121210127D01*
X158188892Y-121138457D01*
X158193564Y-121151423D01*
X158255544Y-121267380D01*
X158495635Y-121334360D01*
X159281595Y-120548400D01*
X158495635Y-119762440D01*
X158255544Y-119829420D01*
X158191715Y-119965160D01*
X158159205Y-119886673D01*
X158006320Y-119657865D01*
X157931290Y-119582835D01*
X158675240Y-119582835D01*
X159461200Y-120368795D01*
X160247160Y-119582835D01*
X160180180Y-119342744D01*
X159931152Y-119225644D01*
X159664065Y-119159377D01*
X159389183Y-119146490D01*
X159117067Y-119187478D01*
X158858177Y-119280764D01*
X158742220Y-119342744D01*
X158675240Y-119582835D01*
X157931290Y-119582835D01*
X157811735Y-119463280D01*
X157582927Y-119310395D01*
X157328690Y-119205086D01*
X157058792Y-119151400D01*
X156783608Y-119151400D01*
X156513710Y-119205086D01*
X156259473Y-119310395D01*
X156030665Y-119463280D01*
X155836080Y-119657865D01*
X155683195Y-119886673D01*
X155577886Y-120140910D01*
X155524200Y-120410808D01*
X141009201Y-120410808D01*
X141000932Y-120369242D01*
X140888990Y-120098989D01*
X140726475Y-119855768D01*
X140519632Y-119648925D01*
X140276411Y-119486410D01*
X140006158Y-119374468D01*
X139719260Y-119317400D01*
X139426740Y-119317400D01*
X139139842Y-119374468D01*
X138869589Y-119486410D01*
X138626368Y-119648925D01*
X138419525Y-119855768D01*
X138257010Y-120098989D01*
X138145068Y-120369242D01*
X138088000Y-120656140D01*
X138088000Y-120718776D01*
X137023056Y-120572224D01*
X136987732Y-120394642D01*
X136875790Y-120124389D01*
X136713275Y-119881168D01*
X136506432Y-119674325D01*
X136263211Y-119511810D01*
X135992958Y-119399868D01*
X135706060Y-119342800D01*
X135413540Y-119342800D01*
X135126642Y-119399868D01*
X134856389Y-119511810D01*
X134613168Y-119674325D01*
X134519693Y-119767800D01*
X131561775Y-119767800D01*
X131559413Y-119765438D01*
X131340759Y-119619339D01*
X131097805Y-119518704D01*
X130839886Y-119467400D01*
X130576914Y-119467400D01*
X130318995Y-119518704D01*
X130081706Y-119616993D01*
X127707683Y-119290292D01*
X127884562Y-119113413D01*
X128030661Y-118894759D01*
X128131296Y-118651805D01*
X128182600Y-118393886D01*
X128182600Y-118130914D01*
X128131296Y-117872995D01*
X128030661Y-117630041D01*
X127884562Y-117411387D01*
X127698613Y-117225438D01*
X127479959Y-117079339D01*
X127237005Y-116978704D01*
X126979086Y-116927400D01*
X126716114Y-116927400D01*
X126458195Y-116978704D01*
X126215241Y-117079339D01*
X125996587Y-117225438D01*
X125810638Y-117411387D01*
X125664539Y-117630041D01*
X125563904Y-117872995D01*
X125512600Y-118130914D01*
X125512600Y-118393886D01*
X125563904Y-118651805D01*
X125664539Y-118894759D01*
X125748694Y-119020706D01*
X106628158Y-116389440D01*
X106636475Y-115590914D01*
X129373400Y-115590914D01*
X129373400Y-115853886D01*
X129424704Y-116111805D01*
X129525339Y-116354759D01*
X129671438Y-116573413D01*
X129857387Y-116759362D01*
X130076041Y-116905461D01*
X130318995Y-117006096D01*
X130576914Y-117057400D01*
X130839886Y-117057400D01*
X131097805Y-117006096D01*
X131340759Y-116905461D01*
X131559413Y-116759362D01*
X131745362Y-116573413D01*
X131891461Y-116354759D01*
X131992096Y-116111805D01*
X132043400Y-115853886D01*
X132043400Y-115590914D01*
X131992096Y-115332995D01*
X131891461Y-115090041D01*
X131745362Y-114871387D01*
X131559413Y-114685438D01*
X131340759Y-114539339D01*
X131097805Y-114438704D01*
X130839886Y-114387400D01*
X130576914Y-114387400D01*
X130318995Y-114438704D01*
X130076041Y-114539339D01*
X129857387Y-114685438D01*
X129671438Y-114871387D01*
X129525339Y-115090041D01*
X129424704Y-115332995D01*
X129373400Y-115590914D01*
X106636475Y-115590914D01*
X106680979Y-111318600D01*
X111334728Y-111318600D01*
X111346988Y-111443082D01*
X111383298Y-111562780D01*
X111442263Y-111673094D01*
X111521615Y-111769785D01*
X111618306Y-111849137D01*
X111728620Y-111908102D01*
X111848318Y-111944412D01*
X111972800Y-111956672D01*
X112287050Y-111953600D01*
X112445800Y-111794850D01*
X112445800Y-110845600D01*
X112699800Y-110845600D01*
X112699800Y-111794850D01*
X112858550Y-111953600D01*
X113172800Y-111956672D01*
X113297282Y-111944412D01*
X113416980Y-111908102D01*
X113527294Y-111849137D01*
X113623985Y-111769785D01*
X113703337Y-111673094D01*
X113762302Y-111562780D01*
X113798612Y-111443082D01*
X113810872Y-111318600D01*
X113807800Y-111004350D01*
X113649050Y-110845600D01*
X112699800Y-110845600D01*
X112445800Y-110845600D01*
X111496550Y-110845600D01*
X111337800Y-111004350D01*
X111334728Y-111318600D01*
X106680979Y-111318600D01*
X106813050Y-98639875D01*
X106892705Y-98693099D01*
X107172057Y-98808811D01*
X107468616Y-98867800D01*
X107770984Y-98867800D01*
X108067543Y-98808811D01*
X108346895Y-98693099D01*
X108598305Y-98525112D01*
X108812112Y-98311305D01*
X108980099Y-98059895D01*
X109095811Y-97780543D01*
X109154800Y-97483984D01*
X109154800Y-97181616D01*
X109095811Y-96885057D01*
X108980099Y-96605705D01*
X108812112Y-96354295D01*
X108598305Y-96140488D01*
X108387700Y-95999766D01*
X108387700Y-95345265D01*
X111512800Y-98470366D01*
X111512801Y-108082059D01*
X111478357Y-108133608D01*
X111385260Y-108358364D01*
X111337800Y-108596963D01*
X111337800Y-108840237D01*
X111385260Y-109078836D01*
X111478357Y-109303592D01*
X111613513Y-109505867D01*
X111668747Y-109561101D01*
X111618306Y-109588063D01*
X111521615Y-109667415D01*
X111442263Y-109764106D01*
X111383298Y-109874420D01*
X111346988Y-109994118D01*
X111334728Y-110118600D01*
X111337800Y-110432850D01*
X111496550Y-110591600D01*
X112445800Y-110591600D01*
X112445800Y-110571600D01*
X112699800Y-110571600D01*
X112699800Y-110591600D01*
X113649050Y-110591600D01*
X113807800Y-110432850D01*
X113810872Y-110118600D01*
X113798612Y-109994118D01*
X113762302Y-109874420D01*
X113711084Y-109778600D01*
X115645535Y-109778600D01*
X119000050Y-113133116D01*
X119033241Y-113173559D01*
X119194647Y-113306022D01*
X119367384Y-113398352D01*
X119378793Y-113404450D01*
X119578603Y-113465062D01*
X119596719Y-113466846D01*
X119734334Y-113480400D01*
X119734342Y-113480400D01*
X119786400Y-113485527D01*
X119838458Y-113480400D01*
X141394535Y-113480400D01*
X142995733Y-115081599D01*
X143021579Y-115129954D01*
X143154042Y-115291360D01*
X143194490Y-115324555D01*
X143307565Y-115437630D01*
X143319660Y-115498436D01*
X143412757Y-115723192D01*
X143547913Y-115925467D01*
X143719933Y-116097487D01*
X143922208Y-116232643D01*
X144146964Y-116325740D01*
X144385563Y-116373200D01*
X144628837Y-116373200D01*
X144867436Y-116325740D01*
X145092192Y-116232643D01*
X145294467Y-116097487D01*
X145349701Y-116042253D01*
X145376663Y-116092694D01*
X145456015Y-116189385D01*
X145552706Y-116268737D01*
X145663020Y-116327702D01*
X145782718Y-116364012D01*
X145907200Y-116376272D01*
X146221450Y-116373200D01*
X146380200Y-116214450D01*
X146380200Y-115265200D01*
X146634200Y-115265200D01*
X146634200Y-116214450D01*
X146792950Y-116373200D01*
X147107200Y-116376272D01*
X147231682Y-116364012D01*
X147351380Y-116327702D01*
X147461694Y-116268737D01*
X147558385Y-116189385D01*
X147637737Y-116092694D01*
X147696702Y-115982380D01*
X147733012Y-115862682D01*
X147745272Y-115738200D01*
X147744578Y-115667114D01*
X155560800Y-115667114D01*
X155560800Y-115930086D01*
X155612104Y-116188005D01*
X155712739Y-116430959D01*
X155858838Y-116649613D01*
X156044787Y-116835562D01*
X156263441Y-116981661D01*
X156506395Y-117082296D01*
X156764314Y-117133600D01*
X157027286Y-117133600D01*
X157285205Y-117082296D01*
X157528159Y-116981661D01*
X157746813Y-116835562D01*
X157932762Y-116649613D01*
X158078861Y-116430959D01*
X158179496Y-116188005D01*
X158230800Y-115930086D01*
X158230800Y-115667114D01*
X158179496Y-115409195D01*
X158078861Y-115166241D01*
X157932762Y-114947587D01*
X157746813Y-114761638D01*
X157528159Y-114615539D01*
X157285205Y-114514904D01*
X157027286Y-114463600D01*
X156764314Y-114463600D01*
X156506395Y-114514904D01*
X156263441Y-114615539D01*
X156044787Y-114761638D01*
X155858838Y-114947587D01*
X155712739Y-115166241D01*
X155612104Y-115409195D01*
X155560800Y-115667114D01*
X147744578Y-115667114D01*
X147742200Y-115423950D01*
X147583450Y-115265200D01*
X146634200Y-115265200D01*
X146380200Y-115265200D01*
X146360200Y-115265200D01*
X146360200Y-115011200D01*
X146380200Y-115011200D01*
X146380200Y-114061950D01*
X146634200Y-114061950D01*
X146634200Y-115011200D01*
X147583450Y-115011200D01*
X147742200Y-114852450D01*
X147745272Y-114538200D01*
X147733012Y-114413718D01*
X147696702Y-114294020D01*
X147637737Y-114183706D01*
X147558385Y-114087015D01*
X147461694Y-114007663D01*
X147351380Y-113948698D01*
X147231682Y-113912388D01*
X147107200Y-113900128D01*
X146792950Y-113903200D01*
X146634200Y-114061950D01*
X146380200Y-114061950D01*
X146221450Y-113903200D01*
X145907200Y-113900128D01*
X145782718Y-113912388D01*
X145663020Y-113948698D01*
X145552706Y-114007663D01*
X145456015Y-114087015D01*
X145376663Y-114183706D01*
X145349701Y-114234147D01*
X145294467Y-114178913D01*
X145092192Y-114043757D01*
X144867436Y-113950660D01*
X144812902Y-113939812D01*
X144792823Y-113902248D01*
X144660360Y-113740842D01*
X144619918Y-113707652D01*
X143703074Y-112790808D01*
X155727400Y-112790808D01*
X155727400Y-113065992D01*
X155781086Y-113335890D01*
X155886395Y-113590127D01*
X156039280Y-113818935D01*
X156233865Y-114013520D01*
X156462673Y-114166405D01*
X156716910Y-114271714D01*
X156986808Y-114325400D01*
X157261992Y-114325400D01*
X157531890Y-114271714D01*
X157786127Y-114166405D01*
X158014935Y-114013520D01*
X158134490Y-113893965D01*
X158878440Y-113893965D01*
X158945420Y-114134056D01*
X159194448Y-114251156D01*
X159461535Y-114317423D01*
X159736417Y-114330310D01*
X160008533Y-114289322D01*
X160267423Y-114196036D01*
X160383380Y-114134056D01*
X160450360Y-113893965D01*
X159664400Y-113108005D01*
X158878440Y-113893965D01*
X158134490Y-113893965D01*
X158209520Y-113818935D01*
X158362405Y-113590127D01*
X158392092Y-113518457D01*
X158396764Y-113531423D01*
X158458744Y-113647380D01*
X158698835Y-113714360D01*
X159484795Y-112928400D01*
X158698835Y-112142440D01*
X158458744Y-112209420D01*
X158394915Y-112345160D01*
X158362405Y-112266673D01*
X158209520Y-112037865D01*
X158134490Y-111962835D01*
X158878440Y-111962835D01*
X159664400Y-112748795D01*
X160450360Y-111962835D01*
X160383380Y-111722744D01*
X160134352Y-111605644D01*
X159867265Y-111539377D01*
X159592383Y-111526490D01*
X159320267Y-111567478D01*
X159061377Y-111660764D01*
X158945420Y-111722744D01*
X158878440Y-111962835D01*
X158134490Y-111962835D01*
X158014935Y-111843280D01*
X157786127Y-111690395D01*
X157531890Y-111585086D01*
X157261992Y-111531400D01*
X156986808Y-111531400D01*
X156716910Y-111585086D01*
X156462673Y-111690395D01*
X156233865Y-111843280D01*
X156039280Y-112037865D01*
X155886395Y-112266673D01*
X155781086Y-112520910D01*
X155727400Y-112790808D01*
X143703074Y-112790808D01*
X142893600Y-111981335D01*
X142893600Y-105665255D01*
X142898727Y-105613199D01*
X142893600Y-105561143D01*
X142893600Y-105561134D01*
X142878262Y-105405404D01*
X142817650Y-105205593D01*
X142719222Y-105021447D01*
X142686970Y-104982148D01*
X142619949Y-104900482D01*
X142619945Y-104900478D01*
X142586759Y-104860041D01*
X142546322Y-104826855D01*
X139444953Y-101725488D01*
X139411759Y-101685041D01*
X139250353Y-101552578D01*
X139066207Y-101454150D01*
X138866396Y-101393538D01*
X138710666Y-101378200D01*
X138710656Y-101378200D01*
X138658600Y-101373073D01*
X138606544Y-101378200D01*
X132265066Y-101378200D01*
X131768400Y-100881534D01*
X131768400Y-80684000D01*
X144231728Y-80684000D01*
X144231728Y-82384000D01*
X144243988Y-82508482D01*
X144280298Y-82628180D01*
X144339263Y-82738494D01*
X144418615Y-82835185D01*
X144515306Y-82914537D01*
X144625620Y-82973502D01*
X144698180Y-82995513D01*
X144566325Y-83127368D01*
X144403810Y-83370589D01*
X144291868Y-83640842D01*
X144234800Y-83927740D01*
X144234800Y-84220260D01*
X144291868Y-84507158D01*
X144403810Y-84777411D01*
X144566325Y-85020632D01*
X144773168Y-85227475D01*
X144947560Y-85344000D01*
X144773168Y-85460525D01*
X144566325Y-85667368D01*
X144403810Y-85910589D01*
X144291868Y-86180842D01*
X144234800Y-86467740D01*
X144234800Y-86760260D01*
X144291868Y-87047158D01*
X144403810Y-87317411D01*
X144566325Y-87560632D01*
X144773168Y-87767475D01*
X144947560Y-87884000D01*
X144773168Y-88000525D01*
X144566325Y-88207368D01*
X144403810Y-88450589D01*
X144291868Y-88720842D01*
X144234800Y-89007740D01*
X144234800Y-89300260D01*
X144291868Y-89587158D01*
X144403810Y-89857411D01*
X144566325Y-90100632D01*
X144773168Y-90307475D01*
X144947560Y-90424000D01*
X144773168Y-90540525D01*
X144566325Y-90747368D01*
X144403810Y-90990589D01*
X144291868Y-91260842D01*
X144234800Y-91547740D01*
X144234800Y-91840260D01*
X144291868Y-92127158D01*
X144403810Y-92397411D01*
X144566325Y-92640632D01*
X144773168Y-92847475D01*
X144947560Y-92964000D01*
X144773168Y-93080525D01*
X144566325Y-93287368D01*
X144403810Y-93530589D01*
X144291868Y-93800842D01*
X144234800Y-94087740D01*
X144234800Y-94380260D01*
X144291868Y-94667158D01*
X144403810Y-94937411D01*
X144566325Y-95180632D01*
X144773168Y-95387475D01*
X144947560Y-95504000D01*
X144773168Y-95620525D01*
X144566325Y-95827368D01*
X144403810Y-96070589D01*
X144291868Y-96340842D01*
X144234800Y-96627740D01*
X144234800Y-96920260D01*
X144291868Y-97207158D01*
X144403810Y-97477411D01*
X144566325Y-97720632D01*
X144773168Y-97927475D01*
X144947560Y-98044000D01*
X144773168Y-98160525D01*
X144566325Y-98367368D01*
X144403810Y-98610589D01*
X144291868Y-98880842D01*
X144234800Y-99167740D01*
X144234800Y-99460260D01*
X144291868Y-99747158D01*
X144403810Y-100017411D01*
X144566325Y-100260632D01*
X144773168Y-100467475D01*
X144947560Y-100584000D01*
X144773168Y-100700525D01*
X144566325Y-100907368D01*
X144403810Y-101150589D01*
X144291868Y-101420842D01*
X144234800Y-101707740D01*
X144234800Y-102000260D01*
X144291868Y-102287158D01*
X144403810Y-102557411D01*
X144566325Y-102800632D01*
X144773168Y-103007475D01*
X144947560Y-103124000D01*
X144773168Y-103240525D01*
X144566325Y-103447368D01*
X144403810Y-103690589D01*
X144291868Y-103960842D01*
X144234800Y-104247740D01*
X144234800Y-104540260D01*
X144291868Y-104827158D01*
X144403810Y-105097411D01*
X144566325Y-105340632D01*
X144773168Y-105547475D01*
X144947560Y-105664000D01*
X144773168Y-105780525D01*
X144566325Y-105987368D01*
X144403810Y-106230589D01*
X144291868Y-106500842D01*
X144234800Y-106787740D01*
X144234800Y-107080260D01*
X144291868Y-107367158D01*
X144403810Y-107637411D01*
X144566325Y-107880632D01*
X144773168Y-108087475D01*
X144947560Y-108204000D01*
X144773168Y-108320525D01*
X144566325Y-108527368D01*
X144403810Y-108770589D01*
X144291868Y-109040842D01*
X144234800Y-109327740D01*
X144234800Y-109620260D01*
X144291868Y-109907158D01*
X144403810Y-110177411D01*
X144566325Y-110420632D01*
X144773168Y-110627475D01*
X145016389Y-110789990D01*
X145286642Y-110901932D01*
X145573540Y-110959000D01*
X145866060Y-110959000D01*
X146152958Y-110901932D01*
X146423211Y-110789990D01*
X146666432Y-110627475D01*
X146873275Y-110420632D01*
X147035790Y-110177411D01*
X147147732Y-109907158D01*
X147204800Y-109620260D01*
X147204800Y-109327740D01*
X147147732Y-109040842D01*
X147035790Y-108770589D01*
X146873275Y-108527368D01*
X146666432Y-108320525D01*
X146492040Y-108204000D01*
X146666432Y-108087475D01*
X146706793Y-108047114D01*
X155814800Y-108047114D01*
X155814800Y-108310086D01*
X155866104Y-108568005D01*
X155966739Y-108810959D01*
X156112838Y-109029613D01*
X156298787Y-109215562D01*
X156517441Y-109361661D01*
X156760395Y-109462296D01*
X157018314Y-109513600D01*
X157281286Y-109513600D01*
X157539205Y-109462296D01*
X157782159Y-109361661D01*
X158000813Y-109215562D01*
X158186762Y-109029613D01*
X158332861Y-108810959D01*
X158433496Y-108568005D01*
X158484800Y-108310086D01*
X158484800Y-108047114D01*
X158433496Y-107789195D01*
X158332861Y-107546241D01*
X158186762Y-107327587D01*
X158000813Y-107141638D01*
X157782159Y-106995539D01*
X157539205Y-106894904D01*
X157281286Y-106843600D01*
X157018314Y-106843600D01*
X156760395Y-106894904D01*
X156517441Y-106995539D01*
X156298787Y-107141638D01*
X156112838Y-107327587D01*
X155966739Y-107546241D01*
X155866104Y-107789195D01*
X155814800Y-108047114D01*
X146706793Y-108047114D01*
X146873275Y-107880632D01*
X147035790Y-107637411D01*
X147147732Y-107367158D01*
X147204800Y-107080260D01*
X147204800Y-106787740D01*
X147147732Y-106500842D01*
X147035790Y-106230589D01*
X146873275Y-105987368D01*
X146666432Y-105780525D01*
X146492040Y-105664000D01*
X146666432Y-105547475D01*
X146873275Y-105340632D01*
X147020691Y-105120008D01*
X155651200Y-105120008D01*
X155651200Y-105395192D01*
X155704886Y-105665090D01*
X155810195Y-105919327D01*
X155963080Y-106148135D01*
X156157665Y-106342720D01*
X156386473Y-106495605D01*
X156640710Y-106600914D01*
X156910608Y-106654600D01*
X157185792Y-106654600D01*
X157455690Y-106600914D01*
X157709927Y-106495605D01*
X157938735Y-106342720D01*
X158058290Y-106223165D01*
X158802240Y-106223165D01*
X158869220Y-106463256D01*
X159118248Y-106580356D01*
X159385335Y-106646623D01*
X159660217Y-106659510D01*
X159932333Y-106618522D01*
X160191223Y-106525236D01*
X160307180Y-106463256D01*
X160374160Y-106223165D01*
X159588200Y-105437205D01*
X158802240Y-106223165D01*
X158058290Y-106223165D01*
X158133320Y-106148135D01*
X158286205Y-105919327D01*
X158315892Y-105847657D01*
X158320564Y-105860623D01*
X158382544Y-105976580D01*
X158622635Y-106043560D01*
X159408595Y-105257600D01*
X158622635Y-104471640D01*
X158382544Y-104538620D01*
X158318715Y-104674360D01*
X158286205Y-104595873D01*
X158133320Y-104367065D01*
X158058290Y-104292035D01*
X158802240Y-104292035D01*
X159588200Y-105077995D01*
X160374160Y-104292035D01*
X160307180Y-104051944D01*
X160058152Y-103934844D01*
X159791065Y-103868577D01*
X159516183Y-103855690D01*
X159244067Y-103896678D01*
X158985177Y-103989964D01*
X158869220Y-104051944D01*
X158802240Y-104292035D01*
X158058290Y-104292035D01*
X157938735Y-104172480D01*
X157709927Y-104019595D01*
X157455690Y-103914286D01*
X157185792Y-103860600D01*
X156910608Y-103860600D01*
X156640710Y-103914286D01*
X156386473Y-104019595D01*
X156157665Y-104172480D01*
X155963080Y-104367065D01*
X155810195Y-104595873D01*
X155704886Y-104850110D01*
X155651200Y-105120008D01*
X147020691Y-105120008D01*
X147035790Y-105097411D01*
X147147732Y-104827158D01*
X147204800Y-104540260D01*
X147204800Y-104247740D01*
X147147732Y-103960842D01*
X147035790Y-103690589D01*
X146873275Y-103447368D01*
X146666432Y-103240525D01*
X146492040Y-103124000D01*
X146666432Y-103007475D01*
X146873275Y-102800632D01*
X147035790Y-102557411D01*
X147147732Y-102287158D01*
X147204800Y-102000260D01*
X147204800Y-101707740D01*
X147147732Y-101420842D01*
X147035790Y-101150589D01*
X146873275Y-100907368D01*
X146666432Y-100700525D01*
X146492040Y-100584000D01*
X146666432Y-100467475D01*
X146833793Y-100300114D01*
X155687800Y-100300114D01*
X155687800Y-100563086D01*
X155739104Y-100821005D01*
X155839739Y-101063959D01*
X155985838Y-101282613D01*
X156171787Y-101468562D01*
X156390441Y-101614661D01*
X156633395Y-101715296D01*
X156891314Y-101766600D01*
X157154286Y-101766600D01*
X157412205Y-101715296D01*
X157655159Y-101614661D01*
X157873813Y-101468562D01*
X158059762Y-101282613D01*
X158205861Y-101063959D01*
X158306496Y-100821005D01*
X158357800Y-100563086D01*
X158357800Y-100300114D01*
X158306496Y-100042195D01*
X158205861Y-99799241D01*
X158059762Y-99580587D01*
X157873813Y-99394638D01*
X157655159Y-99248539D01*
X157412205Y-99147904D01*
X157154286Y-99096600D01*
X156891314Y-99096600D01*
X156633395Y-99147904D01*
X156390441Y-99248539D01*
X156171787Y-99394638D01*
X155985838Y-99580587D01*
X155839739Y-99799241D01*
X155739104Y-100042195D01*
X155687800Y-100300114D01*
X146833793Y-100300114D01*
X146873275Y-100260632D01*
X147035790Y-100017411D01*
X147147732Y-99747158D01*
X147204800Y-99460260D01*
X147204800Y-99167740D01*
X147147732Y-98880842D01*
X147035790Y-98610589D01*
X146873275Y-98367368D01*
X146666432Y-98160525D01*
X146492040Y-98044000D01*
X146666432Y-97927475D01*
X146873275Y-97720632D01*
X147035790Y-97477411D01*
X147047472Y-97449208D01*
X155651200Y-97449208D01*
X155651200Y-97724392D01*
X155704886Y-97994290D01*
X155810195Y-98248527D01*
X155963080Y-98477335D01*
X156157665Y-98671920D01*
X156386473Y-98824805D01*
X156640710Y-98930114D01*
X156910608Y-98983800D01*
X157185792Y-98983800D01*
X157455690Y-98930114D01*
X157709927Y-98824805D01*
X157938735Y-98671920D01*
X158133320Y-98477335D01*
X158286205Y-98248527D01*
X158315892Y-98176857D01*
X158320564Y-98189823D01*
X158382544Y-98305780D01*
X158622635Y-98372760D01*
X159408595Y-97586800D01*
X158622635Y-96800840D01*
X158382544Y-96867820D01*
X158318715Y-97003560D01*
X158286205Y-96925073D01*
X158133320Y-96696265D01*
X157938735Y-96501680D01*
X157709927Y-96348795D01*
X157455690Y-96243486D01*
X157185792Y-96189800D01*
X156910608Y-96189800D01*
X156640710Y-96243486D01*
X156386473Y-96348795D01*
X156157665Y-96501680D01*
X155963080Y-96696265D01*
X155810195Y-96925073D01*
X155704886Y-97179310D01*
X155651200Y-97449208D01*
X147047472Y-97449208D01*
X147147732Y-97207158D01*
X147204800Y-96920260D01*
X147204800Y-96627740D01*
X147147732Y-96340842D01*
X147035790Y-96070589D01*
X146873275Y-95827368D01*
X146666432Y-95620525D01*
X146492040Y-95504000D01*
X146666432Y-95387475D01*
X146873275Y-95180632D01*
X147035790Y-94937411D01*
X147147732Y-94667158D01*
X147204800Y-94380260D01*
X147204800Y-94087740D01*
X147147732Y-93800842D01*
X147035790Y-93530589D01*
X146873275Y-93287368D01*
X146666432Y-93080525D01*
X146492040Y-92964000D01*
X146666432Y-92847475D01*
X146873275Y-92640632D01*
X146880837Y-92629314D01*
X155637000Y-92629314D01*
X155637000Y-92892286D01*
X155688304Y-93150205D01*
X155788939Y-93393159D01*
X155935038Y-93611813D01*
X156120987Y-93797762D01*
X156339641Y-93943861D01*
X156582595Y-94044496D01*
X156840514Y-94095800D01*
X157103486Y-94095800D01*
X157361405Y-94044496D01*
X157604359Y-93943861D01*
X157823013Y-93797762D01*
X158008962Y-93611813D01*
X158155061Y-93393159D01*
X158255696Y-93150205D01*
X158307000Y-92892286D01*
X158307000Y-92629314D01*
X158255696Y-92371395D01*
X158155061Y-92128441D01*
X158008962Y-91909787D01*
X157823013Y-91723838D01*
X157604359Y-91577739D01*
X157361405Y-91477104D01*
X157103486Y-91425800D01*
X156840514Y-91425800D01*
X156582595Y-91477104D01*
X156339641Y-91577739D01*
X156120987Y-91723838D01*
X155935038Y-91909787D01*
X155788939Y-92128441D01*
X155688304Y-92371395D01*
X155637000Y-92629314D01*
X146880837Y-92629314D01*
X147035790Y-92397411D01*
X147147732Y-92127158D01*
X147204800Y-91840260D01*
X147204800Y-91547740D01*
X147147732Y-91260842D01*
X147035790Y-90990589D01*
X146873275Y-90747368D01*
X146666432Y-90540525D01*
X146492040Y-90424000D01*
X146666432Y-90307475D01*
X146873275Y-90100632D01*
X147035790Y-89857411D01*
X147110597Y-89676808D01*
X155600400Y-89676808D01*
X155600400Y-89951992D01*
X155654086Y-90221890D01*
X155759395Y-90476127D01*
X155912280Y-90704935D01*
X156106865Y-90899520D01*
X156335673Y-91052405D01*
X156589910Y-91157714D01*
X156859808Y-91211400D01*
X157134992Y-91211400D01*
X157404890Y-91157714D01*
X157659127Y-91052405D01*
X157887935Y-90899520D01*
X158082520Y-90704935D01*
X158235405Y-90476127D01*
X158265092Y-90404457D01*
X158269764Y-90417423D01*
X158331744Y-90533380D01*
X158571835Y-90600360D01*
X159357795Y-89814400D01*
X158571835Y-89028440D01*
X158331744Y-89095420D01*
X158267915Y-89231160D01*
X158235405Y-89152673D01*
X158082520Y-88923865D01*
X157887935Y-88729280D01*
X157659127Y-88576395D01*
X157404890Y-88471086D01*
X157134992Y-88417400D01*
X156859808Y-88417400D01*
X156589910Y-88471086D01*
X156335673Y-88576395D01*
X156106865Y-88729280D01*
X155912280Y-88923865D01*
X155759395Y-89152673D01*
X155654086Y-89406910D01*
X155600400Y-89676808D01*
X147110597Y-89676808D01*
X147147732Y-89587158D01*
X147204800Y-89300260D01*
X147204800Y-89007740D01*
X147147732Y-88720842D01*
X147035790Y-88450589D01*
X146873275Y-88207368D01*
X146666432Y-88000525D01*
X146492040Y-87884000D01*
X146666432Y-87767475D01*
X146873275Y-87560632D01*
X147035790Y-87317411D01*
X147147732Y-87047158D01*
X147204800Y-86760260D01*
X147204800Y-86467740D01*
X147147732Y-86180842D01*
X147035790Y-85910589D01*
X146954280Y-85788600D01*
X147913928Y-85788600D01*
X147913928Y-87388600D01*
X147926188Y-87513082D01*
X147962498Y-87632780D01*
X148021463Y-87743094D01*
X148100815Y-87839785D01*
X148197506Y-87919137D01*
X148307820Y-87978102D01*
X148427518Y-88014412D01*
X148552000Y-88026672D01*
X150152000Y-88026672D01*
X150276482Y-88014412D01*
X150396180Y-87978102D01*
X150506494Y-87919137D01*
X150603185Y-87839785D01*
X150682537Y-87743094D01*
X150741502Y-87632780D01*
X150757117Y-87581302D01*
X151038903Y-87581302D01*
X151110486Y-87825271D01*
X151365996Y-87946171D01*
X151640184Y-88014900D01*
X151922512Y-88028817D01*
X152202130Y-87987387D01*
X152468292Y-87892203D01*
X152593514Y-87825271D01*
X152665097Y-87581302D01*
X151852000Y-86768205D01*
X151038903Y-87581302D01*
X150757117Y-87581302D01*
X150777812Y-87513082D01*
X150790072Y-87388600D01*
X150790072Y-87381385D01*
X150859298Y-87401697D01*
X151672395Y-86588600D01*
X152031605Y-86588600D01*
X152844702Y-87401697D01*
X153088671Y-87330114D01*
X153209571Y-87074604D01*
X153278300Y-86800416D01*
X153292217Y-86518088D01*
X153250787Y-86238470D01*
X153155603Y-85972308D01*
X153088671Y-85847086D01*
X152844702Y-85775503D01*
X152031605Y-86588600D01*
X151672395Y-86588600D01*
X150859298Y-85775503D01*
X150790072Y-85795815D01*
X150790072Y-85788600D01*
X150777812Y-85664118D01*
X150757118Y-85595898D01*
X151038903Y-85595898D01*
X151852000Y-86408995D01*
X152665097Y-85595898D01*
X152593514Y-85351929D01*
X152338004Y-85231029D01*
X152063816Y-85162300D01*
X151781488Y-85148383D01*
X151501870Y-85189813D01*
X151235708Y-85284997D01*
X151110486Y-85351929D01*
X151038903Y-85595898D01*
X150757118Y-85595898D01*
X150741502Y-85544420D01*
X150682537Y-85434106D01*
X150603185Y-85337415D01*
X150506494Y-85258063D01*
X150396180Y-85199098D01*
X150276482Y-85162788D01*
X150152000Y-85150528D01*
X148552000Y-85150528D01*
X148427518Y-85162788D01*
X148307820Y-85199098D01*
X148197506Y-85258063D01*
X148100815Y-85337415D01*
X148021463Y-85434106D01*
X147962498Y-85544420D01*
X147926188Y-85664118D01*
X147913928Y-85788600D01*
X146954280Y-85788600D01*
X146873275Y-85667368D01*
X146666432Y-85460525D01*
X146492040Y-85344000D01*
X146666432Y-85227475D01*
X146873275Y-85020632D01*
X147016611Y-84806114D01*
X155637000Y-84806114D01*
X155637000Y-85069086D01*
X155688304Y-85327005D01*
X155788939Y-85569959D01*
X155935038Y-85788613D01*
X156120987Y-85974562D01*
X156339641Y-86120661D01*
X156582595Y-86221296D01*
X156840514Y-86272600D01*
X157103486Y-86272600D01*
X157361405Y-86221296D01*
X157604359Y-86120661D01*
X157823013Y-85974562D01*
X158008962Y-85788613D01*
X158155061Y-85569959D01*
X158255696Y-85327005D01*
X158307000Y-85069086D01*
X158307000Y-84806114D01*
X158255696Y-84548195D01*
X158155061Y-84305241D01*
X158008962Y-84086587D01*
X157823013Y-83900638D01*
X157604359Y-83754539D01*
X157361405Y-83653904D01*
X157103486Y-83602600D01*
X156840514Y-83602600D01*
X156582595Y-83653904D01*
X156339641Y-83754539D01*
X156120987Y-83900638D01*
X155935038Y-84086587D01*
X155788939Y-84305241D01*
X155688304Y-84548195D01*
X155637000Y-84806114D01*
X147016611Y-84806114D01*
X147035790Y-84777411D01*
X147147732Y-84507158D01*
X147204800Y-84220260D01*
X147204800Y-83927740D01*
X147147732Y-83640842D01*
X147035790Y-83370589D01*
X146873275Y-83127368D01*
X146741420Y-82995513D01*
X146813980Y-82973502D01*
X146924294Y-82914537D01*
X147020985Y-82835185D01*
X147100337Y-82738494D01*
X147159302Y-82628180D01*
X147195612Y-82508482D01*
X147207872Y-82384000D01*
X147207872Y-81599608D01*
X155473400Y-81599608D01*
X155473400Y-81874792D01*
X155527086Y-82144690D01*
X155632395Y-82398927D01*
X155785280Y-82627735D01*
X155979865Y-82822320D01*
X156208673Y-82975205D01*
X156462910Y-83080514D01*
X156732808Y-83134200D01*
X157007992Y-83134200D01*
X157277890Y-83080514D01*
X157532127Y-82975205D01*
X157760935Y-82822320D01*
X157955520Y-82627735D01*
X158108405Y-82398927D01*
X158138092Y-82327257D01*
X158142764Y-82340223D01*
X158204744Y-82456180D01*
X158444835Y-82523160D01*
X159230795Y-81737200D01*
X158444835Y-80951240D01*
X158204744Y-81018220D01*
X158140915Y-81153960D01*
X158108405Y-81075473D01*
X157955520Y-80846665D01*
X157880490Y-80771635D01*
X158624440Y-80771635D01*
X159410400Y-81557595D01*
X160196360Y-80771635D01*
X160129380Y-80531544D01*
X159880352Y-80414444D01*
X159613265Y-80348177D01*
X159338383Y-80335290D01*
X159066267Y-80376278D01*
X158807377Y-80469564D01*
X158691420Y-80531544D01*
X158624440Y-80771635D01*
X157880490Y-80771635D01*
X157760935Y-80652080D01*
X157532127Y-80499195D01*
X157277890Y-80393886D01*
X157007992Y-80340200D01*
X156732808Y-80340200D01*
X156462910Y-80393886D01*
X156208673Y-80499195D01*
X155979865Y-80652080D01*
X155785280Y-80846665D01*
X155632395Y-81075473D01*
X155527086Y-81329710D01*
X155473400Y-81599608D01*
X147207872Y-81599608D01*
X147207872Y-80684000D01*
X147195612Y-80559518D01*
X147159302Y-80439820D01*
X147100337Y-80329506D01*
X147020985Y-80232815D01*
X146924294Y-80153463D01*
X146813980Y-80094498D01*
X146694282Y-80058188D01*
X146569800Y-80045928D01*
X144869800Y-80045928D01*
X144745318Y-80058188D01*
X144625620Y-80094498D01*
X144515306Y-80153463D01*
X144418615Y-80232815D01*
X144339263Y-80329506D01*
X144280298Y-80439820D01*
X144243988Y-80559518D01*
X144231728Y-80684000D01*
X131768400Y-80684000D01*
X131768400Y-79274655D01*
X131773527Y-79222599D01*
X131768400Y-79170543D01*
X131768400Y-79170534D01*
X131753062Y-79014804D01*
X131692450Y-78814993D01*
X131594022Y-78630847D01*
X131556759Y-78585442D01*
X131494749Y-78509882D01*
X131494745Y-78509878D01*
X131461559Y-78469441D01*
X131421122Y-78436255D01*
X129688381Y-76703514D01*
X155586200Y-76703514D01*
X155586200Y-76966486D01*
X155637504Y-77224405D01*
X155738139Y-77467359D01*
X155884238Y-77686013D01*
X156070187Y-77871962D01*
X156288841Y-78018061D01*
X156531795Y-78118696D01*
X156789714Y-78170000D01*
X157052686Y-78170000D01*
X157310605Y-78118696D01*
X157553559Y-78018061D01*
X157772213Y-77871962D01*
X157958162Y-77686013D01*
X158104261Y-77467359D01*
X158204896Y-77224405D01*
X158256200Y-76966486D01*
X158256200Y-76703514D01*
X160666200Y-76703514D01*
X160666200Y-76966486D01*
X160717504Y-77224405D01*
X160818139Y-77467359D01*
X160964238Y-77686013D01*
X161150187Y-77871962D01*
X161368841Y-78018061D01*
X161611795Y-78118696D01*
X161869714Y-78170000D01*
X162132686Y-78170000D01*
X162390605Y-78118696D01*
X162633559Y-78018061D01*
X162852213Y-77871962D01*
X163038162Y-77686013D01*
X163184261Y-77467359D01*
X163284896Y-77224405D01*
X163336200Y-76966486D01*
X163336200Y-76703514D01*
X163284896Y-76445595D01*
X163184261Y-76202641D01*
X163038162Y-75983987D01*
X162852213Y-75798038D01*
X162635147Y-75653000D01*
X169555528Y-75653000D01*
X169567788Y-75777482D01*
X169604098Y-75897180D01*
X169663063Y-76007494D01*
X169742415Y-76104185D01*
X169839106Y-76183537D01*
X169949420Y-76242502D01*
X170069118Y-76278812D01*
X170193600Y-76291072D01*
X170757850Y-76288000D01*
X170916600Y-76129250D01*
X170916600Y-74930000D01*
X169717350Y-74930000D01*
X169558600Y-75088750D01*
X169555528Y-75653000D01*
X162635147Y-75653000D01*
X162633559Y-75651939D01*
X162390605Y-75551304D01*
X162132686Y-75500000D01*
X161869714Y-75500000D01*
X161611795Y-75551304D01*
X161368841Y-75651939D01*
X161150187Y-75798038D01*
X160964238Y-75983987D01*
X160818139Y-76202641D01*
X160717504Y-76445595D01*
X160666200Y-76703514D01*
X158256200Y-76703514D01*
X158204896Y-76445595D01*
X158104261Y-76202641D01*
X157958162Y-75983987D01*
X157772213Y-75798038D01*
X157553559Y-75651939D01*
X157310605Y-75551304D01*
X157052686Y-75500000D01*
X156789714Y-75500000D01*
X156531795Y-75551304D01*
X156288841Y-75651939D01*
X156070187Y-75798038D01*
X155884238Y-75983987D01*
X155738139Y-76202641D01*
X155637504Y-76445595D01*
X155586200Y-76703514D01*
X129688381Y-76703514D01*
X126884800Y-73899935D01*
X126884800Y-73767740D01*
X126827732Y-73480842D01*
X126757191Y-73310540D01*
X147841600Y-73310540D01*
X147841600Y-73603060D01*
X147898668Y-73889958D01*
X148010610Y-74160211D01*
X148173125Y-74403432D01*
X148379968Y-74610275D01*
X148623189Y-74772790D01*
X148893442Y-74884732D01*
X149180340Y-74941800D01*
X149472860Y-74941800D01*
X149759758Y-74884732D01*
X150030011Y-74772790D01*
X150273232Y-74610275D01*
X150405087Y-74478420D01*
X150427098Y-74550980D01*
X150486063Y-74661294D01*
X150565415Y-74757985D01*
X150662106Y-74837337D01*
X150772420Y-74896302D01*
X150892118Y-74932612D01*
X151016600Y-74944872D01*
X151580850Y-74941800D01*
X151739600Y-74783050D01*
X151739600Y-73583800D01*
X151993600Y-73583800D01*
X151993600Y-74783050D01*
X152152350Y-74941800D01*
X152716600Y-74944872D01*
X152841082Y-74932612D01*
X152960780Y-74896302D01*
X153071094Y-74837337D01*
X153167785Y-74757985D01*
X153247137Y-74661294D01*
X153306102Y-74550980D01*
X153342412Y-74431282D01*
X153354672Y-74306800D01*
X153352746Y-73953000D01*
X169555528Y-73953000D01*
X169558600Y-74517250D01*
X169717350Y-74676000D01*
X170916600Y-74676000D01*
X170916600Y-73476750D01*
X170757850Y-73318000D01*
X170193600Y-73314928D01*
X170069118Y-73327188D01*
X169949420Y-73363498D01*
X169839106Y-73422463D01*
X169742415Y-73501815D01*
X169663063Y-73598506D01*
X169604098Y-73708820D01*
X169567788Y-73828518D01*
X169555528Y-73953000D01*
X153352746Y-73953000D01*
X153351600Y-73742550D01*
X153192850Y-73583800D01*
X151993600Y-73583800D01*
X151739600Y-73583800D01*
X151719600Y-73583800D01*
X151719600Y-73329800D01*
X151739600Y-73329800D01*
X151739600Y-72130550D01*
X151993600Y-72130550D01*
X151993600Y-73329800D01*
X153192850Y-73329800D01*
X153351600Y-73171050D01*
X153354672Y-72606800D01*
X153342412Y-72482318D01*
X153306102Y-72362620D01*
X153247137Y-72252306D01*
X153167785Y-72155615D01*
X153071094Y-72076263D01*
X152960780Y-72017298D01*
X152841082Y-71980988D01*
X152716600Y-71968728D01*
X152152350Y-71971800D01*
X151993600Y-72130550D01*
X151739600Y-72130550D01*
X151580850Y-71971800D01*
X151016600Y-71968728D01*
X150892118Y-71980988D01*
X150772420Y-72017298D01*
X150662106Y-72076263D01*
X150565415Y-72155615D01*
X150486063Y-72252306D01*
X150427098Y-72362620D01*
X150405087Y-72435180D01*
X150273232Y-72303325D01*
X150030011Y-72140810D01*
X149759758Y-72028868D01*
X149472860Y-71971800D01*
X149180340Y-71971800D01*
X148893442Y-72028868D01*
X148623189Y-72140810D01*
X148379968Y-72303325D01*
X148173125Y-72510168D01*
X148010610Y-72753389D01*
X147898668Y-73023642D01*
X147841600Y-73310540D01*
X126757191Y-73310540D01*
X126715790Y-73210589D01*
X126553275Y-72967368D01*
X126544265Y-72958358D01*
X126517852Y-72871285D01*
X126487945Y-72815333D01*
X126493980Y-72813502D01*
X126604294Y-72754537D01*
X126700985Y-72675185D01*
X126780337Y-72578494D01*
X126839302Y-72468180D01*
X126875612Y-72348482D01*
X126887872Y-72224000D01*
X126887872Y-70524000D01*
X126875612Y-70399518D01*
X126839302Y-70279820D01*
X126780337Y-70169506D01*
X126700985Y-70072815D01*
X126604294Y-69993463D01*
X126493980Y-69934498D01*
X126374282Y-69898188D01*
X126249800Y-69885928D01*
X124549800Y-69885928D01*
X124425318Y-69898188D01*
X124305620Y-69934498D01*
X124195306Y-69993463D01*
X124098615Y-70072815D01*
X124019263Y-70169506D01*
X123960298Y-70279820D01*
X123923988Y-70399518D01*
X123911728Y-70524000D01*
X123911728Y-71433691D01*
X123135000Y-70656964D01*
X123135000Y-69620163D01*
X171861683Y-72618728D01*
G36*
X123971868Y-76887158D02*
G01*
X124083810Y-77157411D01*
X124246325Y-77400632D01*
X124453168Y-77607475D01*
X124635334Y-77729195D01*
X124518445Y-77798822D01*
X124302212Y-77993731D01*
X124128159Y-78227080D01*
X124002975Y-78489901D01*
X123958324Y-78637110D01*
X124079645Y-78867000D01*
X125272800Y-78867000D01*
X125272800Y-78847000D01*
X125526800Y-78847000D01*
X125526800Y-78867000D01*
X126719955Y-78867000D01*
X126841276Y-78637110D01*
X126796625Y-78489901D01*
X126671441Y-78227080D01*
X126497388Y-77993731D01*
X126281155Y-77798822D01*
X126164266Y-77729195D01*
X126346432Y-77607475D01*
X126553275Y-77400632D01*
X126715790Y-77157411D01*
X126827732Y-76887158D01*
X126835391Y-76848656D01*
X129648401Y-79661668D01*
X129648400Y-101268544D01*
X129643273Y-101320600D01*
X129648400Y-101372656D01*
X129648400Y-101372665D01*
X129663738Y-101528395D01*
X129724350Y-101728206D01*
X129822778Y-101912353D01*
X129955241Y-102073759D01*
X129995688Y-102106953D01*
X131039655Y-103150922D01*
X131072841Y-103191359D01*
X131113278Y-103224545D01*
X131113282Y-103224549D01*
X131147168Y-103252358D01*
X131234247Y-103323822D01*
X131418393Y-103422250D01*
X131618204Y-103482862D01*
X131773934Y-103498200D01*
X131773943Y-103498200D01*
X131825999Y-103503327D01*
X131878055Y-103498200D01*
X138219535Y-103498200D01*
X140773601Y-106052268D01*
X140773600Y-111360400D01*
X120225466Y-111360400D01*
X118695956Y-109830890D01*
X123958324Y-109830890D01*
X124002975Y-109978099D01*
X124128159Y-110240920D01*
X124302212Y-110474269D01*
X124518445Y-110669178D01*
X124768548Y-110818157D01*
X125042909Y-110915481D01*
X125272800Y-110794814D01*
X125272800Y-109601000D01*
X125526800Y-109601000D01*
X125526800Y-110794814D01*
X125756691Y-110915481D01*
X126031052Y-110818157D01*
X126281155Y-110669178D01*
X126497388Y-110474269D01*
X126671441Y-110240920D01*
X126796625Y-109978099D01*
X126841276Y-109830890D01*
X126719955Y-109601000D01*
X125526800Y-109601000D01*
X125272800Y-109601000D01*
X124079645Y-109601000D01*
X123958324Y-109830890D01*
X118695956Y-109830890D01*
X116870954Y-108005889D01*
X116837759Y-107965441D01*
X116676353Y-107832978D01*
X116492207Y-107734550D01*
X116292396Y-107673938D01*
X116136666Y-107658600D01*
X116136656Y-107658600D01*
X116084600Y-107653473D01*
X116032544Y-107658600D01*
X113632800Y-107658600D01*
X113632800Y-107405116D01*
X118607000Y-107405116D01*
X118607000Y-107707484D01*
X118665989Y-108004043D01*
X118781701Y-108283395D01*
X118949688Y-108534805D01*
X119163495Y-108748612D01*
X119414905Y-108916599D01*
X119694257Y-109032311D01*
X119990816Y-109091300D01*
X120293184Y-109091300D01*
X120589743Y-109032311D01*
X120869095Y-108916599D01*
X121120505Y-108748612D01*
X121334312Y-108534805D01*
X121502299Y-108283395D01*
X121618011Y-108004043D01*
X121677000Y-107707484D01*
X121677000Y-107520366D01*
X123394722Y-105802645D01*
X123435159Y-105769459D01*
X123468345Y-105729022D01*
X123468349Y-105729018D01*
X123567621Y-105608054D01*
X123571000Y-105601733D01*
X123666050Y-105423907D01*
X123726662Y-105224096D01*
X123742000Y-105068366D01*
X123742000Y-105068357D01*
X123747127Y-105016301D01*
X123742000Y-104964245D01*
X123742000Y-87862650D01*
X123747127Y-87810592D01*
X123742000Y-87758534D01*
X123742000Y-87758526D01*
X123726662Y-87602796D01*
X123702791Y-87524102D01*
X123666050Y-87402985D01*
X123643929Y-87361600D01*
X123567622Y-87218839D01*
X123435159Y-87057433D01*
X123394711Y-87024238D01*
X123168105Y-86797632D01*
X123331099Y-86553695D01*
X123446811Y-86274343D01*
X123505800Y-85977784D01*
X123505800Y-85675416D01*
X123446811Y-85378857D01*
X123331099Y-85099505D01*
X123163112Y-84848095D01*
X122949305Y-84634288D01*
X122697895Y-84466301D01*
X122418543Y-84350589D01*
X122121984Y-84291600D01*
X121819616Y-84291600D01*
X121523057Y-84350589D01*
X121243705Y-84466301D01*
X120992295Y-84634288D01*
X120778488Y-84848095D01*
X120610501Y-85099505D01*
X120494789Y-85378857D01*
X120435800Y-85675416D01*
X120435800Y-85977784D01*
X120494789Y-86274343D01*
X120610501Y-86553695D01*
X120778488Y-86805105D01*
X120910800Y-86937417D01*
X120910800Y-87047336D01*
X120905673Y-87099392D01*
X120910800Y-87151448D01*
X120910800Y-87151458D01*
X120924357Y-87289094D01*
X120926139Y-87307188D01*
X120986750Y-87506998D01*
X121085179Y-87691145D01*
X121164816Y-87788182D01*
X121217642Y-87852551D01*
X121258084Y-87885741D01*
X121622000Y-88249657D01*
X121622001Y-104577232D01*
X120177934Y-106021300D01*
X119990816Y-106021300D01*
X119694257Y-106080289D01*
X119414905Y-106196001D01*
X119163495Y-106363988D01*
X118949688Y-106577795D01*
X118781701Y-106829205D01*
X118665989Y-107108557D01*
X118607000Y-107405116D01*
X113632800Y-107405116D01*
X113632800Y-98083356D01*
X113637927Y-98031300D01*
X113632800Y-97979244D01*
X113632800Y-97979234D01*
X113617462Y-97823504D01*
X113556850Y-97623693D01*
X113458422Y-97439547D01*
X113325959Y-97278141D01*
X113285517Y-97244951D01*
X110064100Y-94023535D01*
X110064100Y-91866072D01*
X110207357Y-91925411D01*
X110503916Y-91984400D01*
X110784683Y-91984400D01*
X110732788Y-92036295D01*
X110564801Y-92287705D01*
X110449089Y-92567057D01*
X110390100Y-92863616D01*
X110390100Y-93165984D01*
X110449089Y-93462543D01*
X110564801Y-93741895D01*
X110732788Y-93993305D01*
X110946595Y-94207112D01*
X111198005Y-94375099D01*
X111477357Y-94490811D01*
X111773916Y-94549800D01*
X112076284Y-94549800D01*
X112372843Y-94490811D01*
X112652195Y-94375099D01*
X112903605Y-94207112D01*
X113035917Y-94074800D01*
X117461034Y-94074800D01*
X117513100Y-94079928D01*
X117565166Y-94074800D01*
X117720896Y-94059462D01*
X117920707Y-93998850D01*
X118104853Y-93900422D01*
X118266259Y-93767959D01*
X118398722Y-93606553D01*
X118497150Y-93422407D01*
X118544391Y-93266674D01*
X119508517Y-92302549D01*
X119548959Y-92269359D01*
X119681422Y-92107953D01*
X119779850Y-91923807D01*
X119831288Y-91754238D01*
X119840462Y-91723997D01*
X119843416Y-91694000D01*
X119855800Y-91568266D01*
X119855800Y-91568258D01*
X119860927Y-91516200D01*
X119855800Y-91464142D01*
X119855800Y-81109667D01*
X119927588Y-81217105D01*
X120141395Y-81430912D01*
X120392805Y-81598899D01*
X120672157Y-81714611D01*
X120968716Y-81773600D01*
X121271084Y-81773600D01*
X121567643Y-81714611D01*
X121846995Y-81598899D01*
X122098405Y-81430912D01*
X122141577Y-81387740D01*
X123914800Y-81387740D01*
X123914800Y-81680260D01*
X123971868Y-81967158D01*
X124083810Y-82237411D01*
X124246325Y-82480632D01*
X124453168Y-82687475D01*
X124627560Y-82804000D01*
X124453168Y-82920525D01*
X124246325Y-83127368D01*
X124083810Y-83370589D01*
X123971868Y-83640842D01*
X123914800Y-83927740D01*
X123914800Y-84220260D01*
X123971868Y-84507158D01*
X124083810Y-84777411D01*
X124246325Y-85020632D01*
X124453168Y-85227475D01*
X124627560Y-85344000D01*
X124453168Y-85460525D01*
X124246325Y-85667368D01*
X124083810Y-85910589D01*
X123971868Y-86180842D01*
X123914800Y-86467740D01*
X123914800Y-86760260D01*
X123971868Y-87047158D01*
X124083810Y-87317411D01*
X124246325Y-87560632D01*
X124453168Y-87767475D01*
X124627560Y-87884000D01*
X124453168Y-88000525D01*
X124246325Y-88207368D01*
X124083810Y-88450589D01*
X123971868Y-88720842D01*
X123914800Y-89007740D01*
X123914800Y-89300260D01*
X123971868Y-89587158D01*
X124083810Y-89857411D01*
X124246325Y-90100632D01*
X124453168Y-90307475D01*
X124627560Y-90424000D01*
X124453168Y-90540525D01*
X124246325Y-90747368D01*
X124083810Y-90990589D01*
X123971868Y-91260842D01*
X123914800Y-91547740D01*
X123914800Y-91840260D01*
X123971868Y-92127158D01*
X124083810Y-92397411D01*
X124246325Y-92640632D01*
X124453168Y-92847475D01*
X124627560Y-92964000D01*
X124453168Y-93080525D01*
X124246325Y-93287368D01*
X124083810Y-93530589D01*
X123971868Y-93800842D01*
X123914800Y-94087740D01*
X123914800Y-94380260D01*
X123971868Y-94667158D01*
X124083810Y-94937411D01*
X124246325Y-95180632D01*
X124453168Y-95387475D01*
X124627560Y-95504000D01*
X124453168Y-95620525D01*
X124246325Y-95827368D01*
X124083810Y-96070589D01*
X123971868Y-96340842D01*
X123914800Y-96627740D01*
X123914800Y-96920260D01*
X123971868Y-97207158D01*
X124083810Y-97477411D01*
X124246325Y-97720632D01*
X124453168Y-97927475D01*
X124627560Y-98044000D01*
X124453168Y-98160525D01*
X124246325Y-98367368D01*
X124083810Y-98610589D01*
X123971868Y-98880842D01*
X123914800Y-99167740D01*
X123914800Y-99460260D01*
X123971868Y-99747158D01*
X124083810Y-100017411D01*
X124246325Y-100260632D01*
X124453168Y-100467475D01*
X124627560Y-100584000D01*
X124453168Y-100700525D01*
X124246325Y-100907368D01*
X124083810Y-101150589D01*
X123971868Y-101420842D01*
X123914800Y-101707740D01*
X123914800Y-102000260D01*
X123971868Y-102287158D01*
X124083810Y-102557411D01*
X124246325Y-102800632D01*
X124453168Y-103007475D01*
X124627560Y-103124000D01*
X124453168Y-103240525D01*
X124246325Y-103447368D01*
X124083810Y-103690589D01*
X123971868Y-103960842D01*
X123914800Y-104247740D01*
X123914800Y-104540260D01*
X123971868Y-104827158D01*
X124083810Y-105097411D01*
X124246325Y-105340632D01*
X124453168Y-105547475D01*
X124627560Y-105664000D01*
X124453168Y-105780525D01*
X124246325Y-105987368D01*
X124083810Y-106230589D01*
X123971868Y-106500842D01*
X123914800Y-106787740D01*
X123914800Y-107080260D01*
X123971868Y-107367158D01*
X124083810Y-107637411D01*
X124246325Y-107880632D01*
X124453168Y-108087475D01*
X124635334Y-108209195D01*
X124518445Y-108278822D01*
X124302212Y-108473731D01*
X124128159Y-108707080D01*
X124002975Y-108969901D01*
X123958324Y-109117110D01*
X124079645Y-109347000D01*
X125272800Y-109347000D01*
X125272800Y-109327000D01*
X125526800Y-109327000D01*
X125526800Y-109347000D01*
X126719955Y-109347000D01*
X126841276Y-109117110D01*
X126796625Y-108969901D01*
X126671441Y-108707080D01*
X126497388Y-108473731D01*
X126281155Y-108278822D01*
X126164266Y-108209195D01*
X126346432Y-108087475D01*
X126553275Y-107880632D01*
X126715790Y-107637411D01*
X126827732Y-107367158D01*
X126884800Y-107080260D01*
X126884800Y-106787740D01*
X126827732Y-106500842D01*
X126715790Y-106230589D01*
X126553275Y-105987368D01*
X126346432Y-105780525D01*
X126172040Y-105664000D01*
X126346432Y-105547475D01*
X126553275Y-105340632D01*
X126715790Y-105097411D01*
X126827732Y-104827158D01*
X126884800Y-104540260D01*
X126884800Y-104247740D01*
X126827732Y-103960842D01*
X126715790Y-103690589D01*
X126553275Y-103447368D01*
X126346432Y-103240525D01*
X126172040Y-103124000D01*
X126346432Y-103007475D01*
X126553275Y-102800632D01*
X126715790Y-102557411D01*
X126827732Y-102287158D01*
X126884800Y-102000260D01*
X126884800Y-101707740D01*
X126827732Y-101420842D01*
X126715790Y-101150589D01*
X126553275Y-100907368D01*
X126346432Y-100700525D01*
X126172040Y-100584000D01*
X126346432Y-100467475D01*
X126553275Y-100260632D01*
X126715790Y-100017411D01*
X126827732Y-99747158D01*
X126884800Y-99460260D01*
X126884800Y-99167740D01*
X126827732Y-98880842D01*
X126715790Y-98610589D01*
X126553275Y-98367368D01*
X126346432Y-98160525D01*
X126172040Y-98044000D01*
X126346432Y-97927475D01*
X126553275Y-97720632D01*
X126715790Y-97477411D01*
X126827732Y-97207158D01*
X126884800Y-96920260D01*
X126884800Y-96627740D01*
X126827732Y-96340842D01*
X126715790Y-96070589D01*
X126553275Y-95827368D01*
X126346432Y-95620525D01*
X126172040Y-95504000D01*
X126346432Y-95387475D01*
X126553275Y-95180632D01*
X126715790Y-94937411D01*
X126827732Y-94667158D01*
X126835391Y-94628656D01*
X127413201Y-95206467D01*
X127413200Y-105510344D01*
X127408073Y-105562400D01*
X127413200Y-105614456D01*
X127413200Y-105614465D01*
X127428538Y-105770195D01*
X127489150Y-105970006D01*
X127587578Y-106154153D01*
X127720041Y-106315559D01*
X127760488Y-106348754D01*
X129363251Y-107951517D01*
X129396441Y-107991959D01*
X129557847Y-108124422D01*
X129620686Y-108158010D01*
X129741993Y-108222850D01*
X129941803Y-108283462D01*
X129959919Y-108285246D01*
X130097534Y-108298800D01*
X130097542Y-108298800D01*
X130149600Y-108303927D01*
X130201658Y-108298800D01*
X131070783Y-108298800D01*
X131203095Y-108431112D01*
X131454505Y-108599099D01*
X131733857Y-108714811D01*
X132030416Y-108773800D01*
X132332784Y-108773800D01*
X132629343Y-108714811D01*
X132908695Y-108599099D01*
X133160105Y-108431112D01*
X133373912Y-108217305D01*
X133541899Y-107965895D01*
X133657611Y-107686543D01*
X133716600Y-107389984D01*
X133716600Y-107087616D01*
X133657611Y-106791057D01*
X133541899Y-106511705D01*
X133373912Y-106260295D01*
X133160105Y-106046488D01*
X132908695Y-105878501D01*
X132629343Y-105762789D01*
X132332784Y-105703800D01*
X132030416Y-105703800D01*
X131733857Y-105762789D01*
X131454505Y-105878501D01*
X131203095Y-106046488D01*
X131070783Y-106178800D01*
X130588666Y-106178800D01*
X129533200Y-105123335D01*
X129533200Y-94819456D01*
X129538327Y-94767400D01*
X129533200Y-94715344D01*
X129533200Y-94715334D01*
X129517862Y-94559604D01*
X129457250Y-94359793D01*
X129358822Y-94175647D01*
X129226359Y-94014241D01*
X129185917Y-93981051D01*
X126884800Y-91679935D01*
X126884800Y-91547740D01*
X126827732Y-91260842D01*
X126715790Y-90990589D01*
X126553275Y-90747368D01*
X126346432Y-90540525D01*
X126172040Y-90424000D01*
X126346432Y-90307475D01*
X126553275Y-90100632D01*
X126715790Y-89857411D01*
X126827732Y-89587158D01*
X126884800Y-89300260D01*
X126884800Y-89007740D01*
X126827732Y-88720842D01*
X126715790Y-88450589D01*
X126553275Y-88207368D01*
X126346432Y-88000525D01*
X126172040Y-87884000D01*
X126346432Y-87767475D01*
X126553275Y-87560632D01*
X126715790Y-87317411D01*
X126827732Y-87047158D01*
X126884800Y-86760260D01*
X126884800Y-86467740D01*
X126827732Y-86180842D01*
X126715790Y-85910589D01*
X126553275Y-85667368D01*
X126346432Y-85460525D01*
X126172040Y-85344000D01*
X126346432Y-85227475D01*
X126553275Y-85020632D01*
X126715790Y-84777411D01*
X126827732Y-84507158D01*
X126884800Y-84220260D01*
X126884800Y-83927740D01*
X126827732Y-83640842D01*
X126715790Y-83370589D01*
X126553275Y-83127368D01*
X126346432Y-82920525D01*
X126172040Y-82804000D01*
X126346432Y-82687475D01*
X126553275Y-82480632D01*
X126715790Y-82237411D01*
X126827732Y-81967158D01*
X126884800Y-81680260D01*
X126884800Y-81387740D01*
X126827732Y-81100842D01*
X126715790Y-80830589D01*
X126553275Y-80587368D01*
X126346432Y-80380525D01*
X126164266Y-80258805D01*
X126281155Y-80189178D01*
X126497388Y-79994269D01*
X126671441Y-79760920D01*
X126796625Y-79498099D01*
X126841276Y-79350890D01*
X126719955Y-79121000D01*
X125526800Y-79121000D01*
X125526800Y-79141000D01*
X125272800Y-79141000D01*
X125272800Y-79121000D01*
X124079645Y-79121000D01*
X123958324Y-79350890D01*
X124002975Y-79498099D01*
X124128159Y-79760920D01*
X124302212Y-79994269D01*
X124518445Y-80189178D01*
X124635334Y-80258805D01*
X124453168Y-80380525D01*
X124246325Y-80587368D01*
X124083810Y-80830589D01*
X123971868Y-81100842D01*
X123914800Y-81387740D01*
X122141577Y-81387740D01*
X122312212Y-81217105D01*
X122480199Y-80965695D01*
X122595911Y-80686343D01*
X122654900Y-80389784D01*
X122654900Y-80262201D01*
X122725952Y-80224223D01*
X122887358Y-80091760D01*
X122920552Y-80051313D01*
X123597916Y-79373950D01*
X123638359Y-79340759D01*
X123770822Y-79179353D01*
X123869250Y-78995207D01*
X123872479Y-78984561D01*
X123929862Y-78795397D01*
X123933093Y-78762589D01*
X123945200Y-78639666D01*
X123945200Y-78639658D01*
X123950327Y-78587600D01*
X123945200Y-78535542D01*
X123945200Y-76753090D01*
X123971868Y-76887158D01*
G37*
X123971868Y-76887158D02*
X124083810Y-77157411D01*
X124246325Y-77400632D01*
X124453168Y-77607475D01*
X124635334Y-77729195D01*
X124518445Y-77798822D01*
X124302212Y-77993731D01*
X124128159Y-78227080D01*
X124002975Y-78489901D01*
X123958324Y-78637110D01*
X124079645Y-78867000D01*
X125272800Y-78867000D01*
X125272800Y-78847000D01*
X125526800Y-78847000D01*
X125526800Y-78867000D01*
X126719955Y-78867000D01*
X126841276Y-78637110D01*
X126796625Y-78489901D01*
X126671441Y-78227080D01*
X126497388Y-77993731D01*
X126281155Y-77798822D01*
X126164266Y-77729195D01*
X126346432Y-77607475D01*
X126553275Y-77400632D01*
X126715790Y-77157411D01*
X126827732Y-76887158D01*
X126835391Y-76848656D01*
X129648401Y-79661668D01*
X129648400Y-101268544D01*
X129643273Y-101320600D01*
X129648400Y-101372656D01*
X129648400Y-101372665D01*
X129663738Y-101528395D01*
X129724350Y-101728206D01*
X129822778Y-101912353D01*
X129955241Y-102073759D01*
X129995688Y-102106953D01*
X131039655Y-103150922D01*
X131072841Y-103191359D01*
X131113278Y-103224545D01*
X131113282Y-103224549D01*
X131147168Y-103252358D01*
X131234247Y-103323822D01*
X131418393Y-103422250D01*
X131618204Y-103482862D01*
X131773934Y-103498200D01*
X131773943Y-103498200D01*
X131825999Y-103503327D01*
X131878055Y-103498200D01*
X138219535Y-103498200D01*
X140773601Y-106052268D01*
X140773600Y-111360400D01*
X120225466Y-111360400D01*
X118695956Y-109830890D01*
X123958324Y-109830890D01*
X124002975Y-109978099D01*
X124128159Y-110240920D01*
X124302212Y-110474269D01*
X124518445Y-110669178D01*
X124768548Y-110818157D01*
X125042909Y-110915481D01*
X125272800Y-110794814D01*
X125272800Y-109601000D01*
X125526800Y-109601000D01*
X125526800Y-110794814D01*
X125756691Y-110915481D01*
X126031052Y-110818157D01*
X126281155Y-110669178D01*
X126497388Y-110474269D01*
X126671441Y-110240920D01*
X126796625Y-109978099D01*
X126841276Y-109830890D01*
X126719955Y-109601000D01*
X125526800Y-109601000D01*
X125272800Y-109601000D01*
X124079645Y-109601000D01*
X123958324Y-109830890D01*
X118695956Y-109830890D01*
X116870954Y-108005889D01*
X116837759Y-107965441D01*
X116676353Y-107832978D01*
X116492207Y-107734550D01*
X116292396Y-107673938D01*
X116136666Y-107658600D01*
X116136656Y-107658600D01*
X116084600Y-107653473D01*
X116032544Y-107658600D01*
X113632800Y-107658600D01*
X113632800Y-107405116D01*
X118607000Y-107405116D01*
X118607000Y-107707484D01*
X118665989Y-108004043D01*
X118781701Y-108283395D01*
X118949688Y-108534805D01*
X119163495Y-108748612D01*
X119414905Y-108916599D01*
X119694257Y-109032311D01*
X119990816Y-109091300D01*
X120293184Y-109091300D01*
X120589743Y-109032311D01*
X120869095Y-108916599D01*
X121120505Y-108748612D01*
X121334312Y-108534805D01*
X121502299Y-108283395D01*
X121618011Y-108004043D01*
X121677000Y-107707484D01*
X121677000Y-107520366D01*
X123394722Y-105802645D01*
X123435159Y-105769459D01*
X123468345Y-105729022D01*
X123468349Y-105729018D01*
X123567621Y-105608054D01*
X123571000Y-105601733D01*
X123666050Y-105423907D01*
X123726662Y-105224096D01*
X123742000Y-105068366D01*
X123742000Y-105068357D01*
X123747127Y-105016301D01*
X123742000Y-104964245D01*
X123742000Y-87862650D01*
X123747127Y-87810592D01*
X123742000Y-87758534D01*
X123742000Y-87758526D01*
X123726662Y-87602796D01*
X123702791Y-87524102D01*
X123666050Y-87402985D01*
X123643929Y-87361600D01*
X123567622Y-87218839D01*
X123435159Y-87057433D01*
X123394711Y-87024238D01*
X123168105Y-86797632D01*
X123331099Y-86553695D01*
X123446811Y-86274343D01*
X123505800Y-85977784D01*
X123505800Y-85675416D01*
X123446811Y-85378857D01*
X123331099Y-85099505D01*
X123163112Y-84848095D01*
X122949305Y-84634288D01*
X122697895Y-84466301D01*
X122418543Y-84350589D01*
X122121984Y-84291600D01*
X121819616Y-84291600D01*
X121523057Y-84350589D01*
X121243705Y-84466301D01*
X120992295Y-84634288D01*
X120778488Y-84848095D01*
X120610501Y-85099505D01*
X120494789Y-85378857D01*
X120435800Y-85675416D01*
X120435800Y-85977784D01*
X120494789Y-86274343D01*
X120610501Y-86553695D01*
X120778488Y-86805105D01*
X120910800Y-86937417D01*
X120910800Y-87047336D01*
X120905673Y-87099392D01*
X120910800Y-87151448D01*
X120910800Y-87151458D01*
X120924357Y-87289094D01*
X120926139Y-87307188D01*
X120986750Y-87506998D01*
X121085179Y-87691145D01*
X121164816Y-87788182D01*
X121217642Y-87852551D01*
X121258084Y-87885741D01*
X121622000Y-88249657D01*
X121622001Y-104577232D01*
X120177934Y-106021300D01*
X119990816Y-106021300D01*
X119694257Y-106080289D01*
X119414905Y-106196001D01*
X119163495Y-106363988D01*
X118949688Y-106577795D01*
X118781701Y-106829205D01*
X118665989Y-107108557D01*
X118607000Y-107405116D01*
X113632800Y-107405116D01*
X113632800Y-98083356D01*
X113637927Y-98031300D01*
X113632800Y-97979244D01*
X113632800Y-97979234D01*
X113617462Y-97823504D01*
X113556850Y-97623693D01*
X113458422Y-97439547D01*
X113325959Y-97278141D01*
X113285517Y-97244951D01*
X110064100Y-94023535D01*
X110064100Y-91866072D01*
X110207357Y-91925411D01*
X110503916Y-91984400D01*
X110784683Y-91984400D01*
X110732788Y-92036295D01*
X110564801Y-92287705D01*
X110449089Y-92567057D01*
X110390100Y-92863616D01*
X110390100Y-93165984D01*
X110449089Y-93462543D01*
X110564801Y-93741895D01*
X110732788Y-93993305D01*
X110946595Y-94207112D01*
X111198005Y-94375099D01*
X111477357Y-94490811D01*
X111773916Y-94549800D01*
X112076284Y-94549800D01*
X112372843Y-94490811D01*
X112652195Y-94375099D01*
X112903605Y-94207112D01*
X113035917Y-94074800D01*
X117461034Y-94074800D01*
X117513100Y-94079928D01*
X117565166Y-94074800D01*
X117720896Y-94059462D01*
X117920707Y-93998850D01*
X118104853Y-93900422D01*
X118266259Y-93767959D01*
X118398722Y-93606553D01*
X118497150Y-93422407D01*
X118544391Y-93266674D01*
X119508517Y-92302549D01*
X119548959Y-92269359D01*
X119681422Y-92107953D01*
X119779850Y-91923807D01*
X119831288Y-91754238D01*
X119840462Y-91723997D01*
X119843416Y-91694000D01*
X119855800Y-91568266D01*
X119855800Y-91568258D01*
X119860927Y-91516200D01*
X119855800Y-91464142D01*
X119855800Y-81109667D01*
X119927588Y-81217105D01*
X120141395Y-81430912D01*
X120392805Y-81598899D01*
X120672157Y-81714611D01*
X120968716Y-81773600D01*
X121271084Y-81773600D01*
X121567643Y-81714611D01*
X121846995Y-81598899D01*
X122098405Y-81430912D01*
X122141577Y-81387740D01*
X123914800Y-81387740D01*
X123914800Y-81680260D01*
X123971868Y-81967158D01*
X124083810Y-82237411D01*
X124246325Y-82480632D01*
X124453168Y-82687475D01*
X124627560Y-82804000D01*
X124453168Y-82920525D01*
X124246325Y-83127368D01*
X124083810Y-83370589D01*
X123971868Y-83640842D01*
X123914800Y-83927740D01*
X123914800Y-84220260D01*
X123971868Y-84507158D01*
X124083810Y-84777411D01*
X124246325Y-85020632D01*
X124453168Y-85227475D01*
X124627560Y-85344000D01*
X124453168Y-85460525D01*
X124246325Y-85667368D01*
X124083810Y-85910589D01*
X123971868Y-86180842D01*
X123914800Y-86467740D01*
X123914800Y-86760260D01*
X123971868Y-87047158D01*
X124083810Y-87317411D01*
X124246325Y-87560632D01*
X124453168Y-87767475D01*
X124627560Y-87884000D01*
X124453168Y-88000525D01*
X124246325Y-88207368D01*
X124083810Y-88450589D01*
X123971868Y-88720842D01*
X123914800Y-89007740D01*
X123914800Y-89300260D01*
X123971868Y-89587158D01*
X124083810Y-89857411D01*
X124246325Y-90100632D01*
X124453168Y-90307475D01*
X124627560Y-90424000D01*
X124453168Y-90540525D01*
X124246325Y-90747368D01*
X124083810Y-90990589D01*
X123971868Y-91260842D01*
X123914800Y-91547740D01*
X123914800Y-91840260D01*
X123971868Y-92127158D01*
X124083810Y-92397411D01*
X124246325Y-92640632D01*
X124453168Y-92847475D01*
X124627560Y-92964000D01*
X124453168Y-93080525D01*
X124246325Y-93287368D01*
X124083810Y-93530589D01*
X123971868Y-93800842D01*
X123914800Y-94087740D01*
X123914800Y-94380260D01*
X123971868Y-94667158D01*
X124083810Y-94937411D01*
X124246325Y-95180632D01*
X124453168Y-95387475D01*
X124627560Y-95504000D01*
X124453168Y-95620525D01*
X124246325Y-95827368D01*
X124083810Y-96070589D01*
X123971868Y-96340842D01*
X123914800Y-96627740D01*
X123914800Y-96920260D01*
X123971868Y-97207158D01*
X124083810Y-97477411D01*
X124246325Y-97720632D01*
X124453168Y-97927475D01*
X124627560Y-98044000D01*
X124453168Y-98160525D01*
X124246325Y-98367368D01*
X124083810Y-98610589D01*
X123971868Y-98880842D01*
X123914800Y-99167740D01*
X123914800Y-99460260D01*
X123971868Y-99747158D01*
X124083810Y-100017411D01*
X124246325Y-100260632D01*
X124453168Y-100467475D01*
X124627560Y-100584000D01*
X124453168Y-100700525D01*
X124246325Y-100907368D01*
X124083810Y-101150589D01*
X123971868Y-101420842D01*
X123914800Y-101707740D01*
X123914800Y-102000260D01*
X123971868Y-102287158D01*
X124083810Y-102557411D01*
X124246325Y-102800632D01*
X124453168Y-103007475D01*
X124627560Y-103124000D01*
X124453168Y-103240525D01*
X124246325Y-103447368D01*
X124083810Y-103690589D01*
X123971868Y-103960842D01*
X123914800Y-104247740D01*
X123914800Y-104540260D01*
X123971868Y-104827158D01*
X124083810Y-105097411D01*
X124246325Y-105340632D01*
X124453168Y-105547475D01*
X124627560Y-105664000D01*
X124453168Y-105780525D01*
X124246325Y-105987368D01*
X124083810Y-106230589D01*
X123971868Y-106500842D01*
X123914800Y-106787740D01*
X123914800Y-107080260D01*
X123971868Y-107367158D01*
X124083810Y-107637411D01*
X124246325Y-107880632D01*
X124453168Y-108087475D01*
X124635334Y-108209195D01*
X124518445Y-108278822D01*
X124302212Y-108473731D01*
X124128159Y-108707080D01*
X124002975Y-108969901D01*
X123958324Y-109117110D01*
X124079645Y-109347000D01*
X125272800Y-109347000D01*
X125272800Y-109327000D01*
X125526800Y-109327000D01*
X125526800Y-109347000D01*
X126719955Y-109347000D01*
X126841276Y-109117110D01*
X126796625Y-108969901D01*
X126671441Y-108707080D01*
X126497388Y-108473731D01*
X126281155Y-108278822D01*
X126164266Y-108209195D01*
X126346432Y-108087475D01*
X126553275Y-107880632D01*
X126715790Y-107637411D01*
X126827732Y-107367158D01*
X126884800Y-107080260D01*
X126884800Y-106787740D01*
X126827732Y-106500842D01*
X126715790Y-106230589D01*
X126553275Y-105987368D01*
X126346432Y-105780525D01*
X126172040Y-105664000D01*
X126346432Y-105547475D01*
X126553275Y-105340632D01*
X126715790Y-105097411D01*
X126827732Y-104827158D01*
X126884800Y-104540260D01*
X126884800Y-104247740D01*
X126827732Y-103960842D01*
X126715790Y-103690589D01*
X126553275Y-103447368D01*
X126346432Y-103240525D01*
X126172040Y-103124000D01*
X126346432Y-103007475D01*
X126553275Y-102800632D01*
X126715790Y-102557411D01*
X126827732Y-102287158D01*
X126884800Y-102000260D01*
X126884800Y-101707740D01*
X126827732Y-101420842D01*
X126715790Y-101150589D01*
X126553275Y-100907368D01*
X126346432Y-100700525D01*
X126172040Y-100584000D01*
X126346432Y-100467475D01*
X126553275Y-100260632D01*
X126715790Y-100017411D01*
X126827732Y-99747158D01*
X126884800Y-99460260D01*
X126884800Y-99167740D01*
X126827732Y-98880842D01*
X126715790Y-98610589D01*
X126553275Y-98367368D01*
X126346432Y-98160525D01*
X126172040Y-98044000D01*
X126346432Y-97927475D01*
X126553275Y-97720632D01*
X126715790Y-97477411D01*
X126827732Y-97207158D01*
X126884800Y-96920260D01*
X126884800Y-96627740D01*
X126827732Y-96340842D01*
X126715790Y-96070589D01*
X126553275Y-95827368D01*
X126346432Y-95620525D01*
X126172040Y-95504000D01*
X126346432Y-95387475D01*
X126553275Y-95180632D01*
X126715790Y-94937411D01*
X126827732Y-94667158D01*
X126835391Y-94628656D01*
X127413201Y-95206467D01*
X127413200Y-105510344D01*
X127408073Y-105562400D01*
X127413200Y-105614456D01*
X127413200Y-105614465D01*
X127428538Y-105770195D01*
X127489150Y-105970006D01*
X127587578Y-106154153D01*
X127720041Y-106315559D01*
X127760488Y-106348754D01*
X129363251Y-107951517D01*
X129396441Y-107991959D01*
X129557847Y-108124422D01*
X129620686Y-108158010D01*
X129741993Y-108222850D01*
X129941803Y-108283462D01*
X129959919Y-108285246D01*
X130097534Y-108298800D01*
X130097542Y-108298800D01*
X130149600Y-108303927D01*
X130201658Y-108298800D01*
X131070783Y-108298800D01*
X131203095Y-108431112D01*
X131454505Y-108599099D01*
X131733857Y-108714811D01*
X132030416Y-108773800D01*
X132332784Y-108773800D01*
X132629343Y-108714811D01*
X132908695Y-108599099D01*
X133160105Y-108431112D01*
X133373912Y-108217305D01*
X133541899Y-107965895D01*
X133657611Y-107686543D01*
X133716600Y-107389984D01*
X133716600Y-107087616D01*
X133657611Y-106791057D01*
X133541899Y-106511705D01*
X133373912Y-106260295D01*
X133160105Y-106046488D01*
X132908695Y-105878501D01*
X132629343Y-105762789D01*
X132332784Y-105703800D01*
X132030416Y-105703800D01*
X131733857Y-105762789D01*
X131454505Y-105878501D01*
X131203095Y-106046488D01*
X131070783Y-106178800D01*
X130588666Y-106178800D01*
X129533200Y-105123335D01*
X129533200Y-94819456D01*
X129538327Y-94767400D01*
X129533200Y-94715344D01*
X129533200Y-94715334D01*
X129517862Y-94559604D01*
X129457250Y-94359793D01*
X129358822Y-94175647D01*
X129226359Y-94014241D01*
X129185917Y-93981051D01*
X126884800Y-91679935D01*
X126884800Y-91547740D01*
X126827732Y-91260842D01*
X126715790Y-90990589D01*
X126553275Y-90747368D01*
X126346432Y-90540525D01*
X126172040Y-90424000D01*
X126346432Y-90307475D01*
X126553275Y-90100632D01*
X126715790Y-89857411D01*
X126827732Y-89587158D01*
X126884800Y-89300260D01*
X126884800Y-89007740D01*
X126827732Y-88720842D01*
X126715790Y-88450589D01*
X126553275Y-88207368D01*
X126346432Y-88000525D01*
X126172040Y-87884000D01*
X126346432Y-87767475D01*
X126553275Y-87560632D01*
X126715790Y-87317411D01*
X126827732Y-87047158D01*
X126884800Y-86760260D01*
X126884800Y-86467740D01*
X126827732Y-86180842D01*
X126715790Y-85910589D01*
X126553275Y-85667368D01*
X126346432Y-85460525D01*
X126172040Y-85344000D01*
X126346432Y-85227475D01*
X126553275Y-85020632D01*
X126715790Y-84777411D01*
X126827732Y-84507158D01*
X126884800Y-84220260D01*
X126884800Y-83927740D01*
X126827732Y-83640842D01*
X126715790Y-83370589D01*
X126553275Y-83127368D01*
X126346432Y-82920525D01*
X126172040Y-82804000D01*
X126346432Y-82687475D01*
X126553275Y-82480632D01*
X126715790Y-82237411D01*
X126827732Y-81967158D01*
X126884800Y-81680260D01*
X126884800Y-81387740D01*
X126827732Y-81100842D01*
X126715790Y-80830589D01*
X126553275Y-80587368D01*
X126346432Y-80380525D01*
X126164266Y-80258805D01*
X126281155Y-80189178D01*
X126497388Y-79994269D01*
X126671441Y-79760920D01*
X126796625Y-79498099D01*
X126841276Y-79350890D01*
X126719955Y-79121000D01*
X125526800Y-79121000D01*
X125526800Y-79141000D01*
X125272800Y-79141000D01*
X125272800Y-79121000D01*
X124079645Y-79121000D01*
X123958324Y-79350890D01*
X124002975Y-79498099D01*
X124128159Y-79760920D01*
X124302212Y-79994269D01*
X124518445Y-80189178D01*
X124635334Y-80258805D01*
X124453168Y-80380525D01*
X124246325Y-80587368D01*
X124083810Y-80830589D01*
X123971868Y-81100842D01*
X123914800Y-81387740D01*
X122141577Y-81387740D01*
X122312212Y-81217105D01*
X122480199Y-80965695D01*
X122595911Y-80686343D01*
X122654900Y-80389784D01*
X122654900Y-80262201D01*
X122725952Y-80224223D01*
X122887358Y-80091760D01*
X122920552Y-80051313D01*
X123597916Y-79373950D01*
X123638359Y-79340759D01*
X123770822Y-79179353D01*
X123869250Y-78995207D01*
X123872479Y-78984561D01*
X123929862Y-78795397D01*
X123933093Y-78762589D01*
X123945200Y-78639666D01*
X123945200Y-78639658D01*
X123950327Y-78587600D01*
X123945200Y-78535542D01*
X123945200Y-76753090D01*
X123971868Y-76887158D01*
G36*
X115302177Y-69138143D02*
G01*
X116904550Y-70740516D01*
X116937741Y-70780959D01*
X117099147Y-70913422D01*
X117107117Y-70917682D01*
X119106934Y-72917500D01*
X118479558Y-72917500D01*
X118427500Y-72912373D01*
X118375442Y-72917500D01*
X118375434Y-72917500D01*
X118237819Y-72931054D01*
X118219703Y-72932838D01*
X118073749Y-72977113D01*
X118019893Y-72993450D01*
X117835747Y-73091878D01*
X117674341Y-73224341D01*
X117641151Y-73264783D01*
X116381284Y-74524651D01*
X116340842Y-74557841D01*
X116307652Y-74598283D01*
X116307651Y-74598284D01*
X116208379Y-74719247D01*
X116109950Y-74903394D01*
X116049339Y-75103204D01*
X116028873Y-75311000D01*
X116034001Y-75363066D01*
X116034000Y-89349935D01*
X115994535Y-89389400D01*
X113326576Y-89389400D01*
X113369959Y-89184364D01*
X112699800Y-88514205D01*
X112029641Y-89184364D01*
X112073024Y-89389400D01*
X111765917Y-89389400D01*
X111633605Y-89257088D01*
X111382195Y-89089101D01*
X111102843Y-88973389D01*
X110806284Y-88914400D01*
X110503916Y-88914400D01*
X110207357Y-88973389D01*
X110064100Y-89032728D01*
X110064100Y-88413038D01*
X111461305Y-88413038D01*
X111500405Y-88653149D01*
X111585598Y-88881018D01*
X111626452Y-88957452D01*
X111850036Y-89004759D01*
X112520195Y-88334600D01*
X112506053Y-88320458D01*
X112685658Y-88140853D01*
X112699800Y-88154995D01*
X112713943Y-88140853D01*
X112893548Y-88320458D01*
X112879405Y-88334600D01*
X113549564Y-89004759D01*
X113773148Y-88957452D01*
X113874037Y-88736084D01*
X113929800Y-88499287D01*
X113938295Y-88256162D01*
X113899195Y-88016051D01*
X113814002Y-87788182D01*
X113773148Y-87711748D01*
X113549566Y-87664442D01*
X113666672Y-87547336D01*
X113608794Y-87489458D01*
X113654294Y-87465137D01*
X113750985Y-87385785D01*
X113830337Y-87289094D01*
X113889302Y-87178780D01*
X113925612Y-87059082D01*
X113937872Y-86934600D01*
X113937872Y-85734600D01*
X113925612Y-85610118D01*
X113889302Y-85490420D01*
X113830337Y-85380106D01*
X113750985Y-85283415D01*
X113654294Y-85204063D01*
X113543980Y-85145098D01*
X113424282Y-85108788D01*
X113299800Y-85096528D01*
X112099800Y-85096528D01*
X111975318Y-85108788D01*
X111855620Y-85145098D01*
X111745306Y-85204063D01*
X111648615Y-85283415D01*
X111569263Y-85380106D01*
X111510298Y-85490420D01*
X111473988Y-85610118D01*
X111461728Y-85734600D01*
X111461728Y-86934600D01*
X111473988Y-87059082D01*
X111510298Y-87178780D01*
X111569263Y-87289094D01*
X111648615Y-87385785D01*
X111745306Y-87465137D01*
X111790806Y-87489458D01*
X111732928Y-87547336D01*
X111850034Y-87664442D01*
X111626452Y-87711748D01*
X111525563Y-87933116D01*
X111469800Y-88169913D01*
X111461305Y-88413038D01*
X110064100Y-88413038D01*
X110064100Y-87712117D01*
X110196412Y-87579805D01*
X110364399Y-87328395D01*
X110480111Y-87049043D01*
X110539100Y-86752484D01*
X110539100Y-86450116D01*
X110480111Y-86153557D01*
X110364399Y-85874205D01*
X110196412Y-85622795D01*
X109982605Y-85408988D01*
X109731195Y-85241001D01*
X109451843Y-85125289D01*
X109155284Y-85066300D01*
X108852916Y-85066300D01*
X108556357Y-85125289D01*
X108387700Y-85195149D01*
X108387700Y-77159765D01*
X108687274Y-76860191D01*
X108774895Y-76947812D01*
X109026305Y-77115799D01*
X109305657Y-77231511D01*
X109602216Y-77290500D01*
X109904584Y-77290500D01*
X110201143Y-77231511D01*
X110480495Y-77115799D01*
X110731905Y-76947812D01*
X110945712Y-76734005D01*
X111113699Y-76482595D01*
X111229411Y-76203243D01*
X111288400Y-75906684D01*
X111288400Y-75604316D01*
X111229411Y-75307757D01*
X111113699Y-75028405D01*
X110945712Y-74776995D01*
X110731905Y-74563188D01*
X110480495Y-74395201D01*
X110201143Y-74279489D01*
X109904584Y-74220500D01*
X109602216Y-74220500D01*
X109305657Y-74279489D01*
X109026305Y-74395201D01*
X108774895Y-74563188D01*
X108642583Y-74695500D01*
X108344956Y-74695500D01*
X108292900Y-74690373D01*
X108240844Y-74695500D01*
X108240834Y-74695500D01*
X108085104Y-74710838D01*
X107885293Y-74771450D01*
X107701147Y-74869878D01*
X107539741Y-75002341D01*
X107506551Y-75042784D01*
X107054140Y-75495195D01*
X107107203Y-70401163D01*
X107868366Y-69640000D01*
X111282835Y-69640000D01*
X113336500Y-71693666D01*
X113336500Y-71880784D01*
X113395489Y-72177343D01*
X113511201Y-72456695D01*
X113679188Y-72708105D01*
X113892995Y-72921912D01*
X114144405Y-73089899D01*
X114423757Y-73205611D01*
X114720316Y-73264600D01*
X115022684Y-73264600D01*
X115319243Y-73205611D01*
X115598595Y-73089899D01*
X115850005Y-72921912D01*
X116063812Y-72708105D01*
X116231799Y-72456695D01*
X116347511Y-72177343D01*
X116406500Y-71880784D01*
X116406500Y-71578416D01*
X116347511Y-71281857D01*
X116231799Y-71002505D01*
X116063812Y-70751095D01*
X115850005Y-70537288D01*
X115598595Y-70369301D01*
X115319243Y-70253589D01*
X115022684Y-70194600D01*
X114835566Y-70194600D01*
X113679235Y-69038270D01*
X115302177Y-69138143D01*
G37*
X115302177Y-69138143D02*
X116904550Y-70740516D01*
X116937741Y-70780959D01*
X117099147Y-70913422D01*
X117107117Y-70917682D01*
X119106934Y-72917500D01*
X118479558Y-72917500D01*
X118427500Y-72912373D01*
X118375442Y-72917500D01*
X118375434Y-72917500D01*
X118237819Y-72931054D01*
X118219703Y-72932838D01*
X118073749Y-72977113D01*
X118019893Y-72993450D01*
X117835747Y-73091878D01*
X117674341Y-73224341D01*
X117641151Y-73264783D01*
X116381284Y-74524651D01*
X116340842Y-74557841D01*
X116307652Y-74598283D01*
X116307651Y-74598284D01*
X116208379Y-74719247D01*
X116109950Y-74903394D01*
X116049339Y-75103204D01*
X116028873Y-75311000D01*
X116034001Y-75363066D01*
X116034000Y-89349935D01*
X115994535Y-89389400D01*
X113326576Y-89389400D01*
X113369959Y-89184364D01*
X112699800Y-88514205D01*
X112029641Y-89184364D01*
X112073024Y-89389400D01*
X111765917Y-89389400D01*
X111633605Y-89257088D01*
X111382195Y-89089101D01*
X111102843Y-88973389D01*
X110806284Y-88914400D01*
X110503916Y-88914400D01*
X110207357Y-88973389D01*
X110064100Y-89032728D01*
X110064100Y-88413038D01*
X111461305Y-88413038D01*
X111500405Y-88653149D01*
X111585598Y-88881018D01*
X111626452Y-88957452D01*
X111850036Y-89004759D01*
X112520195Y-88334600D01*
X112506053Y-88320458D01*
X112685658Y-88140853D01*
X112699800Y-88154995D01*
X112713943Y-88140853D01*
X112893548Y-88320458D01*
X112879405Y-88334600D01*
X113549564Y-89004759D01*
X113773148Y-88957452D01*
X113874037Y-88736084D01*
X113929800Y-88499287D01*
X113938295Y-88256162D01*
X113899195Y-88016051D01*
X113814002Y-87788182D01*
X113773148Y-87711748D01*
X113549566Y-87664442D01*
X113666672Y-87547336D01*
X113608794Y-87489458D01*
X113654294Y-87465137D01*
X113750985Y-87385785D01*
X113830337Y-87289094D01*
X113889302Y-87178780D01*
X113925612Y-87059082D01*
X113937872Y-86934600D01*
X113937872Y-85734600D01*
X113925612Y-85610118D01*
X113889302Y-85490420D01*
X113830337Y-85380106D01*
X113750985Y-85283415D01*
X113654294Y-85204063D01*
X113543980Y-85145098D01*
X113424282Y-85108788D01*
X113299800Y-85096528D01*
X112099800Y-85096528D01*
X111975318Y-85108788D01*
X111855620Y-85145098D01*
X111745306Y-85204063D01*
X111648615Y-85283415D01*
X111569263Y-85380106D01*
X111510298Y-85490420D01*
X111473988Y-85610118D01*
X111461728Y-85734600D01*
X111461728Y-86934600D01*
X111473988Y-87059082D01*
X111510298Y-87178780D01*
X111569263Y-87289094D01*
X111648615Y-87385785D01*
X111745306Y-87465137D01*
X111790806Y-87489458D01*
X111732928Y-87547336D01*
X111850034Y-87664442D01*
X111626452Y-87711748D01*
X111525563Y-87933116D01*
X111469800Y-88169913D01*
X111461305Y-88413038D01*
X110064100Y-88413038D01*
X110064100Y-87712117D01*
X110196412Y-87579805D01*
X110364399Y-87328395D01*
X110480111Y-87049043D01*
X110539100Y-86752484D01*
X110539100Y-86450116D01*
X110480111Y-86153557D01*
X110364399Y-85874205D01*
X110196412Y-85622795D01*
X109982605Y-85408988D01*
X109731195Y-85241001D01*
X109451843Y-85125289D01*
X109155284Y-85066300D01*
X108852916Y-85066300D01*
X108556357Y-85125289D01*
X108387700Y-85195149D01*
X108387700Y-77159765D01*
X108687274Y-76860191D01*
X108774895Y-76947812D01*
X109026305Y-77115799D01*
X109305657Y-77231511D01*
X109602216Y-77290500D01*
X109904584Y-77290500D01*
X110201143Y-77231511D01*
X110480495Y-77115799D01*
X110731905Y-76947812D01*
X110945712Y-76734005D01*
X111113699Y-76482595D01*
X111229411Y-76203243D01*
X111288400Y-75906684D01*
X111288400Y-75604316D01*
X111229411Y-75307757D01*
X111113699Y-75028405D01*
X110945712Y-74776995D01*
X110731905Y-74563188D01*
X110480495Y-74395201D01*
X110201143Y-74279489D01*
X109904584Y-74220500D01*
X109602216Y-74220500D01*
X109305657Y-74279489D01*
X109026305Y-74395201D01*
X108774895Y-74563188D01*
X108642583Y-74695500D01*
X108344956Y-74695500D01*
X108292900Y-74690373D01*
X108240844Y-74695500D01*
X108240834Y-74695500D01*
X108085104Y-74710838D01*
X107885293Y-74771450D01*
X107701147Y-74869878D01*
X107539741Y-75002341D01*
X107506551Y-75042784D01*
X107054140Y-75495195D01*
X107107203Y-70401163D01*
X107868366Y-69640000D01*
X111282835Y-69640000D01*
X113336500Y-71693666D01*
X113336500Y-71880784D01*
X113395489Y-72177343D01*
X113511201Y-72456695D01*
X113679188Y-72708105D01*
X113892995Y-72921912D01*
X114144405Y-73089899D01*
X114423757Y-73205611D01*
X114720316Y-73264600D01*
X115022684Y-73264600D01*
X115319243Y-73205611D01*
X115598595Y-73089899D01*
X115850005Y-72921912D01*
X116063812Y-72708105D01*
X116231799Y-72456695D01*
X116347511Y-72177343D01*
X116406500Y-71880784D01*
X116406500Y-71578416D01*
X116347511Y-71281857D01*
X116231799Y-71002505D01*
X116063812Y-70751095D01*
X115850005Y-70537288D01*
X115598595Y-70369301D01*
X115319243Y-70253589D01*
X115022684Y-70194600D01*
X114835566Y-70194600D01*
X113679235Y-69038270D01*
X115302177Y-69138143D01*
G04 #@! TD*
M02*
