G04 #@! TF.GenerationSoftware,KiCad,Pcbnew,5.1.5-52549c5~84~ubuntu18.04.1*
G04 #@! TF.CreationDate,2020-02-12T19:09:05-05:00*
G04 #@! TF.ProjectId,solenoid_board,736f6c65-6e6f-4696-945f-626f6172642e,rev?*
G04 #@! TF.SameCoordinates,Original*
G04 #@! TF.FileFunction,Copper,L1,Top*
G04 #@! TF.FilePolarity,Positive*
%FSLAX46Y46*%
G04 Gerber Fmt 4.6, Leading zero omitted, Abs format (unit mm)*
G04 Created by KiCad (PCBNEW 5.1.5-52549c5~84~ubuntu18.04.1) date 2020-02-12 19:09:05*
%MOMM*%
%LPD*%
G04 APERTURE LIST*
G04 #@! TA.AperFunction,Profile*
%ADD10C,0.100000*%
G04 #@! TD*
G04 #@! TA.AperFunction,ComponentPad*
%ADD11O,1.600000X1.600000*%
G04 #@! TD*
G04 #@! TA.AperFunction,ComponentPad*
%ADD12C,1.600000*%
G04 #@! TD*
G04 #@! TA.AperFunction,ComponentPad*
%ADD13C,1.500000*%
G04 #@! TD*
G04 #@! TA.AperFunction,ComponentPad*
%ADD14R,1.500000X1.500000*%
G04 #@! TD*
G04 #@! TA.AperFunction,ComponentPad*
%ADD15C,3.000000*%
G04 #@! TD*
G04 #@! TA.AperFunction,ComponentPad*
%ADD16R,3.000000X3.000000*%
G04 #@! TD*
G04 #@! TA.AperFunction,ComponentPad*
%ADD17R,1.600000X1.600000*%
G04 #@! TD*
G04 #@! TA.AperFunction,ComponentPad*
%ADD18C,1.200000*%
G04 #@! TD*
G04 #@! TA.AperFunction,ComponentPad*
%ADD19R,1.200000X1.200000*%
G04 #@! TD*
G04 #@! TA.AperFunction,ComponentPad*
%ADD20R,1.700000X1.700000*%
G04 #@! TD*
G04 #@! TA.AperFunction,SMDPad,CuDef*
%ADD21R,2.173199X0.568000*%
G04 #@! TD*
G04 #@! TA.AperFunction,ComponentPad*
%ADD22O,1.905000X2.000000*%
G04 #@! TD*
G04 #@! TA.AperFunction,ComponentPad*
%ADD23R,1.905000X2.000000*%
G04 #@! TD*
G04 #@! TA.AperFunction,SMDPad,CuDef*
%ADD24R,0.568000X1.454899*%
G04 #@! TD*
G04 #@! TA.AperFunction,SMDPad,CuDef*
%ADD25R,1.295400X0.558800*%
G04 #@! TD*
G04 #@! TA.AperFunction,ComponentPad*
%ADD26O,1.700000X1.700000*%
G04 #@! TD*
G04 #@! TA.AperFunction,ViaPad*
%ADD27C,0.800000*%
G04 #@! TD*
G04 #@! TA.AperFunction,Conductor*
%ADD28C,0.250000*%
G04 #@! TD*
G04 #@! TA.AperFunction,Conductor*
%ADD29C,0.750000*%
G04 #@! TD*
G04 #@! TA.AperFunction,Conductor*
%ADD30C,2.000000*%
G04 #@! TD*
G04 APERTURE END LIST*
D10*
X192000000Y-53000000D02*
X192000000Y-146000000D01*
X92000000Y-53000000D02*
X192000000Y-53000000D01*
X92000000Y-146000000D02*
X92000000Y-53000000D01*
X192000000Y-146000000D02*
X92000000Y-146000000D01*
D11*
G04 #@! TO.P,R105,2*
G04 #@! TO.N,/D9*
X153822400Y-104013000D03*
D12*
G04 #@! TO.P,R105,1*
G04 #@! TO.N,Net-(FET5-Pad2)*
X174142400Y-104013000D03*
G04 #@! TD*
D11*
G04 #@! TO.P,R104,2*
G04 #@! TO.N,/D6*
X154127200Y-114274600D03*
D12*
G04 #@! TO.P,R104,1*
G04 #@! TO.N,Net-(FET4-Pad2)*
X174447200Y-114274600D03*
G04 #@! TD*
D11*
G04 #@! TO.P,R103,2*
G04 #@! TO.N,/D5*
X154127200Y-124561600D03*
D12*
G04 #@! TO.P,R103,1*
G04 #@! TO.N,Net-(FET3-Pad2)*
X174447200Y-124561600D03*
G04 #@! TD*
D11*
G04 #@! TO.P,R102,2*
G04 #@! TO.N,/D12*
X154305000Y-72542400D03*
D12*
G04 #@! TO.P,R102,1*
G04 #@! TO.N,Net-(FET2-Pad2)*
X174625000Y-72542400D03*
G04 #@! TD*
D11*
G04 #@! TO.P,R101,2*
G04 #@! TO.N,/D11*
X154305000Y-83007200D03*
D12*
G04 #@! TO.P,R101,1*
G04 #@! TO.N,Net-(FET1-Pad2)*
X174625000Y-83007200D03*
G04 #@! TD*
D11*
G04 #@! TO.P,R100,2*
G04 #@! TO.N,/D10*
X154127200Y-93243400D03*
D12*
G04 #@! TO.P,R100,1*
G04 #@! TO.N,Net-(FET0-Pad2)*
X174447200Y-93243400D03*
G04 #@! TD*
D11*
G04 #@! TO.P,R11,2*
G04 #@! TO.N,Net-(Prt_IC1-Pad1)*
X115468400Y-115087400D03*
D12*
G04 #@! TO.P,R11,1*
G04 #@! TO.N,/RJ45_5*
X115468400Y-135407400D03*
G04 #@! TD*
D11*
G04 #@! TO.P,R10,2*
G04 #@! TO.N,Net-(Prt_IC1-Pad2)*
X120599200Y-117068600D03*
D12*
G04 #@! TO.P,R10,1*
G04 #@! TO.N,/RJ45_4*
X120599200Y-137388600D03*
G04 #@! TD*
D13*
G04 #@! TO.P,RJ1,8*
G04 #@! TO.N,N/C*
X152755600Y-128803400D03*
G04 #@! TO.P,RJ1,7*
X151485600Y-131343400D03*
G04 #@! TO.P,RJ1,6*
X150215600Y-128803400D03*
G04 #@! TO.P,RJ1,5*
G04 #@! TO.N,/RJ45_5*
X148945600Y-131343400D03*
G04 #@! TO.P,RJ1,4*
G04 #@! TO.N,/RJ45_4*
X147675600Y-128803400D03*
G04 #@! TO.P,RJ1,3*
G04 #@! TO.N,N/C*
X146405600Y-131343400D03*
G04 #@! TO.P,RJ1,2*
X145135600Y-128803400D03*
D14*
G04 #@! TO.P,RJ1,1*
X143865600Y-131343400D03*
G04 #@! TD*
D13*
G04 #@! TO.P,RJ0,8*
G04 #@! TO.N,N/C*
X135788400Y-128803400D03*
G04 #@! TO.P,RJ0,7*
X134518400Y-131343400D03*
G04 #@! TO.P,RJ0,6*
X133248400Y-128803400D03*
G04 #@! TO.P,RJ0,5*
G04 #@! TO.N,/RJ45_5*
X131978400Y-131343400D03*
G04 #@! TO.P,RJ0,4*
G04 #@! TO.N,/RJ45_4*
X130708400Y-128803400D03*
G04 #@! TO.P,RJ0,3*
G04 #@! TO.N,N/C*
X129438400Y-131343400D03*
G04 #@! TO.P,RJ0,2*
X128168400Y-128803400D03*
D14*
G04 #@! TO.P,RJ0,1*
X126898400Y-131343400D03*
G04 #@! TD*
D15*
G04 #@! TO.P,Solenoid0,6*
G04 #@! TO.N,Net-(FET2-Pad3)*
X181737000Y-78613000D03*
G04 #@! TO.P,Solenoid0,5*
G04 #@! TO.N,+48V*
X181737000Y-83693000D03*
G04 #@! TO.P,Solenoid0,4*
G04 #@! TO.N,Net-(FET1-Pad3)*
X181737000Y-88773000D03*
D16*
G04 #@! TO.P,Solenoid0,1*
G04 #@! TO.N,+48V*
X181737000Y-104013000D03*
D15*
G04 #@! TO.P,Solenoid0,3*
X181737000Y-93853000D03*
G04 #@! TO.P,Solenoid0,2*
G04 #@! TO.N,Net-(FET0-Pad3)*
X181737000Y-98933000D03*
G04 #@! TD*
D12*
G04 #@! TO.P,CP0,2*
G04 #@! TO.N,GND*
X151852000Y-86588600D03*
D17*
G04 #@! TO.P,CP0,1*
G04 #@! TO.N,+5V*
X149352000Y-86588600D03*
G04 #@! TD*
D15*
G04 #@! TO.P,+48V_IN1,2*
G04 #@! TO.N,+48V*
X181737000Y-64897000D03*
D16*
G04 #@! TO.P,+48V_IN1,1*
G04 #@! TO.N,GND*
X181737000Y-69977000D03*
G04 #@! TD*
D15*
G04 #@! TO.P,+3V3,6*
G04 #@! TO.N,+3V3*
X104013000Y-59436000D03*
G04 #@! TO.P,+3V3,5*
X109093000Y-59436000D03*
G04 #@! TO.P,+3V3,4*
X114173000Y-59436000D03*
D16*
G04 #@! TO.P,+3V3,1*
X129413000Y-59436000D03*
D15*
G04 #@! TO.P,+3V3,3*
X119253000Y-59436000D03*
G04 #@! TO.P,+3V3,2*
X124333000Y-59436000D03*
G04 #@! TD*
D18*
G04 #@! TO.P,C0.1nF2,2*
G04 #@! TO.N,GND*
X113030000Y-83026000D03*
D19*
G04 #@! TO.P,C0.1nF2,1*
G04 #@! TO.N,+3V3*
X113030000Y-81026000D03*
G04 #@! TD*
D18*
G04 #@! TO.P,C0.1nF1,2*
G04 #@! TO.N,+3V3*
X112903000Y-103410000D03*
D19*
G04 #@! TO.P,C0.1nF1,1*
G04 #@! TO.N,GND*
X112903000Y-105410000D03*
G04 #@! TD*
D18*
G04 #@! TO.P,C0.1nF0,2*
G04 #@! TO.N,+3V3*
X144685000Y-119253000D03*
D19*
G04 #@! TO.P,C0.1nF0,1*
G04 #@! TO.N,GND*
X146685000Y-119253000D03*
G04 #@! TD*
D15*
G04 #@! TO.P,+5V_IN1,2*
G04 #@! TO.N,+5V*
X154686000Y-59817000D03*
D16*
G04 #@! TO.P,+5V_IN1,1*
G04 #@! TO.N,GND*
X159766000Y-59817000D03*
G04 #@! TD*
D20*
G04 #@! TO.P,GND1,1*
G04 #@! TO.N,GND*
X167182800Y-59817000D03*
G04 #@! TD*
D15*
G04 #@! TO.P,Solenoid1,6*
G04 #@! TO.N,Net-(FET5-Pad3)*
X181737000Y-109855000D03*
G04 #@! TO.P,Solenoid1,5*
G04 #@! TO.N,+48V*
X181737000Y-114935000D03*
G04 #@! TO.P,Solenoid1,4*
G04 #@! TO.N,Net-(FET4-Pad3)*
X181737000Y-120015000D03*
D16*
G04 #@! TO.P,Solenoid1,1*
G04 #@! TO.N,+48V*
X181737000Y-135255000D03*
D15*
G04 #@! TO.P,Solenoid1,3*
X181737000Y-125095000D03*
G04 #@! TO.P,Solenoid1,2*
G04 #@! TO.N,Net-(FET3-Pad3)*
X181737000Y-130175000D03*
G04 #@! TD*
D21*
G04 #@! TO.P,8b0,16*
G04 #@! TO.N,+3V3*
X112953800Y-100584000D03*
G04 #@! TO.P,8b0,15*
G04 #@! TO.N,GND*
X112953800Y-99314000D03*
G04 #@! TO.P,8b0,14*
G04 #@! TO.N,/INP5_1*
X112953800Y-98044000D03*
G04 #@! TO.P,8b0,13*
G04 #@! TO.N,/INP5_0*
X112953800Y-96774000D03*
G04 #@! TO.P,8b0,12*
G04 #@! TO.N,/INP4_1*
X112953800Y-95504000D03*
G04 #@! TO.P,8b0,11*
G04 #@! TO.N,/INP4_0*
X112953800Y-94234000D03*
G04 #@! TO.P,8b0,10*
G04 #@! TO.N,GND*
X112953800Y-92964000D03*
G04 #@! TO.P,8b0,9*
G04 #@! TO.N,/SHIFT2_OUT*
X112953800Y-91694000D03*
G04 #@! TO.P,8b0,8*
G04 #@! TO.N,GND*
X117678200Y-91694000D03*
G04 #@! TO.P,8b0,7*
G04 #@! TO.N,N/C*
X117678200Y-92964000D03*
G04 #@! TO.P,8b0,6*
X117678200Y-94234000D03*
G04 #@! TO.P,8b0,5*
X117678200Y-95504000D03*
G04 #@! TO.P,8b0,4*
X117678200Y-96774000D03*
G04 #@! TO.P,8b0,3*
X117678200Y-98044000D03*
G04 #@! TO.P,8b0,2*
G04 #@! TO.N,/SCK*
X117678200Y-99314000D03*
G04 #@! TO.P,8b0,1*
G04 #@! TO.N,/A0*
X117678200Y-100584000D03*
G04 #@! TD*
G04 #@! TO.P,8b1,16*
G04 #@! TO.N,+3V3*
X113080800Y-78613000D03*
G04 #@! TO.P,8b1,15*
G04 #@! TO.N,GND*
X113080800Y-77343000D03*
G04 #@! TO.P,8b1,14*
G04 #@! TO.N,/INP1_1*
X113080800Y-76073000D03*
G04 #@! TO.P,8b1,13*
G04 #@! TO.N,/INP1_0*
X113080800Y-74803000D03*
G04 #@! TO.P,8b1,12*
G04 #@! TO.N,/INP0_1*
X113080800Y-73533000D03*
G04 #@! TO.P,8b1,11*
G04 #@! TO.N,/INP0_0*
X113080800Y-72263000D03*
G04 #@! TO.P,8b1,10*
G04 #@! TO.N,/SHIFT2_OUT*
X113080800Y-70993000D03*
G04 #@! TO.P,8b1,9*
G04 #@! TO.N,/MISO*
X113080800Y-69723000D03*
G04 #@! TO.P,8b1,8*
G04 #@! TO.N,GND*
X117805200Y-69723000D03*
G04 #@! TO.P,8b1,7*
G04 #@! TO.N,N/C*
X117805200Y-70993000D03*
G04 #@! TO.P,8b1,6*
G04 #@! TO.N,/INP3_1*
X117805200Y-72263000D03*
G04 #@! TO.P,8b1,5*
G04 #@! TO.N,/INP3_0*
X117805200Y-73533000D03*
G04 #@! TO.P,8b1,4*
G04 #@! TO.N,/INP2_1*
X117805200Y-74803000D03*
G04 #@! TO.P,8b1,3*
G04 #@! TO.N,/INP2_0*
X117805200Y-76073000D03*
G04 #@! TO.P,8b1,2*
G04 #@! TO.N,/SCK*
X117805200Y-77343000D03*
G04 #@! TO.P,8b1,1*
G04 #@! TO.N,/A0*
X117805200Y-78613000D03*
G04 #@! TD*
D22*
G04 #@! TO.P,FET2,3*
G04 #@! TO.N,Net-(FET2-Pad3)*
X172974000Y-78613000D03*
G04 #@! TO.P,FET2,2*
G04 #@! TO.N,Net-(FET2-Pad2)*
X170434000Y-78613000D03*
D23*
G04 #@! TO.P,FET2,1*
G04 #@! TO.N,GND*
X167894000Y-78613000D03*
G04 #@! TD*
D16*
G04 #@! TO.P,INP5,1*
G04 #@! TO.N,/INP5_0*
X97917000Y-129667000D03*
D15*
G04 #@! TO.P,INP5,2*
G04 #@! TO.N,/INP5_1*
X97917000Y-134747000D03*
G04 #@! TD*
D16*
G04 #@! TO.P,INP4,1*
G04 #@! TO.N,/INP4_0*
X97917000Y-117475000D03*
D15*
G04 #@! TO.P,INP4,2*
G04 #@! TO.N,/INP4_1*
X97917000Y-122555000D03*
G04 #@! TD*
G04 #@! TO.P,INP3,2*
G04 #@! TO.N,/INP3_1*
X97917000Y-110363000D03*
D16*
G04 #@! TO.P,INP3,1*
G04 #@! TO.N,/INP3_0*
X97917000Y-105283000D03*
G04 #@! TD*
D15*
G04 #@! TO.P,INP2,2*
G04 #@! TO.N,/INP2_1*
X97917000Y-98171000D03*
D16*
G04 #@! TO.P,INP2,1*
G04 #@! TO.N,/INP2_0*
X97917000Y-93091000D03*
G04 #@! TD*
D15*
G04 #@! TO.P,INP1,2*
G04 #@! TO.N,/INP1_1*
X97917000Y-85471000D03*
D16*
G04 #@! TO.P,INP1,1*
G04 #@! TO.N,/INP1_0*
X97917000Y-80391000D03*
G04 #@! TD*
D15*
G04 #@! TO.P,INP0,2*
G04 #@! TO.N,/INP0_1*
X97917000Y-72771000D03*
D16*
G04 #@! TO.P,INP0,1*
G04 #@! TO.N,/INP0_0*
X97917000Y-67691000D03*
G04 #@! TD*
D24*
G04 #@! TO.P,RS-485,1*
G04 #@! TO.N,/RX0*
X141732000Y-113737652D03*
G04 #@! TO.P,RS-485,2*
G04 #@! TO.N,/A4*
X140462000Y-113737652D03*
G04 #@! TO.P,RS-485,3*
X139192000Y-113737652D03*
G04 #@! TO.P,RS-485,4*
G04 #@! TO.N,/TX1*
X137922000Y-113737652D03*
G04 #@! TO.P,RS-485,5*
G04 #@! TO.N,GND*
X137922000Y-119180348D03*
G04 #@! TO.P,RS-485,6*
G04 #@! TO.N,/RJ45_4*
X139192000Y-119180348D03*
G04 #@! TO.P,RS-485,7*
G04 #@! TO.N,/RJ45_5*
X140462000Y-119180348D03*
G04 #@! TO.P,RS-485,8*
G04 #@! TO.N,+3V3*
X141732000Y-119180348D03*
G04 #@! TD*
D25*
G04 #@! TO.P,Prt_IC1,3*
G04 #@! TO.N,GND*
X127673100Y-116078000D03*
G04 #@! TO.P,Prt_IC1,2*
G04 #@! TO.N,Net-(Prt_IC1-Pad2)*
X125768100Y-117028001D03*
G04 #@! TO.P,Prt_IC1,1*
G04 #@! TO.N,Net-(Prt_IC1-Pad1)*
X125768100Y-115127999D03*
G04 #@! TD*
D22*
G04 #@! TO.P,FET5,3*
G04 #@! TO.N,Net-(FET5-Pad3)*
X172847000Y-109855000D03*
G04 #@! TO.P,FET5,2*
G04 #@! TO.N,Net-(FET5-Pad2)*
X170307000Y-109855000D03*
D23*
G04 #@! TO.P,FET5,1*
G04 #@! TO.N,GND*
X167767000Y-109855000D03*
G04 #@! TD*
D22*
G04 #@! TO.P,FET4,3*
G04 #@! TO.N,Net-(FET4-Pad3)*
X172847000Y-120015000D03*
G04 #@! TO.P,FET4,2*
G04 #@! TO.N,Net-(FET4-Pad2)*
X170307000Y-120015000D03*
D23*
G04 #@! TO.P,FET4,1*
G04 #@! TO.N,GND*
X167767000Y-120015000D03*
G04 #@! TD*
D22*
G04 #@! TO.P,FET3,3*
G04 #@! TO.N,Net-(FET3-Pad3)*
X172847000Y-130175000D03*
G04 #@! TO.P,FET3,2*
G04 #@! TO.N,Net-(FET3-Pad2)*
X170307000Y-130175000D03*
D23*
G04 #@! TO.P,FET3,1*
G04 #@! TO.N,GND*
X167767000Y-130175000D03*
G04 #@! TD*
D22*
G04 #@! TO.P,FET1,3*
G04 #@! TO.N,Net-(FET1-Pad3)*
X172974000Y-88773000D03*
G04 #@! TO.P,FET1,2*
G04 #@! TO.N,Net-(FET1-Pad2)*
X170434000Y-88773000D03*
D23*
G04 #@! TO.P,FET1,1*
G04 #@! TO.N,GND*
X167894000Y-88773000D03*
G04 #@! TD*
D22*
G04 #@! TO.P,FET0,3*
G04 #@! TO.N,Net-(FET0-Pad3)*
X172720000Y-98933000D03*
G04 #@! TO.P,FET0,2*
G04 #@! TO.N,Net-(FET0-Pad2)*
X170180000Y-98933000D03*
D23*
G04 #@! TO.P,FET0,1*
G04 #@! TO.N,GND*
X167640000Y-98933000D03*
G04 #@! TD*
D26*
G04 #@! TO.P,J3,12*
G04 #@! TO.N,N/C*
X145719800Y-109474000D03*
G04 #@! TO.P,J3,11*
X145719800Y-106934000D03*
G04 #@! TO.P,J3,10*
G04 #@! TO.N,/D5*
X145719800Y-104394000D03*
G04 #@! TO.P,J3,9*
G04 #@! TO.N,/D6*
X145719800Y-101854000D03*
G04 #@! TO.P,J3,8*
G04 #@! TO.N,/D9*
X145719800Y-99314000D03*
G04 #@! TO.P,J3,7*
G04 #@! TO.N,/D10*
X145719800Y-96774000D03*
G04 #@! TO.P,J3,6*
G04 #@! TO.N,/D11*
X145719800Y-94234000D03*
G04 #@! TO.P,J3,5*
G04 #@! TO.N,/D12*
X145719800Y-91694000D03*
G04 #@! TO.P,J3,4*
G04 #@! TO.N,N/C*
X145719800Y-89154000D03*
G04 #@! TO.P,J3,3*
G04 #@! TO.N,+5V*
X145719800Y-86614000D03*
G04 #@! TO.P,J3,2*
G04 #@! TO.N,N/C*
X145719800Y-84074000D03*
D20*
G04 #@! TO.P,J3,1*
X145719800Y-81534000D03*
G04 #@! TD*
D26*
G04 #@! TO.P,J2,16*
G04 #@! TO.N,GND*
X125399800Y-109474000D03*
G04 #@! TO.P,J2,15*
G04 #@! TO.N,/TX1*
X125399800Y-106934000D03*
G04 #@! TO.P,J2,14*
G04 #@! TO.N,/RX0*
X125399800Y-104394000D03*
G04 #@! TO.P,J2,13*
G04 #@! TO.N,/MISO*
X125399800Y-101854000D03*
G04 #@! TO.P,J2,12*
G04 #@! TO.N,N/C*
X125399800Y-99314000D03*
G04 #@! TO.P,J2,11*
G04 #@! TO.N,/SCK*
X125399800Y-96774000D03*
G04 #@! TO.P,J2,10*
G04 #@! TO.N,N/C*
X125399800Y-94234000D03*
G04 #@! TO.P,J2,9*
G04 #@! TO.N,/A4*
X125399800Y-91694000D03*
G04 #@! TO.P,J2,8*
G04 #@! TO.N,N/C*
X125399800Y-89154000D03*
G04 #@! TO.P,J2,7*
X125399800Y-86614000D03*
G04 #@! TO.P,J2,6*
X125399800Y-84074000D03*
G04 #@! TO.P,J2,5*
G04 #@! TO.N,/A0*
X125399800Y-81534000D03*
G04 #@! TO.P,J2,4*
G04 #@! TO.N,GND*
X125399800Y-78994000D03*
G04 #@! TO.P,J2,3*
G04 #@! TO.N,N/C*
X125399800Y-76454000D03*
G04 #@! TO.P,J2,2*
G04 #@! TO.N,+3V3*
X125399800Y-73914000D03*
D20*
G04 #@! TO.P,J2,1*
G04 #@! TO.N,N/C*
X125399800Y-71374000D03*
G04 #@! TD*
D27*
G04 #@! TO.N,/INP3_1*
X106781600Y-80441800D03*
X106781600Y-69215000D03*
G04 #@! TO.N,/INP3_0*
X104292400Y-80695800D03*
X122021600Y-64592200D03*
G04 #@! TO.N,/INP2_1*
X117348000Y-88188800D03*
G04 #@! TO.N,/INP2_0*
X118084600Y-85115400D03*
G04 #@! TO.N,GND*
X132054600Y-117119400D03*
X109474000Y-92379800D03*
X118338600Y-89763600D03*
G04 #@! TO.N,/MISO*
X129717800Y-101854000D03*
X115468400Y-67437000D03*
G04 #@! TO.N,/A4*
X134721600Y-111277400D03*
G04 #@! TO.N,/A0*
X117957600Y-80238600D03*
X120116600Y-100584000D03*
G04 #@! TO.N,/RJ45_4*
X136194800Y-125653800D03*
G04 #@! TO.N,/SHIFT2_OUT*
X109296200Y-77343000D03*
X110261400Y-70967600D03*
G04 #@! TD*
D28*
G04 #@! TO.N,/INP5_1*
X111617201Y-98044000D02*
X112953800Y-98044000D01*
X97917000Y-134747000D02*
X100038320Y-134747000D01*
X109372400Y-100288801D02*
X111617201Y-98044000D01*
X100063720Y-134721600D02*
X106553000Y-134721600D01*
X106553000Y-134721600D02*
X109372400Y-131902200D01*
X100038320Y-134747000D02*
X100063720Y-134721600D01*
X109372400Y-131902200D02*
X109372400Y-100288801D01*
G04 #@! TO.N,/INP5_0*
X107746800Y-99796600D02*
X110769400Y-96774000D01*
X107746800Y-126644400D02*
X107746800Y-99796600D01*
X110769400Y-96774000D02*
X112953800Y-96774000D01*
X97917000Y-129667000D02*
X104724200Y-129667000D01*
X104724200Y-129667000D02*
X107746800Y-126644400D01*
G04 #@! TO.N,/INP4_1*
X97917000Y-122555000D02*
X103606600Y-122555000D01*
X103606600Y-122555000D02*
X105943400Y-120218200D01*
X105943400Y-120218200D02*
X105943400Y-99847400D01*
X110286800Y-95504000D02*
X112953800Y-95504000D01*
X105943400Y-99847400D02*
X110286800Y-95504000D01*
G04 #@! TO.N,/INP4_0*
X109778800Y-94234000D02*
X112953800Y-94234000D01*
X104724200Y-114376200D02*
X104724200Y-99288600D01*
X97917000Y-117475000D02*
X101625400Y-117475000D01*
X104724200Y-99288600D02*
X109778800Y-94234000D01*
X101625400Y-117475000D02*
X104724200Y-114376200D01*
G04 #@! TO.N,/INP3_1*
X97917000Y-110363000D02*
X101777800Y-106502200D01*
X101777800Y-106502200D02*
X101777800Y-104749600D01*
X101777800Y-104749600D02*
X103124000Y-103403400D01*
X103124000Y-103403400D02*
X103225600Y-103301800D01*
X103225600Y-103301800D02*
X103225600Y-98120200D01*
X103225600Y-98120200D02*
X106781600Y-94564200D01*
X106781600Y-94564200D02*
X106781600Y-80441800D01*
X106781600Y-80441800D02*
X106781600Y-80441800D01*
X119253000Y-72263000D02*
X117805200Y-72263000D01*
X106781600Y-69215000D02*
X107181599Y-68815001D01*
X107181599Y-68815001D02*
X107181599Y-68738801D01*
X107181599Y-68738801D02*
X110007400Y-65913000D01*
X121158000Y-70358000D02*
X119253000Y-72263000D01*
X121158000Y-66700400D02*
X121158000Y-70358000D01*
X110007400Y-65913000D02*
X120370600Y-65913000D01*
X120370600Y-65913000D02*
X121158000Y-66700400D01*
G04 #@! TO.N,/INP3_0*
X99667000Y-105283000D02*
X101727000Y-103223000D01*
X97917000Y-105283000D02*
X99667000Y-105283000D01*
X101727000Y-103223000D02*
X101727000Y-97459800D01*
X101727000Y-97459800D02*
X100888800Y-96621600D01*
X100888800Y-96621600D02*
X100888800Y-91821000D01*
X100888800Y-91821000D02*
X100507800Y-91440000D01*
X100507800Y-91440000D02*
X100507800Y-88747600D01*
X100507800Y-88747600D02*
X104292400Y-84963000D01*
X104292400Y-84963000D02*
X104292400Y-80695800D01*
X104292400Y-80695800D02*
X104292400Y-80518000D01*
X122021600Y-64592200D02*
X123063000Y-65633600D01*
X123063000Y-65633600D02*
X123063000Y-70561200D01*
X120091200Y-73533000D02*
X117805200Y-73533000D01*
X123063000Y-70561200D02*
X120091200Y-73533000D01*
G04 #@! TO.N,/INP2_1*
X117348000Y-88188800D02*
X121615200Y-83921600D01*
X121615200Y-83921600D02*
X121615200Y-76200000D01*
X120218200Y-74803000D02*
X117805200Y-74803000D01*
X121615200Y-76200000D02*
X120218200Y-74803000D01*
G04 #@! TO.N,/INP2_0*
X118484599Y-84715401D02*
X118484599Y-84690001D01*
X118084600Y-85115400D02*
X118484599Y-84715401D01*
X118484599Y-84690001D02*
X120319800Y-82854800D01*
X120319800Y-82854800D02*
X120319800Y-76885800D01*
X119507000Y-76073000D02*
X117805200Y-76073000D01*
X120319800Y-76885800D02*
X119507000Y-76073000D01*
G04 #@! TO.N,/INP1_1*
X100038320Y-85471000D02*
X101117400Y-84391920D01*
X97917000Y-85471000D02*
X100038320Y-85471000D01*
X101117400Y-84391920D02*
X101117400Y-81762600D01*
X106807000Y-76073000D02*
X113080800Y-76073000D01*
X101117400Y-81762600D02*
X106807000Y-76073000D01*
G04 #@! TO.N,/INP1_0*
X111744201Y-74803000D02*
X113080800Y-74803000D01*
X105255000Y-74803000D02*
X111744201Y-74803000D01*
X99667000Y-80391000D02*
X105255000Y-74803000D01*
X97917000Y-80391000D02*
X99667000Y-80391000D01*
G04 #@! TO.N,/INP0_1*
X97917000Y-72771000D02*
X104419400Y-72771000D01*
X105181400Y-73533000D02*
X113080800Y-73533000D01*
X104419400Y-72771000D02*
X105181400Y-73533000D01*
G04 #@! TO.N,/INP0_0*
X97917000Y-67691000D02*
X101904800Y-67691000D01*
X106476800Y-72263000D02*
X113080800Y-72263000D01*
X101904800Y-67691000D02*
X106476800Y-72263000D01*
G04 #@! TO.N,GND*
X137388000Y-119180348D02*
X135327052Y-117119400D01*
X137922000Y-119180348D02*
X137388000Y-119180348D01*
X135327052Y-117119400D02*
X132054600Y-117119400D01*
X132054600Y-117119400D02*
X132054600Y-117119400D01*
X131013200Y-116078000D02*
X132054600Y-117119400D01*
X127673100Y-116078000D02*
X131013200Y-116078000D01*
X111617201Y-99314000D02*
X110769400Y-100161801D01*
X112953800Y-99314000D02*
X111617201Y-99314000D01*
X112053000Y-105410000D02*
X112903000Y-105410000D01*
X110769400Y-104126400D02*
X112053000Y-105410000D01*
X110769400Y-100161801D02*
X110769400Y-104126400D01*
X112953800Y-92964000D02*
X110058200Y-92964000D01*
X110058200Y-92964000D02*
X109474000Y-92379800D01*
X109474000Y-92379800D02*
X109474000Y-92379800D01*
X117678200Y-91694000D02*
X117678200Y-90424000D01*
X117678200Y-90424000D02*
X118338600Y-89763600D01*
X118338600Y-89763600D02*
X118338600Y-89763600D01*
X111744201Y-77343000D02*
X110718600Y-78368601D01*
X113080800Y-77343000D02*
X111744201Y-77343000D01*
X110718600Y-78368601D02*
X110718600Y-82092800D01*
X111651800Y-83026000D02*
X113030000Y-83026000D01*
X110718600Y-82092800D02*
X111651800Y-83026000D01*
X116468601Y-69723000D02*
X115341400Y-70850201D01*
X117805200Y-69723000D02*
X116468601Y-69723000D01*
X115341400Y-70850201D02*
X115341400Y-76428600D01*
X114427000Y-77343000D02*
X113080800Y-77343000D01*
X115341400Y-76428600D02*
X114427000Y-77343000D01*
G04 #@! TO.N,/TX1*
X132203452Y-113737652D02*
X125399800Y-106934000D01*
X137922000Y-113737652D02*
X132203452Y-113737652D01*
G04 #@! TO.N,/RX0*
X141732000Y-112760203D02*
X138191797Y-109220000D01*
X141732000Y-113737652D02*
X141732000Y-112760203D01*
X130225800Y-109220000D02*
X125399800Y-104394000D01*
X138191797Y-109220000D02*
X130225800Y-109220000D01*
G04 #@! TO.N,/MISO*
X125399800Y-101854000D02*
X126601881Y-101854000D01*
X126601881Y-101854000D02*
X129717800Y-101854000D01*
X129717800Y-101854000D02*
X130048000Y-101854000D01*
X113182400Y-69723000D02*
X113080800Y-69723000D01*
X115468400Y-67437000D02*
X113182400Y-69723000D01*
G04 #@! TO.N,/SCK*
X122859800Y-99314000D02*
X117678200Y-99314000D01*
X125399800Y-96774000D02*
X122859800Y-99314000D01*
X116341601Y-99314000D02*
X115824000Y-98796399D01*
X117678200Y-99314000D02*
X116341601Y-99314000D01*
X115824000Y-77987601D02*
X116468601Y-77343000D01*
X116468601Y-77343000D02*
X117805200Y-77343000D01*
X115824000Y-98796399D02*
X115824000Y-77987601D01*
G04 #@! TO.N,/A4*
X140462000Y-113737652D02*
X139192000Y-113737652D01*
X139192000Y-112760203D02*
X137709197Y-111277400D01*
X139192000Y-113737652D02*
X139192000Y-112760203D01*
X137709197Y-111277400D02*
X134721600Y-111277400D01*
X134721600Y-111277400D02*
X134721600Y-111277400D01*
G04 #@! TO.N,/A0*
X117957600Y-78765400D02*
X117805200Y-78613000D01*
X117957600Y-80238600D02*
X117957600Y-78765400D01*
X120116600Y-100584000D02*
X117678200Y-100584000D01*
G04 #@! TO.N,/D5*
X154127200Y-123430230D02*
X150774400Y-120077430D01*
X154127200Y-124561600D02*
X154127200Y-123430230D01*
X150774400Y-109448600D02*
X145719800Y-104394000D01*
X150774400Y-120077430D02*
X150774400Y-109448600D01*
G04 #@! TO.N,/D6*
X153327201Y-113474601D02*
X153327201Y-107251601D01*
X154127200Y-114274600D02*
X153327201Y-113474601D01*
X147929600Y-101854000D02*
X145719800Y-101854000D01*
X153327201Y-107251601D02*
X147929600Y-101854000D01*
G04 #@! TO.N,/D9*
X153022401Y-103213001D02*
X153022401Y-101689001D01*
X153822400Y-104013000D02*
X153022401Y-103213001D01*
X150647400Y-99314000D02*
X145719800Y-99314000D01*
X153022401Y-101689001D02*
X150647400Y-99314000D01*
G04 #@! TO.N,/D10*
X150596600Y-96774000D02*
X154127200Y-93243400D01*
X145719800Y-96774000D02*
X150596600Y-96774000D01*
G04 #@! TO.N,/D11*
X145719800Y-94234000D02*
X149707600Y-94234000D01*
X154305000Y-89636600D02*
X154305000Y-83007200D01*
X149707600Y-94234000D02*
X154305000Y-89636600D01*
G04 #@! TO.N,/RJ45_4*
X139192000Y-120157797D02*
X139141200Y-120208597D01*
X139192000Y-119180348D02*
X139192000Y-120157797D01*
X139141200Y-120208597D02*
X139141200Y-122707400D01*
X139141200Y-122707400D02*
X136194800Y-125653800D01*
X136194800Y-125653800D02*
X136194800Y-125653800D01*
G04 #@! TO.N,/RJ45_5*
X127914400Y-135407400D02*
X131978400Y-131343400D01*
X115468400Y-135407400D02*
X127914400Y-135407400D01*
X144881600Y-135407400D02*
X148945600Y-131343400D01*
X127914400Y-135407400D02*
X144881600Y-135407400D01*
X140462000Y-130987800D02*
X144881600Y-135407400D01*
X140462000Y-119180348D02*
X140462000Y-130987800D01*
G04 #@! TO.N,/SHIFT2_OUT*
X111617201Y-91694000D02*
X108204000Y-88280799D01*
X112953800Y-91694000D02*
X111617201Y-91694000D01*
X108204000Y-88280799D02*
X108204000Y-84937600D01*
X108204000Y-84937600D02*
X109296200Y-83845400D01*
X109296200Y-83845400D02*
X109296200Y-77343000D01*
X109296200Y-77343000D02*
X109296200Y-77343000D01*
X113055400Y-70967600D02*
X113080800Y-70993000D01*
X110261400Y-70967600D02*
X113055400Y-70967600D01*
D29*
G04 #@! TO.N,+5V*
X153186001Y-61316999D02*
X153033601Y-61316999D01*
X154686000Y-59817000D02*
X153186001Y-61316999D01*
X149352000Y-64998600D02*
X149352000Y-86588600D01*
X153033601Y-61316999D02*
X149352000Y-64998600D01*
X145745200Y-86588600D02*
X145719800Y-86614000D01*
X149352000Y-86588600D02*
X145745200Y-86588600D01*
G04 #@! TO.N,+3V3*
X141804652Y-119253000D02*
X141732000Y-119180348D01*
X144685000Y-119253000D02*
X141804652Y-119253000D01*
X112903000Y-100634800D02*
X112953800Y-100584000D01*
X112903000Y-103410000D02*
X112903000Y-100634800D01*
X113030000Y-78663800D02*
X113080800Y-78613000D01*
X113030000Y-81026000D02*
X113030000Y-78663800D01*
X125399800Y-73914000D02*
X127533400Y-73914000D01*
X129413000Y-72034400D02*
X129413000Y-59436000D01*
X127533400Y-73914000D02*
X129413000Y-72034400D01*
X129413000Y-59436000D02*
X104013000Y-59436000D01*
X129413000Y-72034400D02*
X129413000Y-97993200D01*
X144685000Y-113265200D02*
X144685000Y-119253000D01*
X129413000Y-97993200D02*
X144685000Y-113265200D01*
D30*
G04 #@! TO.N,Net-(FET0-Pad3)*
X181737000Y-98933000D02*
X172720000Y-98933000D01*
D28*
G04 #@! TO.N,Net-(FET0-Pad2)*
X170180000Y-98885500D02*
X170180000Y-98933000D01*
X171382500Y-97683000D02*
X170180000Y-98885500D01*
X171430000Y-97683000D02*
X171382500Y-97683000D01*
X174447200Y-94665800D02*
X171430000Y-97683000D01*
X174447200Y-93243400D02*
X174447200Y-94665800D01*
D30*
G04 #@! TO.N,Net-(FET1-Pad3)*
X181737000Y-88773000D02*
X172974000Y-88773000D01*
D28*
G04 #@! TO.N,Net-(FET1-Pad2)*
X170434000Y-88725500D02*
X170434000Y-88773000D01*
X171636500Y-87523000D02*
X170434000Y-88725500D01*
X171684000Y-87523000D02*
X171636500Y-87523000D01*
X174625000Y-84582000D02*
X171684000Y-87523000D01*
X174625000Y-83007200D02*
X174625000Y-84582000D01*
D30*
G04 #@! TO.N,Net-(FET2-Pad3)*
X181737000Y-78613000D02*
X172974000Y-78613000D01*
D28*
G04 #@! TO.N,Net-(FET2-Pad2)*
X171636500Y-77363000D02*
X170434000Y-78565500D01*
X170434000Y-78565500D02*
X170434000Y-78613000D01*
X171684000Y-77363000D02*
X171636500Y-77363000D01*
X174625000Y-74422000D02*
X171684000Y-77363000D01*
X174625000Y-72542400D02*
X174625000Y-74422000D01*
D30*
G04 #@! TO.N,Net-(FET3-Pad3)*
X181737000Y-130175000D02*
X172847000Y-130175000D01*
D28*
G04 #@! TO.N,Net-(FET3-Pad2)*
X171509500Y-128925000D02*
X170307000Y-130127500D01*
X171557000Y-128925000D02*
X171509500Y-128925000D01*
X170307000Y-130127500D02*
X170307000Y-130175000D01*
X174447200Y-126034800D02*
X171557000Y-128925000D01*
X174447200Y-124561600D02*
X174447200Y-126034800D01*
D30*
G04 #@! TO.N,Net-(FET4-Pad3)*
X181737000Y-120015000D02*
X172847000Y-120015000D01*
D28*
G04 #@! TO.N,Net-(FET4-Pad2)*
X170307000Y-119967500D02*
X170307000Y-120015000D01*
X171557000Y-118765000D02*
X171509500Y-118765000D01*
X171509500Y-118765000D02*
X170307000Y-119967500D01*
X174447200Y-115874800D02*
X171557000Y-118765000D01*
X174447200Y-114274600D02*
X174447200Y-115874800D01*
D30*
G04 #@! TO.N,Net-(FET5-Pad3)*
X181737000Y-109855000D02*
X172847000Y-109855000D01*
D28*
G04 #@! TO.N,Net-(FET5-Pad2)*
X170307000Y-107848400D02*
X170307000Y-109855000D01*
X174142400Y-104013000D02*
X170307000Y-107848400D01*
G04 #@! TO.N,Net-(Prt_IC1-Pad2)*
X120639799Y-117028001D02*
X120599200Y-117068600D01*
X125768100Y-117028001D02*
X120639799Y-117028001D01*
G04 #@! TO.N,Net-(Prt_IC1-Pad1)*
X115508999Y-115127999D02*
X115468400Y-115087400D01*
X125768100Y-115127999D02*
X115508999Y-115127999D01*
G04 #@! TD*
M02*
